<svg width="18" height="18" viewBox="0 0 18 18" fill="none" xmlns="http://www.w3.org/2000/svg">
<path d="M17 14.0836C17 14.3721 16.9359 14.6685 16.7997 14.9569C16.6635 15.2454 16.4872 15.5178 16.2549 15.7742C15.8623 16.2068 15.4296 16.5193 14.9409 16.7196C14.4602 16.9199 13.9394 17.024 13.3786 17.024C12.5613 17.024 11.688 16.8317 10.7666 16.4392C9.84527 16.0466 8.92389 15.5178 8.01052 14.8528C7.08913 14.1798 6.21582 13.4347 5.38257 12.6094C4.55734 11.7762 3.81222 10.9029 3.14722 9.98948C2.49024 9.07611 1.96144 8.16274 1.57687 7.25739C1.19229 6.34402 1 5.47071 1 4.63746C1 4.09264 1.09614 3.57186 1.28843 3.09114C1.48072 2.6024 1.78518 2.15373 2.20981 1.75313C2.72258 1.24837 3.28343 1 3.87631 1C4.10065 1 4.32499 1.04807 4.52529 1.14422C4.7336 1.24036 4.91788 1.38458 5.06209 1.59289L6.92088 4.21282C7.0651 4.41312 7.16925 4.5974 7.24136 4.77366C7.31347 4.94191 7.35353 5.11017 7.35353 5.26239C7.35353 5.45468 7.29745 5.64697 7.18528 5.83125C7.08112 6.01552 6.92889 6.20781 6.7366 6.4001L6.12769 7.03305C6.03956 7.12118 5.9995 7.22534 5.9995 7.35353C5.9995 7.41763 6.00751 7.47371 6.02354 7.53781C6.04757 7.6019 6.07161 7.64997 6.08763 7.69805C6.23185 7.96244 6.48022 8.30696 6.83275 8.72359C7.19329 9.14021 7.57787 9.56485 7.99449 9.98948C8.42714 10.4141 8.84377 10.8067 9.2684 11.1673C9.68503 11.5198 10.0295 11.7601 10.302 11.9044C10.342 11.9204 10.3901 11.9444 10.4462 11.9685C10.5103 11.9925 10.5744 12.0005 10.6465 12.0005C10.7827 12.0005 10.8868 11.9524 10.975 11.8643L11.5839 11.2634C11.7842 11.0631 11.9765 10.9109 12.1607 10.8147C12.345 10.7026 12.5293 10.6465 12.7296 10.6465C12.8818 10.6465 13.0421 10.6785 13.2183 10.7506C13.3946 10.8227 13.5789 10.9269 13.7792 11.0631L16.4311 12.9459C16.6395 13.0901 16.7837 13.2584 16.8718 13.4587C16.9519 13.659 17 13.8593 17 14.0836Z" stroke="white" stroke-width="1.5" stroke-miterlimit="10"/>
<path d="M11.4155 4.18053L13.0179 5.78293L16.2227 2.57812" stroke="white" stroke-width="1.5" stroke-linecap="round" stroke-linejoin="round"/>
</svg>
