<svg width="501" height="561" viewBox="0 0 501 561" fill="none" xmlns="http://www.w3.org/2000/svg">
<path opacity="0.54" d="M361 496.558V95.4423C361 84.7046 351.844 76 340.55 76L161.45 76C150.156 76 141 84.7046 141 95.4423L141 496.558C141 507.295 150.156 516 161.45 516H340.55C351.844 516 361 507.295 361 496.558Z" fill="url(#paint0_linear_480_713)"/>
<g filter="url(#filter0_d_480_713)">
<path d="M361 496.558V95.4423C361 84.7046 351.844 76 340.55 76L161.45 76C150.156 76 141 84.7046 141 95.4423L141 496.558C141 507.295 150.156 516 161.45 516H340.55C351.844 516 361 507.295 361 496.558Z" stroke="url(#paint1_linear_480_713)" shape-rendering="crispEdges"/>
</g>
<path style="mix-blend-mode:screen" opacity="0.55" d="M176 75.5C176 117.197 209.802 151 251.5 151C293.197 151 327 117.197 327 75.5C327 33.8025 293.198 -2.9926e-06 251.5 -6.68416e-06C209.803 -1.03757e-05 176 33.8025 176 75.5Z" fill="url(#paint2_radial_480_713)"/>
<path style="mix-blend-mode:color-dodge" d="M239.922 75.6754C239.922 81.9732 245.027 87.0785 251.325 87.0785C257.622 87.0785 262.728 81.9732 262.728 75.6754C262.728 69.3776 257.622 64.2723 251.325 64.2723C245.027 64.2723 239.922 69.3776 239.922 75.6754Z" fill="url(#paint3_radial_480_713)"/>
<g style="mix-blend-mode:screen">
<path fill-rule="evenodd" clip-rule="evenodd" d="M375.38 211.112H376.94C378.54 211.112 379.837 212.406 379.837 214.001V250.901C379.837 252.496 378.54 253.79 376.94 253.79H375.38C373.78 253.79 372.483 252.496 372.483 250.901V214.001C372.483 212.406 373.78 211.112 375.38 211.112ZM386.293 214.848H388.423C388.766 214.848 389.106 214.915 389.422 215.046C389.739 215.177 390.027 215.368 390.269 215.61C390.512 215.852 390.704 216.139 390.835 216.455C390.966 216.771 391.034 217.109 391.034 217.451V231.627C391.034 232.317 390.759 232.979 390.269 233.468C389.78 233.956 389.116 234.23 388.423 234.23H388.121V246.569H386.596V234.23H386.293C385.95 234.231 385.61 234.164 385.293 234.033C384.976 233.902 384.688 233.711 384.446 233.469C384.203 233.227 384.01 232.94 383.879 232.624C383.748 232.308 383.68 231.969 383.68 231.627V217.451C383.68 217.109 383.748 216.77 383.879 216.454C384.01 216.138 384.203 215.851 384.446 215.609C384.688 215.367 384.976 215.176 385.293 215.045C385.61 214.914 385.95 214.847 386.293 214.848ZM399.315 231.213H399.617C400.309 231.213 400.972 231.487 401.462 231.974C401.952 232.461 402.228 233.122 402.23 233.811V247.984C402.23 248.675 401.955 249.338 401.465 249.827C400.975 250.316 400.31 250.59 399.617 250.59H399.315V256.641H397.793V250.599H397.49C396.797 250.599 396.132 250.324 395.642 249.835C395.152 249.346 394.877 248.683 394.877 247.992V233.82C394.877 233.128 395.152 232.465 395.642 231.976C396.132 231.488 396.797 231.213 397.49 231.213H397.793V225.17H399.315V231.213ZM422.011 245.56H421.709V231.436H420.187V245.56H419.884C419.541 245.559 419.201 245.626 418.884 245.757C418.567 245.888 418.279 246.08 418.036 246.321C417.794 246.563 417.601 246.85 417.47 247.166C417.338 247.483 417.271 247.821 417.271 248.163V262.339C417.271 262.681 417.338 263.02 417.47 263.336C417.601 263.652 417.794 263.939 418.036 264.181C418.279 264.423 418.567 264.614 418.884 264.745C419.201 264.876 419.541 264.943 419.884 264.942H422.011C422.354 264.943 422.694 264.876 423.011 264.745C423.328 264.614 423.616 264.423 423.859 264.181C424.102 263.939 424.294 263.652 424.425 263.336C424.557 263.02 424.624 262.681 424.624 262.339V248.163C424.624 247.821 424.557 247.483 424.425 247.166C424.294 246.85 424.102 246.563 423.859 246.321C423.616 246.08 423.328 245.888 423.011 245.757C422.694 245.626 422.354 245.559 422.011 245.56ZM366.029 252.353H365.727V246.313H364.202V252.353H363.899C363.206 252.353 362.542 252.628 362.051 253.117C361.561 253.606 361.286 254.269 361.286 254.96V269.135C361.286 269.477 361.354 269.816 361.485 270.132C361.616 270.448 361.809 270.736 362.052 270.977C362.294 271.219 362.582 271.411 362.899 271.542C363.216 271.672 363.556 271.739 363.899 271.739H364.202V277.782H365.727V271.739H366.029C366.372 271.739 366.712 271.672 367.028 271.541C367.345 271.41 367.633 271.218 367.875 270.976C368.118 270.735 368.31 270.448 368.441 270.132C368.572 269.816 368.64 269.477 368.64 269.135V254.96C368.64 254.269 368.365 253.607 367.875 253.118C367.386 252.629 366.722 252.354 366.029 252.353ZM486.296 251.88H485.993V245.837H484.468V251.88H484.168C483.475 251.88 482.81 252.155 482.32 252.643C481.83 253.132 481.555 253.795 481.555 254.487V268.659C481.555 269.35 481.83 270.013 482.32 270.502C482.81 270.991 483.475 271.266 484.168 271.266H484.468V277.308H485.993V271.268H486.296C486.989 271.268 487.653 270.994 488.143 270.505C488.633 270.016 488.909 269.353 488.909 268.662V254.489C488.909 254.147 488.842 253.808 488.711 253.491C488.579 253.174 488.387 252.887 488.144 252.644C487.902 252.402 487.613 252.21 487.296 252.079C486.979 251.948 486.639 251.88 486.296 251.88ZM410.814 247.165H408.687C407.994 247.165 407.33 247.439 406.84 247.927C406.35 248.416 406.075 249.078 406.074 249.769V263.944C406.074 264.635 406.349 265.298 406.839 265.787C407.329 266.276 407.994 266.55 408.687 266.55H408.99V278.886H410.512V266.55H410.814C411.507 266.55 412.172 266.276 412.662 265.787C413.152 265.298 413.427 264.635 413.427 263.944V249.774C413.428 249.432 413.36 249.092 413.229 248.776C413.098 248.459 412.906 248.172 412.663 247.929C412.42 247.687 412.132 247.495 411.815 247.364C411.498 247.232 411.158 247.165 410.814 247.165ZM354.53 260.14H354.833C355.176 260.14 355.516 260.208 355.832 260.339C356.149 260.47 356.437 260.662 356.68 260.904C356.922 261.146 357.114 261.433 357.245 261.75C357.376 262.066 357.444 262.405 357.443 262.747V276.919C357.444 277.262 357.376 277.6 357.245 277.917C357.114 278.233 356.922 278.52 356.68 278.762C356.437 279.004 356.149 279.196 355.832 279.327C355.516 279.458 355.176 279.526 354.833 279.526H354.53V285.569H353.005V279.526H352.703C352.01 279.526 351.345 279.251 350.855 278.763C350.365 278.274 350.09 277.611 350.09 276.919V262.747C350.09 262.056 350.365 261.393 350.855 260.904C351.345 260.415 352.01 260.14 352.703 260.14H353.005V254.098H354.53V260.14ZM343.636 266.414H343.333V260.385H341.808V266.428H341.506C340.813 266.428 340.148 266.703 339.658 267.191C339.168 267.68 338.893 268.343 338.893 269.035V283.207C338.893 283.898 339.168 284.561 339.658 285.05C340.148 285.539 340.813 285.814 341.506 285.814H341.808V291.856H343.333V285.814H343.636C343.979 285.814 344.319 285.746 344.635 285.615C344.952 285.484 345.24 285.292 345.483 285.05C345.725 284.808 345.917 284.521 346.048 284.204C346.179 283.888 346.247 283.549 346.246 283.207V269.035C346.248 268.691 346.182 268.351 346.052 268.033C345.922 267.715 345.73 267.426 345.487 267.183C345.245 266.939 344.956 266.746 344.639 266.614C344.321 266.482 343.98 266.414 343.636 266.414ZM432.924 214.344H431.364C429.764 214.344 428.467 215.638 428.467 217.234V254.133C428.467 255.729 429.764 257.022 431.364 257.022H432.924C434.524 257.022 435.821 255.729 435.821 254.133V217.234C435.821 215.638 434.524 214.344 432.924 214.344ZM463.826 217.563H465.386C466.986 217.563 468.282 218.857 468.282 220.452V242.423C468.282 244.018 466.986 245.312 465.386 245.312H463.826C462.226 245.312 460.929 244.018 460.929 242.423V220.452C460.929 218.857 462.226 217.563 463.826 217.563ZM444.405 231.926H442.277C440.834 231.926 439.664 233.093 439.664 234.532V242.064C439.664 243.503 440.834 244.67 442.277 244.67H444.405C445.848 244.67 447.018 243.503 447.018 242.064V234.532C447.018 233.093 445.848 231.926 444.405 231.926ZM452.637 237.784H454.765C456.208 237.784 457.378 238.951 457.378 240.39V247.921C457.378 249.361 456.208 250.528 454.765 250.528H452.637C451.194 250.528 450.024 249.361 450.024 247.921V240.39C450.024 238.951 451.194 237.784 452.637 237.784ZM475.047 244.047H472.919C471.476 244.047 470.306 245.214 470.306 246.653V254.185C470.306 255.624 471.476 256.791 472.919 256.791H475.047C476.49 256.791 477.66 255.624 477.66 254.185V246.653C477.66 245.214 476.49 244.047 475.047 244.047ZM221.163 251.532H219.603C218.003 251.532 216.706 252.825 216.706 254.421V291.32C216.706 292.916 218.003 294.21 219.603 294.21H221.163C222.763 294.21 224.06 292.916 224.06 291.32V254.421C224.06 252.825 222.763 251.532 221.163 251.532ZM232.643 255.265H230.513C229.821 255.265 229.157 255.54 228.667 256.029C228.178 256.518 227.903 257.18 227.903 257.871V272.044C227.903 272.734 228.178 273.397 228.667 273.886C229.157 274.374 229.821 274.649 230.513 274.65H230.816V286.989H232.341V274.65H232.643C233.336 274.65 234.001 274.375 234.491 273.887C234.981 273.398 235.257 272.735 235.257 272.044V257.871C235.257 257.18 234.981 256.517 234.491 256.028C234.001 255.539 233.336 255.265 232.643 255.265ZM243.84 271.633H243.538V265.59H242.013V271.633H241.71C241.018 271.633 240.354 271.907 239.864 272.395C239.375 272.884 239.1 273.546 239.1 274.237V288.409C239.1 289.1 239.375 289.762 239.864 290.25C240.354 290.739 241.018 291.013 241.71 291.013H242.013V297.056H243.538V291.013H243.84C244.184 291.013 244.523 290.946 244.84 290.815C245.157 290.685 245.445 290.493 245.688 290.251C245.931 290.009 246.123 289.722 246.255 289.406C246.386 289.09 246.454 288.751 246.454 288.409V274.234C246.453 273.892 246.385 273.553 246.254 273.238C246.122 272.922 245.93 272.635 245.687 272.393C245.444 272.152 245.156 271.96 244.84 271.83C244.523 271.699 244.183 271.632 243.84 271.633ZM265.931 285.977H266.234C266.927 285.977 267.592 286.251 268.082 286.74C268.572 287.229 268.847 287.892 268.847 288.583V302.756C268.847 303.447 268.572 304.11 268.082 304.599C267.592 305.088 266.927 305.362 266.234 305.362H264.104C263.761 305.362 263.421 305.295 263.104 305.164C262.787 305.033 262.5 304.841 262.257 304.599C262.015 304.357 261.822 304.069 261.691 303.753C261.56 303.437 261.493 303.098 261.494 302.756V288.583C261.493 288.241 261.56 287.902 261.691 287.586C261.822 287.27 262.015 286.982 262.257 286.74C262.5 286.498 262.787 286.306 263.104 286.175C263.421 286.044 263.761 285.977 264.104 285.977H264.407V271.856H265.931V285.977ZM209.947 292.762H210.25C210.943 292.762 211.607 293.037 212.098 293.526C212.588 294.015 212.863 294.678 212.863 295.369V309.541C212.863 310.233 212.588 310.896 212.098 311.385C211.607 311.873 210.943 312.148 210.25 312.148H209.947V318.191H208.422V312.148H208.12C207.427 312.147 206.763 311.872 206.274 311.384C205.784 310.895 205.509 310.232 205.509 309.541V295.369C205.509 294.678 205.784 294.016 206.274 293.527C206.763 293.038 207.427 292.763 208.12 292.762H208.422V286.72H209.947V292.762ZM330.216 292.3H330.519C330.862 292.3 331.202 292.367 331.52 292.499C331.837 292.63 332.125 292.823 332.367 293.065C332.61 293.308 332.802 293.596 332.933 293.913C333.064 294.23 333.13 294.569 333.129 294.912V309.087C333.13 309.429 333.062 309.768 332.931 310.084C332.8 310.4 332.608 310.688 332.366 310.93C332.123 311.172 331.835 311.364 331.518 311.495C331.202 311.626 330.862 311.694 330.519 311.694H330.216V317.734H328.691V311.694H328.389C328.046 311.694 327.706 311.626 327.389 311.495C327.072 311.364 326.784 311.172 326.542 310.93C326.299 310.688 326.107 310.4 325.976 310.084C325.845 309.768 325.778 309.429 325.778 309.087V294.904C325.778 294.562 325.846 294.223 325.977 293.907C326.108 293.591 326.3 293.304 326.543 293.062C326.785 292.821 327.073 292.629 327.39 292.498C327.706 292.367 328.046 292.3 328.389 292.3H328.691V286.257H330.216V292.3ZM252.907 287.593H255.038C255.731 287.593 256.395 287.868 256.885 288.356C257.375 288.845 257.651 289.508 257.651 290.199V304.375C257.651 304.717 257.583 305.056 257.452 305.372C257.32 305.688 257.128 305.975 256.885 306.217C256.642 306.459 256.354 306.65 256.037 306.781C255.72 306.912 255.381 306.979 255.038 306.978H254.735V319.317H253.21V306.978H252.907C252.564 306.979 252.225 306.912 251.908 306.781C251.591 306.65 251.303 306.458 251.061 306.217C250.818 305.975 250.626 305.688 250.495 305.371C250.364 305.055 250.297 304.717 250.297 304.375V290.199C250.297 289.857 250.364 289.518 250.495 289.202C250.626 288.886 250.818 288.599 251.06 288.357C251.303 288.114 251.591 287.922 251.908 287.791C252.225 287.66 252.564 287.593 252.907 287.593ZM199.053 300.56H198.751V294.517H197.229V300.56H196.926C196.583 300.56 196.243 300.627 195.926 300.758C195.609 300.888 195.321 301.08 195.078 301.322C194.836 301.564 194.643 301.851 194.512 302.167C194.38 302.483 194.313 302.822 194.313 303.164V317.339C194.313 317.681 194.38 318.02 194.512 318.336C194.643 318.652 194.836 318.939 195.078 319.181C195.321 319.423 195.609 319.615 195.926 319.746C196.243 319.876 196.583 319.943 196.926 319.943H197.229V325.986H198.751V319.943H199.053C199.396 319.943 199.736 319.876 200.053 319.746C200.37 319.615 200.658 319.423 200.901 319.181C201.144 318.939 201.336 318.652 201.467 318.336C201.599 318.02 201.666 317.681 201.666 317.339V303.164C201.666 302.822 201.599 302.483 201.467 302.167C201.336 301.851 201.144 301.564 200.901 301.322C200.658 301.08 200.37 300.888 200.053 300.758C199.736 300.627 199.396 300.56 199.053 300.56ZM187.554 306.834H187.856C188.2 306.834 188.541 306.901 188.859 307.033C189.176 307.164 189.465 307.357 189.708 307.6C189.95 307.843 190.143 308.131 190.273 308.448C190.404 308.766 190.471 309.106 190.469 309.449V323.624C190.469 323.966 190.402 324.305 190.27 324.621C190.139 324.937 189.946 325.224 189.704 325.466C189.461 325.708 189.173 325.9 188.856 326.03C188.539 326.161 188.199 326.228 187.856 326.228H187.554V332.26H186.031V326.217H185.729C185.386 326.217 185.046 326.15 184.729 326.02C184.412 325.889 184.124 325.697 183.881 325.455C183.639 325.214 183.446 324.926 183.315 324.61C183.183 324.294 183.116 323.955 183.116 323.613V309.438C183.116 309.096 183.183 308.757 183.315 308.441C183.446 308.125 183.639 307.838 183.881 307.596C184.124 307.354 184.412 307.162 184.729 307.032C185.046 306.901 185.386 306.834 185.729 306.834H186.031V300.791H187.554V306.834ZM275.585 254.764H277.145C278.745 254.764 280.042 256.058 280.042 257.654V294.553C280.042 296.149 278.745 297.442 277.145 297.442H275.585C273.985 297.442 272.688 296.149 272.688 294.553V257.654C272.688 256.058 273.985 254.764 275.585 254.764ZM309.606 257.98H308.046C306.446 257.98 305.149 259.274 305.149 260.869V282.84C305.149 284.435 306.446 285.729 308.046 285.729H309.606C311.206 285.729 312.503 284.435 312.503 282.84V260.869C312.503 259.274 311.206 257.98 309.606 257.98ZM286.498 272.346H288.625C290.068 272.346 291.238 273.513 291.238 274.952V282.483C291.238 283.923 290.068 285.09 288.625 285.09H286.498C285.054 285.09 283.884 283.923 283.884 282.483V274.952C283.884 273.513 285.054 272.346 286.498 272.346ZM298.985 278.201H296.857C295.414 278.201 294.244 279.368 294.244 280.807V288.338C294.244 289.778 295.414 290.945 296.857 290.945H298.985C300.428 290.945 301.598 289.778 301.598 288.338V280.807C301.598 279.368 300.428 278.201 298.985 278.201ZM317.14 284.467H319.267C320.71 284.467 321.88 285.634 321.88 287.073V294.604C321.88 296.044 320.71 297.211 319.267 297.211H317.14C315.697 297.211 314.527 296.044 314.527 294.604V287.073C314.527 285.634 315.697 284.467 317.14 284.467ZM66.603 277.969H65.0429C63.443 277.969 62.1461 279.263 62.1461 280.859V317.758C62.1461 319.354 63.443 320.648 65.0429 320.648H66.603C68.2029 320.648 69.4998 319.354 69.4998 317.758V280.859C69.4998 279.263 68.2029 277.969 66.603 277.969ZM78.0833 281.702H75.9558C75.2628 281.702 74.5981 281.977 74.1081 282.466C73.618 282.955 73.3427 283.618 73.3427 284.309V298.476C73.3427 299.167 73.618 299.83 74.1081 300.319C74.5981 300.808 75.2628 301.082 75.9558 301.082H76.2504V313.44H77.7724V301.088H78.0751C78.7682 301.088 79.4328 300.813 79.9229 300.325C80.4129 299.836 80.6882 299.173 80.6882 298.481V284.309C80.6882 283.619 80.414 282.957 79.9258 282.469C79.4375 281.98 78.7749 281.705 78.0833 281.702ZM89.2806 298.068H88.9778V292.028H87.4558V298.068H87.1612C86.4682 298.068 85.8035 298.342 85.3135 298.831C84.8235 299.32 84.5482 299.983 84.5482 300.674V314.85C84.5482 315.192 84.6157 315.531 84.7471 315.847C84.8784 316.163 85.071 316.45 85.3137 316.692C85.5563 316.933 85.8444 317.125 86.1614 317.256C86.4784 317.387 86.8182 317.454 87.1612 317.453H87.464V323.507H88.986V317.464H89.2887C89.6318 317.465 89.9715 317.398 90.2885 317.267C90.6055 317.136 90.8936 316.944 91.1363 316.703C91.379 316.461 91.5715 316.174 91.7028 315.857C91.8342 315.541 91.9018 315.203 91.9018 314.86V300.685C91.9032 300.341 91.8364 300.001 91.7052 299.682C91.5741 299.364 91.3811 299.075 91.1374 298.832C90.8938 298.589 90.6043 298.396 90.2856 298.265C89.9669 298.134 89.6253 298.067 89.2806 298.068ZM111.371 312.414H111.674C112.017 312.414 112.357 312.482 112.674 312.613C112.991 312.744 113.279 312.936 113.522 313.178C113.764 313.42 113.957 313.707 114.088 314.024C114.219 314.34 114.287 314.679 114.287 315.021V329.193C114.287 329.885 114.012 330.548 113.522 331.037C113.032 331.525 112.367 331.8 111.674 331.8H109.546C108.853 331.8 108.189 331.525 107.699 331.037C107.209 330.548 106.933 329.885 106.933 329.193V315.021C106.933 314.33 107.209 313.667 107.699 313.178C108.189 312.689 108.853 312.414 109.546 312.414H109.846V298.294H111.371V312.414ZM55.387 319.211H55.6897C56.3827 319.211 57.0474 319.485 57.5374 319.974C58.0275 320.463 58.3028 321.126 58.3028 321.817V335.99C58.3028 336.681 58.0275 337.344 57.5374 337.833C57.0474 338.322 56.3827 338.596 55.6897 338.596H55.387V344.639H53.865V338.596H53.5622C52.8691 338.596 52.2045 338.322 51.7145 337.833C51.2244 337.344 50.9491 336.681 50.9491 335.99V321.817C50.9491 321.126 51.2244 320.463 51.7145 319.974C52.2045 319.485 52.8691 319.211 53.5622 319.211H53.865V313.168H55.387V319.211ZM175.656 318.738H175.959C176.649 318.738 177.312 319.01 177.802 319.496C178.291 319.982 178.568 320.642 178.572 321.33V335.517C178.572 336.208 178.296 336.871 177.806 337.36C177.316 337.848 176.652 338.123 175.959 338.123H175.656V344.163H174.131V338.123H173.828C173.485 338.123 173.146 338.056 172.829 337.925C172.512 337.794 172.224 337.602 171.982 337.36C171.739 337.117 171.547 336.83 171.416 336.514C171.285 336.198 171.218 335.859 171.218 335.517V321.341C171.218 320.651 171.493 319.989 171.983 319.5C172.472 319.012 173.136 318.738 173.828 318.738H174.131V312.695H175.656V318.738ZM98.344 314.02H100.477C101.169 314.021 101.832 314.296 102.321 314.785C102.81 315.274 103.085 315.936 103.085 316.626V330.801C103.085 331.144 103.017 331.482 102.886 331.798C102.754 332.115 102.562 332.402 102.319 332.644C102.076 332.885 101.788 333.077 101.471 333.208C101.154 333.338 100.815 333.406 100.472 333.405H100.169V345.744H98.6468V333.405H98.344C98.001 333.406 97.6613 333.338 97.3442 333.208C97.0272 333.077 96.7392 332.885 96.4965 332.644C96.2538 332.402 96.0613 332.115 95.9299 331.798C95.7986 331.482 95.731 331.144 95.731 330.801V316.626C95.731 315.935 96.0063 315.272 96.4963 314.783C96.9864 314.294 97.651 314.02 98.344 314.02ZM44.4931 326.998H44.1903V320.955H42.6683V326.998H42.3656C42.0225 326.997 41.6828 327.064 41.3658 327.195C41.0488 327.326 40.7607 327.518 40.518 327.759C40.2754 328.001 40.0828 328.288 39.9515 328.604C39.8201 328.921 39.7525 329.259 39.7525 329.601V343.777C39.7525 344.119 39.8201 344.458 39.9515 344.774C40.0828 345.09 40.2754 345.377 40.518 345.619C40.7607 345.861 41.0488 346.052 41.3658 346.183C41.6828 346.314 42.0225 346.381 42.3656 346.381H42.6683V352.423H44.1903V346.381H44.4931C44.8361 346.381 45.1759 346.314 45.4929 346.183C45.8099 346.052 46.098 345.861 46.3407 345.619C46.5833 345.377 46.7758 345.09 46.9072 344.774C47.0385 344.458 47.1062 344.119 47.1062 343.777V329.601C47.1062 329.259 47.0385 328.921 46.9072 328.604C46.7758 328.288 46.5833 328.001 46.3407 327.759C46.098 327.518 45.8099 327.326 45.4929 327.195C45.1759 327.064 44.8361 326.997 44.4931 326.998ZM32.996 333.272H33.2961C33.6391 333.272 33.9788 333.339 34.2958 333.469C34.6128 333.6 34.9009 333.792 35.1436 334.034C35.3863 334.275 35.5788 334.563 35.7102 334.879C35.8415 335.195 35.9091 335.534 35.9091 335.876V350.051C35.9091 350.393 35.8415 350.732 35.7102 351.048C35.5788 351.364 35.3863 351.651 35.1436 351.893C34.9009 352.135 34.6128 352.327 34.2958 352.457C33.9788 352.588 33.6391 352.655 33.2961 352.655H32.996V358.698H31.4713V352.655H31.1685C30.8255 352.655 30.4858 352.588 30.1688 352.457C29.8517 352.327 29.5637 352.135 29.321 351.893C29.0783 351.651 28.8858 351.364 28.7544 351.048C28.6231 350.732 28.5555 350.393 28.5555 350.051V335.876C28.5555 335.534 28.6231 335.195 28.7544 334.879C28.8858 334.563 29.0783 334.275 29.321 334.034C29.5637 333.792 29.8517 333.6 30.1688 333.469C30.4858 333.339 30.8255 333.272 31.1685 333.272H31.4713V327.229H32.996V333.272ZM121.027 281.202H122.587C124.187 281.202 125.484 282.495 125.484 284.091V320.99C125.484 322.586 124.187 323.88 122.587 323.88H121.027C119.427 323.88 118.13 322.586 118.13 320.99V284.091C118.13 282.495 119.427 281.202 121.027 281.202ZM155.046 284.418H153.486C151.886 284.418 150.589 285.711 150.589 287.307V309.277C150.589 310.873 151.886 312.167 153.486 312.167H155.046C156.646 312.167 157.942 310.873 157.942 309.277V287.307C157.942 285.711 156.646 284.418 155.046 284.418ZM131.937 298.783H134.065C135.508 298.783 136.678 299.95 136.678 301.39V308.921C136.678 310.361 135.508 311.528 134.065 311.528H131.937C130.494 311.528 129.324 310.361 129.324 308.921V301.39C129.324 299.95 130.494 298.783 131.937 298.783ZM144.427 304.639H142.3C140.856 304.639 139.686 305.805 139.686 307.245V314.776C139.686 316.216 140.856 317.383 142.3 317.383H144.427C145.87 317.383 147.04 316.216 147.04 314.776V307.245C147.04 305.805 145.87 304.639 144.427 304.639ZM162.579 310.904H164.707C166.15 310.904 167.32 312.071 167.32 313.511V321.042C167.32 322.482 166.15 323.649 164.707 323.649H162.579C161.136 323.649 159.966 322.482 159.966 321.042V313.511C159.966 312.071 161.136 310.904 162.579 310.904Z" fill="url(#paint4_linear_480_713)"/>
</g>
<g style="mix-blend-mode:screen" opacity="0.3">
<path fill-rule="evenodd" clip-rule="evenodd" d="M374.297 181.004C374.898 180.972 375.491 181.144 375.98 181.494C376.184 181.656 376.346 181.863 376.453 182.1C376.561 182.336 376.611 182.595 376.599 182.854C376.601 183.231 376.476 183.598 376.245 183.896C375.938 184.265 375.549 184.558 375.11 184.753C375.62 184.969 376.078 185.292 376.452 185.7C376.715 186.023 376.856 186.429 376.85 186.845C376.861 187.136 376.807 187.425 376.69 187.691C376.573 187.957 376.398 188.194 376.177 188.383C375.65 188.789 374.995 188.993 374.33 188.957C373.501 188.957 372.864 188.775 372.421 188.412C372.197 188.226 372.02 187.99 371.904 187.723C371.787 187.456 371.736 187.166 371.752 186.875C371.752 185.992 372.298 185.303 373.389 184.807C372.973 184.597 372.613 184.291 372.339 183.915C372.127 183.598 372.016 183.224 372.02 182.843C372.01 182.586 372.062 182.331 372.17 182.098C372.278 181.865 372.439 181.661 372.642 181.502C373.12 181.152 373.705 180.977 374.297 181.004ZM372.622 186.897C372.613 187.085 372.648 187.273 372.725 187.445C372.802 187.617 372.918 187.768 373.064 187.887C373.427 188.143 373.865 188.268 374.308 188.241C374.749 188.268 375.186 188.137 375.538 187.871C375.685 187.746 375.801 187.59 375.878 187.413C375.954 187.237 375.989 187.045 375.98 186.853C375.978 186.681 375.94 186.511 375.869 186.354C375.798 186.197 375.694 186.057 375.566 185.942C375.14 185.591 374.65 185.328 374.123 185.167C373.691 185.33 373.3 185.585 372.977 185.915C372.741 186.187 372.615 186.537 372.622 186.897ZM374.286 181.728C373.913 181.706 373.544 181.819 373.247 182.046C373.124 182.149 373.026 182.279 372.96 182.425C372.895 182.572 372.864 182.732 372.871 182.892C372.864 183.2 372.976 183.499 373.184 183.727C373.517 184.038 373.911 184.276 374.341 184.427C374.744 184.28 375.11 184.047 375.413 183.744C375.621 183.509 375.734 183.205 375.729 182.892C375.736 182.73 375.704 182.57 375.638 182.422C375.571 182.275 375.471 182.145 375.345 182.043C375.041 181.815 374.666 181.699 374.286 181.717V181.728ZM367.723 188.851H362.625V188.094L364.668 186.045C365.106 185.623 365.517 185.174 365.899 184.701C366.082 184.461 366.232 184.197 366.346 183.918C366.445 183.657 366.495 183.38 366.493 183.101C366.503 182.921 366.474 182.74 366.409 182.571C366.344 182.402 366.245 182.248 366.117 182.119C365.975 181.993 365.81 181.896 365.631 181.834C365.451 181.772 365.262 181.746 365.072 181.757C364.761 181.755 364.451 181.809 364.158 181.915C363.81 182.057 363.485 182.251 363.196 182.492L362.726 181.893C363.372 181.327 364.201 181.013 365.061 181.007C365.682 180.969 366.295 181.168 366.774 181.564C366.982 181.753 367.146 181.985 367.253 182.244C367.361 182.504 367.409 182.783 367.396 183.063C367.389 183.577 367.246 184.079 366.981 184.519C366.546 185.19 366.025 185.802 365.432 186.339L363.736 187.996V188.037H367.723V188.851ZM359.35 184.663H361.532V185.395H359.35V187.648H358.611V185.395H356.428V184.663H358.611V182.4H359.35V184.663ZM369.276 187.74C369.157 187.896 369.1 188.09 369.115 188.285C369.105 188.383 369.116 188.482 369.147 188.576C369.177 188.67 369.227 188.757 369.292 188.832C369.413 188.943 369.574 189.003 369.739 188.998C369.828 189.002 369.916 188.987 369.999 188.956C370.082 188.924 370.157 188.875 370.219 188.812C370.343 188.665 370.406 188.476 370.394 188.285C370.409 188.088 370.348 187.893 370.222 187.74C370.159 187.678 370.083 187.629 370 187.598C369.917 187.566 369.828 187.553 369.739 187.558C369.653 187.553 369.567 187.567 369.487 187.598C369.407 187.629 369.335 187.678 369.276 187.74ZM382.254 187.071H383.405L383.418 186.274H382.267V181.072H381.334L377.652 186.304V187.071H381.411V188.85H382.254V187.071ZM381.411 183.7V186.274H378.519L380.944 182.832C381.121 182.562 381.28 182.281 381.422 181.991H381.465C381.429 182.626 381.411 183.196 381.411 183.7Z" fill="#00FFFF"/>
</g>
<g style="mix-blend-mode:screen" opacity="0.3">
<path fill-rule="evenodd" clip-rule="evenodd" d="M462.181 191.076C462.181 192.415 461.97 193.412 461.548 194.069C461.343 194.392 461.055 194.654 460.714 194.829C460.373 195.003 459.991 195.082 459.609 195.059C459.228 195.077 458.85 194.992 458.514 194.813C458.178 194.635 457.897 194.369 457.699 194.044C457.263 193.37 457.045 192.379 457.045 191.073C457.045 189.726 457.256 188.728 457.677 188.08C457.897 187.774 458.187 187.525 458.523 187.354C458.86 187.184 459.232 187.097 459.61 187.101C459.987 187.105 460.358 187.2 460.691 187.377C461.023 187.555 461.308 187.81 461.521 188.121C461.961 188.8 462.181 189.785 462.181 191.076ZM457.942 191.076C457.942 192.202 458.075 193.019 458.34 193.525C458.46 193.758 458.642 193.955 458.867 194.092C459.091 194.229 459.35 194.301 459.613 194.301C459.876 194.301 460.134 194.229 460.359 194.092C460.583 193.955 460.765 193.758 460.885 193.525C461.147 193.004 461.278 192.188 461.278 191.076C461.278 189.964 461.147 189.148 460.885 188.627C460.764 188.395 460.581 188.201 460.357 188.065C460.132 187.929 459.875 187.857 459.613 187.857C459.35 187.857 459.093 187.929 458.869 188.065C458.644 188.201 458.462 188.395 458.34 188.627C458.076 189.133 457.942 189.952 457.942 191.076ZM453.752 190.771H455.934V191.5H453.752V193.753H453.013V191.5H450.831V190.771H453.013V188.505H453.752V190.771ZM463.689 193.851C463.571 194.007 463.514 194.2 463.528 194.395C463.52 194.493 463.531 194.591 463.562 194.684C463.592 194.777 463.641 194.863 463.706 194.937C463.836 195.047 464.002 195.107 464.173 195.103C464.344 195.1 464.508 195.034 464.633 194.918C464.746 194.763 464.808 194.576 464.808 194.384C464.808 194.193 464.746 194.006 464.633 193.851C464.57 193.789 464.495 193.74 464.412 193.709C464.33 193.678 464.241 193.664 464.153 193.669C464.067 193.664 463.981 193.678 463.901 193.71C463.821 193.741 463.749 193.789 463.689 193.851ZM468.711 187.109C469.312 187.076 469.906 187.25 470.394 187.602C470.598 187.763 470.761 187.97 470.868 188.207C470.976 188.444 471.026 188.702 471.013 188.962C471.014 189.34 470.889 189.707 470.658 190.007C470.35 190.374 469.962 190.667 469.523 190.864C470.034 191.078 470.492 191.4 470.865 191.808C471.129 192.131 471.27 192.537 471.264 192.953C471.275 193.244 471.22 193.533 471.103 193.799C470.987 194.065 470.811 194.302 470.59 194.491C470.064 194.899 469.408 195.102 468.743 195.065C467.914 195.065 467.278 194.883 466.834 194.52C466.61 194.335 466.433 194.099 466.317 193.833C466.201 193.566 466.149 193.276 466.166 192.986C466.166 192.099 466.707 191.409 467.789 190.915C467.373 190.705 467.013 190.399 466.739 190.023C466.527 189.707 466.415 189.334 466.419 188.954C466.41 188.697 466.461 188.442 466.57 188.209C466.678 187.976 466.839 187.772 467.041 187.612C467.523 187.257 468.113 187.079 468.711 187.109ZM467.036 193.002C467.026 193.19 467.062 193.378 467.138 193.55C467.215 193.722 467.331 193.874 467.478 193.993C467.839 194.249 468.279 194.374 468.722 194.346C469.163 194.373 469.599 194.242 469.952 193.976C470.098 193.852 470.214 193.696 470.291 193.52C470.368 193.344 470.403 193.153 470.394 192.961C470.392 192.789 470.354 192.618 470.283 192.461C470.211 192.303 470.108 192.163 469.979 192.047C469.554 191.697 469.063 191.433 468.536 191.272C468.103 191.435 467.712 191.691 467.39 192.023C467.154 192.294 467.028 192.643 467.036 193.002ZM468.7 187.833C468.326 187.811 467.957 187.924 467.661 188.151C467.537 188.254 467.44 188.384 467.374 188.531C467.309 188.678 467.278 188.837 467.284 188.997C467.277 189.306 467.389 189.605 467.598 189.833C467.929 190.145 468.323 190.384 468.754 190.532C469.158 190.387 469.524 190.153 469.826 189.849C470.035 189.615 470.148 189.311 470.143 188.997C470.149 188.836 470.118 188.675 470.051 188.527C469.984 188.38 469.884 188.25 469.758 188.148C469.454 187.92 469.08 187.805 468.7 187.822V187.833ZM476.665 193.182H477.818L477.816 192.385H476.665V187.183H475.732L472.049 192.415V193.182H475.822V194.961H476.665V193.182ZM475.824 189.814V192.385H472.944L475.369 188.946C475.545 188.674 475.704 188.393 475.846 188.102H475.879C475.844 188.739 475.824 189.308 475.824 189.814Z" fill="#00FFFF"/>
</g>
<g style="mix-blend-mode:screen">
<path fill-rule="evenodd" clip-rule="evenodd" d="M407.929 298.329C407.929 299.664 407.718 300.662 407.296 301.322C407.079 301.63 406.79 301.881 406.454 302.054C406.119 302.226 405.746 302.315 405.369 302.313C404.991 302.311 404.62 302.218 404.286 302.041C403.952 301.865 403.667 301.611 403.453 301.3C403.016 300.622 402.798 299.631 402.798 298.329C402.798 296.98 403.009 295.982 403.431 295.336C403.65 295.03 403.94 294.781 404.277 294.61C404.613 294.44 404.986 294.353 405.363 294.357C405.741 294.361 406.111 294.455 406.444 294.633C406.777 294.811 407.062 295.066 407.274 295.377C407.711 296.055 407.929 297.039 407.929 298.329ZM403.69 298.329C403.69 299.454 403.823 300.27 404.088 300.778C404.208 301.011 404.39 301.208 404.615 301.345C404.839 301.482 405.098 301.554 405.361 301.554C405.624 301.554 405.882 301.482 406.107 301.345C406.331 301.208 406.513 301.011 406.633 300.778C406.895 300.259 407.026 299.443 407.026 298.329C407.026 297.215 406.895 296.399 406.633 295.88C406.512 295.648 406.329 295.454 406.105 295.318C405.881 295.182 405.623 295.11 405.361 295.11C405.098 295.11 404.841 295.182 404.617 295.318C404.392 295.454 404.21 295.648 404.088 295.88C403.837 296.386 403.701 297.203 403.701 298.329H403.69ZM399.219 299.703V298.887H401.824V299.703H399.219ZM409.453 301.101C409.334 301.257 409.276 301.451 409.292 301.646C409.283 301.744 409.294 301.843 409.325 301.937C409.355 302.031 409.404 302.118 409.469 302.192C409.6 302.303 409.766 302.362 409.937 302.359C410.108 302.355 410.271 302.289 410.397 302.173C410.521 302.026 410.583 301.837 410.571 301.646C410.58 301.548 410.569 301.449 410.539 301.356C410.509 301.263 410.461 301.176 410.397 301.101C410.335 301.038 410.26 300.989 410.177 300.957C410.094 300.925 410.005 300.911 409.917 300.916C409.831 300.912 409.744 300.926 409.664 300.957C409.584 300.989 409.512 301.039 409.453 301.101ZM415.165 302.206H414.306V296.694C414.306 296.234 414.306 295.801 414.347 295.391C414.273 295.464 414.191 295.543 414.098 295.625C414.006 295.706 413.586 296.049 412.835 296.656L412.369 296.052L414.423 294.471H415.165V302.206ZM422.619 301.322C423.043 300.662 423.255 299.664 423.255 298.329C423.255 297.039 423.037 296.055 422.6 295.377C422.387 295.066 422.102 294.811 421.769 294.633C421.437 294.456 421.066 294.361 420.688 294.357C420.31 294.353 419.938 294.44 419.601 294.61C419.264 294.781 418.974 295.03 418.754 295.336C418.334 295.982 418.124 296.98 418.124 298.329C418.124 299.631 418.342 300.622 418.776 301.3C418.99 301.611 419.276 301.865 419.61 302.041C419.943 302.218 420.315 302.311 420.692 302.313C421.07 302.315 421.442 302.226 421.778 302.054C422.113 301.881 422.402 301.63 422.619 301.322ZM419.415 300.778C419.147 300.272 419.016 299.453 419.016 298.329C419.016 297.203 419.147 296.386 419.415 295.88C419.535 295.648 419.718 295.454 419.942 295.318C420.166 295.182 420.423 295.11 420.686 295.11C420.948 295.11 421.205 295.182 421.429 295.318C421.653 295.454 421.836 295.648 421.957 295.88C422.218 296.399 422.35 297.215 422.352 298.329C422.354 299.443 422.222 300.259 421.957 300.778C421.837 301.012 421.655 301.208 421.431 301.345C421.207 301.482 420.949 301.555 420.686 301.555C420.422 301.555 420.165 301.482 419.94 301.345C419.716 301.208 419.534 301.012 419.415 300.778Z" fill="#00FFFF" fill-opacity="0.4"/>
</g>
<g style="mix-blend-mode:screen" opacity="0.3">
<path fill-rule="evenodd" clip-rule="evenodd" d="M11.3334 317.339C11.3334 318.674 11.1225 319.672 10.7006 320.332C10.4827 320.639 10.1936 320.89 9.85796 321.062C9.52229 321.234 9.14993 321.322 8.77258 321.32C8.39523 321.317 8.02404 321.224 7.69059 321.048C7.35714 320.872 7.07131 320.618 6.85739 320.308C6.42279 319.633 6.20548 318.642 6.20548 317.336C6.20548 315.991 6.41551 314.993 6.83556 314.344C7.05458 314.037 7.34476 313.787 7.68137 313.617C8.01797 313.446 8.39098 313.359 8.76857 313.363C9.14615 313.368 9.51709 313.463 9.84972 313.641C10.1824 313.82 10.4668 314.075 10.6788 314.387C11.1206 315.073 11.3334 316.047 11.3334 317.339ZM7.0974 317.339C7.0974 318.466 7.22924 319.282 7.49291 319.788C7.61278 320.022 7.79503 320.218 8.01955 320.355C8.24408 320.492 8.50216 320.564 8.76535 320.564C9.02855 320.564 9.28663 320.492 9.51115 320.355C9.73567 320.218 9.91791 320.022 10.0378 319.788C10.3105 319.268 10.4333 318.452 10.4333 317.339C10.4333 316.226 10.2996 315.413 10.0378 314.89C9.91655 314.658 9.73382 314.464 9.50947 314.328C9.28512 314.192 9.02775 314.12 8.76535 314.12C8.50295 314.12 8.24557 314.192 8.02122 314.328C7.79687 314.464 7.61414 314.658 7.49291 314.89C7.23106 315.398 7.10013 316.215 7.10013 317.339H7.0974ZM2.91855 317.032H5.10064V317.764H2.91855V320.016H2.18209V317.764H0V317.032H2.18209V314.768H2.91855V317.032ZM12.8608 320.112C12.74 320.266 12.6816 320.46 12.6972 320.656C12.6875 320.755 12.6986 320.855 12.7296 320.949C12.7605 321.044 12.8108 321.131 12.8772 321.205C13.0069 321.316 13.1727 321.375 13.3432 321.371C13.5136 321.368 13.6769 321.302 13.8019 321.186C13.927 321.039 13.9896 320.849 13.9764 320.656C13.9923 320.459 13.9306 320.264 13.8046 320.112C13.7421 320.049 13.667 320 13.5842 319.969C13.5015 319.938 13.4129 319.924 13.3245 319.929C13.2385 319.924 13.1523 319.937 13.0721 319.968C12.9919 320 12.9197 320.049 12.8608 320.112ZM20.397 321.219H15.2991V320.46L17.3421 318.414C17.7789 317.991 18.1897 317.542 18.5722 317.07C18.7542 316.829 18.9046 316.565 19.0196 316.286C19.1188 316.026 19.1687 315.749 19.1668 315.47C19.1761 315.289 19.1474 315.108 19.0826 314.939C19.0178 314.77 18.9183 314.616 18.7904 314.488C18.6488 314.362 18.4836 314.265 18.3043 314.203C18.125 314.141 17.9352 314.115 17.7458 314.126C17.4333 314.124 17.123 314.177 16.8293 314.284C16.481 314.427 16.1564 314.621 15.8664 314.861L15.4 314.262C16.0455 313.695 16.8746 313.379 17.7348 313.372C18.3564 313.336 18.9687 313.536 19.4478 313.933C19.6557 314.122 19.8193 314.354 19.9268 314.613C20.0343 314.872 20.0831 315.152 20.0697 315.432C20.0625 315.945 19.9195 316.447 19.6551 316.888C19.219 317.558 18.6983 318.17 18.1058 318.708L16.4092 320.362V320.406H20.397V321.219ZM26.0189 320.332C26.4408 319.672 26.6517 318.674 26.6517 317.339C26.6517 316.048 26.4317 315.064 25.9916 314.387C25.7797 314.075 25.4952 313.82 25.1626 313.641C24.83 313.463 24.459 313.368 24.0814 313.363C23.7038 313.359 23.3308 313.446 22.9942 313.617C22.6576 313.787 22.3674 314.037 22.1484 314.344C21.7284 314.993 21.5183 315.991 21.5183 317.336C21.5165 318.642 21.7338 319.633 22.1702 320.308C22.3683 320.631 22.6501 320.896 22.986 321.074C23.3219 321.252 23.6996 321.337 24.0796 321.32C24.4618 321.343 24.8432 321.263 25.1843 321.09C25.5253 320.916 25.8135 320.654 26.0189 320.332ZM22.8112 319.788C22.5457 319.282 22.413 318.466 22.413 317.339C22.4148 316.215 22.5476 315.398 22.8112 314.89C22.9325 314.658 23.1152 314.464 23.3395 314.328C23.5639 314.192 23.8213 314.12 24.0837 314.12C24.3461 314.12 24.6034 314.192 24.8278 314.328C25.0521 314.464 25.2349 314.658 25.3561 314.89C25.6179 315.413 25.7516 316.226 25.7516 317.339C25.7516 318.452 25.6288 319.268 25.3561 319.788C25.2362 320.022 25.054 320.218 24.8295 320.355C24.6049 320.492 24.3469 320.564 24.0837 320.564C23.8205 320.564 23.5624 320.492 23.3379 320.355C23.1133 320.218 22.9311 320.022 22.8112 319.788Z" fill="#00FFFF"/>
</g>
<g style="mix-blend-mode:screen">
<path fill-rule="evenodd" clip-rule="evenodd" d="M336.193 233.819C336.793 233.788 337.387 233.962 337.875 234.312C338.079 234.474 338.241 234.682 338.349 234.918C338.456 235.154 338.506 235.413 338.495 235.672C338.497 236.049 338.372 236.416 338.14 236.714C337.833 237.083 337.445 237.377 337.005 237.571C337.515 237.786 337.973 238.108 338.347 238.516C338.61 238.839 338.751 239.245 338.746 239.661C338.757 239.951 338.702 240.24 338.586 240.507C338.469 240.773 338.293 241.009 338.072 241.198C337.546 241.606 336.89 241.81 336.225 241.772C335.396 241.772 334.76 241.591 334.316 241.228C334.092 241.042 333.915 240.806 333.799 240.539C333.683 240.272 333.631 239.981 333.648 239.691C333.648 238.808 334.193 238.118 335.284 237.623C334.869 237.412 334.509 237.106 334.234 236.731C334.023 236.413 333.911 236.04 333.915 235.659C333.906 235.402 333.957 235.147 334.065 234.914C334.173 234.681 334.335 234.476 334.537 234.317C335.016 233.968 335.6 233.792 336.193 233.819ZM334.518 239.715C334.509 239.903 334.544 240.091 334.62 240.263C334.697 240.435 334.813 240.587 334.96 240.706C335.322 240.961 335.761 241.086 336.203 241.059C336.644 241.085 337.08 240.954 337.434 240.689C337.58 240.565 337.696 240.408 337.773 240.232C337.85 240.055 337.885 239.864 337.875 239.672C337.874 239.5 337.836 239.329 337.764 239.173C337.693 239.016 337.59 238.875 337.461 238.76C337.036 238.41 336.545 238.146 336.018 237.985C335.586 238.148 335.195 238.403 334.872 238.733C334.637 239.003 334.51 239.35 334.515 239.707L334.518 239.715ZM336.182 234.546C335.808 234.524 335.439 234.637 335.142 234.864C335.019 234.967 334.921 235.097 334.855 235.244C334.79 235.39 334.76 235.55 334.766 235.71C334.76 236.019 334.872 236.317 335.08 236.546C335.412 236.856 335.806 237.095 336.236 237.245C336.64 237.099 337.006 236.866 337.308 236.562C337.516 236.327 337.629 236.024 337.625 235.71C337.631 235.549 337.6 235.388 337.533 235.241C337.466 235.093 337.366 234.963 337.24 234.861C336.939 234.637 336.569 234.522 336.193 234.538L336.182 234.546ZM329.66 237.803C329.66 239.139 329.449 240.137 329.027 240.795C328.821 241.118 328.533 241.38 328.192 241.553C327.851 241.727 327.47 241.806 327.087 241.783C326.708 241.801 326.33 241.716 325.994 241.538C325.658 241.36 325.376 241.095 325.178 240.771C324.742 240.096 324.523 239.106 324.523 237.8C324.523 236.454 324.734 235.456 325.156 234.807C325.375 234.5 325.665 234.251 326.002 234.08C326.339 233.909 326.712 233.822 327.089 233.827C327.467 233.831 327.838 233.926 328.17 234.105C328.503 234.283 328.788 234.539 328.999 234.851C329.44 235.518 329.66 236.502 329.66 237.803ZM325.421 237.803C325.421 238.926 325.555 239.748 325.819 240.251C325.939 240.485 326.121 240.681 326.346 240.818C326.57 240.955 326.828 241.028 327.092 241.028C327.355 241.028 327.613 240.955 327.837 240.818C328.062 240.681 328.244 240.485 328.364 240.251C328.626 239.733 328.757 238.916 328.757 237.803C328.757 236.693 328.626 235.876 328.364 235.354C328.243 235.122 328.06 234.927 327.836 234.792C327.611 234.656 327.354 234.584 327.092 234.584C326.829 234.584 326.572 234.656 326.347 234.792C326.123 234.927 325.94 235.122 325.819 235.354C325.555 235.853 325.423 236.669 325.421 237.803ZM321.242 237.482H323.424V238.214H321.242V240.466H320.503V238.214H318.321V237.482H320.503V235.218H321.242V237.482ZM331.171 240.561C331.052 240.717 330.995 240.911 331.01 241.106C331.002 241.203 331.014 241.302 331.045 241.395C331.076 241.488 331.125 241.573 331.19 241.647C331.313 241.758 331.474 241.818 331.64 241.813C331.728 241.817 331.816 241.803 331.898 241.771C331.98 241.739 332.055 241.69 332.117 241.628C332.23 241.473 332.291 241.286 332.291 241.095C332.291 240.903 332.23 240.717 332.117 240.561C332.055 240.499 331.98 240.451 331.897 240.419C331.814 240.388 331.726 240.374 331.637 240.379C331.551 240.374 331.464 240.387 331.384 240.419C331.303 240.45 331.231 240.499 331.171 240.561ZM344.045 234.742L340.829 241.669L341.806 241.663L344.978 234.63V233.925H339.817V234.742H344.045Z" fill="#00FFFF"/>
</g>
<g style="mix-blend-mode:screen" opacity="0.3">
<path fill-rule="evenodd" clip-rule="evenodd" d="M65.7926 255.798C66.3936 255.765 66.9877 255.939 67.4755 256.29C67.6798 256.452 67.8426 256.659 67.9503 256.896C68.058 257.132 68.1075 257.391 68.0947 257.651C68.0961 258.028 67.9714 258.395 67.7401 258.693C67.4317 259.06 67.0437 259.353 66.6054 259.55C67.1161 259.764 67.574 260.086 67.9474 260.494C68.2103 260.818 68.3512 261.223 68.3456 261.639C68.3568 261.93 68.302 262.219 68.1853 262.485C68.0687 262.751 67.8932 262.988 67.6719 263.177C67.1465 263.585 66.4903 263.789 65.8253 263.751C65.007 263.751 64.3606 263.571 63.916 263.207C63.692 263.02 63.5149 262.784 63.3989 262.517C63.2828 262.25 63.2311 261.96 63.2477 261.669C63.2477 260.782 63.7932 260.092 64.8843 259.599C64.4698 259.388 64.1103 259.083 63.8341 258.709C63.6226 258.392 63.5115 258.018 63.515 257.637C63.5059 257.38 63.5577 257.125 63.6663 256.892C63.7748 256.659 63.937 256.455 64.1396 256.296C64.6166 255.945 65.2005 255.769 65.7926 255.798ZM64.1178 261.694C64.1086 261.882 64.1438 262.069 64.2206 262.24C64.2973 262.412 64.4135 262.563 64.5597 262.681C64.9211 262.939 65.3602 263.065 65.8035 263.038C66.245 263.065 66.6816 262.932 67.0336 262.665C67.1803 262.541 67.2965 262.385 67.3731 262.209C67.4497 262.033 67.4847 261.842 67.4755 261.65C67.4738 261.478 67.4361 261.308 67.3647 261.151C67.2933 260.994 67.1898 260.854 67.0609 260.739C66.6357 260.388 66.1454 260.125 65.618 259.963C65.1854 260.125 64.7942 260.381 64.4724 260.712C64.2358 260.984 64.1094 261.334 64.1178 261.694ZM65.7817 256.524C65.4086 256.503 65.0402 256.615 64.7425 256.84C64.6194 256.943 64.5215 257.073 64.4563 257.22C64.391 257.366 64.3602 257.526 64.366 257.686C64.3592 257.995 64.4715 258.295 64.6797 258.524C65.0124 258.834 65.4063 259.071 65.8362 259.221C66.2406 259.076 66.6077 258.844 66.9109 258.54C67.1176 258.304 67.2293 258 67.2246 257.686C67.2317 257.525 67.2007 257.363 67.1338 257.216C67.067 257.069 66.9664 256.939 66.84 256.837C66.5362 256.609 66.1616 256.494 65.7817 256.514V256.524ZM59.2629 259.768C59.2629 261.103 59.052 262.1 58.6301 262.76C58.4129 263.069 58.1241 263.32 57.7885 263.492C57.4529 263.665 57.0804 263.754 56.7028 263.752C56.3253 263.749 55.9538 263.656 55.6202 263.48C55.2865 263.304 55.0007 263.049 54.7869 262.739C54.3505 262.06 54.1332 261.07 54.135 259.768C54.135 258.418 54.345 257.421 54.7651 256.775C54.9841 256.468 55.2743 256.219 55.6109 256.048C55.9475 255.877 56.3205 255.79 56.6981 255.794C57.0757 255.799 57.4466 255.894 57.7793 256.072C58.1119 256.251 58.3963 256.507 58.6083 256.818C59.0447 257.493 59.2629 258.476 59.2629 259.768ZM55.0242 259.768C55.0242 260.892 55.157 261.708 55.4225 262.216C55.5423 262.45 55.7246 262.646 55.9491 262.783C56.1736 262.92 56.4317 262.993 56.6949 262.993C56.9581 262.993 57.2162 262.92 57.4407 262.783C57.6652 262.646 57.8474 262.45 57.9673 262.216C58.2401 261.697 58.3628 260.88 58.3628 259.768C58.3628 258.655 58.2292 257.841 57.9673 257.319C57.8461 257.087 57.6634 256.892 57.439 256.757C57.2147 256.621 56.9573 256.549 56.6949 256.549C56.4325 256.549 56.1751 256.621 55.9508 256.757C55.7264 256.892 55.5437 257.087 55.4225 257.319C55.1579 257.825 55.0242 258.641 55.0242 259.768ZM50.8454 259.46H53.0275V260.189H50.8454V262.445H50.1089V260.189H47.9268V259.46H50.1089V257.194H50.8454V259.46ZM60.774 262.54C60.6524 262.694 60.5939 262.889 60.6104 263.084C60.6026 263.181 60.6145 263.279 60.6454 263.372C60.6763 263.464 60.7256 263.55 60.7904 263.623C60.9124 263.736 61.074 263.796 61.2404 263.792C61.3286 263.796 61.4166 263.782 61.4989 263.75C61.5811 263.718 61.6557 263.669 61.7178 263.607C61.8304 263.452 61.8911 263.265 61.8911 263.073C61.8911 262.882 61.8304 262.695 61.7178 262.54C61.6553 262.477 61.5802 262.429 61.4974 262.397C61.4146 262.366 61.3261 262.352 61.2377 262.358C61.1517 262.352 61.0655 262.365 60.9853 262.397C60.9051 262.428 60.8329 262.477 60.774 262.54ZM73.7518 261.868H74.9029V261.074H73.7518V255.872H72.8162L69.1367 261.106V261.874H72.9062V263.65H73.7518V261.868ZM72.9062 258.497V261.068H70.015L72.4398 257.629C72.6162 257.359 72.7757 257.078 72.9172 256.788H72.9608C72.9244 257.421 72.9062 257.991 72.9062 258.497Z" fill="#00FFFF"/>
</g>
<g style="mix-blend-mode:screen">
<path fill-rule="evenodd" clip-rule="evenodd" d="M232.998 226.272C232.509 225.923 231.916 225.75 231.315 225.782C230.718 225.752 230.129 225.928 229.646 226.28C229.444 226.439 229.282 226.644 229.174 226.877C229.066 227.11 229.015 227.365 229.024 227.622C229.02 228.003 229.131 228.376 229.343 228.693C229.618 229.069 229.978 229.375 230.393 229.586C229.312 230.081 228.771 230.77 228.771 231.654C228.754 231.944 228.806 232.234 228.922 232.501C229.038 232.768 229.215 233.005 229.439 233.191C229.883 233.554 230.519 233.735 231.348 233.735C232.013 233.772 232.669 233.568 233.195 233.161C233.416 232.972 233.592 232.736 233.708 232.469C233.825 232.203 233.88 231.914 233.868 231.624C233.874 231.207 233.734 230.802 233.47 230.478C233.096 230.07 232.639 229.747 232.128 229.531C232.568 229.337 232.956 229.044 233.263 228.674C233.495 228.376 233.619 228.01 233.618 227.632C233.629 227.373 233.579 227.115 233.471 226.878C233.364 226.642 233.202 226.434 232.998 226.272ZM229.743 232.223C229.666 232.051 229.631 231.864 229.641 231.675C229.633 231.316 229.759 230.966 229.995 230.693C230.318 230.363 230.709 230.108 231.141 229.945C231.668 230.106 232.159 230.37 232.584 230.72C232.713 230.836 232.816 230.977 232.888 231.134C232.959 231.291 232.997 231.462 232.998 231.635C233.007 231.826 232.972 232.017 232.896 232.193C232.819 232.369 232.703 232.525 232.556 232.649C232.204 232.915 231.768 233.047 231.326 233.019C230.883 233.047 230.444 232.923 230.083 232.666C229.936 232.547 229.82 232.395 229.743 232.223ZM230.265 226.824C230.562 226.597 230.931 226.484 231.304 226.506V226.495C231.685 226.478 232.059 226.593 232.363 226.822C232.489 226.923 232.589 227.053 232.656 227.201C232.723 227.348 232.754 227.509 232.747 227.67C232.753 227.984 232.64 228.288 232.431 228.522C232.129 228.827 231.763 229.06 231.359 229.205C230.928 229.056 230.534 228.818 230.203 228.506C229.995 228.278 229.882 227.979 229.889 227.67C229.883 227.51 229.913 227.35 229.979 227.204C230.044 227.057 230.142 226.927 230.265 226.824ZM218.531 233.629H213.433V232.873L215.476 230.824C215.912 230.4 216.323 229.951 216.706 229.48C216.89 229.24 217.039 228.976 217.151 228.696C217.252 228.436 217.303 228.159 217.301 227.88C217.31 227.699 217.281 227.518 217.216 227.349C217.152 227.18 217.052 227.026 216.924 226.898C216.783 226.772 216.617 226.675 216.438 226.613C216.259 226.551 216.069 226.525 215.88 226.536C215.567 226.534 215.257 226.587 214.963 226.694C214.615 226.836 214.29 227.03 214 227.27L213.534 226.672C214.18 226.107 215.009 225.792 215.869 225.785C216.488 225.744 217.1 225.938 217.582 226.329C217.789 226.518 217.952 226.751 218.059 227.01C218.166 227.269 218.215 227.548 218.201 227.828C218.195 228.341 218.053 228.844 217.789 229.284C217.353 229.954 216.832 230.566 216.24 231.104L214.543 232.761V232.802H218.531V233.629ZM210.154 229.442H212.336V230.184H210.154V232.437H209.418V230.184H207.236V229.453H209.418V227.192H210.154V229.442ZM220.083 232.524C219.963 232.68 219.906 232.874 219.922 233.069C219.912 233.167 219.923 233.266 219.954 233.36C219.984 233.455 220.034 233.541 220.099 233.615C220.229 233.726 220.395 233.785 220.565 233.781C220.736 233.778 220.899 233.712 221.024 233.596C221.149 233.45 221.212 233.261 221.199 233.069C221.214 232.872 221.153 232.677 221.027 232.524C220.964 232.462 220.889 232.413 220.806 232.382C220.724 232.35 220.635 232.337 220.547 232.342C220.461 232.336 220.375 232.35 220.294 232.381C220.214 232.413 220.142 232.462 220.083 232.524ZM227.633 229.194C227.633 232.22 226.459 233.733 224.112 233.735C223.783 233.745 223.454 233.709 223.135 233.629V232.873C223.448 232.967 223.774 233.013 224.101 233.009C224.95 233.009 225.586 232.747 226.01 232.222C226.444 231.7 226.678 230.897 226.719 229.814H226.654C226.462 230.104 226.194 230.335 225.879 230.484C225.538 230.641 225.164 230.719 224.788 230.712C224.488 230.728 224.187 230.682 223.906 230.577C223.624 230.471 223.367 230.309 223.152 230.1C222.941 229.869 222.779 229.598 222.675 229.303C222.571 229.008 222.527 228.695 222.546 228.383C222.527 228.037 222.578 227.691 222.694 227.364C222.81 227.037 222.989 226.736 223.223 226.479C223.643 226.088 224.181 225.847 224.753 225.794C225.325 225.741 225.899 225.878 226.384 226.185C226.798 226.48 227.115 226.891 227.295 227.366C227.525 227.948 227.64 228.569 227.633 229.194ZM225.025 226.533C224.806 226.52 224.586 226.557 224.383 226.641C224.179 226.726 223.998 226.855 223.853 227.02C223.555 227.409 223.407 227.892 223.438 228.381C223.414 228.813 223.55 229.239 223.82 229.578C223.969 229.732 224.151 229.851 224.352 229.926C224.553 230.002 224.768 230.033 224.982 230.016C225.289 230.018 225.593 229.951 225.871 229.82C226.128 229.698 226.349 229.51 226.509 229.276C226.659 229.07 226.741 228.823 226.744 228.568C226.747 228.214 226.672 227.863 226.526 227.54C226.395 227.242 226.184 226.986 225.917 226.8C225.655 226.62 225.343 226.527 225.025 226.533Z" fill="#00FFFF"/>
</g>
<g style="mix-blend-mode:screen" opacity="0.3">
<path fill-rule="evenodd" clip-rule="evenodd" d="M100.704 282.097C100.704 283.436 100.493 284.433 100.071 285.09C99.8655 285.412 99.5774 285.675 99.2364 285.849C98.8954 286.023 98.5139 286.103 98.1314 286.08C97.7512 286.097 97.3735 286.012 97.0376 285.833C96.7017 285.655 96.4201 285.39 96.2221 285.065C95.7857 284.391 95.5675 283.4 95.5675 282.094C95.5675 280.747 95.7784 279.749 96.2003 279.101C96.4195 278.795 96.7096 278.546 97.046 278.375C97.3825 278.205 97.7552 278.118 98.1326 278.122C98.5099 278.126 98.8807 278.221 99.2134 278.398C99.5462 278.576 99.8309 278.831 100.043 279.142C100.484 279.821 100.704 280.805 100.704 282.097ZM96.4649 282.097C96.4649 283.223 96.5976 284.04 96.8631 284.546C96.9825 284.779 97.1645 284.976 97.3888 285.113C97.6131 285.25 97.8711 285.323 98.1342 285.323C98.3972 285.323 98.6552 285.25 98.8795 285.113C99.1038 284.976 99.2858 284.779 99.4052 284.546C99.678 284.023 99.8007 283.21 99.8007 282.097C99.8007 280.984 99.6698 280.173 99.4052 279.648C99.2844 279.416 99.102 279.221 98.8779 279.085C98.6537 278.95 98.3964 278.878 98.1342 278.878C97.8719 278.878 97.6146 278.95 97.3905 279.085C97.1663 279.221 96.9839 279.416 96.8631 279.648C96.5985 280.154 96.4649 280.973 96.4649 282.097ZM91.9833 283.474V282.658H94.5881V283.474H91.9833ZM102.212 284.872C102.093 285.028 102.036 285.221 102.051 285.416C102.042 285.515 102.053 285.614 102.083 285.708C102.114 285.802 102.163 285.889 102.228 285.963C102.35 286.075 102.51 286.135 102.676 286.129C102.764 286.134 102.852 286.121 102.934 286.089C103.017 286.057 103.091 286.007 103.153 285.944C103.279 285.798 103.342 285.609 103.33 285.416C103.346 285.219 103.283 285.024 103.156 284.872C103.093 284.81 103.018 284.761 102.935 284.73C102.852 284.699 102.764 284.685 102.676 284.69C102.59 284.685 102.504 284.699 102.424 284.73C102.344 284.762 102.271 284.81 102.212 284.872ZM109.473 280.062C109.49 280.503 109.341 280.935 109.055 281.273C108.741 281.605 108.326 281.826 107.874 281.901V281.945C108.392 281.974 108.882 282.184 109.26 282.538C109.569 282.878 109.731 283.327 109.71 283.787C109.728 284.111 109.667 284.434 109.533 284.73C109.4 285.026 109.196 285.286 108.941 285.487C108.428 285.884 107.701 286.083 106.759 286.083C106.381 286.085 106.004 286.054 105.632 285.99C105.287 285.927 104.952 285.817 104.637 285.664V284.829C104.979 284.996 105.339 285.123 105.711 285.207C106.069 285.291 106.435 285.334 106.802 285.335C108.141 285.335 108.811 284.811 108.813 283.765C108.813 282.827 108.073 282.358 106.595 282.358H105.831V281.607H106.606C107.116 281.635 107.621 281.496 108.043 281.21C108.215 281.082 108.354 280.914 108.446 280.72C108.538 280.527 108.582 280.314 108.573 280.1C108.581 279.932 108.55 279.764 108.483 279.609C108.415 279.455 108.312 279.318 108.182 279.21C107.879 278.981 107.504 278.868 107.124 278.889C106.799 278.888 106.476 278.933 106.164 279.025C105.8 279.148 105.454 279.319 105.136 279.534L104.691 278.941C105.019 278.685 105.388 278.485 105.782 278.35C106.206 278.208 106.65 278.136 107.097 278.138C107.724 278.1 108.344 278.282 108.851 278.652C109.056 278.824 109.219 279.04 109.326 279.285C109.434 279.529 109.484 279.795 109.473 280.062ZM115.383 285.09C115.807 284.433 116.019 283.436 116.019 282.097C116.019 280.805 115.801 279.821 115.364 279.145C115.152 278.834 114.867 278.579 114.534 278.401C114.201 278.223 113.831 278.128 113.453 278.124C113.076 278.12 112.703 278.207 112.367 278.378C112.03 278.549 111.74 278.798 111.521 279.104C111.101 279.752 110.891 280.749 110.891 282.097C110.891 283.403 111.107 284.392 111.54 285.065C111.754 285.376 112.039 285.63 112.373 285.807C112.706 285.984 113.078 286.077 113.455 286.08C113.833 286.082 114.205 285.993 114.541 285.821C114.877 285.648 115.166 285.398 115.383 285.09ZM112.178 284.546C111.911 284.042 111.78 283.223 111.78 282.097C111.78 280.973 111.911 280.154 112.178 279.648C112.299 279.416 112.482 279.221 112.706 279.085C112.93 278.95 113.187 278.878 113.449 278.878C113.712 278.878 113.969 278.95 114.193 279.085C114.417 279.221 114.6 279.416 114.721 279.648C114.985 280.173 115.116 280.984 115.116 282.097C115.116 283.21 114.993 284.023 114.721 284.546C114.601 284.779 114.419 284.976 114.195 285.113C113.971 285.25 113.713 285.323 113.449 285.323C113.186 285.323 112.928 285.25 112.704 285.113C112.48 284.976 112.298 284.779 112.178 284.546Z" fill="#00FFFF"/>
</g>
<g style="mix-blend-mode:screen" opacity="0.3">
<path fill-rule="evenodd" clip-rule="evenodd" d="M145.532 340.164C146.133 340.131 146.727 340.305 147.215 340.656C147.418 340.818 147.58 341.026 147.688 341.262C147.796 341.499 147.846 341.757 147.834 342.017C147.836 342.394 147.711 342.761 147.479 343.059C147.173 343.425 146.787 343.718 146.35 343.913C146.86 344.128 147.318 344.45 147.692 344.857C147.955 345.181 148.095 345.586 148.09 346.002C148.102 346.293 148.047 346.582 147.93 346.848C147.813 347.114 147.638 347.351 147.417 347.54C146.891 347.948 146.235 348.152 145.57 348.114C144.741 348.114 144.104 347.932 143.661 347.57C143.437 347.383 143.26 347.147 143.144 346.88C143.028 346.613 142.976 346.323 142.992 346.032C142.992 345.145 143.533 344.456 144.615 343.965C144.201 343.753 143.841 343.447 143.565 343.072C143.354 342.755 143.243 342.381 143.246 342C143.237 341.744 143.288 341.488 143.396 341.255C143.504 341.022 143.666 340.818 143.868 340.659C144.349 340.307 144.937 340.133 145.532 340.164ZM143.857 346.06C143.848 346.247 143.883 346.435 143.96 346.606C144.036 346.778 144.153 346.929 144.299 347.047C144.66 347.305 145.099 347.431 145.543 347.404C145.984 347.43 146.42 347.298 146.773 347.034C146.919 346.909 147.035 346.752 147.112 346.576C147.188 346.4 147.224 346.208 147.215 346.016C147.213 345.844 147.175 345.674 147.104 345.517C147.033 345.36 146.929 345.219 146.8 345.105C146.375 344.754 145.885 344.491 145.357 344.329C144.925 344.492 144.534 344.748 144.212 345.077C143.974 345.349 143.847 345.699 143.854 346.06H143.857ZM145.521 340.89C145.148 340.869 144.779 340.981 144.482 341.206C144.358 341.309 144.26 341.44 144.195 341.587C144.13 341.734 144.099 341.894 144.105 342.055C144.099 342.363 144.211 342.662 144.419 342.89C144.752 343.201 145.145 343.439 145.576 343.589C145.979 343.443 146.345 343.21 146.647 342.906C146.856 342.672 146.968 342.368 146.964 342.055C146.97 341.893 146.938 341.732 146.872 341.584C146.805 341.436 146.705 341.306 146.579 341.203C146.278 340.977 145.908 340.863 145.532 340.879L145.521 340.89ZM138.956 348.01H133.858V347.254L135.901 345.208C136.339 344.786 136.749 344.337 137.131 343.864C137.314 343.624 137.465 343.36 137.578 343.08C137.677 342.82 137.727 342.543 137.726 342.264C137.735 342.084 137.706 341.903 137.641 341.735C137.577 341.566 137.477 341.413 137.349 341.285C137.208 341.158 137.043 341.061 136.863 340.998C136.684 340.936 136.494 340.909 136.305 340.92C135.993 340.919 135.683 340.973 135.391 341.081C135.041 341.221 134.717 341.416 134.428 341.657L133.959 341.059C134.605 340.492 135.434 340.176 136.294 340.169C136.915 340.133 137.526 340.333 138.007 340.727C138.214 340.917 138.377 341.15 138.485 341.409C138.592 341.669 138.641 341.948 138.629 342.229C138.621 342.742 138.478 343.244 138.214 343.684C137.779 344.355 137.258 344.967 136.665 345.505L134.968 347.159V347.202H138.956V348.01ZM130.279 345.507V344.691H132.884V345.507H130.279ZM140.511 346.906C140.392 347.061 140.334 347.255 140.35 347.45C140.34 347.548 140.351 347.648 140.381 347.742C140.412 347.836 140.461 347.923 140.527 347.997C140.657 348.108 140.823 348.168 140.994 348.165C141.165 348.162 141.329 348.097 141.454 347.981C141.579 347.833 141.641 347.643 141.629 347.45C141.637 347.352 141.626 347.254 141.596 347.161C141.566 347.067 141.518 346.981 141.454 346.906C141.392 346.843 141.317 346.794 141.234 346.763C141.151 346.732 141.063 346.718 140.974 346.724C140.888 346.718 140.802 346.732 140.722 346.763C140.642 346.795 140.57 346.844 140.511 346.906ZM150.739 348.117C153.087 348.117 154.26 346.604 154.26 343.578C154.272 342.953 154.161 342.332 153.933 341.75C153.756 341.275 153.439 340.863 153.025 340.569C152.617 340.295 152.134 340.153 151.642 340.164C151.313 340.15 150.985 340.205 150.679 340.326C150.372 340.446 150.095 340.629 149.863 340.863C149.63 341.12 149.449 341.42 149.333 341.747C149.217 342.074 149.167 342.421 149.187 342.768C149.168 343.079 149.212 343.391 149.316 343.686C149.42 343.98 149.582 344.251 149.793 344.482C150.008 344.691 150.265 344.854 150.546 344.96C150.828 345.066 151.129 345.112 151.429 345.097C151.806 345.104 152.179 345.025 152.52 344.865C152.836 344.719 153.104 344.487 153.295 344.196H153.36C153.319 345.279 153.085 346.081 152.651 346.607C152.218 347.131 151.577 347.393 150.728 347.393C150.401 347.398 150.075 347.351 149.763 347.254V348.01C150.082 348.091 150.41 348.126 150.739 348.117ZM151.008 341.024C151.211 340.94 151.43 340.903 151.65 340.915L151.661 340.92C151.976 340.913 152.285 341.005 152.545 341.181C152.811 341.369 153.021 341.624 153.153 341.921C153.299 342.244 153.372 342.594 153.368 342.947C153.367 343.202 153.286 343.45 153.137 343.657C152.976 343.893 152.754 344.081 152.496 344.201C152.219 344.334 151.916 344.401 151.609 344.397C151.395 344.415 151.18 344.385 150.979 344.309C150.778 344.234 150.597 344.115 150.447 343.962C150.175 343.623 150.039 343.195 150.065 342.762C150.034 342.274 150.18 341.791 150.477 341.402C150.623 341.238 150.805 341.109 151.008 341.024Z" fill="#00FFFF"/>
</g>
<g style="mix-blend-mode:screen">
<path fill-rule="evenodd" clip-rule="evenodd" d="M226.91 340.376H221.813V339.619L223.856 337.571C224.292 337.148 224.703 336.699 225.086 336.227C225.269 335.986 225.419 335.723 225.533 335.443C225.632 335.182 225.682 334.906 225.68 334.627C225.69 334.446 225.661 334.265 225.596 334.096C225.531 333.927 225.432 333.773 225.304 333.645C225.162 333.519 224.997 333.422 224.818 333.36C224.638 333.298 224.449 333.271 224.259 333.283C223.947 333.281 223.636 333.334 223.343 333.441C222.994 333.583 222.67 333.778 222.38 334.017L221.913 333.419C222.559 332.852 223.388 332.537 224.248 332.532C224.87 332.494 225.482 332.694 225.961 333.09C226.169 333.278 226.333 333.511 226.44 333.77C226.548 334.029 226.597 334.309 226.583 334.589C226.576 335.102 226.433 335.604 226.169 336.044C225.732 336.715 225.212 337.327 224.619 337.865L222.923 339.522V339.562H226.91V340.376ZM215.973 340.376H215.113V334.861C215.113 334.404 215.127 333.968 215.157 333.56C215.081 333.634 214.999 333.71 214.906 333.791C214.813 333.873 214.393 334.219 213.643 334.825L213.177 334.221L215.231 332.638H215.973V340.376ZM209.129 337.884V337.067H211.734V337.884H209.129ZM219.36 339.288C219.24 339.442 219.181 339.636 219.197 339.832C219.187 339.93 219.199 340.03 219.229 340.124C219.26 340.218 219.311 340.305 219.377 340.379C219.506 340.489 219.672 340.548 219.843 340.545C220.013 340.541 220.176 340.475 220.301 340.359C220.427 340.213 220.489 340.024 220.476 339.832C220.492 339.635 220.43 339.44 220.304 339.288C220.242 339.225 220.167 339.176 220.084 339.145C220.001 339.113 219.913 339.1 219.824 339.105C219.738 339.099 219.652 339.113 219.572 339.144C219.492 339.176 219.419 339.225 219.36 339.288ZM232.377 336.267C231.83 335.836 231.144 335.62 230.448 335.661C230.043 335.66 229.64 335.699 229.243 335.778L229.439 333.454H232.543V332.638H228.689L228.397 336.259L228.852 336.55C229.296 336.46 229.747 336.408 230.2 336.395C231.526 336.406 232.188 336.95 232.188 338.028C232.204 338.265 232.165 338.502 232.076 338.722C231.987 338.942 231.849 339.139 231.673 339.298C231.258 339.614 230.743 339.77 230.222 339.739C229.854 339.738 229.488 339.692 229.131 339.603C228.805 339.53 228.493 339.404 228.209 339.23V340.076C228.667 340.354 229.311 340.495 230.208 340.495C231.105 340.495 231.812 340.267 232.322 339.813C232.58 339.573 232.783 339.281 232.915 338.955C233.048 338.629 233.107 338.278 233.088 337.927C233.103 337.615 233.047 337.303 232.923 337.016C232.8 336.728 232.613 336.472 232.377 336.267Z" fill="#00FFFF"/>
</g>
<g style="mix-blend-mode:screen">
<path fill-rule="evenodd" clip-rule="evenodd" d="M309.879 333.215C309.879 334.553 309.668 335.551 309.246 336.208C309.041 336.531 308.753 336.793 308.412 336.967C308.071 337.141 307.689 337.221 307.307 337.198C306.926 337.215 306.548 337.13 306.212 336.952C305.876 336.773 305.595 336.508 305.397 336.183C304.961 335.508 304.744 334.518 304.745 333.212C304.745 331.866 304.955 330.869 305.376 330.219C305.595 329.913 305.885 329.664 306.221 329.493C306.558 329.322 306.93 329.236 307.308 329.24C307.685 329.244 308.056 329.338 308.389 329.516C308.721 329.694 309.006 329.949 309.219 330.26C309.659 330.938 309.879 331.923 309.879 333.215ZM305.64 333.215C305.64 334.341 305.773 335.157 306.038 335.663C306.158 335.897 306.34 336.093 306.565 336.23C306.789 336.367 307.048 336.44 307.311 336.44C307.574 336.44 307.832 336.367 308.057 336.23C308.281 336.093 308.463 335.897 308.583 335.663C308.856 335.144 308.979 334.328 308.979 333.215C308.979 332.102 308.845 331.291 308.583 330.766C308.462 330.534 308.279 330.339 308.055 330.204C307.831 330.068 307.573 329.996 307.311 329.996C307.048 329.996 306.791 330.068 306.567 330.204C306.342 330.339 306.16 330.534 306.038 330.766C305.774 331.272 305.643 332.091 305.643 333.215H305.64ZM301.159 334.591V333.775H303.763V334.591H301.159ZM311.39 335.99C311.269 336.145 311.211 336.339 311.226 336.534C311.217 336.632 311.228 336.732 311.259 336.826C311.289 336.92 311.338 337.006 311.403 337.081C311.526 337.193 311.687 337.253 311.854 337.247C311.942 337.252 312.03 337.238 312.112 337.206C312.195 337.174 312.269 337.125 312.331 337.062C312.456 336.916 312.519 336.726 312.505 336.534C312.521 336.337 312.459 336.142 312.334 335.99C312.271 335.928 312.195 335.88 312.113 335.848C312.03 335.817 311.942 335.803 311.854 335.808C311.768 335.802 311.682 335.816 311.601 335.847C311.521 335.879 311.449 335.928 311.39 335.99ZM318.648 331.18C318.666 331.621 318.517 332.053 318.231 332.39C317.918 332.724 317.504 332.945 317.052 333.019V333.062C317.569 333.092 318.058 333.302 318.435 333.655C318.746 333.996 318.908 334.445 318.888 334.904C318.906 335.228 318.845 335.552 318.711 335.848C318.578 336.144 318.374 336.404 318.119 336.605C317.606 337.002 316.879 337.201 315.937 337.201C315.559 337.202 315.182 337.171 314.81 337.108C314.465 337.044 314.13 336.935 313.815 336.782V335.946C314.157 336.113 314.518 336.24 314.889 336.325C315.247 336.409 315.613 336.453 315.98 336.455C317.319 336.455 317.989 335.931 317.991 334.883C317.991 333.945 317.251 333.476 315.773 333.476H315.009V332.72H315.784C316.294 332.747 316.799 332.607 317.221 332.32C317.397 332.193 317.538 332.026 317.634 331.833C317.729 331.639 317.774 331.425 317.767 331.209C317.775 331.042 317.744 330.874 317.676 330.72C317.609 330.566 317.506 330.43 317.377 330.323C317.073 330.094 316.699 329.979 316.319 329.999C315.994 329.997 315.67 330.043 315.358 330.135C314.994 330.259 314.648 330.43 314.327 330.644L313.883 330.05C314.21 329.794 314.579 329.596 314.974 329.463C315.396 329.318 315.839 329.245 316.286 329.248C316.914 329.209 317.535 329.391 318.042 329.762C318.246 329.936 318.406 330.155 318.511 330.4C318.616 330.646 318.663 330.913 318.648 331.18ZM324.562 336.208C324.983 335.551 325.194 334.553 325.194 333.215C325.194 331.923 324.974 330.938 324.534 330.26C324.322 329.949 324.037 329.694 323.704 329.516C323.371 329.338 323.001 329.244 322.623 329.24C322.246 329.236 321.873 329.322 321.537 329.493C321.2 329.664 320.91 329.913 320.691 330.219C320.269 330.869 320.058 331.866 320.058 333.212C320.058 334.518 320.276 335.508 320.713 336.183C320.91 336.508 321.192 336.773 321.528 336.952C321.864 337.13 322.242 337.215 322.622 337.198C323.005 337.221 323.386 337.141 323.728 336.967C324.069 336.793 324.357 336.531 324.562 336.208ZM321.354 335.663C321.088 335.157 320.956 334.341 320.956 333.215C320.956 332.091 321.089 331.272 321.354 330.766C321.475 330.534 321.658 330.339 321.882 330.204C322.107 330.068 322.364 329.996 322.626 329.996C322.889 329.996 323.146 330.068 323.37 330.204C323.595 330.339 323.777 330.534 323.899 330.766C324.161 331.285 324.292 332.101 324.292 333.215C324.292 334.328 324.161 335.145 323.899 335.663C323.779 335.897 323.597 336.093 323.372 336.23C323.148 336.367 322.889 336.44 322.626 336.44C322.363 336.44 322.105 336.367 321.881 336.23C321.656 336.093 321.474 335.897 321.354 335.663Z" fill="#00FFFF"/>
</g>
<g style="mix-blend-mode:screen">
<path fill-rule="evenodd" clip-rule="evenodd" d="M485.684 292.218C485.684 293.554 485.474 294.555 485.052 295.211C484.846 295.534 484.558 295.796 484.217 295.97C483.876 296.144 483.495 296.224 483.112 296.201C482.732 296.218 482.354 296.133 482.018 295.955C481.682 295.776 481.401 295.511 481.203 295.187C480.766 294.512 480.549 293.521 480.551 292.216C480.551 290.868 480.761 289.87 481.181 289.223C481.401 288.917 481.691 288.669 482.028 288.499C482.364 288.329 482.737 288.242 483.114 288.246C483.491 288.251 483.862 288.346 484.194 288.523C484.527 288.701 484.811 288.956 485.024 289.266C485.464 289.948 485.684 290.932 485.684 292.218ZM481.446 292.218C481.446 293.345 481.578 294.161 481.844 294.667C481.964 294.901 482.146 295.097 482.37 295.234C482.595 295.371 482.853 295.443 483.116 295.443C483.379 295.443 483.638 295.371 483.862 295.234C484.087 295.097 484.269 294.901 484.389 294.667C484.661 294.145 484.784 293.331 484.784 292.218C484.784 291.105 484.651 290.295 484.389 289.77C484.268 289.537 484.085 289.343 483.86 289.207C483.636 289.071 483.379 289 483.116 289C482.854 289 482.596 289.071 482.372 289.207C482.148 289.343 481.965 289.537 481.844 289.77C481.574 290.284 481.446 291.103 481.446 292.218ZM476.964 293.603V292.787H479.569V293.603H476.964ZM487.193 295.002C487.072 295.156 487.014 295.35 487.029 295.546C487.02 295.644 487.031 295.743 487.061 295.837C487.092 295.931 487.141 296.018 487.206 296.093C487.329 296.205 487.49 296.264 487.656 296.259C487.745 296.264 487.833 296.25 487.915 296.218C487.997 296.186 488.072 296.137 488.134 296.074C488.259 295.927 488.322 295.738 488.308 295.546C488.324 295.349 488.262 295.154 488.136 295.002C488.074 294.939 487.999 294.89 487.916 294.859C487.833 294.828 487.745 294.814 487.656 294.819C487.57 294.813 487.484 294.827 487.404 294.858C487.324 294.89 487.252 294.939 487.193 295.002ZM492.073 291.38C492.768 291.34 493.454 291.556 494.001 291.987C494.235 292.193 494.42 292.448 494.542 292.735C494.663 293.022 494.718 293.333 494.702 293.644C494.721 293.995 494.662 294.346 494.53 294.672C494.397 294.998 494.194 295.291 493.936 295.529C493.425 295.985 492.72 296.212 491.822 296.212C490.949 296.212 490.283 296.071 489.822 295.793V294.939C490.108 295.113 490.42 295.239 490.747 295.312C491.104 295.401 491.47 295.447 491.838 295.448C492.359 295.481 492.875 295.324 493.289 295.007C493.466 294.848 493.605 294.651 493.694 294.431C493.784 294.211 493.823 293.973 493.807 293.736C493.807 292.659 493.145 292.115 491.819 292.104C491.366 292.117 490.915 292.168 490.472 292.259L490.013 291.968L490.305 288.347H494.162V289.163H491.058L490.862 291.486C491.261 291.411 491.666 291.376 492.073 291.38ZM500.367 295.211C500.787 294.555 501 293.554 501 292.218C501 290.932 500.78 289.948 500.34 289.266C500.127 288.956 499.842 288.701 499.51 288.523C499.177 288.346 498.807 288.251 498.43 288.246C498.052 288.242 497.68 288.329 497.343 288.499C497.007 288.669 496.716 288.917 496.497 289.223C496.075 289.87 495.864 290.868 495.864 292.216C495.864 293.521 496.082 294.512 496.518 295.187C496.716 295.511 496.998 295.776 497.334 295.955C497.67 296.133 498.048 296.218 498.428 296.201C498.81 296.224 499.192 296.144 499.533 295.97C499.874 295.796 500.162 295.534 500.367 295.211ZM497.159 294.667C496.894 294.161 496.761 293.345 496.761 292.218C496.761 291.103 496.895 290.284 497.159 289.77C497.28 289.537 497.463 289.343 497.687 289.207C497.911 289.071 498.168 288.999 498.431 288.999C498.693 288.999 498.95 289.071 499.174 289.207C499.398 289.343 499.581 289.537 499.702 289.77C499.966 290.295 500.097 291.105 500.097 292.218C500.097 293.331 499.974 294.145 499.702 294.667C499.582 294.901 499.4 295.097 499.176 295.234C498.952 295.371 498.694 295.444 498.431 295.444C498.167 295.444 497.909 295.371 497.685 295.234C497.461 295.097 497.279 294.901 497.159 294.667Z" fill="#00FFFF" fill-opacity="0.3"/>
</g>
<defs>
<filter id="filter0_d_480_713" x="100.5" y="39.5" width="301" height="521" filterUnits="userSpaceOnUse" color-interpolation-filters="sRGB">
<feFlood flood-opacity="0" result="BackgroundImageFix"/>
<feColorMatrix in="SourceAlpha" type="matrix" values="0 0 0 0 0 0 0 0 0 0 0 0 0 0 0 0 0 0 127 0" result="hardAlpha"/>
<feOffset dy="4"/>
<feGaussianBlur stdDeviation="20"/>
<feComposite in2="hardAlpha" operator="out"/>
<feColorMatrix type="matrix" values="0 0 0 0 0.0117647 0 0 0 0 0.0117647 0 0 0 0 0.109804 0 0 0 1 0"/>
<feBlend mode="normal" in2="BackgroundImageFix" result="effect1_dropShadow_480_713"/>
<feBlend mode="normal" in="SourceGraphic" in2="effect1_dropShadow_480_713" result="shape"/>
</filter>
<linearGradient id="paint0_linear_480_713" x1="251.246" y1="740.759" x2="251.031" y2="76" gradientUnits="userSpaceOnUse">
<stop stop-color="#00FFFF"/>
<stop offset="0.91015" stop-color="#03031C"/>
</linearGradient>
<linearGradient id="paint1_linear_480_713" x1="251" y1="76" x2="251" y2="516" gradientUnits="userSpaceOnUse">
<stop stop-color="#00FFFF"/>
<stop offset="1" stop-color="#00FFFF" stop-opacity="0"/>
</linearGradient>
<radialGradient id="paint2_radial_480_713" cx="0" cy="0" r="1" gradientUnits="userSpaceOnUse" gradientTransform="translate(251.436 75.6155) rotate(132.9) scale(75.507)">
<stop stop-color="#00FFFF"/>
<stop offset="1" stop-color="#03031C" stop-opacity="0"/>
</radialGradient>
<radialGradient id="paint3_radial_480_713" cx="0" cy="0" r="1" gradientUnits="userSpaceOnUse" gradientTransform="translate(251.293 75.7326) rotate(132.9) scale(11.4031)">
<stop stop-color="#00FFFF"/>
<stop offset="1" stop-color="#231F20"/>
</radialGradient>
<linearGradient id="paint4_linear_480_713" x1="489.258" y1="239.714" x2="40.3698" y2="339.374" gradientUnits="userSpaceOnUse">
<stop stop-color="#00FFFF" stop-opacity="0"/>
<stop offset="0.505208" stop-color="#00FFFF"/>
<stop offset="1" stop-color="#00FFFF" stop-opacity="0"/>
</linearGradient>
</defs>
</svg>
