<svg width="622" height="220" viewBox="0 0 622 220" fill="none" xmlns="http://www.w3.org/2000/svg">
<path d="M110.978 159.858L106.395 151.943L101.819 159.858H110.978Z" fill="#00FFFF"/>
<path d="M160.371 84.0354L164.955 91.9503L169.531 84.0354H160.371Z" fill="#E91A00"/>
<path d="M296.19 169.976L291.614 162.054L287.03 169.976H296.19Z" fill="#00FFFF"/>
<path d="M364.721 211.222L360.145 203.307L355.562 211.222H364.721Z" fill="#00FFFF"/>
<path d="M427.329 110.958L431.905 118.873L436.481 110.958H427.329Z" fill="#E9000D"/>
<path d="M515.884 6.94116L520.444 14.8638L525.036 6.95659L515.884 6.94116Z" fill="#E9000D"/>
<path d="M1.28589 158.903C21.2131 178.027 54.1957 182.231 77.81 167.613C100.868 153.333 112.748 125.068 136.463 111.907C158.199 99.8498 185.895 103.283 208.063 114.538C241.487 131.509 261.908 163.871 292.557 184.353C308.596 195.068 328.886 201.44 347.368 195.924C366.692 190.123 380.127 172.781 390.732 155.632C406.516 130.09 419.208 102.588 437.11 78.4887C455.012 54.3891 479.484 33.3057 508.996 27.6742C551.015 19.6513 592.214 44.6458 620.729 77.2776" stroke="#00FFFF" stroke-miterlimit="10" stroke-linecap="round"/>
<path d="M111.45 139.424C111.45 140.689 110.946 141.901 110.051 142.796C109.155 143.69 107.94 144.192 106.673 144.192C105.407 144.19 104.194 143.687 103.3 142.793C102.406 141.899 101.904 140.688 101.904 139.424C101.904 138.161 102.406 136.95 103.3 136.056C104.194 135.162 105.407 134.659 106.673 134.657C107.94 134.657 109.155 135.159 110.051 136.053C110.946 136.947 111.45 138.16 111.45 139.424Z" fill="#03031C" stroke="#00FFFF" stroke-miterlimit="10"/>
<path d="M169.469 104.216C169.47 104.843 169.347 105.463 169.107 106.042C168.868 106.621 168.516 107.147 168.072 107.59C167.628 108.032 167.101 108.384 166.521 108.623C165.941 108.862 165.32 108.985 164.692 108.984C164.065 108.984 163.443 108.86 162.864 108.621C162.284 108.381 161.758 108.03 161.314 107.587C160.871 107.145 160.519 106.619 160.279 106.041C160.039 105.462 159.915 104.842 159.915 104.216C159.915 102.952 160.418 101.739 161.314 100.845C162.21 99.951 163.425 99.4487 164.692 99.4487C165.959 99.4487 167.174 99.951 168.07 100.845C168.966 101.739 169.469 102.952 169.469 104.216Z" fill="#03031C" stroke="#E91A00" stroke-miterlimit="10"/>
<path d="M296.391 183.234C296.391 184.499 295.888 185.711 294.992 186.605C294.096 187.499 292.881 188.002 291.614 188.002C290.347 188.002 289.132 187.499 288.236 186.605C287.34 185.711 286.837 184.499 286.837 183.234C286.839 181.971 287.343 180.76 288.239 179.868C289.134 178.976 290.348 178.474 291.614 178.474C292.879 178.474 294.093 178.976 294.989 179.868C295.885 180.76 296.389 181.971 296.391 183.234Z" fill="#03031C" stroke="#00FFFF" stroke-miterlimit="10"/>
<path d="M364.923 189.938C364.914 191.197 364.408 192.402 363.513 193.289C362.618 194.177 361.407 194.675 360.146 194.675C358.879 194.675 357.664 194.172 356.768 193.278C355.872 192.384 355.369 191.172 355.369 189.907C355.369 188.643 355.872 187.43 356.768 186.536C357.664 185.642 358.879 185.14 360.146 185.14C360.776 185.14 361.399 185.264 361.981 185.505C362.562 185.747 363.09 186.101 363.534 186.547C363.978 186.993 364.33 187.522 364.568 188.104C364.806 188.686 364.927 189.309 364.923 189.938Z" fill="#03031C" stroke="#00FFFF" stroke-miterlimit="10"/>
<path d="M418.93 114.445C418.93 115.71 418.427 116.922 417.531 117.816C416.635 118.71 415.42 119.213 414.153 119.213C412.893 119.203 411.688 118.696 410.8 117.803C409.912 116.91 409.415 115.703 409.415 114.445C409.417 113.182 409.921 111.972 410.816 111.079C411.712 110.187 412.926 109.686 414.192 109.686C415.45 109.696 416.654 110.201 417.542 111.093C418.429 111.984 418.928 113.189 418.93 114.445Z" fill="#03031C" stroke="#E91A00" stroke-miterlimit="10"/>
<path d="M520.46 31.1765C523.098 31.1765 525.237 29.0421 525.237 26.4091C525.237 23.7761 523.098 21.6416 520.46 21.6416C517.821 21.6416 515.683 23.7761 515.683 26.4091C515.683 29.0421 517.821 31.1765 520.46 31.1765Z" fill="#03031C" stroke="#E91A00" stroke-miterlimit="10"/>
<path d="M528.988 16V14.44C528.988 14.0587 529.04 13.7337 529.144 13.465C529.257 13.1963 529.447 12.9537 529.716 12.737C529.985 12.5117 530.349 12.295 530.808 12.087L532.589 11.268C533.022 11.0687 533.365 10.813 533.616 10.501C533.867 10.1803 533.993 9.76867 533.993 9.266C533.993 8.65933 533.824 8.187 533.486 7.849C533.148 7.511 532.671 7.342 532.056 7.342C531.449 7.342 530.973 7.511 530.626 7.849C530.279 8.187 530.106 8.65933 530.106 9.266H528.884C528.884 8.72 528.997 8.21733 529.222 7.758C529.456 7.29867 529.807 6.93467 530.275 6.666C530.743 6.38867 531.337 6.25 532.056 6.25C532.775 6.25 533.365 6.38867 533.824 6.666C534.292 6.93467 534.639 7.29 534.864 7.732C535.098 8.174 535.215 8.655 535.215 9.175V9.357C535.215 10.0417 535.016 10.618 534.617 11.086C534.227 11.554 533.698 11.9397 533.031 12.243L531.25 13.062C530.851 13.244 530.583 13.426 530.444 13.608C530.305 13.79 530.236 14.0327 530.236 14.336V14.934H535.332V16H528.988ZM537.908 16L541.925 7.693L541.847 7.576H537.7V9.084H536.66V6.51H543.03V8.018L539.208 16H537.908ZM544.45 16V14.414H545.958V16H544.45ZM551.739 16.234C551.029 16.234 550.422 16.1127 549.919 15.87C549.425 15.6187 549.022 15.2807 548.71 14.856C548.407 14.4313 548.186 13.9417 548.047 13.387C547.909 12.8237 547.839 12.23 547.839 11.606V10.904C547.839 10.0287 547.974 9.24 548.242 8.538C548.52 7.836 548.944 7.28133 549.516 6.874C550.097 6.458 550.838 6.25 551.739 6.25C552.641 6.25 553.377 6.458 553.949 6.874C554.521 7.28133 554.942 7.836 555.21 8.538C555.488 9.24 555.626 10.0287 555.626 10.904V11.606C555.626 12.23 555.557 12.8237 555.418 13.387C555.28 13.9417 555.054 14.4313 554.742 14.856C554.439 15.2807 554.04 15.6187 553.546 15.87C553.052 16.1127 552.45 16.234 551.739 16.234ZM551.739 15.09C552.641 15.09 553.299 14.7867 553.715 14.18C554.14 13.5647 554.352 12.594 554.352 11.268C554.352 9.88133 554.136 8.889 553.702 8.291C553.278 7.693 552.623 7.394 551.739 7.394C550.847 7.394 550.184 7.693 549.75 8.291C549.326 8.889 549.113 9.87267 549.113 11.242C549.113 12.5767 549.326 13.5517 549.75 14.167C550.175 14.7823 550.838 15.09 551.739 15.09ZM558.436 16L562.453 7.693L562.375 7.576H558.228V9.084H557.188V6.51H563.558V8.018L559.736 16H558.436Z" fill="#E9000D"/>
<path d="M442.652 119V110.576H440.546V109.51H443.9V119H442.652ZM449.593 119.234C448.917 119.234 448.315 119.113 447.786 118.87C447.266 118.627 446.854 118.289 446.551 117.856C446.256 117.423 446.109 116.92 446.109 116.348C446.109 115.785 446.269 115.299 446.59 114.892C446.911 114.485 447.322 114.186 447.825 113.995V113.865C447.426 113.692 447.093 113.436 446.824 113.098C446.555 112.76 446.421 112.344 446.421 111.85C446.421 111.304 446.564 110.84 446.85 110.459C447.145 110.078 447.53 109.787 448.007 109.588C448.492 109.38 449.021 109.276 449.593 109.276C450.174 109.276 450.702 109.38 451.179 109.588C451.664 109.787 452.05 110.078 452.336 110.459C452.622 110.84 452.765 111.304 452.765 111.85C452.765 112.344 452.631 112.76 452.362 113.098C452.102 113.436 451.768 113.692 451.361 113.865V113.995C451.872 114.186 452.288 114.485 452.609 114.892C452.93 115.299 453.09 115.785 453.09 116.348C453.09 116.92 452.938 117.423 452.635 117.856C452.34 118.289 451.929 118.627 451.4 118.87C450.88 119.113 450.278 119.234 449.593 119.234ZM449.593 113.449C450.182 113.449 450.655 113.323 451.01 113.072C451.365 112.812 451.543 112.418 451.543 111.889C451.543 111.352 451.361 110.962 450.997 110.719C450.642 110.468 450.174 110.342 449.593 110.342C449.012 110.342 448.54 110.468 448.176 110.719C447.821 110.97 447.643 111.36 447.643 111.889C447.643 112.418 447.821 112.812 448.176 113.072C448.54 113.323 449.012 113.449 449.593 113.449ZM449.593 118.168C450.312 118.168 450.871 118.003 451.27 117.674C451.669 117.336 451.868 116.877 451.868 116.296C451.868 115.724 451.669 115.273 451.27 114.944C450.871 114.606 450.312 114.437 449.593 114.437C448.882 114.437 448.328 114.606 447.929 114.944C447.53 115.273 447.331 115.724 447.331 116.296C447.331 116.877 447.53 117.336 447.929 117.674C448.328 118.003 448.882 118.168 449.593 118.168ZM454.685 119V117.414H456.193V119H454.685ZM459.791 119V110.576H457.685V109.51H461.039V119H459.791ZM467.434 119.234C466.723 119.234 466.116 119.113 465.614 118.87C465.12 118.619 464.717 118.281 464.405 117.856C464.101 117.431 463.88 116.942 463.742 116.387C463.603 115.824 463.534 115.23 463.534 114.606V113.904C463.534 113.029 463.668 112.24 463.937 111.538C464.214 110.836 464.639 110.281 465.211 109.874C465.791 109.458 466.532 109.25 467.434 109.25C468.335 109.25 469.072 109.458 469.644 109.874C470.216 110.281 470.636 110.836 470.905 111.538C471.182 112.24 471.321 113.029 471.321 113.904V114.606C471.321 115.23 471.251 115.824 471.113 116.387C470.974 116.942 470.749 117.431 470.437 117.856C470.133 118.281 469.735 118.619 469.241 118.87C468.747 119.113 468.144 119.234 467.434 119.234ZM467.434 118.09C468.335 118.09 468.994 117.787 469.41 117.18C469.834 116.565 470.047 115.594 470.047 114.268C470.047 112.881 469.83 111.889 469.397 111.291C468.972 110.693 468.318 110.394 467.434 110.394C466.541 110.394 465.878 110.693 465.445 111.291C465.02 111.889 464.808 112.873 464.808 114.242C464.808 115.577 465.02 116.552 465.445 117.167C465.869 117.782 466.532 118.09 467.434 118.09Z" fill="#E9000D"/>
<path d="M302.652 170V161.576H300.546V160.51H303.9V170H302.652ZM308.111 170V161.576H306.005V160.51H309.359V170H308.111ZM311.867 170V168.414H313.375V170H311.867ZM315.308 170V168.44C315.308 168.059 315.36 167.734 315.464 167.465C315.577 167.196 315.768 166.954 316.036 166.737C316.305 166.512 316.669 166.295 317.128 166.087L318.909 165.268C319.343 165.069 319.685 164.813 319.936 164.501C320.188 164.18 320.313 163.769 320.313 163.266C320.313 162.659 320.144 162.187 319.806 161.849C319.468 161.511 318.992 161.342 318.376 161.342C317.77 161.342 317.293 161.511 316.946 161.849C316.6 162.187 316.426 162.659 316.426 163.266H315.204C315.204 162.72 315.317 162.217 315.542 161.758C315.776 161.299 316.127 160.935 316.595 160.666C317.063 160.389 317.657 160.25 318.376 160.25C319.096 160.25 319.685 160.389 320.144 160.666C320.612 160.935 320.959 161.29 321.184 161.732C321.418 162.174 321.535 162.655 321.535 163.175V163.357C321.535 164.042 321.336 164.618 320.937 165.086C320.547 165.554 320.019 165.94 319.351 166.243L317.57 167.062C317.172 167.244 316.903 167.426 316.764 167.608C316.626 167.79 316.556 168.033 316.556 168.336V168.934H321.652V170H315.308ZM327.192 170.234C326.482 170.234 325.875 170.113 325.372 169.87C324.878 169.619 324.475 169.281 324.163 168.856C323.86 168.431 323.639 167.942 323.5 167.387C323.362 166.824 323.292 166.23 323.292 165.606V164.904C323.292 164.029 323.427 163.24 323.695 162.538C323.973 161.836 324.397 161.281 324.969 160.874C325.55 160.458 326.291 160.25 327.192 160.25C328.094 160.25 328.83 160.458 329.402 160.874C329.974 161.281 330.395 161.836 330.663 162.538C330.941 163.24 331.079 164.029 331.079 164.904V165.606C331.079 166.23 331.01 166.824 330.871 167.387C330.733 167.942 330.507 168.431 330.195 168.856C329.892 169.281 329.493 169.619 328.999 169.87C328.505 170.113 327.903 170.234 327.192 170.234ZM327.192 169.09C328.094 169.09 328.752 168.787 329.168 168.18C329.593 167.565 329.805 166.594 329.805 165.268C329.805 163.881 329.589 162.889 329.155 162.291C328.731 161.693 328.076 161.394 327.192 161.394C326.3 161.394 325.637 161.693 325.203 162.291C324.779 162.889 324.566 163.873 324.566 165.242C324.566 166.577 324.779 167.552 325.203 168.167C325.628 168.782 326.291 169.09 327.192 169.09Z" fill="#00FFFF"/>
<path d="M117.652 160V151.576H115.546V150.51H118.9V160H117.652ZM121.083 157.751V156.217L125.022 150.276L125.893 150.965L122.214 156.529L122.331 156.763H126.036V153.279H127.206V156.763H128.467V157.751H127.206V160H126.036V157.751H121.083ZM129.749 160V158.414H131.257V160H129.749ZM134.074 160L138.091 151.693L138.013 151.576H133.866V153.084H132.826V150.51H139.196V152.018L135.374 160H134.074ZM140.291 157.751V156.217L144.23 150.276L145.101 150.965L141.422 156.529L141.539 156.763H145.244V153.279H146.414V156.763H147.675V157.751H146.414V160H145.244V157.751H140.291Z" fill="#00FFFF"/>
<path d="M370.652 212V203.576H368.546V202.51H371.9V212H370.652ZM378.295 212.234C377.584 212.234 376.978 212.113 376.475 211.87C375.981 211.619 375.578 211.281 375.266 210.856C374.963 210.431 374.742 209.942 374.603 209.387C374.464 208.824 374.395 208.23 374.395 207.606V206.904C374.395 206.029 374.529 205.24 374.798 204.538C375.075 203.836 375.5 203.281 376.072 202.874C376.653 202.458 377.394 202.25 378.295 202.25C379.196 202.25 379.933 202.458 380.505 202.874C381.077 203.281 381.497 203.836 381.766 204.538C382.043 205.24 382.182 206.029 382.182 206.904V207.606C382.182 208.23 382.113 208.824 381.974 209.387C381.835 209.942 381.61 210.431 381.298 210.856C380.995 211.281 380.596 211.619 380.102 211.87C379.608 212.113 379.006 212.234 378.295 212.234ZM378.295 211.09C379.196 211.09 379.855 210.787 380.271 210.18C380.696 209.565 380.908 208.594 380.908 207.268C380.908 205.881 380.691 204.889 380.258 204.291C379.833 203.693 379.179 203.394 378.295 203.394C377.402 203.394 376.739 203.693 376.306 204.291C375.881 204.889 375.669 205.873 375.669 207.242C375.669 208.577 375.881 209.552 376.306 210.167C376.731 210.782 377.394 211.09 378.295 211.09ZM384.069 212V210.414H385.577V212H384.069ZM389.174 212V203.576H387.068V202.51H390.422V212H389.174ZM392.605 209.751V208.217L396.544 202.276L397.415 202.965L393.736 208.529L393.853 208.763H397.558V205.279H398.728V208.763H399.989V209.751H398.728V212H397.558V209.751H392.605Z" fill="#00FFFF"/>
<path d="M175.652 93V84.576H173.546V83.51H176.9V93H175.652ZM182.489 83.25C183.182 83.25 183.759 83.3713 184.218 83.614C184.686 83.8567 185.054 84.1903 185.323 84.615C185.6 85.031 185.795 85.512 185.908 86.058C186.029 86.604 186.09 87.176 186.09 87.774V88.398C186.09 89.8973 185.717 91.0543 184.972 91.869C184.227 92.675 183.148 93.078 181.735 93.078C181.397 93.078 181.111 93.0693 180.877 93.052C180.643 93.0347 180.387 93.0087 180.11 92.974V91.908C180.396 91.9427 180.66 91.9687 180.903 91.986C181.146 92.0033 181.44 92.012 181.787 92.012C182.576 92.012 183.2 91.8647 183.659 91.57C184.118 91.2753 184.448 90.855 184.647 90.309C184.846 89.7543 184.946 89.087 184.946 88.307V88.086C184.712 88.5973 184.361 88.983 183.893 89.243C183.425 89.4943 182.883 89.62 182.268 89.62C181.592 89.62 181.02 89.4857 180.552 89.217C180.084 88.9397 179.729 88.5627 179.486 88.086C179.252 87.6093 179.135 87.0677 179.135 86.461C179.135 85.8457 179.261 85.2953 179.512 84.81C179.763 84.3247 180.136 83.9433 180.63 83.666C181.133 83.3887 181.752 83.25 182.489 83.25ZM182.489 84.342C181.77 84.342 181.228 84.5413 180.864 84.94C180.509 85.33 180.331 85.837 180.331 86.461C180.331 87.085 180.504 87.5963 180.851 87.995C181.206 88.385 181.722 88.58 182.398 88.58C183.057 88.58 183.607 88.398 184.049 88.034C184.491 87.67 184.712 87.1413 184.712 86.448C184.712 86.0667 184.634 85.7157 184.478 85.395C184.322 85.0743 184.079 84.8187 183.75 84.628C183.421 84.4373 183 84.342 182.489 84.342ZM187.977 93V91.414H189.485V93H187.977ZM194.318 93.234C193.607 93.234 193.005 93.0953 192.511 92.818C192.017 92.5407 191.64 92.1723 191.38 91.713C191.128 91.2537 191.003 90.7553 191.003 90.218H192.225C192.225 90.8073 192.411 91.2753 192.784 91.622C193.165 91.9687 193.676 92.142 194.318 92.142C194.959 92.142 195.466 91.9687 195.839 91.622C196.22 91.2753 196.411 90.8073 196.411 90.218C196.411 89.6287 196.22 89.152 195.839 88.788C195.466 88.424 194.963 88.242 194.331 88.242C194.062 88.242 193.828 88.2767 193.629 88.346C193.438 88.4067 193.269 88.4847 193.122 88.58L192.498 87.462L196.125 84.81L195.995 84.576H191.38V83.51H197.165V85.239L194.357 87.28H194.37C195.063 87.28 195.652 87.41 196.138 87.67C196.623 87.93 196.991 88.2767 197.243 88.71C197.503 89.1433 197.633 89.6157 197.633 90.127V90.309C197.633 90.8117 197.503 91.2883 197.243 91.739C196.991 92.181 196.619 92.5407 196.125 92.818C195.639 93.0953 195.037 93.234 194.318 93.234ZM203.252 93.234C202.541 93.234 201.935 93.1127 201.432 92.87C200.938 92.6187 200.535 92.2807 200.223 91.856C199.92 91.4313 199.699 90.9417 199.56 90.387C199.421 89.8237 199.352 89.23 199.352 88.606V87.904C199.352 87.0287 199.486 86.24 199.755 85.538C200.032 84.836 200.457 84.2813 201.029 83.874C201.61 83.458 202.351 83.25 203.252 83.25C204.153 83.25 204.89 83.458 205.462 83.874C206.034 84.2813 206.454 84.836 206.723 85.538C207 86.24 207.139 87.0287 207.139 87.904V88.606C207.139 89.23 207.07 89.8237 206.931 90.387C206.792 90.9417 206.567 91.4313 206.255 91.856C205.952 92.2807 205.553 92.6187 205.059 92.87C204.565 93.1127 203.963 93.234 203.252 93.234ZM203.252 92.09C204.153 92.09 204.812 91.7867 205.228 91.18C205.653 90.5647 205.865 89.594 205.865 88.268C205.865 86.8813 205.648 85.889 205.215 85.291C204.79 84.693 204.136 84.394 203.252 84.394C202.359 84.394 201.696 84.693 201.263 85.291C200.838 85.889 200.626 86.8727 200.626 88.242C200.626 89.5767 200.838 90.5517 201.263 91.167C201.688 91.7823 202.351 92.09 203.252 92.09Z" fill="#E9000D"/>
</svg>
