<svg width="618" height="472" viewBox="0 0 618 472" fill="none" xmlns="http://www.w3.org/2000/svg">
<path d="M466 84.5L586 32V472H466V84.5Z" fill="url(#paint0_linear_624_25)" fill-opacity="0.3"/>
<path d="M370 264L466 84V472H370V264Z" fill="url(#paint1_linear_624_25)" fill-opacity="0.3"/>
<path d="M294 248L370 264.5V472H294V248Z" fill="url(#paint2_linear_624_25)" fill-opacity="0.3"/>
<path d="M238 292.5L294 248V472H238V292.5Z" fill="url(#paint3_linear_624_25)" fill-opacity="0.3"/>
<path d="M170 268L238 292.5V472H170V268Z" fill="url(#paint4_linear_624_25)" fill-opacity="0.3"/>
<path d="M170 268L58 384V472H170V268Z" fill="url(#paint5_linear_624_25)" fill-opacity="0.3"/>
<g filter="url(#filter0_d_624_25)">
<path d="M58 384L170 268L238 292.5L294 248L370 264L466 84L586 32" stroke="url(#paint6_linear_624_25)" stroke-width="4" stroke-linecap="round" stroke-linejoin="round"/>
</g>
<path d="M466 84V471.5" stroke="url(#paint7_linear_624_25)" stroke-linecap="round" stroke-linejoin="round"/>
<path d="M370 263.5V471.5" stroke="url(#paint8_linear_624_25)" stroke-linecap="round" stroke-linejoin="round"/>
<path d="M294 249V471.5" stroke="url(#paint9_linear_624_25)" stroke-linecap="round" stroke-linejoin="round"/>
<path d="M238 291.5V471.5" stroke="url(#paint10_linear_624_25)" stroke-linecap="round" stroke-linejoin="round"/>
<path d="M170 267.5V471.5" stroke="url(#paint11_linear_624_25)" stroke-linecap="round" stroke-linejoin="round"/>
<circle cx="466" cy="84" r="6" fill="#03031C" stroke="#00FFFF" stroke-width="4"/>
<circle cx="586" cy="32" r="6" fill="#03031C" stroke="#00FFFF" stroke-width="4"/>
<circle cx="58" cy="384" r="6" fill="#03031C" stroke="#00FFFF" stroke-width="4"/>
<circle cx="370" cy="264" r="7" fill="#03031C" stroke="#E9000D" stroke-width="2"/>
<circle cx="294" cy="248" r="6" fill="#03031C" stroke="#00FFFF" stroke-width="4"/>
<circle cx="238" cy="292" r="7" fill="#03031C" stroke="#E9000D" stroke-width="2"/>
<circle cx="170" cy="268" r="6" fill="#03031C" stroke="#00FFFF" stroke-width="4"/>
<path d="M532.646 10.728V8.328H530.39V7.416H532.646V5.016H533.63V7.416H535.886V8.328H533.63V10.728H532.646ZM541.14 12.216C540.484 12.216 539.924 12.104 539.46 11.88C539.004 11.648 538.632 11.336 538.344 10.944C538.064 10.552 537.86 10.1 537.732 9.588C537.604 9.068 537.54 8.52 537.54 7.944V7.296C537.54 6.488 537.664 5.76 537.912 5.112C538.168 4.464 538.56 3.952 539.088 3.576C539.624 3.192 540.308 3 541.14 3C541.972 3 542.652 3.192 543.18 3.576C543.708 3.952 544.096 4.464 544.344 5.112C544.6 5.76 544.728 6.488 544.728 7.296V7.944C544.728 8.52 544.664 9.068 544.536 9.588C544.408 10.1 544.2 10.552 543.912 10.944C543.632 11.336 543.264 11.648 542.808 11.88C542.352 12.104 541.796 12.216 541.14 12.216ZM541.14 11.16C541.972 11.16 542.58 10.88 542.964 10.32C543.356 9.752 543.552 8.856 543.552 7.632C543.552 6.352 543.352 5.436 542.952 4.884C542.56 4.332 541.956 4.056 541.14 4.056C540.316 4.056 539.704 4.332 539.304 4.884C538.912 5.436 538.716 6.344 538.716 7.608C538.716 8.84 538.912 9.74 539.304 10.308C539.696 10.876 540.308 11.16 541.14 11.16ZM546.47 12V10.536H547.862V12H546.47ZM552.322 12.216C551.666 12.216 551.11 12.088 550.654 11.832C550.198 11.576 549.85 11.236 549.61 10.812C549.378 10.388 549.262 9.928 549.262 9.432H550.39C550.39 9.976 550.562 10.408 550.906 10.728C551.258 11.048 551.73 11.208 552.322 11.208C552.914 11.208 553.382 11.048 553.726 10.728C554.078 10.408 554.254 9.976 554.254 9.432C554.254 8.888 554.078 8.448 553.726 8.112C553.382 7.776 552.918 7.608 552.334 7.608C552.086 7.608 551.87 7.64 551.686 7.704C551.51 7.76 551.354 7.832 551.218 7.92L550.642 6.888L553.99 4.44L553.87 4.224H549.61V3.24H554.95V4.836L552.358 6.72H552.37C553.01 6.72 553.554 6.84 554.002 7.08C554.45 7.32 554.79 7.64 555.022 8.04C555.262 8.44 555.382 8.876 555.382 9.348V9.516C555.382 9.98 555.262 10.42 555.022 10.836C554.79 11.244 554.446 11.576 553.99 11.832C553.542 12.088 552.986 12.216 552.322 12.216ZM556.681 9.924V8.508L560.317 3.024L561.121 3.66L557.725 8.796L557.833 9.012H561.253V5.796H562.333V9.012H563.497V9.924H562.333V12H561.253V9.924H556.681ZM566.169 7.944C565.713 7.944 565.341 7.84 565.053 7.632C564.773 7.424 564.565 7.148 564.429 6.804C564.301 6.46 564.237 6.088 564.237 5.688V5.376C564.237 4.944 564.305 4.56 564.441 4.224C564.577 3.88 564.789 3.612 565.077 3.42C565.365 3.22 565.729 3.12 566.169 3.12C566.617 3.12 566.981 3.22 567.261 3.42C567.549 3.612 567.761 3.88 567.897 4.224C568.033 4.56 568.101 4.944 568.101 5.376V5.688C568.101 6.088 568.033 6.46 567.897 6.804C567.769 7.148 567.565 7.424 567.285 7.632C567.005 7.84 566.633 7.944 566.169 7.944ZM566.817 12L570.129 3.24H571.041L567.729 12H566.817ZM566.169 7.152C566.897 7.152 567.261 6.616 567.261 5.544C567.261 4.976 567.169 4.564 566.985 4.308C566.801 4.044 566.529 3.912 566.169 3.912C565.809 3.912 565.537 4.044 565.353 4.308C565.169 4.564 565.077 4.972 565.077 5.532C565.077 6.612 565.441 7.152 566.169 7.152ZM571.641 12.12C571.185 12.12 570.813 12.016 570.525 11.808C570.245 11.6 570.037 11.324 569.901 10.98C569.773 10.636 569.709 10.264 569.709 9.864V9.552C569.709 9.12 569.777 8.736 569.913 8.4C570.049 8.056 570.261 7.788 570.549 7.596C570.837 7.396 571.201 7.296 571.641 7.296C572.089 7.296 572.453 7.396 572.733 7.596C573.021 7.788 573.233 8.056 573.369 8.4C573.505 8.736 573.573 9.12 573.573 9.552V9.864C573.573 10.264 573.505 10.636 573.369 10.98C573.241 11.324 573.037 11.6 572.757 11.808C572.477 12.016 572.105 12.12 571.641 12.12ZM571.641 11.328C572.369 11.328 572.733 10.792 572.733 9.72C572.733 9.152 572.641 8.74 572.457 8.484C572.273 8.22 572.001 8.088 571.641 8.088C571.281 8.088 571.009 8.22 570.825 8.484C570.641 8.74 570.549 9.148 570.549 9.708C570.549 10.788 570.913 11.328 571.641 11.328Z" fill="#00FFFF"/>
<path d="M411.427 62.728V60.328H409.171V59.416H411.427V57.016H412.411V59.416H414.667V60.328H412.411V62.728H411.427ZM419.921 64.216C419.265 64.216 418.705 64.104 418.241 63.88C417.785 63.648 417.413 63.336 417.125 62.944C416.845 62.552 416.641 62.1 416.513 61.588C416.385 61.068 416.321 60.52 416.321 59.944V59.296C416.321 58.488 416.445 57.76 416.693 57.112C416.949 56.464 417.341 55.952 417.869 55.576C418.405 55.192 419.089 55 419.921 55C420.753 55 421.433 55.192 421.961 55.576C422.489 55.952 422.877 56.464 423.125 57.112C423.381 57.76 423.509 58.488 423.509 59.296V59.944C423.509 60.52 423.445 61.068 423.317 61.588C423.189 62.1 422.981 62.552 422.693 62.944C422.413 63.336 422.045 63.648 421.589 63.88C421.133 64.104 420.577 64.216 419.921 64.216ZM419.921 63.16C420.753 63.16 421.361 62.88 421.745 62.32C422.137 61.752 422.333 60.856 422.333 59.632C422.333 58.352 422.133 57.436 421.733 56.884C421.341 56.332 420.737 56.056 419.921 56.056C419.097 56.056 418.485 56.332 418.085 56.884C417.693 57.436 417.497 58.344 417.497 59.608C417.497 60.84 417.693 61.74 418.085 62.308C418.477 62.876 419.089 63.16 419.921 63.16ZM425.251 64V62.536H426.643V64H425.251ZM431.104 64.216C430.448 64.216 429.892 64.088 429.436 63.832C428.98 63.576 428.632 63.236 428.392 62.812C428.16 62.388 428.044 61.928 428.044 61.432H429.172C429.172 61.976 429.344 62.408 429.688 62.728C430.04 63.048 430.512 63.208 431.104 63.208C431.696 63.208 432.164 63.048 432.508 62.728C432.86 62.408 433.036 61.976 433.036 61.432C433.036 60.888 432.86 60.448 432.508 60.112C432.164 59.776 431.7 59.608 431.116 59.608C430.868 59.608 430.652 59.64 430.468 59.704C430.292 59.76 430.136 59.832 430 59.92L429.424 58.888L432.772 56.44L432.652 56.224H428.392V55.24H433.732V56.836L431.14 58.72H431.152C431.792 58.72 432.336 58.84 432.784 59.08C433.232 59.32 433.572 59.64 433.804 60.04C434.044 60.44 434.164 60.876 434.164 61.348V61.516C434.164 61.98 434.044 62.42 433.804 62.836C433.572 63.244 433.228 63.576 432.772 63.832C432.324 64.088 431.768 64.216 431.104 64.216ZM439.351 64.216C438.695 64.216 438.135 64.104 437.671 63.88C437.215 63.648 436.843 63.336 436.555 62.944C436.275 62.552 436.071 62.1 435.943 61.588C435.815 61.068 435.751 60.52 435.751 59.944V59.296C435.751 58.488 435.875 57.76 436.123 57.112C436.379 56.464 436.771 55.952 437.299 55.576C437.835 55.192 438.519 55 439.351 55C440.183 55 440.863 55.192 441.391 55.576C441.919 55.952 442.307 56.464 442.555 57.112C442.811 57.76 442.939 58.488 442.939 59.296V59.944C442.939 60.52 442.875 61.068 442.747 61.588C442.619 62.1 442.411 62.552 442.123 62.944C441.843 63.336 441.475 63.648 441.019 63.88C440.563 64.104 440.007 64.216 439.351 64.216ZM439.351 63.16C440.183 63.16 440.791 62.88 441.175 62.32C441.567 61.752 441.763 60.856 441.763 59.632C441.763 58.352 441.563 57.436 441.163 56.884C440.771 56.332 440.167 56.056 439.351 56.056C438.527 56.056 437.915 56.332 437.515 56.884C437.123 57.436 436.927 58.344 436.927 59.608C436.927 60.84 437.123 61.74 437.515 62.308C437.907 62.876 438.519 63.16 439.351 63.16ZM446.169 59.944C445.713 59.944 445.341 59.84 445.053 59.632C444.773 59.424 444.565 59.148 444.429 58.804C444.301 58.46 444.237 58.088 444.237 57.688V57.376C444.237 56.944 444.305 56.56 444.441 56.224C444.577 55.88 444.789 55.612 445.077 55.42C445.365 55.22 445.729 55.12 446.169 55.12C446.617 55.12 446.981 55.22 447.261 55.42C447.549 55.612 447.761 55.88 447.897 56.224C448.033 56.56 448.101 56.944 448.101 57.376V57.688C448.101 58.088 448.033 58.46 447.897 58.804C447.769 59.148 447.565 59.424 447.285 59.632C447.005 59.84 446.633 59.944 446.169 59.944ZM446.817 64L450.129 55.24H451.041L447.729 64H446.817ZM446.169 59.152C446.897 59.152 447.261 58.616 447.261 57.544C447.261 56.976 447.169 56.564 446.985 56.308C446.801 56.044 446.529 55.912 446.169 55.912C445.809 55.912 445.537 56.044 445.353 56.308C445.169 56.564 445.077 56.972 445.077 57.532C445.077 58.612 445.441 59.152 446.169 59.152ZM451.641 64.12C451.185 64.12 450.813 64.016 450.525 63.808C450.245 63.6 450.037 63.324 449.901 62.98C449.773 62.636 449.709 62.264 449.709 61.864V61.552C449.709 61.12 449.777 60.736 449.913 60.4C450.049 60.056 450.261 59.788 450.549 59.596C450.837 59.396 451.201 59.296 451.641 59.296C452.089 59.296 452.453 59.396 452.733 59.596C453.021 59.788 453.233 60.056 453.369 60.4C453.505 60.736 453.573 61.12 453.573 61.552V61.864C453.573 62.264 453.505 62.636 453.369 62.98C453.241 63.324 453.037 63.6 452.757 63.808C452.477 64.016 452.105 64.12 451.641 64.12ZM451.641 63.328C452.369 63.328 452.733 62.792 452.733 61.72C452.733 61.152 452.641 60.74 452.457 60.484C452.273 60.22 452.001 60.088 451.641 60.088C451.281 60.088 451.009 60.22 450.825 60.484C450.641 60.74 450.549 61.148 450.549 61.708C450.549 62.788 450.913 63.328 451.641 63.328Z" fill="#00FFFF"/>
<path d="M317.753 241.156V240.172H322.217V241.156H317.753ZM327.472 244.216C326.816 244.216 326.256 244.104 325.792 243.88C325.336 243.648 324.964 243.336 324.676 242.944C324.396 242.552 324.192 242.1 324.064 241.588C323.936 241.068 323.872 240.52 323.872 239.944V239.296C323.872 238.488 323.996 237.76 324.244 237.112C324.5 236.464 324.892 235.952 325.42 235.576C325.956 235.192 326.64 235 327.472 235C328.304 235 328.984 235.192 329.512 235.576C330.04 235.952 330.428 236.464 330.676 237.112C330.932 237.76 331.06 238.488 331.06 239.296V239.944C331.06 240.52 330.996 241.068 330.868 241.588C330.74 242.1 330.532 242.552 330.244 242.944C329.964 243.336 329.596 243.648 329.14 243.88C328.684 244.104 328.128 244.216 327.472 244.216ZM327.472 243.16C328.304 243.16 328.912 242.88 329.296 242.32C329.688 241.752 329.884 240.856 329.884 239.632C329.884 238.352 329.684 237.436 329.284 236.884C328.892 236.332 328.288 236.056 327.472 236.056C326.648 236.056 326.036 236.332 325.636 236.884C325.244 237.436 325.048 238.344 325.048 239.608C325.048 240.84 325.244 241.74 325.636 242.308C326.028 242.876 326.64 243.16 327.472 243.16ZM332.802 244V242.536H334.194V244H332.802ZM337.514 244V236.224H335.57V235.24H338.666V244H337.514ZM340.681 241.924V240.508L344.317 235.024L345.121 235.66L341.725 240.796L341.833 241.012H345.253V237.796H346.333V241.012H347.497V241.924H346.333V244H345.253V241.924H340.681ZM350.169 239.944C349.713 239.944 349.341 239.84 349.053 239.632C348.773 239.424 348.565 239.148 348.429 238.804C348.301 238.46 348.237 238.088 348.237 237.688V237.376C348.237 236.944 348.305 236.56 348.441 236.224C348.577 235.88 348.789 235.612 349.077 235.42C349.365 235.22 349.729 235.12 350.169 235.12C350.617 235.12 350.981 235.22 351.261 235.42C351.549 235.612 351.761 235.88 351.897 236.224C352.033 236.56 352.101 236.944 352.101 237.376V237.688C352.101 238.088 352.033 238.46 351.897 238.804C351.769 239.148 351.565 239.424 351.285 239.632C351.005 239.84 350.633 239.944 350.169 239.944ZM350.817 244L354.129 235.24H355.041L351.729 244H350.817ZM350.169 239.152C350.897 239.152 351.261 238.616 351.261 237.544C351.261 236.976 351.169 236.564 350.985 236.308C350.801 236.044 350.529 235.912 350.169 235.912C349.809 235.912 349.537 236.044 349.353 236.308C349.169 236.564 349.077 236.972 349.077 237.532C349.077 238.612 349.441 239.152 350.169 239.152ZM355.641 244.12C355.185 244.12 354.813 244.016 354.525 243.808C354.245 243.6 354.037 243.324 353.901 242.98C353.773 242.636 353.709 242.264 353.709 241.864V241.552C353.709 241.12 353.777 240.736 353.913 240.4C354.049 240.056 354.261 239.788 354.549 239.596C354.837 239.396 355.201 239.296 355.641 239.296C356.089 239.296 356.453 239.396 356.733 239.596C357.021 239.788 357.233 240.056 357.369 240.4C357.505 240.736 357.573 241.12 357.573 241.552V241.864C357.573 242.264 357.505 242.636 357.369 242.98C357.241 243.324 357.037 243.6 356.757 243.808C356.477 244.016 356.105 244.12 355.641 244.12ZM355.641 243.328C356.369 243.328 356.733 242.792 356.733 241.72C356.733 241.152 356.641 240.74 356.457 240.484C356.273 240.22 356.001 240.088 355.641 240.088C355.281 240.088 355.009 240.22 354.825 240.484C354.641 240.74 354.549 241.148 354.549 241.708C354.549 242.788 354.913 243.328 355.641 243.328Z" fill="#E9000D"/>
<path d="M239.38 226.728V224.328H237.124V223.416H239.38V221.016H240.364V223.416H242.62V224.328H240.364V226.728H239.38ZM247.874 228.216C247.218 228.216 246.658 228.104 246.194 227.88C245.738 227.648 245.366 227.336 245.078 226.944C244.798 226.552 244.594 226.1 244.466 225.588C244.338 225.068 244.274 224.52 244.274 223.944V223.296C244.274 222.488 244.398 221.76 244.646 221.112C244.902 220.464 245.294 219.952 245.822 219.576C246.358 219.192 247.042 219 247.874 219C248.706 219 249.386 219.192 249.914 219.576C250.442 219.952 250.83 220.464 251.078 221.112C251.334 221.76 251.462 222.488 251.462 223.296V223.944C251.462 224.52 251.398 225.068 251.27 225.588C251.142 226.1 250.934 226.552 250.646 226.944C250.366 227.336 249.998 227.648 249.542 227.88C249.086 228.104 248.53 228.216 247.874 228.216ZM247.874 227.16C248.706 227.16 249.314 226.88 249.698 226.32C250.09 225.752 250.286 224.856 250.286 223.632C250.286 222.352 250.086 221.436 249.686 220.884C249.294 220.332 248.69 220.056 247.874 220.056C247.05 220.056 246.438 220.332 246.038 220.884C245.646 221.436 245.45 222.344 245.45 223.608C245.45 224.84 245.646 225.74 246.038 226.308C246.43 226.876 247.042 227.16 247.874 227.16ZM253.204 228V226.536H254.596V228H253.204ZM256.381 228V226.56C256.381 226.208 256.429 225.908 256.525 225.66C256.629 225.412 256.805 225.188 257.053 224.988C257.301 224.78 257.637 224.58 258.061 224.388L259.705 223.632C260.105 223.448 260.421 223.212 260.653 222.924C260.885 222.628 261.001 222.248 261.001 221.784C261.001 221.224 260.845 220.788 260.533 220.476C260.221 220.164 259.781 220.008 259.213 220.008C258.653 220.008 258.213 220.164 257.893 220.476C257.573 220.788 257.413 221.224 257.413 221.784H256.285C256.285 221.28 256.389 220.816 256.597 220.392C256.813 219.968 257.137 219.632 257.569 219.384C258.001 219.128 258.549 219 259.213 219C259.877 219 260.421 219.128 260.845 219.384C261.277 219.632 261.597 219.96 261.805 220.368C262.021 220.776 262.129 221.22 262.129 221.7V221.868C262.129 222.5 261.945 223.032 261.577 223.464C261.217 223.896 260.729 224.252 260.113 224.532L258.469 225.288C258.101 225.456 257.853 225.624 257.725 225.792C257.597 225.96 257.533 226.184 257.533 226.464V227.016H262.237V228H256.381ZM267.351 228.216C266.695 228.216 266.135 228.104 265.671 227.88C265.215 227.648 264.843 227.336 264.555 226.944C264.275 226.552 264.071 226.1 263.943 225.588C263.815 225.068 263.751 224.52 263.751 223.944V223.296C263.751 222.488 263.875 221.76 264.123 221.112C264.379 220.464 264.771 219.952 265.299 219.576C265.835 219.192 266.519 219 267.351 219C268.183 219 268.863 219.192 269.391 219.576C269.919 219.952 270.307 220.464 270.555 221.112C270.811 221.76 270.939 222.488 270.939 223.296V223.944C270.939 224.52 270.875 225.068 270.747 225.588C270.619 226.1 270.411 226.552 270.123 226.944C269.843 227.336 269.475 227.648 269.019 227.88C268.563 228.104 268.007 228.216 267.351 228.216ZM267.351 227.16C268.183 227.16 268.791 226.88 269.175 226.32C269.567 225.752 269.763 224.856 269.763 223.632C269.763 222.352 269.563 221.436 269.163 220.884C268.771 220.332 268.167 220.056 267.351 220.056C266.527 220.056 265.915 220.332 265.515 220.884C265.123 221.436 264.927 222.344 264.927 223.608C264.927 224.84 265.123 225.74 265.515 226.308C265.907 226.876 266.519 227.16 267.351 227.16ZM274.169 223.944C273.713 223.944 273.341 223.84 273.053 223.632C272.773 223.424 272.565 223.148 272.429 222.804C272.301 222.46 272.237 222.088 272.237 221.688V221.376C272.237 220.944 272.305 220.56 272.441 220.224C272.577 219.88 272.789 219.612 273.077 219.42C273.365 219.22 273.729 219.12 274.169 219.12C274.617 219.12 274.981 219.22 275.261 219.42C275.549 219.612 275.761 219.88 275.897 220.224C276.033 220.56 276.101 220.944 276.101 221.376V221.688C276.101 222.088 276.033 222.46 275.897 222.804C275.769 223.148 275.565 223.424 275.285 223.632C275.005 223.84 274.633 223.944 274.169 223.944ZM274.817 228L278.129 219.24H279.041L275.729 228H274.817ZM274.169 223.152C274.897 223.152 275.261 222.616 275.261 221.544C275.261 220.976 275.169 220.564 274.985 220.308C274.801 220.044 274.529 219.912 274.169 219.912C273.809 219.912 273.537 220.044 273.353 220.308C273.169 220.564 273.077 220.972 273.077 221.532C273.077 222.612 273.441 223.152 274.169 223.152ZM279.641 228.12C279.185 228.12 278.813 228.016 278.525 227.808C278.245 227.6 278.037 227.324 277.901 226.98C277.773 226.636 277.709 226.264 277.709 225.864V225.552C277.709 225.12 277.777 224.736 277.913 224.4C278.049 224.056 278.261 223.788 278.549 223.596C278.837 223.396 279.201 223.296 279.641 223.296C280.089 223.296 280.453 223.396 280.733 223.596C281.021 223.788 281.233 224.056 281.369 224.4C281.505 224.736 281.573 225.12 281.573 225.552V225.864C281.573 226.264 281.505 226.636 281.369 226.98C281.241 227.324 281.037 227.6 280.757 227.808C280.477 228.016 280.105 228.12 279.641 228.12ZM279.641 227.328C280.369 227.328 280.733 226.792 280.733 225.72C280.733 225.152 280.641 224.74 280.457 224.484C280.273 224.22 280.001 224.088 279.641 224.088C279.281 224.088 279.009 224.22 278.825 224.484C278.641 224.74 278.549 225.148 278.549 225.708C278.549 226.788 278.913 227.328 279.641 227.328Z" fill="#00FFFF"/>
<path d="M184.534 269.156V268.172H188.998V269.156H184.534ZM194.253 272.216C193.597 272.216 193.037 272.104 192.573 271.88C192.117 271.648 191.745 271.336 191.457 270.944C191.177 270.552 190.973 270.1 190.845 269.588C190.717 269.068 190.653 268.52 190.653 267.944V267.296C190.653 266.488 190.777 265.76 191.025 265.112C191.281 264.464 191.673 263.952 192.201 263.576C192.737 263.192 193.421 263 194.253 263C195.085 263 195.765 263.192 196.293 263.576C196.821 263.952 197.209 264.464 197.457 265.112C197.713 265.76 197.841 266.488 197.841 267.296V267.944C197.841 268.52 197.777 269.068 197.649 269.588C197.521 270.1 197.313 270.552 197.025 270.944C196.745 271.336 196.377 271.648 195.921 271.88C195.465 272.104 194.909 272.216 194.253 272.216ZM194.253 271.16C195.085 271.16 195.693 270.88 196.077 270.32C196.469 269.752 196.665 268.856 196.665 267.632C196.665 266.352 196.465 265.436 196.065 264.884C195.673 264.332 195.069 264.056 194.253 264.056C193.429 264.056 192.817 264.332 192.417 264.884C192.025 265.436 191.829 266.344 191.829 267.608C191.829 268.84 192.025 269.74 192.417 270.308C192.809 270.876 193.421 271.16 194.253 271.16ZM199.583 272V270.536H200.975V272H199.583ZM204.296 272V264.224H202.352V263.24H205.448V272H204.296ZM211.351 272.216C210.695 272.216 210.135 272.104 209.671 271.88C209.215 271.648 208.843 271.336 208.555 270.944C208.275 270.552 208.071 270.1 207.943 269.588C207.815 269.068 207.751 268.52 207.751 267.944V267.296C207.751 266.488 207.875 265.76 208.123 265.112C208.379 264.464 208.771 263.952 209.299 263.576C209.835 263.192 210.519 263 211.351 263C212.183 263 212.863 263.192 213.391 263.576C213.919 263.952 214.307 264.464 214.555 265.112C214.811 265.76 214.939 266.488 214.939 267.296V267.944C214.939 268.52 214.875 269.068 214.747 269.588C214.619 270.1 214.411 270.552 214.123 270.944C213.843 271.336 213.475 271.648 213.019 271.88C212.563 272.104 212.007 272.216 211.351 272.216ZM211.351 271.16C212.183 271.16 212.791 270.88 213.175 270.32C213.567 269.752 213.763 268.856 213.763 267.632C213.763 266.352 213.563 265.436 213.163 264.884C212.771 264.332 212.167 264.056 211.351 264.056C210.527 264.056 209.915 264.332 209.515 264.884C209.123 265.436 208.927 266.344 208.927 267.608C208.927 268.84 209.123 269.74 209.515 270.308C209.907 270.876 210.519 271.16 211.351 271.16ZM218.169 267.944C217.713 267.944 217.341 267.84 217.053 267.632C216.773 267.424 216.565 267.148 216.429 266.804C216.301 266.46 216.237 266.088 216.237 265.688V265.376C216.237 264.944 216.305 264.56 216.441 264.224C216.577 263.88 216.789 263.612 217.077 263.42C217.365 263.22 217.729 263.12 218.169 263.12C218.617 263.12 218.981 263.22 219.261 263.42C219.549 263.612 219.761 263.88 219.897 264.224C220.033 264.56 220.101 264.944 220.101 265.376V265.688C220.101 266.088 220.033 266.46 219.897 266.804C219.769 267.148 219.565 267.424 219.285 267.632C219.005 267.84 218.633 267.944 218.169 267.944ZM218.817 272L222.129 263.24H223.041L219.729 272H218.817ZM218.169 267.152C218.897 267.152 219.261 266.616 219.261 265.544C219.261 264.976 219.169 264.564 218.985 264.308C218.801 264.044 218.529 263.912 218.169 263.912C217.809 263.912 217.537 264.044 217.353 264.308C217.169 264.564 217.077 264.972 217.077 265.532C217.077 266.612 217.441 267.152 218.169 267.152ZM223.641 272.12C223.185 272.12 222.813 272.016 222.525 271.808C222.245 271.6 222.037 271.324 221.901 270.98C221.773 270.636 221.709 270.264 221.709 269.864V269.552C221.709 269.12 221.777 268.736 221.913 268.4C222.049 268.056 222.261 267.788 222.549 267.596C222.837 267.396 223.201 267.296 223.641 267.296C224.089 267.296 224.453 267.396 224.733 267.596C225.021 267.788 225.233 268.056 225.369 268.4C225.505 268.736 225.573 269.12 225.573 269.552V269.864C225.573 270.264 225.505 270.636 225.369 270.98C225.241 271.324 225.037 271.6 224.757 271.808C224.477 272.016 224.105 272.12 223.641 272.12ZM223.641 271.328C224.369 271.328 224.733 270.792 224.733 269.72C224.733 269.152 224.641 268.74 224.457 268.484C224.273 268.22 224.001 268.088 223.641 268.088C223.281 268.088 223.009 268.22 222.825 268.484C222.641 268.74 222.549 269.148 222.549 269.708C222.549 270.788 222.913 271.328 223.641 271.328Z" fill="#E9000D"/>
<path d="M119.259 246.728V244.328H117.003V243.416H119.259V241.016H120.243V243.416H122.499V244.328H120.243V246.728H119.259ZM127.753 248.216C127.097 248.216 126.537 248.104 126.073 247.88C125.617 247.648 125.245 247.336 124.957 246.944C124.677 246.552 124.473 246.1 124.345 245.588C124.217 245.068 124.153 244.52 124.153 243.944V243.296C124.153 242.488 124.277 241.76 124.525 241.112C124.781 240.464 125.173 239.952 125.701 239.576C126.237 239.192 126.921 239 127.753 239C128.585 239 129.265 239.192 129.793 239.576C130.321 239.952 130.709 240.464 130.957 241.112C131.213 241.76 131.341 242.488 131.341 243.296V243.944C131.341 244.52 131.277 245.068 131.149 245.588C131.021 246.1 130.813 246.552 130.525 246.944C130.245 247.336 129.877 247.648 129.421 247.88C128.965 248.104 128.409 248.216 127.753 248.216ZM127.753 247.16C128.585 247.16 129.193 246.88 129.577 246.32C129.969 245.752 130.165 244.856 130.165 243.632C130.165 242.352 129.965 241.436 129.565 240.884C129.173 240.332 128.569 240.056 127.753 240.056C126.929 240.056 126.317 240.332 125.917 240.884C125.525 241.436 125.329 242.344 125.329 243.608C125.329 244.84 125.525 245.74 125.917 246.308C126.309 246.876 126.921 247.16 127.753 247.16ZM133.083 248V246.536H134.475V248H133.083ZM137.796 248V240.224H135.852V239.24H138.948V248H137.796ZM141.299 248V246.56C141.299 246.208 141.347 245.908 141.443 245.66C141.547 245.412 141.723 245.188 141.971 244.988C142.219 244.78 142.555 244.58 142.979 244.388L144.623 243.632C145.023 243.448 145.339 243.212 145.571 242.924C145.803 242.628 145.919 242.248 145.919 241.784C145.919 241.224 145.763 240.788 145.451 240.476C145.139 240.164 144.699 240.008 144.131 240.008C143.571 240.008 143.131 240.164 142.811 240.476C142.491 240.788 142.331 241.224 142.331 241.784H141.203C141.203 241.28 141.307 240.816 141.515 240.392C141.731 239.968 142.055 239.632 142.487 239.384C142.919 239.128 143.467 239 144.131 239C144.795 239 145.339 239.128 145.763 239.384C146.195 239.632 146.515 239.96 146.723 240.368C146.939 240.776 147.047 241.22 147.047 241.7V241.868C147.047 242.5 146.863 243.032 146.495 243.464C146.135 243.896 145.647 244.252 145.031 244.532L143.387 245.288C143.019 245.456 142.771 245.624 142.643 245.792C142.515 245.96 142.451 246.184 142.451 246.464V247.016H147.155V248H141.299ZM150.169 243.944C149.713 243.944 149.341 243.84 149.053 243.632C148.773 243.424 148.565 243.148 148.429 242.804C148.301 242.46 148.237 242.088 148.237 241.688V241.376C148.237 240.944 148.305 240.56 148.441 240.224C148.577 239.88 148.789 239.612 149.077 239.42C149.365 239.22 149.729 239.12 150.169 239.12C150.617 239.12 150.981 239.22 151.261 239.42C151.549 239.612 151.761 239.88 151.897 240.224C152.033 240.56 152.101 240.944 152.101 241.376V241.688C152.101 242.088 152.033 242.46 151.897 242.804C151.769 243.148 151.565 243.424 151.285 243.632C151.005 243.84 150.633 243.944 150.169 243.944ZM150.817 248L154.129 239.24H155.041L151.729 248H150.817ZM150.169 243.152C150.897 243.152 151.261 242.616 151.261 241.544C151.261 240.976 151.169 240.564 150.985 240.308C150.801 240.044 150.529 239.912 150.169 239.912C149.809 239.912 149.537 240.044 149.353 240.308C149.169 240.564 149.077 240.972 149.077 241.532C149.077 242.612 149.441 243.152 150.169 243.152ZM155.641 248.12C155.185 248.12 154.813 248.016 154.525 247.808C154.245 247.6 154.037 247.324 153.901 246.98C153.773 246.636 153.709 246.264 153.709 245.864V245.552C153.709 245.12 153.777 244.736 153.913 244.4C154.049 244.056 154.261 243.788 154.549 243.596C154.837 243.396 155.201 243.296 155.641 243.296C156.089 243.296 156.453 243.396 156.733 243.596C157.021 243.788 157.233 244.056 157.369 244.4C157.505 244.736 157.573 245.12 157.573 245.552V245.864C157.573 246.264 157.505 246.636 157.369 246.98C157.241 247.324 157.037 247.6 156.757 247.808C156.477 248.016 156.105 248.12 155.641 248.12ZM155.641 247.328C156.369 247.328 156.733 246.792 156.733 245.72C156.733 245.152 156.641 244.74 156.457 244.484C156.273 244.22 156.001 244.088 155.641 244.088C155.281 244.088 155.009 244.22 154.825 244.484C154.641 244.74 154.549 245.148 154.549 245.708C154.549 246.788 154.913 247.328 155.641 247.328Z" fill="#00FFFF"/>
<path d="M3.09878 362.728V360.328H0.842781V359.416H3.09878V357.016H4.08278V359.416H6.33878V360.328H4.08278V362.728H3.09878ZM11.5929 364.216C10.9369 364.216 10.3769 364.104 9.91291 363.88C9.45691 363.648 9.08491 363.336 8.79691 362.944C8.51691 362.552 8.31291 362.1 8.18491 361.588C8.05691 361.068 7.99291 360.52 7.99291 359.944V359.296C7.99291 358.488 8.11691 357.76 8.36491 357.112C8.62091 356.464 9.01291 355.952 9.54091 355.576C10.0769 355.192 10.7609 355 11.5929 355C12.4249 355 13.1049 355.192 13.6329 355.576C14.1609 355.952 14.5489 356.464 14.7969 357.112C15.0529 357.76 15.1809 358.488 15.1809 359.296V359.944C15.1809 360.52 15.1169 361.068 14.9889 361.588C14.8609 362.1 14.6529 362.552 14.3649 362.944C14.0849 363.336 13.7169 363.648 13.2609 363.88C12.8049 364.104 12.2489 364.216 11.5929 364.216ZM11.5929 363.16C12.4249 363.16 13.0329 362.88 13.4169 362.32C13.8089 361.752 14.0049 360.856 14.0049 359.632C14.0049 358.352 13.8049 357.436 13.4049 356.884C13.0129 356.332 12.4089 356.056 11.5929 356.056C10.7689 356.056 10.1569 356.332 9.75691 356.884C9.36491 357.436 9.16891 358.344 9.16891 359.608C9.16891 360.84 9.36491 361.74 9.75691 362.308C10.1489 362.876 10.7609 363.16 11.5929 363.16ZM16.9229 364V362.536H18.3149V364H16.9229ZM23.6515 364.216C22.9955 364.216 22.4355 364.104 21.9715 363.88C21.5155 363.648 21.1435 363.336 20.8555 362.944C20.5755 362.552 20.3715 362.1 20.2435 361.588C20.1155 361.068 20.0515 360.52 20.0515 359.944V359.296C20.0515 358.488 20.1755 357.76 20.4235 357.112C20.6795 356.464 21.0715 355.952 21.5995 355.576C22.1355 355.192 22.8195 355 23.6515 355C24.4835 355 25.1635 355.192 25.6915 355.576C26.2195 355.952 26.6075 356.464 26.8555 357.112C27.1115 357.76 27.2395 358.488 27.2395 359.296V359.944C27.2395 360.52 27.1755 361.068 27.0475 361.588C26.9195 362.1 26.7115 362.552 26.4235 362.944C26.1435 363.336 25.7755 363.648 25.3195 363.88C24.8635 364.104 24.3075 364.216 23.6515 364.216ZM23.6515 363.16C24.4835 363.16 25.0915 362.88 25.4755 362.32C25.8675 361.752 26.0635 360.856 26.0635 359.632C26.0635 358.352 25.8635 357.436 25.4635 356.884C25.0715 356.332 24.4675 356.056 23.6515 356.056C22.8275 356.056 22.2155 356.332 21.8155 356.884C21.4235 357.436 21.2275 358.344 21.2275 359.608C21.2275 360.84 21.4235 361.74 21.8155 362.308C22.2075 362.876 22.8195 363.16 23.6515 363.16ZM28.6815 361.924V360.508L32.3175 355.024L33.1215 355.66L29.7255 360.796L29.8335 361.012H33.2535V357.796H34.3335V361.012H35.4975V361.924H34.3335V364H33.2535V361.924H28.6815ZM38.1687 359.944C37.7127 359.944 37.3407 359.84 37.0527 359.632C36.7727 359.424 36.5647 359.148 36.4287 358.804C36.3007 358.46 36.2367 358.088 36.2367 357.688V357.376C36.2367 356.944 36.3047 356.56 36.4407 356.224C36.5767 355.88 36.7887 355.612 37.0767 355.42C37.3647 355.22 37.7287 355.12 38.1687 355.12C38.6167 355.12 38.9807 355.22 39.2607 355.42C39.5487 355.612 39.7607 355.88 39.8967 356.224C40.0327 356.56 40.1007 356.944 40.1007 357.376V357.688C40.1007 358.088 40.0327 358.46 39.8967 358.804C39.7687 359.148 39.5647 359.424 39.2847 359.632C39.0047 359.84 38.6327 359.944 38.1687 359.944ZM38.8167 364L42.1287 355.24H43.0407L39.7287 364H38.8167ZM38.1687 359.152C38.8967 359.152 39.2607 358.616 39.2607 357.544C39.2607 356.976 39.1687 356.564 38.9847 356.308C38.8007 356.044 38.5287 355.912 38.1687 355.912C37.8087 355.912 37.5367 356.044 37.3527 356.308C37.1687 356.564 37.0767 356.972 37.0767 357.532C37.0767 358.612 37.4407 359.152 38.1687 359.152ZM43.6407 364.12C43.1847 364.12 42.8127 364.016 42.5247 363.808C42.2447 363.6 42.0367 363.324 41.9007 362.98C41.7727 362.636 41.7087 362.264 41.7087 361.864V361.552C41.7087 361.12 41.7767 360.736 41.9127 360.4C42.0487 360.056 42.2607 359.788 42.5487 359.596C42.8367 359.396 43.2007 359.296 43.6407 359.296C44.0887 359.296 44.4527 359.396 44.7327 359.596C45.0207 359.788 45.2327 360.056 45.3687 360.4C45.5047 360.736 45.5727 361.12 45.5727 361.552V361.864C45.5727 362.264 45.5047 362.636 45.3687 362.98C45.2407 363.324 45.0367 363.6 44.7567 363.808C44.4767 364.016 44.1047 364.12 43.6407 364.12ZM43.6407 363.328C44.3687 363.328 44.7327 362.792 44.7327 361.72C44.7327 361.152 44.6407 360.74 44.4567 360.484C44.2727 360.22 44.0007 360.088 43.6407 360.088C43.2807 360.088 43.0087 360.22 42.8247 360.484C42.6407 360.74 42.5487 361.148 42.5487 361.708C42.5487 362.788 42.9127 363.328 43.6407 363.328Z" fill="#00FFFF"/>
<path d="M589.942 11.5167L586.21 7.09493C586.103 6.96836 585.898 6.96836 585.79 7.09493L582.058 11.5167C581.919 11.6816 582.044 11.9231 582.268 11.9231L589.732 11.9231C589.956 11.9231 590.081 11.6816 589.942 11.5167Z" fill="#00FFFF"/>
<path d="M469.942 63.5167L466.21 59.0949C466.103 58.9684 465.898 58.9684 465.79 59.0949L462.058 63.5167C461.919 63.6816 462.044 63.9231 462.268 63.9231L469.732 63.9231C469.956 63.9231 470.081 63.6816 469.942 63.5167Z" fill="#00FFFF"/>
<path d="M366.058 239.406L369.79 243.828C369.897 243.955 370.102 243.955 370.21 243.828L373.942 239.406C374.081 239.242 373.956 239 373.732 239L366.268 239C366.044 239 365.919 239.242 366.058 239.406Z" fill="#E9000D"/>
<path d="M297.942 227.517L294.21 223.095C294.103 222.968 293.898 222.968 293.79 223.095L290.058 227.517C289.919 227.682 290.044 227.923 290.268 227.923L297.732 227.923C297.956 227.923 298.081 227.682 297.942 227.517Z" fill="#00FFFF"/>
<path d="M234.058 267.406L237.79 271.828C237.897 271.955 238.102 271.955 238.21 271.828L241.942 267.406C242.081 267.242 241.956 267 241.732 267L234.268 267C234.044 267 233.919 267.242 234.058 267.406Z" fill="#E9000D"/>
<path d="M173.942 247.517L170.21 243.095C170.103 242.968 169.898 242.968 169.79 243.095L166.058 247.517C165.919 247.682 166.044 247.923 166.268 247.923L173.732 247.923C173.956 247.923 174.081 247.682 173.942 247.517Z" fill="#00FFFF"/>
<path d="M61.9419 363.517L58.2102 359.095C58.1034 358.968 57.8977 358.968 57.7898 359.095L54.0581 363.517C53.9195 363.682 54.0445 363.923 54.2683 363.923L61.7317 363.923C61.9555 363.923 62.0805 363.682 61.9419 363.517Z" fill="#00FFFF"/>
<defs>
<filter id="filter0_d_624_25" x="26" y="9.99951" width="592" height="416" filterUnits="userSpaceOnUse" color-interpolation-filters="sRGB">
<feFlood flood-opacity="0" result="BackgroundImageFix"/>
<feColorMatrix in="SourceAlpha" type="matrix" values="0 0 0 0 0 0 0 0 0 0 0 0 0 0 0 0 0 0 127 0" result="hardAlpha"/>
<feOffset dy="10"/>
<feGaussianBlur stdDeviation="15"/>
<feComposite in2="hardAlpha" operator="out"/>
<feColorMatrix type="matrix" values="0 0 0 0 0.0117647 0 0 0 0 0.0117647 0 0 0 0 0.109804 0 0 0 1 0"/>
<feBlend mode="normal" in2="BackgroundImageFix" result="effect1_dropShadow_624_25"/>
<feBlend mode="normal" in="SourceGraphic" in2="effect1_dropShadow_624_25" result="shape"/>
</filter>
<linearGradient id="paint0_linear_624_25" x1="526" y1="58" x2="526" y2="399" gradientUnits="userSpaceOnUse">
<stop stop-color="#00FFFF"/>
<stop offset="1" stop-color="#03031C"/>
</linearGradient>
<linearGradient id="paint1_linear_624_25" x1="418" y1="163" x2="418" y2="414" gradientUnits="userSpaceOnUse">
<stop stop-color="#00FFFF"/>
<stop offset="1" stop-color="#03031C"/>
</linearGradient>
<linearGradient id="paint2_linear_624_25" x1="332" y1="240" x2="361.992" y2="418.974" gradientUnits="userSpaceOnUse">
<stop stop-color="#00FFFF"/>
<stop offset="1" stop-color="#03031C"/>
</linearGradient>
<linearGradient id="paint3_linear_624_25" x1="266" y1="212" x2="339.363" y2="394.51" gradientUnits="userSpaceOnUse">
<stop stop-color="#00FFFF"/>
<stop offset="1" stop-color="#03031C"/>
</linearGradient>
<linearGradient id="paint4_linear_624_25" x1="204" y1="279" x2="204" y2="422" gradientUnits="userSpaceOnUse">
<stop stop-color="#00FFFF"/>
<stop offset="1" stop-color="#03031C"/>
</linearGradient>
<linearGradient id="paint5_linear_624_25" x1="114" y1="215" x2="139.978" y2="451.142" gradientUnits="userSpaceOnUse">
<stop stop-color="#00FFFF"/>
<stop offset="1" stop-color="#03031C"/>
</linearGradient>
<linearGradient id="paint6_linear_624_25" x1="543" y1="43" x2="53.0001" y2="400" gradientUnits="userSpaceOnUse">
<stop stop-color="#00FFFF"/>
<stop offset="1" stop-color="#03031C"/>
</linearGradient>
<linearGradient id="paint7_linear_624_25" x1="466.5" y1="84" x2="466.5" y2="471.5" gradientUnits="userSpaceOnUse">
<stop stop-color="#00FFFF"/>
<stop offset="1" stop-color="#00FFFF" stop-opacity="0"/>
</linearGradient>
<linearGradient id="paint8_linear_624_25" x1="370.5" y1="84.0001" x2="370.5" y2="471.5" gradientUnits="userSpaceOnUse">
<stop stop-color="#00FFFF"/>
<stop offset="1" stop-color="#00FFFF" stop-opacity="0"/>
</linearGradient>
<linearGradient id="paint9_linear_624_25" x1="294.5" y1="84.0001" x2="294.5" y2="471.5" gradientUnits="userSpaceOnUse">
<stop stop-color="#00FFFF"/>
<stop offset="1" stop-color="#00FFFF" stop-opacity="0"/>
</linearGradient>
<linearGradient id="paint10_linear_624_25" x1="238.5" y1="84.0001" x2="238.5" y2="471.5" gradientUnits="userSpaceOnUse">
<stop stop-color="#00FFFF"/>
<stop offset="1" stop-color="#00FFFF" stop-opacity="0"/>
</linearGradient>
<linearGradient id="paint11_linear_624_25" x1="170.5" y1="84.0001" x2="170.5" y2="471.5" gradientUnits="userSpaceOnUse">
<stop stop-color="#00FFFF"/>
<stop offset="1" stop-color="#00FFFF" stop-opacity="0"/>
</linearGradient>
</defs>
</svg>
