<svg width="432" height="232" viewBox="0 0 432 232" fill="none" xmlns="http://www.w3.org/2000/svg">
<path d="M32.178 13L29.42 2.78H30.834L33.144 11.768H33.578L35.454 3.2H37.204L39.318 11.768H39.752L41.81 2.78H43.182L40.676 13H38.324L36.322 5.02L34.516 13H32.178ZM46.0275 4.32C45.7288 4.32 45.5048 4.24067 45.3555 4.082C45.2155 3.92333 45.1455 3.72267 45.1455 3.48C45.1455 3.23733 45.2155 3.03667 45.3555 2.878C45.5048 2.71933 45.7288 2.64 46.0275 2.64C46.3262 2.64 46.5455 2.71933 46.6855 2.878C46.8348 3.03667 46.9095 3.23733 46.9095 3.48C46.9095 3.72267 46.8348 3.92333 46.6855 4.082C46.5455 4.24067 46.3262 4.32 46.0275 4.32ZM45.6495 13V6.588H44.5015V5.524H46.9935V13H45.6495ZM50.1521 13V5.524H51.2161V7.26C51.3841 6.62533 51.6828 6.14 52.1121 5.804C52.5508 5.468 53.1201 5.3 53.8201 5.3H53.8761C54.8188 5.3 55.5141 5.594 55.9621 6.182C56.4195 6.77 56.6481 7.61933 56.6481 8.73V13H55.3041V8.45C55.3041 7.87133 55.1408 7.40933 54.8141 7.064C54.4875 6.70933 54.0395 6.532 53.4701 6.532C52.8821 6.532 52.4061 6.714 52.0421 7.078C51.6781 7.442 51.4961 7.92733 51.4961 8.534V13H50.1521ZM59.6672 13V5.524H60.7312V7.26C60.8992 6.62533 61.1979 6.14 61.6272 5.804C62.0659 5.468 62.6352 5.3 63.3352 5.3H63.3912C64.3339 5.3 65.0292 5.594 65.4772 6.182C65.9346 6.77 66.1632 7.61933 66.1632 8.73V13H64.8192V8.45C64.8192 7.87133 64.6559 7.40933 64.3292 7.064C64.0026 6.70933 63.5546 6.532 62.9852 6.532C62.3972 6.532 61.9212 6.714 61.5572 7.078C61.1932 7.442 61.0112 7.92733 61.0112 8.534V13H59.6672ZM69.9243 4.32C69.6256 4.32 69.4016 4.24067 69.2523 4.082C69.1123 3.92333 69.0423 3.72267 69.0423 3.48C69.0423 3.23733 69.1123 3.03667 69.2523 2.878C69.4016 2.71933 69.6256 2.64 69.9243 2.64C70.223 2.64 70.4423 2.71933 70.5823 2.878C70.7316 3.03667 70.8063 3.23733 70.8063 3.48C70.8063 3.72267 70.7316 3.92333 70.5823 4.082C70.4423 4.24067 70.223 4.32 69.9243 4.32ZM69.5463 13V6.588H68.3983V5.524H70.8903V13H69.5463ZM74.0489 13V5.524H75.1129V7.26C75.2809 6.62533 75.5796 6.14 76.0089 5.804C76.4476 5.468 77.0169 5.3 77.7169 5.3H77.7729C78.7156 5.3 79.4109 5.594 79.8589 6.182C80.3163 6.77 80.5449 7.61933 80.5449 8.73V13H79.2009V8.45C79.2009 7.87133 79.0376 7.40933 78.7109 7.064C78.3843 6.70933 77.9363 6.532 77.3669 6.532C76.7789 6.532 76.3029 6.714 75.9389 7.078C75.5749 7.442 75.3929 7.92733 75.3929 8.534V13H74.0489ZM86.392 15.912C85.692 15.912 85.0107 15.8607 84.348 15.758V14.624C84.684 14.6707 85.034 14.708 85.398 14.736C85.7713 14.7733 86.1213 14.792 86.448 14.792C87.4747 14.792 88.1933 14.582 88.604 14.162C89.024 13.7513 89.234 13.0887 89.234 12.174V11.502C88.954 12.0247 88.576 12.4167 88.1 12.678C87.6333 12.93 87.1153 13.056 86.546 13.056C85.846 13.056 85.23 12.8833 84.698 12.538C84.166 12.1833 83.7507 11.7167 83.452 11.138C83.1533 10.5593 83.004 9.92467 83.004 9.234V8.982C83.004 8.282 83.158 7.652 83.466 7.092C83.774 6.532 84.1987 6.08867 84.74 5.762C85.2813 5.43533 85.9067 5.272 86.616 5.272C87.2693 5.272 87.8387 5.41667 88.324 5.706C88.8187 5.99533 89.1967 6.41533 89.458 6.966V5.524H90.522V12.118C90.522 13.014 90.382 13.7373 90.102 14.288C89.8313 14.848 89.3927 15.2587 88.786 15.52C88.1887 15.7813 87.3907 15.912 86.392 15.912ZM86.798 11.824C87.246 11.824 87.652 11.726 88.016 11.53C88.3893 11.334 88.6833 11.054 88.898 10.69C89.122 10.3167 89.234 9.87333 89.234 9.36V8.716C89.234 8.212 89.1173 7.78733 88.884 7.442C88.66 7.09667 88.366 6.83533 88.002 6.658C87.638 6.48067 87.2413 6.392 86.812 6.392C86.0747 6.392 85.4773 6.63933 85.02 7.134C84.572 7.62867 84.348 8.28667 84.348 9.108C84.348 9.93867 84.5767 10.6013 85.034 11.096C85.5007 11.5813 86.0887 11.824 86.798 11.824ZM32.472 29V20.012H29.364V18.78H36.952V20.012H33.844V29H32.472ZM38.7367 29V21.524H39.8007V23.764C39.9127 22.9613 40.2067 22.3733 40.6827 22C41.1587 21.6267 41.8073 21.44 42.6287 21.44H42.8807V22.644H42.4047C41.658 22.644 41.084 22.8447 40.6827 23.246C40.2813 23.638 40.0807 24.2073 40.0807 24.954V29H38.7367ZM47.0835 29.196C46.2342 29.196 45.5668 28.986 45.0815 28.566C44.6055 28.1367 44.3675 27.5347 44.3675 26.76C44.3675 25.9667 44.6335 25.3693 45.1655 24.968C45.6975 24.5573 46.4488 24.352 47.4195 24.352H49.3095V24.17C49.3095 23.134 48.7868 22.616 47.7415 22.616C47.3122 22.616 46.8642 22.6253 46.3975 22.644C45.9308 22.6627 45.5435 22.6813 45.2355 22.7V21.524C45.5342 21.496 45.8655 21.4773 46.2295 21.468C46.6028 21.4493 46.9575 21.44 47.2935 21.44C48.4415 21.44 49.2768 21.65 49.7995 22.07C50.3315 22.49 50.5975 23.2227 50.5975 24.268V29H49.5335V27.516C49.1975 28.636 48.3808 29.196 47.0835 29.196ZM47.3635 28.132C47.6808 28.132 47.9842 28.076 48.2735 27.964C48.5628 27.8427 48.8008 27.6467 48.9875 27.376C49.1835 27.096 49.2908 26.7133 49.3095 26.228V25.36H47.3635C46.8222 25.36 46.4068 25.4907 46.1175 25.752C45.8282 26.0133 45.6835 26.3493 45.6835 26.76C45.6835 27.1707 45.8282 27.502 46.1175 27.754C46.4068 28.006 46.8222 28.132 47.3635 28.132ZM56.7463 29.252C56.0369 29.252 55.4023 29.0793 54.8423 28.734C54.2916 28.3887 53.8576 27.9267 53.5403 27.348C53.2229 26.76 53.0643 26.1067 53.0643 25.388V25.136C53.0643 24.4267 53.2183 23.7827 53.5263 23.204C53.8343 22.616 54.2589 22.1493 54.8003 21.804C55.3509 21.4493 55.9856 21.272 56.7043 21.272C57.2549 21.272 57.7589 21.384 58.2163 21.608C58.6829 21.832 59.0609 22.182 59.3503 22.658V18.78H60.6943V29H59.6303V27.46C59.3409 28.0947 58.9349 28.552 58.4123 28.832C57.8989 29.112 57.3436 29.252 56.7463 29.252ZM56.9283 28.076C57.3856 28.076 57.8009 27.9733 58.1743 27.768C58.5476 27.5627 58.8463 27.2687 59.0703 26.886C59.2943 26.494 59.4063 26.0367 59.4063 25.514V24.87C59.4063 24.3567 59.2896 23.9227 59.0563 23.568C58.8323 23.204 58.5289 22.9287 58.1463 22.742C57.7729 22.546 57.3623 22.448 56.9143 22.448C56.1676 22.448 55.5609 22.7047 55.0943 23.218C54.6369 23.7313 54.4083 24.4127 54.4083 25.262C54.4083 25.8313 54.5156 26.3307 54.7303 26.76C54.9449 27.18 55.2436 27.5067 55.6263 27.74C56.0089 27.964 56.4429 28.076 56.9283 28.076ZM67.0146 29.252C66.3613 29.252 65.7966 29.14 65.3206 28.916C64.8446 28.692 64.4573 28.398 64.1586 28.034C63.8599 27.6607 63.6359 27.2453 63.4866 26.788C63.3466 26.3307 63.2766 25.864 63.2766 25.388V25.136C63.2766 24.6507 63.3466 24.1793 63.4866 23.722C63.6359 23.2647 63.8599 22.854 64.1586 22.49C64.4573 22.1167 64.8353 21.8227 65.2926 21.608C65.7593 21.384 66.3053 21.272 66.9306 21.272C67.7426 21.272 68.4099 21.4493 68.9326 21.804C69.4646 22.1493 69.8566 22.5973 70.1086 23.148C70.3699 23.6987 70.5006 24.2867 70.5006 24.912V25.514H64.5646C64.6113 26.2513 64.8306 26.8627 65.2226 27.348C65.6146 27.8333 66.2119 28.076 67.0146 28.076C67.6026 28.076 68.0786 27.9453 68.4426 27.684C68.8159 27.4227 69.0399 27.1193 69.1146 26.774H70.3746C70.2159 27.5487 69.8379 28.1553 69.2406 28.594C68.6433 29.0327 67.9013 29.252 67.0146 29.252ZM66.9306 22.448C66.2586 22.448 65.7313 22.6393 65.3486 23.022C64.9659 23.3953 64.7233 23.89 64.6206 24.506H69.1846C69.1006 23.8713 68.8719 23.372 68.4986 23.008C68.1253 22.6347 67.6026 22.448 66.9306 22.448ZM75.4189 29.224C74.4389 29.224 73.6782 29.014 73.1369 28.594C72.6049 28.174 72.3295 27.6 72.3109 26.872H73.5709C73.5895 27.1613 73.7342 27.4367 74.0049 27.698C74.2849 27.95 74.7562 28.076 75.4189 28.076C76.0162 28.076 76.4735 27.9593 76.7909 27.726C77.1082 27.4833 77.2669 27.1893 77.2669 26.844C77.2669 26.536 77.1502 26.298 76.9169 26.13C76.6835 25.9527 76.3055 25.836 75.7829 25.78L74.9709 25.696C74.2615 25.6213 73.6829 25.4113 73.2349 25.066C72.7869 24.7113 72.5629 24.2167 72.5629 23.582C72.5629 22.8633 72.8289 22.3033 73.3609 21.902C73.8929 21.5007 74.5789 21.3 75.4189 21.3C76.2589 21.3 76.9402 21.4867 77.4629 21.86C77.9855 22.2333 78.2562 22.7887 78.2749 23.526H77.0149C77.0055 23.2273 76.8655 22.9753 76.5949 22.77C76.3335 22.5553 75.9415 22.448 75.4189 22.448C74.8962 22.448 74.4995 22.5553 74.2289 22.77C73.9582 22.9847 73.8229 23.2553 73.8229 23.582C73.8229 23.862 73.9162 24.086 74.1029 24.254C74.2989 24.422 74.6162 24.5293 75.0549 24.576L75.8669 24.66C76.6695 24.744 77.3135 24.968 77.7989 25.332C78.2842 25.6867 78.5269 26.1907 78.5269 26.844C78.5269 27.3107 78.3915 27.726 78.1209 28.09C77.8595 28.4447 77.4955 28.7247 77.0289 28.93C76.5622 29.126 76.0255 29.224 75.4189 29.224Z" fill="white"/>
<path d="M282.922 13.252C281.989 13.252 281.191 13.0887 280.528 12.762C279.875 12.4353 279.347 12.0107 278.946 11.488C278.545 10.9653 278.251 10.4007 278.064 9.794C277.877 9.178 277.784 8.58533 277.784 8.016V7.708C277.784 7.092 277.877 6.476 278.064 5.86C278.26 5.244 278.559 4.684 278.96 4.18C279.361 3.676 279.884 3.27 280.528 2.962C281.172 2.654 281.942 2.5 282.838 2.5C284.201 2.5 285.274 2.85 286.058 3.55C286.851 4.24067 287.313 5.16467 287.444 6.322H286.044C285.923 5.454 285.563 4.81 284.966 4.39C284.378 3.97 283.669 3.76 282.838 3.76C282.035 3.76 281.359 3.94667 280.808 4.32C280.267 4.684 279.861 5.17867 279.59 5.804C279.319 6.42 279.184 7.11067 279.184 7.876C279.184 8.604 279.319 9.28067 279.59 9.906C279.87 10.5313 280.285 11.0353 280.836 11.418C281.396 11.8007 282.091 11.992 282.922 11.992C283.799 11.992 284.537 11.7727 285.134 11.334C285.731 10.8953 286.095 10.2607 286.226 9.43H287.626C287.533 10.13 287.295 10.7693 286.912 11.348C286.539 11.9267 286.016 12.3887 285.344 12.734C284.681 13.0793 283.874 13.252 282.922 13.252ZM290.061 13V3.844H289.025V2.78H291.405V13H290.061ZM295.285 4.32C294.986 4.32 294.762 4.24067 294.613 4.082C294.473 3.92333 294.403 3.72267 294.403 3.48C294.403 3.23733 294.473 3.03667 294.613 2.878C294.762 2.71933 294.986 2.64 295.285 2.64C295.583 2.64 295.803 2.71933 295.943 2.878C296.092 3.03667 296.167 3.23733 296.167 3.48C296.167 3.72267 296.092 3.92333 295.943 4.082C295.803 4.24067 295.583 4.32 295.285 4.32ZM294.907 13V6.588H293.759V5.524H296.251V13H294.907ZM302.587 13.252C301.934 13.252 301.369 13.14 300.893 12.916C300.417 12.692 300.03 12.398 299.731 12.034C299.433 11.6607 299.209 11.2453 299.059 10.788C298.919 10.3307 298.849 9.864 298.849 9.388V9.136C298.849 8.65067 298.919 8.17933 299.059 7.722C299.209 7.26467 299.433 6.854 299.731 6.49C300.03 6.11667 300.408 5.82267 300.865 5.608C301.332 5.384 301.878 5.272 302.503 5.272C303.315 5.272 303.983 5.44933 304.505 5.804C305.037 6.14933 305.429 6.59733 305.681 7.148C305.943 7.69867 306.073 8.28667 306.073 8.912V9.514H300.137C300.184 10.2513 300.403 10.8627 300.795 11.348C301.187 11.8333 301.785 12.076 302.587 12.076C303.175 12.076 303.651 11.9453 304.015 11.684C304.389 11.4227 304.613 11.1193 304.687 10.774H305.947C305.789 11.5487 305.411 12.1553 304.813 12.594C304.216 13.0327 303.474 13.252 302.587 13.252ZM302.503 6.448C301.831 6.448 301.304 6.63933 300.921 7.022C300.539 7.39533 300.296 7.89 300.193 8.506H304.757C304.673 7.87133 304.445 7.372 304.071 7.008C303.698 6.63467 303.175 6.448 302.503 6.448ZM308.542 13V5.524H309.606V7.26C309.774 6.62533 310.072 6.14 310.502 5.804C310.94 5.468 311.51 5.3 312.21 5.3H312.266C313.208 5.3 313.904 5.594 314.352 6.182C314.809 6.77 315.038 7.61933 315.038 8.73V13H313.694V8.45C313.694 7.87133 313.53 7.40933 313.204 7.064C312.877 6.70933 312.429 6.532 311.86 6.532C311.272 6.532 310.796 6.714 310.432 7.078C310.068 7.442 309.886 7.92733 309.886 8.534V13H308.542ZM320.969 13.084C320.409 13.084 319.923 13.0047 319.513 12.846C319.111 12.6873 318.799 12.4167 318.575 12.034C318.36 11.642 318.253 11.1147 318.253 10.452V6.532H316.965V5.524H318.253V3.256H319.541V5.524H322.117V6.532H319.541V10.62C319.541 11.0213 319.648 11.334 319.863 11.558C320.087 11.7727 320.399 11.88 320.801 11.88H322.117V13.084H320.969ZM326.973 13.224C325.993 13.224 325.232 13.014 324.691 12.594C324.159 12.174 323.884 11.6 323.865 10.872H325.125C325.144 11.1613 325.288 11.4367 325.559 11.698C325.839 11.95 326.31 12.076 326.973 12.076C327.57 12.076 328.028 11.9593 328.345 11.726C328.662 11.4833 328.821 11.1893 328.821 10.844C328.821 10.536 328.704 10.298 328.471 10.13C328.238 9.95267 327.86 9.836 327.337 9.78L326.525 9.696C325.816 9.62133 325.237 9.41133 324.789 9.066C324.341 8.71133 324.117 8.21667 324.117 7.582C324.117 6.86333 324.383 6.30333 324.915 5.902C325.447 5.50067 326.133 5.3 326.973 5.3C327.813 5.3 328.494 5.48667 329.017 5.86C329.54 6.23333 329.81 6.78867 329.829 7.526H328.569C328.56 7.22733 328.42 6.97533 328.149 6.77C327.888 6.55533 327.496 6.448 326.973 6.448C326.45 6.448 326.054 6.55533 325.783 6.77C325.512 6.98467 325.377 7.25533 325.377 7.582C325.377 7.862 325.47 8.086 325.657 8.254C325.853 8.422 326.17 8.52933 326.609 8.576L327.421 8.66C328.224 8.744 328.868 8.968 329.353 9.332C329.838 9.68667 330.081 10.1907 330.081 10.844C330.081 11.3107 329.946 11.726 329.675 12.09C329.414 12.4447 329.05 12.7247 328.583 12.93C328.116 13.126 327.58 13.224 326.973 13.224ZM281.802 29.252C280.953 29.252 280.229 29.112 279.632 28.832C279.035 28.552 278.577 28.1647 278.26 27.67C277.943 27.1753 277.784 26.6153 277.784 25.99H279.156C279.156 26.298 279.235 26.606 279.394 26.914C279.562 27.222 279.837 27.4787 280.22 27.684C280.612 27.8893 281.139 27.992 281.802 27.992C282.418 27.992 282.922 27.9033 283.314 27.726C283.706 27.5393 283.995 27.3013 284.182 27.012C284.369 26.7133 284.462 26.3913 284.462 26.046C284.462 25.626 284.28 25.2807 283.916 25.01C283.552 24.73 283.02 24.5573 282.32 24.492L281.186 24.394C280.281 24.3193 279.557 24.0393 279.016 23.554C278.475 23.0687 278.204 22.4293 278.204 21.636C278.204 21.0107 278.353 20.4647 278.652 19.998C278.96 19.5313 279.385 19.1673 279.926 18.906C280.467 18.6353 281.097 18.5 281.816 18.5C282.525 18.5 283.151 18.6307 283.692 18.892C284.233 19.1533 284.653 19.522 284.952 19.998C285.26 20.4647 285.414 21.0247 285.414 21.678H284.042C284.042 21.3513 283.963 21.0433 283.804 20.754C283.655 20.4647 283.417 20.2267 283.09 20.04C282.763 19.8533 282.339 19.76 281.816 19.76C281.312 19.76 280.892 19.8487 280.556 20.026C280.229 20.2033 279.982 20.4367 279.814 20.726C279.655 21.006 279.576 21.3093 279.576 21.636C279.576 22.0093 279.721 22.3407 280.01 22.63C280.299 22.9193 280.729 23.0873 281.298 23.134L282.432 23.232C283.477 23.3253 284.303 23.6147 284.91 24.1C285.526 24.576 285.834 25.2247 285.834 26.046C285.834 26.6713 285.666 27.2267 285.33 27.712C284.994 28.1973 284.523 28.5753 283.916 28.846C283.309 29.1167 282.605 29.252 281.802 29.252ZM290.572 29.196C289.723 29.196 289.056 28.986 288.57 28.566C288.094 28.1367 287.856 27.5347 287.856 26.76C287.856 25.9667 288.122 25.3693 288.654 24.968C289.186 24.5573 289.938 24.352 290.908 24.352H292.798V24.17C292.798 23.134 292.276 22.616 291.23 22.616C290.801 22.616 290.353 22.6253 289.886 22.644C289.42 22.6627 289.032 22.6813 288.724 22.7V21.524C289.023 21.496 289.354 21.4773 289.718 21.468C290.092 21.4493 290.446 21.44 290.782 21.44C291.93 21.44 292.766 21.65 293.288 22.07C293.82 22.49 294.086 23.2227 294.086 24.268V29H293.022V27.516C292.686 28.636 291.87 29.196 290.572 29.196ZM290.852 28.132C291.17 28.132 291.473 28.076 291.762 27.964C292.052 27.8427 292.29 27.6467 292.476 27.376C292.672 27.096 292.78 26.7133 292.798 26.228V25.36H290.852C290.311 25.36 289.896 25.4907 289.606 25.752C289.317 26.0133 289.172 26.3493 289.172 26.76C289.172 27.1707 289.317 27.502 289.606 27.754C289.896 28.006 290.311 28.132 290.852 28.132ZM300.025 29.084C299.465 29.084 298.98 29.0047 298.569 28.846C298.168 28.6873 297.855 28.4167 297.631 28.034C297.416 27.642 297.309 27.1147 297.309 26.452V22.532H296.021V21.524H297.309V19.256H298.597V21.524H301.173V22.532H298.597V26.62C298.597 27.0213 298.704 27.334 298.919 27.558C299.143 27.7727 299.456 27.88 299.857 27.88H301.173V29.084H300.025ZM304.376 20.32C304.077 20.32 303.853 20.2407 303.704 20.082C303.564 19.9233 303.494 19.7227 303.494 19.48C303.494 19.2373 303.564 19.0367 303.704 18.878C303.853 18.7193 304.077 18.64 304.376 18.64C304.675 18.64 304.894 18.7193 305.034 18.878C305.183 19.0367 305.258 19.2373 305.258 19.48C305.258 19.7227 305.183 19.9233 305.034 20.082C304.894 20.2407 304.675 20.32 304.376 20.32ZM303.998 29V22.588H302.85V21.524H305.342V29H303.998ZM310.951 29.224C309.971 29.224 309.21 29.014 308.669 28.594C308.137 28.174 307.861 27.6 307.843 26.872H309.103C309.121 27.1613 309.266 27.4367 309.537 27.698C309.817 27.95 310.288 28.076 310.951 28.076C311.548 28.076 312.005 27.9593 312.323 27.726C312.64 27.4833 312.799 27.1893 312.799 26.844C312.799 26.536 312.682 26.298 312.449 26.13C312.215 25.9527 311.837 25.836 311.315 25.78L310.503 25.696C309.793 25.6213 309.215 25.4113 308.767 25.066C308.319 24.7113 308.095 24.2167 308.095 23.582C308.095 22.8633 308.361 22.3033 308.893 21.902C309.425 21.5007 310.111 21.3 310.951 21.3C311.791 21.3 312.472 21.4867 312.995 21.86C313.517 22.2333 313.788 22.7887 313.807 23.526H312.547C312.537 23.2273 312.397 22.9753 312.127 22.77C311.865 22.5553 311.473 22.448 310.951 22.448C310.428 22.448 310.031 22.5553 309.761 22.77C309.49 22.9847 309.355 23.2553 309.355 23.582C309.355 23.862 309.448 24.086 309.635 24.254C309.831 24.422 310.148 24.5293 310.587 24.576L311.399 24.66C312.201 24.744 312.845 24.968 313.331 25.332C313.816 25.6867 314.059 26.1907 314.059 26.844C314.059 27.3107 313.923 27.726 313.653 28.09C313.391 28.4447 313.027 28.7247 312.561 28.93C312.094 29.126 311.557 29.224 310.951 29.224ZM316.763 29V22.616H315.727V21.608H316.763V21.146C316.763 20.3153 316.982 19.704 317.421 19.312C317.859 18.92 318.503 18.724 319.353 18.724H320.277V19.844H319.129C318.783 19.844 318.517 19.942 318.331 20.138C318.144 20.3247 318.051 20.586 318.051 20.922V21.608H320.417V22.616H318.051V29H316.763ZM324.476 29.196C323.627 29.196 322.959 28.986 322.474 28.566C321.998 28.1367 321.76 27.5347 321.76 26.76C321.76 25.9667 322.026 25.3693 322.558 24.968C323.09 24.5573 323.841 24.352 324.812 24.352H326.702V24.17C326.702 23.134 326.179 22.616 325.134 22.616C324.705 22.616 324.257 22.6253 323.79 22.644C323.323 22.6627 322.936 22.6813 322.628 22.7V21.524C322.927 21.496 323.258 21.4773 323.622 21.468C323.995 21.4493 324.35 21.44 324.686 21.44C325.834 21.44 326.669 21.65 327.192 22.07C327.724 22.49 327.99 23.2227 327.99 24.268V29H326.926V27.516C326.59 28.636 325.773 29.196 324.476 29.196ZM324.756 28.132C325.073 28.132 325.377 28.076 325.666 27.964C325.955 27.8427 326.193 27.6467 326.38 27.376C326.576 27.096 326.683 26.7133 326.702 26.228V25.36H324.756C324.215 25.36 323.799 25.4907 323.51 25.752C323.221 26.0133 323.076 26.3493 323.076 26.76C323.076 27.1707 323.221 27.502 323.51 27.754C323.799 28.006 324.215 28.132 324.756 28.132ZM334.223 29.252C333.579 29.252 333.019 29.14 332.543 28.916C332.076 28.692 331.689 28.3933 331.381 28.02C331.073 27.6373 330.839 27.2173 330.681 26.76C330.531 26.3027 330.457 25.8453 330.457 25.388V25.136C330.457 24.66 330.531 24.1933 330.681 23.736C330.839 23.2787 331.073 22.868 331.381 22.504C331.698 22.1307 332.09 21.832 332.557 21.608C333.023 21.384 333.569 21.272 334.195 21.272C334.82 21.272 335.38 21.3887 335.875 21.622C336.379 21.8553 336.78 22.1867 337.079 22.616C337.387 23.036 337.559 23.5353 337.597 24.114H336.309C336.243 23.6473 336.029 23.26 335.665 22.952C335.301 22.6347 334.811 22.476 334.195 22.476C333.663 22.476 333.219 22.5973 332.865 22.84C332.51 23.0827 332.244 23.414 332.067 23.834C331.889 24.254 331.801 24.73 331.801 25.262C331.801 25.7753 331.889 26.2467 332.067 26.676C332.244 27.096 332.51 27.432 332.865 27.684C333.229 27.9267 333.681 28.048 334.223 28.048C334.848 28.048 335.352 27.8893 335.735 27.572C336.117 27.2453 336.337 26.844 336.393 26.368H337.681C337.653 26.956 337.48 27.4647 337.163 27.894C336.855 28.3233 336.444 28.6593 335.931 28.902C335.427 29.1353 334.857 29.252 334.223 29.252ZM342.979 29.084C342.419 29.084 341.933 29.0047 341.523 28.846C341.121 28.6873 340.809 28.4167 340.585 28.034C340.37 27.642 340.263 27.1147 340.263 26.452V22.532H338.975V21.524H340.263V19.256H341.551V21.524H344.127V22.532H341.551V26.62C341.551 27.0213 341.658 27.334 341.873 27.558C342.097 27.7727 342.409 27.88 342.811 27.88H344.127V29.084H342.979ZM347.33 20.32C347.031 20.32 346.807 20.2407 346.658 20.082C346.518 19.9233 346.448 19.7227 346.448 19.48C346.448 19.2373 346.518 19.0367 346.658 18.878C346.807 18.7193 347.031 18.64 347.33 18.64C347.628 18.64 347.848 18.7193 347.988 18.878C348.137 19.0367 348.212 19.2373 348.212 19.48C348.212 19.7227 348.137 19.9233 347.988 20.082C347.848 20.2407 347.628 20.32 347.33 20.32ZM346.952 29V22.588H345.804V21.524H348.296V29H346.952ZM354.898 29.252C354.245 29.252 353.671 29.14 353.176 28.916C352.682 28.692 352.262 28.398 351.916 28.034C351.58 27.6607 351.324 27.2453 351.146 26.788C350.978 26.3307 350.894 25.864 350.894 25.388V25.136C350.894 24.66 350.983 24.1933 351.16 23.736C351.338 23.2693 351.599 22.854 351.944 22.49C352.29 22.1167 352.71 21.8227 353.204 21.608C353.699 21.384 354.264 21.272 354.898 21.272C355.533 21.272 356.098 21.384 356.592 21.608C357.087 21.8227 357.507 22.1167 357.852 22.49C358.198 22.854 358.459 23.2693 358.636 23.736C358.814 24.1933 358.902 24.66 358.902 25.136V25.388C358.902 25.864 358.814 26.3307 358.636 26.788C358.468 27.2453 358.212 27.6607 357.866 28.034C357.53 28.398 357.115 28.692 356.62 28.916C356.126 29.14 355.552 29.252 354.898 29.252ZM354.898 28.048C355.458 28.048 355.934 27.9267 356.326 27.684C356.728 27.432 357.031 27.096 357.236 26.676C357.451 26.256 357.558 25.7847 357.558 25.262C357.558 24.73 357.451 24.254 357.236 23.834C357.022 23.414 356.714 23.0827 356.312 22.84C355.92 22.5973 355.449 22.476 354.898 22.476C354.357 22.476 353.886 22.5973 353.484 22.84C353.083 23.0827 352.775 23.414 352.56 23.834C352.346 24.254 352.238 24.73 352.238 25.262C352.238 25.7847 352.341 26.256 352.546 26.676C352.761 27.096 353.064 27.432 353.456 27.684C353.858 27.9267 354.338 28.048 354.898 28.048ZM361.475 29V21.524H362.539V23.26C362.707 22.6253 363.006 22.14 363.435 21.804C363.874 21.468 364.443 21.3 365.143 21.3H365.199C366.142 21.3 366.837 21.594 367.285 22.182C367.743 22.77 367.971 23.6193 367.971 24.73V29H366.627V24.45C366.627 23.8713 366.464 23.4093 366.137 23.064C365.811 22.7093 365.363 22.532 364.793 22.532C364.205 22.532 363.729 22.714 363.365 23.078C363.001 23.442 362.819 23.9273 362.819 24.534V29H361.475Z" fill="white"/>
<path d="M68.0724 150L77.8964 128.496L77.6724 128.144H66.3444V132.304H64.8724V126.64H79.4324V128.88L69.8324 150H68.0724ZM90.7489 150.544C89.0635 150.544 87.6129 150.235 86.3969 149.616C85.1809 148.997 84.2422 148.165 83.5809 147.12C82.9409 146.075 82.6209 144.923 82.6209 143.664C82.6209 142.576 82.8449 141.616 83.2929 140.784C83.7409 139.952 84.3275 139.269 85.0529 138.736C85.7782 138.203 86.5462 137.84 87.3569 137.648V137.328C86.7169 137.093 86.0875 136.752 85.4689 136.304C84.8715 135.856 84.3809 135.291 83.9969 134.608C83.6342 133.904 83.4529 133.072 83.4529 132.112C83.4529 130.896 83.7622 129.84 84.3809 128.944C84.9995 128.027 85.8529 127.323 86.9409 126.832C88.0502 126.32 89.3195 126.064 90.7489 126.064C92.1782 126.064 93.4369 126.32 94.5249 126.832C95.6342 127.323 96.4982 128.027 97.1169 128.944C97.7355 129.84 98.0449 130.896 98.0449 132.112C98.0449 133.072 97.8529 133.904 97.4689 134.608C97.0849 135.291 96.5942 135.856 95.9969 136.304C95.3995 136.752 94.7702 137.093 94.1089 137.328V137.648C94.9409 137.84 95.7195 138.213 96.4449 138.768C97.1702 139.301 97.7569 139.984 98.2049 140.816C98.6529 141.648 98.8769 142.597 98.8769 143.664C98.8769 144.923 98.5462 146.075 97.8849 147.12C97.2449 148.165 96.3169 148.997 95.1009 149.616C93.8849 150.235 92.4342 150.544 90.7489 150.544ZM90.7489 136.784C92.4129 136.784 93.7569 136.389 94.7809 135.6C95.8262 134.789 96.3489 133.637 96.3489 132.144C96.3489 130.693 95.8369 129.573 94.8129 128.784C93.8102 127.973 92.4555 127.568 90.7489 127.568C89.0209 127.568 87.6449 127.973 86.6209 128.784C85.6182 129.595 85.1169 130.715 85.1169 132.144C85.1169 133.637 85.6289 134.789 86.6529 135.6C87.6982 136.389 89.0635 136.784 90.7489 136.784ZM90.7489 149.008C92.8182 149.008 94.4075 148.496 95.5169 147.472C96.6262 146.427 97.1809 145.147 97.1809 143.632C97.1809 142.075 96.6155 140.784 95.4849 139.76C94.3755 138.715 92.7969 138.192 90.7489 138.192C88.6795 138.192 87.0795 138.715 85.9489 139.76C84.8395 140.784 84.2849 142.075 84.2849 143.632C84.2849 145.147 84.8395 146.427 85.9489 147.472C87.0795 148.496 88.6795 149.008 90.7489 149.008ZM107.071 138.928C105.962 138.928 105.044 138.661 104.319 138.128C103.615 137.595 103.082 136.88 102.719 135.984C102.378 135.067 102.207 134.053 102.207 132.944V132.4C102.207 130.693 102.602 129.275 103.391 128.144C104.202 126.992 105.428 126.416 107.071 126.416C108.714 126.416 109.93 126.992 110.719 128.144C111.53 129.275 111.935 130.693 111.935 132.4V132.944C111.935 134.053 111.754 135.067 111.391 135.984C111.05 136.88 110.516 137.595 109.791 138.128C109.087 138.661 108.18 138.928 107.071 138.928ZM108.543 150L117.791 126.64H119.199L109.983 150H108.543ZM107.071 137.68C108.244 137.68 109.119 137.253 109.695 136.4C110.292 135.525 110.591 134.288 110.591 132.688C110.591 131.067 110.292 129.829 109.695 128.976C109.119 128.101 108.244 127.664 107.071 127.664C105.898 127.664 105.012 128.101 104.415 128.976C103.839 129.829 103.551 131.056 103.551 132.656C103.551 134.256 103.839 135.493 104.415 136.368C105.012 137.243 105.898 137.68 107.071 137.68ZM120.639 150.224C119.53 150.224 118.612 149.957 117.887 149.424C117.183 148.891 116.65 148.176 116.287 147.28C115.946 146.363 115.775 145.349 115.775 144.24V143.696C115.775 141.989 116.17 140.571 116.959 139.44C117.77 138.288 118.996 137.712 120.639 137.712C122.282 137.712 123.498 138.288 124.287 139.44C125.098 140.571 125.503 141.989 125.503 143.696V144.24C125.503 145.349 125.322 146.363 124.959 147.28C124.618 148.176 124.084 148.891 123.359 149.424C122.655 149.957 121.748 150.224 120.639 150.224ZM120.639 148.976C121.812 148.976 122.687 148.549 123.263 147.696C123.86 146.821 124.159 145.584 124.159 143.984C124.159 142.363 123.86 141.125 123.263 140.272C122.687 139.397 121.812 138.96 120.639 138.96C119.466 138.96 118.58 139.397 117.983 140.272C117.407 141.125 117.119 142.363 117.119 143.984C117.119 145.563 117.407 146.789 117.983 147.664C118.58 148.539 119.466 148.976 120.639 148.976Z" fill="white"/>
<path d="M318.668 126.096C321.505 126.096 323.596 127.045 324.94 128.944C326.284 130.843 326.956 133.52 326.956 136.976V138.128C326.956 142.032 326.102 145.019 324.396 147.088C322.689 149.136 320.076 150.16 316.556 150.16C315.916 150.16 315.308 150.128 314.732 150.064C314.156 150.021 313.537 149.957 312.876 149.872V148.368C314.22 148.539 315.478 148.624 316.652 148.624C319.766 148.624 322.006 147.707 323.372 145.872C324.737 144.016 325.42 141.403 325.42 138.032V137.072C324.929 138.48 324.086 139.6 322.892 140.432C321.718 141.264 320.236 141.68 318.444 141.68C316.78 141.68 315.372 141.339 314.22 140.656C313.089 139.952 312.225 139.024 311.628 137.872C311.052 136.699 310.764 135.397 310.764 133.968C310.764 132.539 311.062 131.227 311.66 130.032C312.257 128.837 313.142 127.888 314.316 127.184C315.489 126.459 316.94 126.096 318.668 126.096ZM318.668 127.632C317.302 127.632 316.15 127.92 315.212 128.496C314.294 129.051 313.601 129.808 313.132 130.768C312.662 131.728 312.428 132.795 312.428 133.968C312.428 135.141 312.652 136.197 313.1 137.136C313.569 138.075 314.262 138.821 315.18 139.376C316.097 139.909 317.238 140.176 318.604 140.176C320.63 140.176 322.198 139.589 323.308 138.416C324.438 137.243 325.004 135.739 325.004 133.904C325.004 132.859 324.769 131.856 324.3 130.896C323.852 129.936 323.158 129.157 322.22 128.56C321.281 127.941 320.097 127.632 318.668 127.632ZM341.241 150.544C339.214 150.544 337.54 150.064 336.217 149.104C334.894 148.123 333.913 146.768 333.273 145.04C332.633 143.291 332.313 141.275 332.313 138.992V137.68C332.313 135.291 332.644 133.232 333.305 131.504C333.988 129.755 334.99 128.411 336.313 127.472C337.636 126.512 339.278 126.032 341.241 126.032C343.225 126.032 344.878 126.512 346.201 127.472C347.524 128.411 348.516 129.755 349.177 131.504C349.838 133.232 350.169 135.291 350.169 137.68V138.992C350.169 141.275 349.849 143.291 349.209 145.04C348.569 146.768 347.588 148.123 346.265 149.104C344.964 150.064 343.289 150.544 341.241 150.544ZM341.241 148.944C343.652 148.944 345.454 148.08 346.649 146.352C347.844 144.603 348.441 141.925 348.441 138.32C348.441 134.608 347.833 131.899 346.617 130.192C345.401 128.485 343.609 127.632 341.241 127.632C338.894 127.632 337.102 128.485 335.865 130.192C334.649 131.899 334.041 134.608 334.041 138.32C334.041 141.925 334.638 144.603 335.833 146.352C337.028 148.08 338.83 148.944 341.241 148.944ZM359.212 138.928C358.102 138.928 357.185 138.661 356.46 138.128C355.756 137.595 355.222 136.88 354.86 135.984C354.518 135.067 354.348 134.053 354.348 132.944V132.4C354.348 130.693 354.742 129.275 355.532 128.144C356.342 126.992 357.569 126.416 359.212 126.416C360.854 126.416 362.07 126.992 362.86 128.144C363.67 129.275 364.076 130.693 364.076 132.4V132.944C364.076 134.053 363.894 135.067 363.532 135.984C363.19 136.88 362.657 137.595 361.932 138.128C361.228 138.661 360.321 138.928 359.212 138.928ZM360.684 150L369.932 126.64H371.34L362.124 150H360.684ZM359.212 137.68C360.385 137.68 361.26 137.253 361.836 136.4C362.433 135.525 362.732 134.288 362.732 132.688C362.732 131.067 362.433 129.829 361.836 128.976C361.26 128.101 360.385 127.664 359.212 127.664C358.038 127.664 357.153 128.101 356.556 128.976C355.98 129.829 355.692 131.056 355.692 132.656C355.692 134.256 355.98 135.493 356.556 136.368C357.153 137.243 358.038 137.68 359.212 137.68ZM372.78 150.224C371.67 150.224 370.753 149.957 370.028 149.424C369.324 148.891 368.79 148.176 368.428 147.28C368.086 146.363 367.916 145.349 367.916 144.24V143.696C367.916 141.989 368.31 140.571 369.1 139.44C369.91 138.288 371.137 137.712 372.78 137.712C374.422 137.712 375.638 138.288 376.428 139.44C377.238 140.571 377.644 141.989 377.644 143.696V144.24C377.644 145.349 377.462 146.363 377.1 147.28C376.758 148.176 376.225 148.891 375.5 149.424C374.796 149.957 373.889 150.224 372.78 150.224ZM372.78 148.976C373.953 148.976 374.828 148.549 375.404 147.696C376.001 146.821 376.3 145.584 376.3 143.984C376.3 142.363 376.001 141.125 375.404 140.272C374.828 139.397 373.953 138.96 372.78 138.96C371.606 138.96 370.721 139.397 370.124 140.272C369.548 141.125 369.26 142.363 369.26 143.984C369.26 145.563 369.548 146.789 370.124 147.664C370.721 148.539 371.606 148.976 372.78 148.976Z" fill="white"/>
<circle cx="96" cy="137" r="67" stroke="#00FFFF"/>
<circle cx="344" cy="137" r="67" stroke="#00FFFF"/>
<path d="M282.271 110.952C296.657 76.8597 335.956 60.8848 370.048 75.2708C404.14 89.6568 420.115 128.956 405.729 163.048C391.343 197.14 352.044 213.115 317.952 198.729C300.499 191.364 287.794 177.471 281.48 161.089" stroke="url(#paint0_linear_556_87)" stroke-width="8" stroke-linecap="round"/>
<path d="M47.6237 184.376C73.7888 210.541 116.211 210.541 142.376 184.376C168.541 158.211 168.541 115.789 142.376 89.6238C116.211 63.4587 73.7888 63.4587 47.6237 89.6238" stroke="url(#paint1_linear_556_87)" stroke-width="8" stroke-linecap="round" stroke-linejoin="round"/>
<path d="M29 137H9V13H21" stroke="#00FFFF"/>
<path d="M277 137H257V13H269" stroke="#00FFFF"/>
<defs>
<linearGradient id="paint0_linear_556_87" x1="282.511" y1="83.3757" x2="384.346" y2="213.721" gradientUnits="userSpaceOnUse">
<stop stop-color="#00FFFF"/>
<stop offset="1" stop-color="#03031C"/>
</linearGradient>
<linearGradient id="paint1_linear_556_87" x1="56.109" y1="81.1386" x2="138.84" y2="221.853" gradientUnits="userSpaceOnUse">
<stop stop-color="#00FFFF"/>
<stop offset="1" stop-color="#03031C"/>
</linearGradient>
</defs>
</svg>
