<svg width="842" height="557" viewBox="0 0 842 557" fill="none" xmlns="http://www.w3.org/2000/svg">
<path d="M541.952 15V3.32H548.368V4.104H542.816V8.664H547.984V9.464H542.816V14.216H548.56V15H541.952ZM556.088 15.272C555.021 15.272 554.141 15.0693 553.448 14.664C552.765 14.248 552.253 13.6827 551.912 12.968C551.581 12.2533 551.416 11.4373 551.416 10.52V3.32H552.28V10.632C552.28 11.7733 552.589 12.7013 553.208 13.416C553.837 14.12 554.797 14.472 556.088 14.472C557.389 14.472 558.349 14.12 558.968 13.416C559.586 12.712 559.896 11.784 559.896 10.632V3.32H560.76V10.52C560.76 11.4373 560.594 12.2533 560.264 12.968C559.933 13.6827 559.421 14.248 558.727 14.664C558.045 15.0693 557.165 15.272 556.088 15.272ZM564.436 15V3.272H567.924C569.204 3.272 570.159 3.592 570.788 4.232C571.418 4.872 571.732 5.704 571.732 6.728V6.92C571.732 7.784 571.503 8.52 571.044 9.128C570.586 9.72533 569.892 10.1093 568.964 10.28L572.788 15H571.732L568.004 10.376H567.924H565.3V15H564.436ZM568.036 4.056H565.3V9.592H568.036C568.698 9.592 569.236 9.46933 569.652 9.224C570.068 8.97867 570.372 8.648 570.564 8.232C570.767 7.80533 570.868 7.336 570.868 6.824C570.868 6.312 570.767 5.848 570.564 5.432C570.372 5.00533 570.068 4.66933 569.652 4.424C569.236 4.17867 568.698 4.056 568.036 4.056ZM573.665 15.96L576.929 2.52H577.729L574.465 15.96H573.665ZM584.525 15.272C583.458 15.272 582.578 15.0693 581.885 14.664C581.202 14.248 580.69 13.6827 580.349 12.968C580.018 12.2533 579.853 11.4373 579.853 10.52V3.32H580.717V10.632C580.717 11.7733 581.026 12.7013 581.645 13.416C582.274 14.12 583.234 14.472 584.525 14.472C585.826 14.472 586.786 14.12 587.405 13.416C588.024 12.712 588.333 11.784 588.333 10.632V3.32H589.197V10.52C589.197 11.4373 589.032 12.2533 588.701 12.968C588.37 13.6827 587.858 14.248 587.165 14.664C586.482 15.0693 585.602 15.272 584.525 15.272ZM596.554 15.272C595.562 15.272 594.735 15.1173 594.074 14.808C593.413 14.488 592.917 14.056 592.586 13.512C592.255 12.9573 592.09 12.3333 592.09 11.64H592.954C592.954 12.1733 593.077 12.6533 593.322 13.08C593.578 13.5067 593.973 13.848 594.506 14.104C595.039 14.3493 595.722 14.472 596.554 14.472C597.717 14.472 598.591 14.232 599.178 13.752C599.775 13.2613 600.074 12.632 600.074 11.864C600.074 11.2347 599.839 10.7013 599.37 10.264C598.901 9.816 598.186 9.544 597.226 9.448L595.834 9.336C594.863 9.25067 594.095 8.94667 593.53 8.424C592.965 7.89067 592.682 7.18667 592.682 6.312C592.682 5.69333 592.826 5.13867 593.114 4.648C593.413 4.14667 593.845 3.752 594.41 3.464C594.986 3.16533 595.695 3.016 596.538 3.016C597.391 3.016 598.111 3.176 598.698 3.496C599.285 3.80533 599.727 4.22667 600.026 4.76C600.335 5.28267 600.49 5.87467 600.49 6.536H599.626C599.626 6.056 599.519 5.61333 599.306 5.208C599.093 4.792 598.757 4.456 598.298 4.2C597.85 3.944 597.263 3.816 596.538 3.816C595.834 3.816 595.263 3.93333 594.826 4.168C594.389 4.392 594.063 4.696 593.85 5.08C593.647 5.45333 593.546 5.864 593.546 6.312C593.546 6.952 593.749 7.464 594.154 7.848C594.57 8.232 595.162 8.46133 595.93 8.536L597.322 8.648C598.485 8.75467 599.375 9.10667 599.994 9.704C600.623 10.2907 600.938 11.0107 600.938 11.864C600.938 12.5253 600.767 13.112 600.426 13.624C600.085 14.136 599.583 14.5413 598.922 14.84C598.271 15.128 597.482 15.272 596.554 15.272ZM604.14 15.048V3.272H608.06C609.094 3.272 609.99 3.43733 610.748 3.768C611.505 4.088 612.129 4.52 612.62 5.064C613.121 5.608 613.494 6.22133 613.74 6.904C613.985 7.58667 614.108 8.29067 614.108 9.016V9.272C614.108 9.96533 613.99 10.6587 613.756 11.352C613.521 12.0347 613.158 12.6587 612.668 13.224C612.177 13.7787 611.548 14.2213 610.78 14.552C610.022 14.8827 609.116 15.048 608.06 15.048H604.14ZM608.156 4.072H605.004V14.248H608.156C609.02 14.248 609.766 14.1093 610.396 13.832C611.036 13.5547 611.564 13.176 611.98 12.696C612.406 12.216 612.721 11.672 612.924 11.064C613.126 10.4453 613.228 9.80533 613.228 9.144C613.228 8.22667 613.041 7.384 612.668 6.616C612.294 5.848 611.729 5.23467 610.972 4.776C610.225 4.30667 609.286 4.072 608.156 4.072Z" fill="white"/>
<path d="M545.54 35.14V31.42H542V28.82H545.54V25.08H548.38V28.82H551.94V31.42H548.38V35.14H545.54ZM560.554 37.38C559.394 37.38 558.401 37.1933 557.574 36.82C556.747 36.4467 556.074 35.9267 555.554 35.26C555.034 34.5933 554.654 33.8333 554.414 32.98C554.174 32.1267 554.054 31.22 554.054 30.26V29.12C554.054 27.8 554.287 26.6 554.754 25.52C555.221 24.4267 555.934 23.56 556.894 22.92C557.854 22.28 559.074 21.96 560.554 21.96C562.034 21.96 563.247 22.28 564.194 22.92C565.154 23.56 565.867 24.4267 566.334 25.52C566.801 26.6 567.034 27.8 567.034 29.12V30.26C567.034 31.22 566.907 32.1267 566.654 32.98C566.414 33.8333 566.034 34.5933 565.514 35.26C565.007 35.9267 564.341 36.4467 563.514 36.82C562.701 37.1933 561.714 37.38 560.554 37.38ZM560.554 34.36C561.634 34.36 562.434 33.9867 562.954 33.24C563.487 32.48 563.754 31.3067 563.754 29.72C563.754 28.04 563.481 26.8333 562.934 26.1C562.401 25.3533 561.607 24.98 560.554 24.98C559.487 24.98 558.681 25.3467 558.134 26.08C557.601 26.8133 557.334 28.0133 557.334 29.68C557.334 31.2933 557.594 32.48 558.114 33.24C558.647 33.9867 559.461 34.36 560.554 34.36ZM569.128 37V33.42H572.648V37H569.128ZM579.837 37.38C578.69 37.38 577.703 37.1733 576.877 36.76C576.05 36.3333 575.417 35.76 574.977 35.04C574.537 34.32 574.317 33.5067 574.317 32.6H577.477C577.477 33.2133 577.683 33.7133 578.097 34.1C578.51 34.4733 579.09 34.66 579.837 34.66C580.57 34.66 581.143 34.46 581.557 34.06C581.97 33.66 582.177 33.14 582.177 32.5C582.177 31.86 581.97 31.3333 581.557 30.92C581.143 30.5067 580.57 30.3 579.837 30.3C579.437 30.3 579.083 30.36 578.777 30.48C578.483 30.6 578.23 30.7467 578.017 30.92L576.537 28.42L580.957 25.54L580.777 25.2H574.917V22.4H584.757V25.44L580.697 28.02C582.137 28.1667 583.27 28.64 584.097 29.44C584.937 30.2267 585.357 31.2333 585.357 32.46V32.7C585.357 33.5933 585.13 34.3933 584.677 35.1C584.237 35.8067 583.603 36.3667 582.777 36.78C581.95 37.18 580.97 37.38 579.837 37.38ZM586.933 34.2V30.78L592.473 21.98L595.013 23.64L590.273 31.18L590.553 31.6H594.593V26.48H597.613V31.6H599.293V34.2H597.613V37H594.593V34.2H586.933ZM603.651 30.42C602.851 30.42 602.191 30.2467 601.671 29.9C601.151 29.54 600.758 29.0667 600.491 28.48C600.238 27.8933 600.111 27.2333 600.111 26.5V25.98C600.111 24.8467 600.411 23.9133 601.011 23.18C601.611 22.4467 602.491 22.08 603.651 22.08C604.811 22.08 605.691 22.4467 606.291 23.18C606.891 23.9133 607.191 24.8467 607.191 25.98V26.5C607.191 27.2333 607.058 27.8933 606.791 28.48C606.538 29.0667 606.151 29.54 605.631 29.9C605.111 30.2467 604.451 30.42 603.651 30.42ZM604.651 37L609.971 22.4H612.651L607.351 37H604.651ZM603.651 28.28C604.064 28.28 604.364 28.1333 604.551 27.84C604.751 27.5333 604.851 27.0067 604.851 26.26C604.851 25.4733 604.751 24.9333 604.551 24.64C604.351 24.3467 604.051 24.2 603.651 24.2C603.251 24.2 602.951 24.3467 602.751 24.64C602.551 24.9333 602.451 25.4667 602.451 26.24C602.451 27 602.544 27.5333 602.731 27.84C602.931 28.1333 603.238 28.28 603.651 28.28ZM613.591 37.34C612.791 37.34 612.124 37.1667 611.591 36.82C611.071 36.4733 610.684 36.0067 610.431 35.42C610.178 34.82 610.051 34.16 610.051 33.44V32.92C610.051 31.7733 610.351 30.8333 610.951 30.1C611.551 29.3667 612.431 29 613.591 29C614.738 29 615.611 29.3667 616.211 30.1C616.811 30.8333 617.111 31.7733 617.111 32.92V33.44C617.111 34.16 616.984 34.82 616.731 35.42C616.478 36.0067 616.084 36.4733 615.551 36.82C615.031 37.1667 614.378 37.34 613.591 37.34ZM613.591 35.22C613.991 35.22 614.291 35.0667 614.491 34.76C614.691 34.4533 614.791 33.9333 614.791 33.2C614.791 32.4133 614.684 31.8733 614.471 31.58C614.271 31.2867 613.978 31.14 613.591 31.14C613.191 31.14 612.884 31.2867 612.671 31.58C612.471 31.86 612.371 32.3933 612.371 33.18C612.371 33.9267 612.471 34.4533 612.671 34.76C612.871 35.0667 613.178 35.22 613.591 35.22Z" fill="#00FFFF"/>
<path d="M657.833 35.7617L647.104 22.2892C646.797 21.9036 646.206 21.9036 645.896 22.2892L635.167 35.7617C634.769 36.2641 635.128 37 635.771 37L657.229 37C657.872 37 658.231 36.2641 657.833 35.7617Z" fill="#00FFFF"/>
<path d="M752 172.088C782 172.088 812 100.088 842 129.088V557H32V417.088L47 410.088C62 402.088 92 388.088 122 395.088C152 402.088 182 431.088 212 402.088C242 374.088 272 287.088 302 287.088C332 287.088 362 374.088 392 374.088C422 374.088 452 287.088 482 237.088C512 186.088 542 172.088 572 143.088C602 114.088 632 71.0876 662 86.0876C692 100.088 722 172.088 752 172.088Z" fill="url(#paint0_linear_627_28)" fill-opacity="0.3"/>
<g filter="url(#filter0_d_627_28)">
<path d="M842 127.088C812 98.0876 782 170.088 752 170.088C722 170.088 692 98.0876 662 84.0876C632 69.0876 602 112.088 572 141.088C542 170.088 512 184.088 482 235.088C452 285.088 422 372.088 392 372.088C362 372.088 332 285.088 302 285.088C272 285.088 242 372.088 212 400.088C182 429.088 152 400.088 122 393.088C92 386.088 62 400.088 47 408.088L32 415.088" stroke="url(#paint1_linear_627_28)" stroke-width="4" stroke-linecap="round" shape-rendering="crispEdges"/>
</g>
<defs>
<filter id="filter0_d_627_28" x="-0.000488281" y="58.9934" width="874" height="398.095" filterUnits="userSpaceOnUse" color-interpolation-filters="sRGB">
<feFlood flood-opacity="0" result="BackgroundImageFix"/>
<feColorMatrix in="SourceAlpha" type="matrix" values="0 0 0 0 0 0 0 0 0 0 0 0 0 0 0 0 0 0 127 0" result="hardAlpha"/>
<feOffset dy="10"/>
<feGaussianBlur stdDeviation="15"/>
<feComposite in2="hardAlpha" operator="out"/>
<feColorMatrix type="matrix" values="0 0 0 0 0.0117647 0 0 0 0 0.0117647 0 0 0 0 0.109804 0 0 0 1 0"/>
<feBlend mode="normal" in2="BackgroundImageFix" result="effect1_dropShadow_627_28"/>
<feBlend mode="normal" in="SourceGraphic" in2="effect1_dropShadow_627_28" result="shape"/>
</filter>
<linearGradient id="paint0_linear_627_28" x1="522" y1="117" x2="406" y2="533" gradientUnits="userSpaceOnUse">
<stop stop-color="#00FFFF"/>
<stop offset="0.853779" stop-color="#00FFFF" stop-opacity="0"/>
</linearGradient>
<linearGradient id="paint1_linear_627_28" x1="698" y1="121" x2="124" y2="449" gradientUnits="userSpaceOnUse">
<stop stop-color="#00FFFF"/>
<stop offset="1" stop-color="#00FFFF" stop-opacity="0"/>
</linearGradient>
</defs>
</svg>
