<svg width="320" height="290" viewBox="0 0 320 290" fill="none" xmlns="http://www.w3.org/2000/svg">
<path d="M247.273 53.8006L320 21.949V288.896H247.273V53.8006Z" fill="url(#paint0_linear_696_25)" fill-opacity="0.3"/>
<path d="M189.091 162.703L247.273 53.4973V288.896H189.091V162.703Z" fill="url(#paint1_linear_696_25)" fill-opacity="0.3"/>
<path d="M143.03 152.996L189.091 163.006V288.896H143.03V152.996Z" fill="url(#paint2_linear_696_25)" fill-opacity="0.3"/>
<path d="M109.091 179.994L143.03 152.996V288.896H109.091V179.994Z" fill="url(#paint3_linear_696_25)" fill-opacity="0.3"/>
<path d="M67.8788 165.13L109.091 179.994V288.896H67.8788V165.13Z" fill="url(#paint4_linear_696_25)" fill-opacity="0.3"/>
<path d="M67.8788 165.13L-1.52588e-05 235.507V288.896H67.8788V165.13Z" fill="url(#paint5_linear_696_25)" fill-opacity="0.3"/>
<g filter="url(#filter0_d_696_25)">
<path d="M0 236L67.8788 165.477L109.091 180.372L143.03 153.318L189.091 163.045L247.273 53.6136L320 22" stroke="url(#paint6_linear_696_25)" stroke-width="4" stroke-linecap="round" stroke-linejoin="round"/>
</g>
<path d="M248 53V289" stroke="url(#paint7_linear_696_25)" stroke-linecap="round" stroke-linejoin="round"/>
<path d="M189 162V289" stroke="url(#paint8_linear_696_25)" stroke-linecap="round" stroke-linejoin="round"/>
<path d="M143 154V289" stroke="url(#paint9_linear_696_25)" stroke-linecap="round" stroke-linejoin="round"/>
<path d="M109 179V289" stroke="url(#paint10_linear_696_25)" stroke-linecap="round" stroke-linejoin="round"/>
<path d="M68 165V289" stroke="url(#paint11_linear_696_25)" stroke-linecap="round" stroke-linejoin="round"/>
<circle cx="247.5" cy="53.5" r="3.5" fill="#03031C" stroke="#00FFFF" stroke-width="2"/>
<circle cx="189" cy="163" r="4" fill="#03031C" stroke="#E9000D" stroke-width="2"/>
<circle cx="143" cy="153" r="4" fill="#03031C" stroke="#00FFFF" stroke-width="2"/>
<circle cx="109" cy="180" r="4" fill="#03031C" stroke="#E9000D" stroke-width="2"/>
<circle cx="68" cy="165" r="4" fill="#03031C" stroke="#00FFFF" stroke-width="2"/>
<path d="M250.949 41.8533L247.684 38.081C247.59 37.973 247.411 37.973 247.316 38.081L244.051 41.8533C243.93 41.994 244.039 42.2 244.235 42.2L250.765 42.2C250.961 42.2 251.07 41.994 250.949 41.8533Z" fill="#00FFFF"/>
<path d="M185.051 147.147L188.316 150.919C188.41 151.027 188.589 151.027 188.684 150.919L191.949 147.147C192.07 147.006 191.961 146.8 191.765 146.8L185.235 146.8C185.039 146.8 184.93 147.006 185.051 147.147Z" fill="#E9000D"/>
<path d="M105.051 164.347L108.316 168.119C108.41 168.227 108.589 168.227 108.684 168.119L111.949 164.347C112.07 164.206 111.961 164 111.765 164L105.235 164C105.039 164 104.93 164.206 105.051 164.347Z" fill="#E9000D"/>
<path d="M145.949 140.853L142.684 137.081C142.59 136.973 142.411 136.973 142.316 137.081L139.051 140.853C138.93 140.994 139.039 141.2 139.235 141.2L145.765 141.2C145.961 141.2 146.07 140.994 145.949 140.853Z" fill="#00FFFF"/>
<path d="M70.9491 152.817L67.6839 148.101C67.5905 147.966 67.4105 147.966 67.3161 148.101L64.0509 152.817C63.9295 152.992 64.0389 153.25 64.2348 153.25L70.7652 153.25C70.9611 153.25 71.0705 152.992 70.9491 152.817Z" fill="#00FFFF"/>
<path d="M197.427 43.728V41.328H195.171V40.416H197.427V38.016H198.411V40.416H200.667V41.328H198.411V43.728H197.427ZM205.921 45.216C205.265 45.216 204.705 45.104 204.241 44.88C203.785 44.648 203.413 44.336 203.125 43.944C202.845 43.552 202.641 43.1 202.513 42.588C202.385 42.068 202.321 41.52 202.321 40.944V40.296C202.321 39.488 202.445 38.76 202.693 38.112C202.949 37.464 203.341 36.952 203.869 36.576C204.405 36.192 205.089 36 205.921 36C206.753 36 207.433 36.192 207.961 36.576C208.489 36.952 208.877 37.464 209.125 38.112C209.381 38.76 209.509 39.488 209.509 40.296V40.944C209.509 41.52 209.445 42.068 209.317 42.588C209.189 43.1 208.981 43.552 208.693 43.944C208.413 44.336 208.045 44.648 207.589 44.88C207.133 45.104 206.577 45.216 205.921 45.216ZM205.921 44.16C206.753 44.16 207.361 43.88 207.745 43.32C208.137 42.752 208.333 41.856 208.333 40.632C208.333 39.352 208.133 38.436 207.733 37.884C207.341 37.332 206.737 37.056 205.921 37.056C205.097 37.056 204.485 37.332 204.085 37.884C203.693 38.436 203.497 39.344 203.497 40.608C203.497 41.84 203.693 42.74 204.085 43.308C204.477 43.876 205.089 44.16 205.921 44.16ZM211.251 45V43.536H212.643V45H211.251ZM217.104 45.216C216.448 45.216 215.892 45.088 215.436 44.832C214.98 44.576 214.632 44.236 214.392 43.812C214.16 43.388 214.044 42.928 214.044 42.432H215.172C215.172 42.976 215.344 43.408 215.688 43.728C216.04 44.048 216.512 44.208 217.104 44.208C217.696 44.208 218.164 44.048 218.508 43.728C218.86 43.408 219.036 42.976 219.036 42.432C219.036 41.888 218.86 41.448 218.508 41.112C218.164 40.776 217.7 40.608 217.116 40.608C216.868 40.608 216.652 40.64 216.468 40.704C216.292 40.76 216.136 40.832 216 40.92L215.424 39.888L218.772 37.44L218.652 37.224H214.392V36.24H219.732V37.836L217.14 39.72H217.152C217.792 39.72 218.336 39.84 218.784 40.08C219.232 40.32 219.572 40.64 219.804 41.04C220.044 41.44 220.164 41.876 220.164 42.348V42.516C220.164 42.98 220.044 43.42 219.804 43.836C219.572 44.244 219.228 44.576 218.772 44.832C218.324 45.088 217.768 45.216 217.104 45.216ZM225.351 45.216C224.695 45.216 224.135 45.104 223.671 44.88C223.215 44.648 222.843 44.336 222.555 43.944C222.275 43.552 222.071 43.1 221.943 42.588C221.815 42.068 221.751 41.52 221.751 40.944V40.296C221.751 39.488 221.875 38.76 222.123 38.112C222.379 37.464 222.771 36.952 223.299 36.576C223.835 36.192 224.519 36 225.351 36C226.183 36 226.863 36.192 227.391 36.576C227.919 36.952 228.307 37.464 228.555 38.112C228.811 38.76 228.939 39.488 228.939 40.296V40.944C228.939 41.52 228.875 42.068 228.747 42.588C228.619 43.1 228.411 43.552 228.123 43.944C227.843 44.336 227.475 44.648 227.019 44.88C226.563 45.104 226.007 45.216 225.351 45.216ZM225.351 44.16C226.183 44.16 226.791 43.88 227.175 43.32C227.567 42.752 227.763 41.856 227.763 40.632C227.763 39.352 227.563 38.436 227.163 37.884C226.771 37.332 226.167 37.056 225.351 37.056C224.527 37.056 223.915 37.332 223.515 37.884C223.123 38.436 222.927 39.344 222.927 40.608C222.927 41.84 223.123 42.74 223.515 43.308C223.907 43.876 224.519 44.16 225.351 44.16ZM232.169 40.944C231.713 40.944 231.341 40.84 231.053 40.632C230.773 40.424 230.565 40.148 230.429 39.804C230.301 39.46 230.237 39.088 230.237 38.688V38.376C230.237 37.944 230.305 37.56 230.441 37.224C230.577 36.88 230.789 36.612 231.077 36.42C231.365 36.22 231.729 36.12 232.169 36.12C232.617 36.12 232.981 36.22 233.261 36.42C233.549 36.612 233.761 36.88 233.897 37.224C234.033 37.56 234.101 37.944 234.101 38.376V38.688C234.101 39.088 234.033 39.46 233.897 39.804C233.769 40.148 233.565 40.424 233.285 40.632C233.005 40.84 232.633 40.944 232.169 40.944ZM232.817 45L236.129 36.24H237.041L233.729 45H232.817ZM232.169 40.152C232.897 40.152 233.261 39.616 233.261 38.544C233.261 37.976 233.169 37.564 232.985 37.308C232.801 37.044 232.529 36.912 232.169 36.912C231.809 36.912 231.537 37.044 231.353 37.308C231.169 37.564 231.077 37.972 231.077 38.532C231.077 39.612 231.441 40.152 232.169 40.152ZM237.641 45.12C237.185 45.12 236.813 45.016 236.525 44.808C236.245 44.6 236.037 44.324 235.901 43.98C235.773 43.636 235.709 43.264 235.709 42.864V42.552C235.709 42.12 235.777 41.736 235.913 41.4C236.049 41.056 236.261 40.788 236.549 40.596C236.837 40.396 237.201 40.296 237.641 40.296C238.089 40.296 238.453 40.396 238.733 40.596C239.021 40.788 239.233 41.056 239.369 41.4C239.505 41.736 239.573 42.12 239.573 42.552V42.864C239.573 43.264 239.505 43.636 239.369 43.98C239.241 44.324 239.037 44.6 238.757 44.808C238.477 45.016 238.105 45.12 237.641 45.12ZM237.641 44.328C238.369 44.328 238.733 43.792 238.733 42.72C238.733 42.152 238.641 41.74 238.457 41.484C238.273 41.22 238.001 41.088 237.641 41.088C237.281 41.088 237.009 41.22 236.825 41.484C236.641 41.74 236.549 42.148 236.549 42.708C236.549 43.788 236.913 44.328 237.641 44.328Z" fill="#00FFFF"/>
<path d="M92.38 141.728V139.328H90.124V138.416H92.38V136.016H93.364V138.416H95.62V139.328H93.364V141.728H92.38ZM100.874 143.216C100.218 143.216 99.6582 143.104 99.1942 142.88C98.7382 142.648 98.3662 142.336 98.0782 141.944C97.7982 141.552 97.5942 141.1 97.4662 140.588C97.3382 140.068 97.2742 139.52 97.2742 138.944V138.296C97.2742 137.488 97.3982 136.76 97.6462 136.112C97.9022 135.464 98.2942 134.952 98.8222 134.576C99.3582 134.192 100.042 134 100.874 134C101.706 134 102.386 134.192 102.914 134.576C103.442 134.952 103.83 135.464 104.078 136.112C104.334 136.76 104.462 137.488 104.462 138.296V138.944C104.462 139.52 104.398 140.068 104.27 140.588C104.142 141.1 103.934 141.552 103.646 141.944C103.366 142.336 102.998 142.648 102.542 142.88C102.086 143.104 101.53 143.216 100.874 143.216ZM100.874 142.16C101.706 142.16 102.314 141.88 102.698 141.32C103.09 140.752 103.286 139.856 103.286 138.632C103.286 137.352 103.086 136.436 102.686 135.884C102.294 135.332 101.69 135.056 100.874 135.056C100.05 135.056 99.4382 135.332 99.0382 135.884C98.6462 136.436 98.4502 137.344 98.4502 138.608C98.4502 139.84 98.6462 140.74 99.0382 141.308C99.4302 141.876 100.042 142.16 100.874 142.16ZM106.204 143V141.536H107.596V143H106.204ZM109.381 143V141.56C109.381 141.208 109.429 140.908 109.525 140.66C109.629 140.412 109.805 140.188 110.053 139.988C110.301 139.78 110.637 139.58 111.061 139.388L112.705 138.632C113.105 138.448 113.421 138.212 113.653 137.924C113.885 137.628 114.001 137.248 114.001 136.784C114.001 136.224 113.845 135.788 113.533 135.476C113.221 135.164 112.781 135.008 112.213 135.008C111.653 135.008 111.213 135.164 110.893 135.476C110.573 135.788 110.413 136.224 110.413 136.784H109.285C109.285 136.28 109.389 135.816 109.597 135.392C109.813 134.968 110.137 134.632 110.569 134.384C111.001 134.128 111.549 134 112.213 134C112.877 134 113.421 134.128 113.845 134.384C114.277 134.632 114.597 134.96 114.805 135.368C115.021 135.776 115.129 136.22 115.129 136.7V136.868C115.129 137.5 114.945 138.032 114.577 138.464C114.217 138.896 113.729 139.252 113.113 139.532L111.469 140.288C111.101 140.456 110.853 140.624 110.725 140.792C110.597 140.96 110.533 141.184 110.533 141.464V142.016H115.237V143H109.381ZM120.351 143.216C119.695 143.216 119.135 143.104 118.671 142.88C118.215 142.648 117.843 142.336 117.555 141.944C117.275 141.552 117.071 141.1 116.943 140.588C116.815 140.068 116.751 139.52 116.751 138.944V138.296C116.751 137.488 116.875 136.76 117.123 136.112C117.379 135.464 117.771 134.952 118.299 134.576C118.835 134.192 119.519 134 120.351 134C121.183 134 121.863 134.192 122.391 134.576C122.919 134.952 123.307 135.464 123.555 136.112C123.811 136.76 123.939 137.488 123.939 138.296V138.944C123.939 139.52 123.875 140.068 123.747 140.588C123.619 141.1 123.411 141.552 123.123 141.944C122.843 142.336 122.475 142.648 122.019 142.88C121.563 143.104 121.007 143.216 120.351 143.216ZM120.351 142.16C121.183 142.16 121.791 141.88 122.175 141.32C122.567 140.752 122.763 139.856 122.763 138.632C122.763 137.352 122.563 136.436 122.163 135.884C121.771 135.332 121.167 135.056 120.351 135.056C119.527 135.056 118.915 135.332 118.515 135.884C118.123 136.436 117.927 137.344 117.927 138.608C117.927 139.84 118.123 140.74 118.515 141.308C118.907 141.876 119.519 142.16 120.351 142.16ZM127.169 138.944C126.713 138.944 126.341 138.84 126.053 138.632C125.773 138.424 125.565 138.148 125.429 137.804C125.301 137.46 125.237 137.088 125.237 136.688V136.376C125.237 135.944 125.305 135.56 125.441 135.224C125.577 134.88 125.789 134.612 126.077 134.42C126.365 134.22 126.729 134.12 127.169 134.12C127.617 134.12 127.981 134.22 128.261 134.42C128.549 134.612 128.761 134.88 128.897 135.224C129.033 135.56 129.101 135.944 129.101 136.376V136.688C129.101 137.088 129.033 137.46 128.897 137.804C128.769 138.148 128.565 138.424 128.285 138.632C128.005 138.84 127.633 138.944 127.169 138.944ZM127.817 143L131.129 134.24H132.041L128.729 143H127.817ZM127.169 138.152C127.897 138.152 128.261 137.616 128.261 136.544C128.261 135.976 128.169 135.564 127.985 135.308C127.801 135.044 127.529 134.912 127.169 134.912C126.809 134.912 126.537 135.044 126.353 135.308C126.169 135.564 126.077 135.972 126.077 136.532C126.077 137.612 126.441 138.152 127.169 138.152ZM132.641 143.12C132.185 143.12 131.813 143.016 131.525 142.808C131.245 142.6 131.037 142.324 130.901 141.98C130.773 141.636 130.709 141.264 130.709 140.864V140.552C130.709 140.12 130.777 139.736 130.913 139.4C131.049 139.056 131.261 138.788 131.549 138.596C131.837 138.396 132.201 138.296 132.641 138.296C133.089 138.296 133.453 138.396 133.733 138.596C134.021 138.788 134.233 139.056 134.369 139.4C134.505 139.736 134.573 140.12 134.573 140.552V140.864C134.573 141.264 134.505 141.636 134.369 141.98C134.241 142.324 134.037 142.6 133.757 142.808C133.477 143.016 133.105 143.12 132.641 143.12ZM132.641 142.328C133.369 142.328 133.733 141.792 133.733 140.72C133.733 140.152 133.641 139.74 133.457 139.484C133.273 139.22 133.001 139.088 132.641 139.088C132.281 139.088 132.009 139.22 131.825 139.484C131.641 139.74 131.549 140.148 131.549 140.708C131.549 141.788 131.913 142.328 132.641 142.328Z" fill="#00FFFF"/>
<path d="M21.2589 153.728V151.328H19.0029V150.416H21.2589V148.016H22.2429V150.416H24.4989V151.328H22.2429V153.728H21.2589ZM29.7531 155.216C29.0971 155.216 28.5371 155.104 28.0731 154.88C27.6171 154.648 27.2451 154.336 26.9571 153.944C26.6771 153.552 26.4731 153.1 26.3451 152.588C26.2171 152.068 26.1531 151.52 26.1531 150.944V150.296C26.1531 149.488 26.2771 148.76 26.5251 148.112C26.7811 147.464 27.1731 146.952 27.7011 146.576C28.2371 146.192 28.9211 146 29.7531 146C30.5851 146 31.2651 146.192 31.7931 146.576C32.3211 146.952 32.7091 147.464 32.9571 148.112C33.2131 148.76 33.3411 149.488 33.3411 150.296V150.944C33.3411 151.52 33.2771 152.068 33.1491 152.588C33.0211 153.1 32.8131 153.552 32.5251 153.944C32.2451 154.336 31.8771 154.648 31.4211 154.88C30.9651 155.104 30.4091 155.216 29.7531 155.216ZM29.7531 154.16C30.5851 154.16 31.1931 153.88 31.5771 153.32C31.9691 152.752 32.1651 151.856 32.1651 150.632C32.1651 149.352 31.9651 148.436 31.5651 147.884C31.1731 147.332 30.5691 147.056 29.7531 147.056C28.9291 147.056 28.3171 147.332 27.9171 147.884C27.5251 148.436 27.3291 149.344 27.3291 150.608C27.3291 151.84 27.5251 152.74 27.9171 153.308C28.3091 153.876 28.9211 154.16 29.7531 154.16ZM35.083 155V153.536H36.475V155H35.083ZM39.7957 155V147.224H37.8517V146.24H40.9477V155H39.7957ZM43.2987 155V153.56C43.2987 153.208 43.3467 152.908 43.4427 152.66C43.5467 152.412 43.7227 152.188 43.9707 151.988C44.2187 151.78 44.5547 151.58 44.9787 151.388L46.6227 150.632C47.0227 150.448 47.3387 150.212 47.5707 149.924C47.8027 149.628 47.9187 149.248 47.9187 148.784C47.9187 148.224 47.7627 147.788 47.4507 147.476C47.1387 147.164 46.6987 147.008 46.1307 147.008C45.5707 147.008 45.1307 147.164 44.8107 147.476C44.4907 147.788 44.3307 148.224 44.3307 148.784H43.2027C43.2027 148.28 43.3067 147.816 43.5147 147.392C43.7307 146.968 44.0547 146.632 44.4867 146.384C44.9187 146.128 45.4667 146 46.1307 146C46.7947 146 47.3387 146.128 47.7627 146.384C48.1947 146.632 48.5147 146.96 48.7227 147.368C48.9387 147.776 49.0467 148.22 49.0467 148.7V148.868C49.0467 149.5 48.8627 150.032 48.4947 150.464C48.1347 150.896 47.6467 151.252 47.0307 151.532L45.3867 152.288C45.0187 152.456 44.7707 152.624 44.6427 152.792C44.5147 152.96 44.4507 153.184 44.4507 153.464V154.016H49.1547V155H43.2987ZM52.1687 150.944C51.7127 150.944 51.3407 150.84 51.0527 150.632C50.7727 150.424 50.5647 150.148 50.4287 149.804C50.3007 149.46 50.2367 149.088 50.2367 148.688V148.376C50.2367 147.944 50.3047 147.56 50.4407 147.224C50.5767 146.88 50.7887 146.612 51.0767 146.42C51.3647 146.22 51.7287 146.12 52.1687 146.12C52.6167 146.12 52.9807 146.22 53.2607 146.42C53.5487 146.612 53.7607 146.88 53.8967 147.224C54.0327 147.56 54.1007 147.944 54.1007 148.376V148.688C54.1007 149.088 54.0327 149.46 53.8967 149.804C53.7687 150.148 53.5647 150.424 53.2847 150.632C53.0047 150.84 52.6327 150.944 52.1687 150.944ZM52.8167 155L56.1287 146.24H57.0407L53.7287 155H52.8167ZM52.1687 150.152C52.8967 150.152 53.2607 149.616 53.2607 148.544C53.2607 147.976 53.1687 147.564 52.9847 147.308C52.8007 147.044 52.5287 146.912 52.1687 146.912C51.8087 146.912 51.5367 147.044 51.3527 147.308C51.1687 147.564 51.0767 147.972 51.0767 148.532C51.0767 149.612 51.4407 150.152 52.1687 150.152ZM57.6407 155.12C57.1847 155.12 56.8127 155.016 56.5247 154.808C56.2447 154.6 56.0367 154.324 55.9007 153.98C55.7727 153.636 55.7087 153.264 55.7087 152.864V152.552C55.7087 152.12 55.7767 151.736 55.9127 151.4C56.0487 151.056 56.2607 150.788 56.5487 150.596C56.8367 150.396 57.2007 150.296 57.6407 150.296C58.0887 150.296 58.4527 150.396 58.7327 150.596C59.0207 150.788 59.2327 151.056 59.3687 151.4C59.5047 151.736 59.5727 152.12 59.5727 152.552V152.864C59.5727 153.264 59.5047 153.636 59.3687 153.98C59.2407 154.324 59.0367 154.6 58.7567 154.808C58.4767 155.016 58.1047 155.12 57.6407 155.12ZM57.6407 154.328C58.3687 154.328 58.7327 153.792 58.7327 152.72C58.7327 152.152 58.6407 151.74 58.4567 151.484C58.2727 151.22 58.0007 151.088 57.6407 151.088C57.2807 151.088 57.0087 151.22 56.8247 151.484C56.6407 151.74 56.5487 152.148 56.5487 152.708C56.5487 153.788 56.9127 154.328 57.6407 154.328Z" fill="#00FFFF"/>
<defs>
<filter id="filter0_d_696_25" x="-32" y="-0.000488281" width="384" height="278" filterUnits="userSpaceOnUse" color-interpolation-filters="sRGB">
<feFlood flood-opacity="0" result="BackgroundImageFix"/>
<feColorMatrix in="SourceAlpha" type="matrix" values="0 0 0 0 0 0 0 0 0 0 0 0 0 0 0 0 0 0 127 0" result="hardAlpha"/>
<feOffset dy="10"/>
<feGaussianBlur stdDeviation="15"/>
<feComposite in2="hardAlpha" operator="out"/>
<feColorMatrix type="matrix" values="0 0 0 0 0.0117647 0 0 0 0 0.0117647 0 0 0 0 0.109804 0 0 0 1 0"/>
<feBlend mode="normal" in2="BackgroundImageFix" result="effect1_dropShadow_696_25"/>
<feBlend mode="normal" in="SourceGraphic" in2="effect1_dropShadow_696_25" result="shape"/>
</filter>
<linearGradient id="paint0_linear_696_25" x1="283.636" y1="37.7231" x2="283.636" y2="244.607" gradientUnits="userSpaceOnUse">
<stop stop-color="#00FFFF"/>
<stop offset="1" stop-color="#03031C"/>
</linearGradient>
<linearGradient id="paint1_linear_696_25" x1="218.182" y1="101.426" x2="218.182" y2="253.708" gradientUnits="userSpaceOnUse">
<stop stop-color="#00FFFF"/>
<stop offset="1" stop-color="#03031C"/>
</linearGradient>
<linearGradient id="paint2_linear_696_25" x1="166.061" y1="148.142" x2="184.275" y2="256.719" gradientUnits="userSpaceOnUse">
<stop stop-color="#00FFFF"/>
<stop offset="1" stop-color="#03031C"/>
</linearGradient>
<linearGradient id="paint3_linear_696_25" x1="126.061" y1="131.155" x2="170.604" y2="241.851" gradientUnits="userSpaceOnUse">
<stop stop-color="#00FFFF"/>
<stop offset="1" stop-color="#03031C"/>
</linearGradient>
<linearGradient id="paint4_linear_696_25" x1="88.4848" y1="171.804" x2="88.4848" y2="258.561" gradientUnits="userSpaceOnUse">
<stop stop-color="#00FFFF"/>
<stop offset="1" stop-color="#03031C"/>
</linearGradient>
<linearGradient id="paint5_linear_696_25" x1="33.9394" y1="132.975" x2="49.7166" y2="276.238" gradientUnits="userSpaceOnUse">
<stop stop-color="#00FFFF"/>
<stop offset="1" stop-color="#03031C"/>
</linearGradient>
<linearGradient id="paint6_linear_696_25" x1="293.939" y1="28.6875" x2="-3.67225" y2="244.843" gradientUnits="userSpaceOnUse">
<stop stop-color="#00FFFF"/>
<stop offset="1" stop-color="#03031C"/>
</linearGradient>
<linearGradient id="paint7_linear_696_25" x1="248.5" y1="53" x2="248.5" y2="289" gradientUnits="userSpaceOnUse">
<stop stop-color="#00FFFF"/>
<stop offset="1" stop-color="#00FFFF" stop-opacity="0"/>
</linearGradient>
<linearGradient id="paint8_linear_696_25" x1="189.5" y1="52.4015" x2="189.5" y2="289" gradientUnits="userSpaceOnUse">
<stop stop-color="#00FFFF"/>
<stop offset="1" stop-color="#00FFFF" stop-opacity="0"/>
</linearGradient>
<linearGradient id="paint9_linear_696_25" x1="143.5" y1="53.8877" x2="143.5" y2="289" gradientUnits="userSpaceOnUse">
<stop stop-color="#00FFFF"/>
<stop offset="1" stop-color="#00FFFF" stop-opacity="0"/>
</linearGradient>
<linearGradient id="paint10_linear_696_25" x1="109.5" y1="52.1945" x2="109.5" y2="289" gradientUnits="userSpaceOnUse">
<stop stop-color="#00FFFF"/>
<stop offset="1" stop-color="#00FFFF" stop-opacity="0"/>
</linearGradient>
<linearGradient id="paint11_linear_696_25" x1="68.5" y1="53.4608" x2="68.5" y2="289" gradientUnits="userSpaceOnUse">
<stop stop-color="#00FFFF"/>
<stop offset="1" stop-color="#00FFFF" stop-opacity="0"/>
</linearGradient>
</defs>
</svg>
