<svg width="528" height="455" viewBox="0 0 528 455" fill="none" xmlns="http://www.w3.org/2000/svg">
<mask id="mask0_499_288" style="mask-type:alpha" maskUnits="userSpaceOnUse" x="73" y="0" width="455" height="455">
<path d="M527.542 227.405C527.542 352.803 425.887 454.458 300.489 454.458C175.092 454.458 73.4366 352.803 73.4366 227.405C73.4366 102.007 175.092 0.352173 300.489 0.352173C425.887 0.352173 527.542 102.007 527.542 227.405Z" fill="#D9D9D9"/>
</mask>
<g mask="url(#mask0_499_288)">
<g filter="url(#filter0_d_499_288)">
<path d="M131.296 374.211L209.655 293.176L257.231 310.291L296.41 279.204L349.583 290.381L416.748 164.636L500.704 128.31" stroke="url(#paint0_linear_499_288)" stroke-width="2.5" stroke-linecap="round" stroke-linejoin="round"/>
</g>
<path d="M416.331 165.174L502.148 127L504.042 128.497L514.056 153.901L520.732 178.38L525.183 203.416L526.852 227.894L524.07 256.268L520.732 276.296L514.613 296.88L500.165 435.888H416.331V165.174Z" fill="url(#paint1_linear_499_288)" fill-opacity="0.3"/>
<path d="M349.264 290.576L416.331 164.825V435.888H349.264V290.576Z" fill="url(#paint2_linear_499_288)" fill-opacity="0.3"/>
<path d="M296.169 279.398L349.264 290.925V435.888H296.169V279.398Z" fill="url(#paint3_linear_499_288)" fill-opacity="0.3"/>
<path d="M257.047 310.486L296.169 279.398V435.888H257.047V310.486Z" fill="url(#paint4_linear_499_288)" fill-opacity="0.3"/>
<path d="M209.541 293.37L257.047 310.486V435.888H209.541V293.37Z" fill="url(#paint5_linear_499_288)" fill-opacity="0.3"/>
<path d="M209.541 293.37L131.296 374.409V435.888H209.541V293.37Z" fill="url(#paint6_linear_499_288)" fill-opacity="0.3"/>
<path d="M416.141 163.916V435.408" stroke="url(#paint7_linear_499_288)" stroke-linecap="round" stroke-linejoin="round"/>
<path d="M350.493 290.761V435.409" stroke="url(#paint8_linear_499_288)" stroke-linecap="round" stroke-linejoin="round"/>
<path d="M294.859 279.634V435.408" stroke="url(#paint9_linear_499_288)" stroke-linecap="round" stroke-linejoin="round"/>
<path d="M257.028 308.563V435.409" stroke="url(#paint10_linear_499_288)" stroke-linecap="round" stroke-linejoin="round"/>
<path d="M209.183 292.986V435.408" stroke="url(#paint11_linear_499_288)" stroke-linecap="round" stroke-linejoin="round"/>
<circle cx="416.141" cy="165.028" r="4.56338" fill="#03031C" stroke="#00FFFF" stroke-width="2"/>
<circle cx="350.493" cy="290.761" r="4.56338" fill="#03031C" stroke="#E9000D" stroke-width="2"/>
<circle cx="294.859" cy="279.634" r="4.56338" fill="#03031C" stroke="#00FFFF" stroke-width="2"/>
<circle cx="257.028" cy="309.676" r="4.56338" fill="#03031C" stroke="#E9000D" stroke-width="2"/>
<circle cx="209.183" cy="294.099" r="4.56338" fill="#03031C" stroke="#00FFFF" stroke-width="2"/>
</g>
<path fill-rule="evenodd" clip-rule="evenodd" d="M300.558 0.352215C267.38 0.332011 234.604 7.61429 204.552 21.6832C174.499 35.7521 147.905 56.2635 126.653 81.7643C126.541 81.8931 126.457 82.043 126.404 82.205C126.351 82.3671 126.332 82.5381 126.346 82.7079C126.361 82.8777 126.409 83.0428 126.489 83.1936C126.568 83.3443 126.677 83.4777 126.809 83.5856C127.076 83.8059 127.418 83.9128 127.763 83.8836C128.108 83.8544 128.428 83.6915 128.654 83.4295C149.67 58.2381 175.962 37.9786 205.668 24.0854C235.374 10.1921 267.769 3.00479 300.558 3.03212C360.004 3.09413 416.997 26.7616 459.026 68.8396C501.056 110.918 524.689 167.968 524.737 227.468C524.675 286.96 501.036 343.997 459.008 386.063C416.98 428.13 359.995 451.79 300.558 451.852C266.686 451.933 233.24 444.293 202.758 429.511C172.275 414.729 145.555 393.193 124.625 366.537C124.521 366.402 124.391 366.288 124.242 366.204C124.093 366.12 123.929 366.067 123.759 366.047C123.59 366.028 123.418 366.043 123.254 366.091C123.09 366.14 122.937 366.221 122.805 366.329C122.67 366.433 122.557 366.564 122.473 366.713C122.388 366.862 122.335 367.026 122.316 367.196C122.296 367.366 122.311 367.538 122.36 367.702C122.408 367.866 122.489 368.018 122.597 368.151C143.768 395.115 170.796 416.899 201.63 431.853C232.464 446.806 266.295 454.535 300.558 454.454C360.684 454.392 418.33 430.458 460.846 387.903C503.362 345.348 527.275 287.65 527.336 227.468C527.302 167.266 503.402 109.538 460.884 66.9569C418.366 24.3756 360.705 0.421133 300.558 0.352215ZM99.3322 198.432C95.9788 202.074 92.3396 205.639 88.5183 209.047C84.6971 212.456 80.9278 215.968 77.4965 219.455C74.1986 222.829 71.3025 226.575 68.8663 230.616C66.584 234.43 65.3716 238.79 65.3569 243.235V268.187C65.3569 268.518 65.4884 268.836 65.7224 269.07C65.9564 269.305 66.2738 269.436 66.6047 269.436H126.393C126.724 269.436 127.041 269.305 127.275 269.07C127.509 268.836 127.641 268.518 127.641 268.187V253.487C127.74 251.924 128.15 250.396 128.846 248.993C129.543 247.59 130.511 246.341 131.696 245.317C135.116 241.975 138.783 238.896 142.665 236.106C147.102 232.863 151.885 229.298 157.015 225.413C162.296 221.379 167.172 216.839 171.572 211.857C176.117 206.761 179.923 201.05 182.879 194.893C186.006 188.085 187.561 180.659 187.429 173.167C187.563 162.776 185.304 152.493 180.826 143.116C176.416 134.146 170.046 126.285 162.188 120.116C153.639 113.529 143.944 108.589 133.593 105.545C121.648 102.001 109.244 100.247 96.7846 100.342C83.7616 100.238 70.7901 101.99 58.2604 105.545C47.1657 108.706 36.7431 113.873 27.5085 120.792C19.0923 127.11 12.177 135.213 7.25855 144.521C2.34945 154.196 -0.139339 164.919 0.00602054 175.769C-0.00339767 178.011 0.109427 180.252 0.343966 182.482C0.577919 184.59 0.811843 186.775 1.0458 189.065C1.07755 189.369 1.21942 189.65 1.44455 189.856C1.66968 190.062 1.96246 190.179 2.26756 190.184H66.6567C66.8358 190.185 67.0129 190.146 67.1749 190.069C67.3368 189.993 67.4796 189.88 67.5925 189.741C67.7091 189.607 67.7951 189.449 67.8445 189.279C67.8938 189.108 67.9054 188.928 67.8784 188.753C67.672 187.252 67.5678 185.74 67.5665 184.225V179.542C67.567 175.996 67.8451 172.455 68.3983 168.952C68.872 165.793 69.9487 162.754 71.5697 160.002C73.1645 157.406 75.3916 155.257 78.0424 153.758C81.4391 152.021 85.2278 151.196 89.0382 151.364C92.2107 151.31 95.3549 151.968 98.2403 153.289C100.845 154.559 103.177 156.327 105.103 158.493C107.005 160.639 108.463 163.142 109.392 165.856C110.359 168.696 110.851 171.676 110.848 174.677C110.891 179.069 109.799 183.398 107.676 187.244C105.356 191.296 102.554 195.053 99.3322 198.432ZM113.291 174.573C113.32 171.328 112.811 168.101 111.784 165.024C110.77 161.991 109.141 159.201 107.001 156.828C104.852 154.444 102.255 152.508 99.3581 151.13C96.1008 149.63 92.545 148.891 88.9602 148.97C84.7106 148.794 80.4891 149.736 76.7167 151.702C73.6994 153.403 71.1669 155.848 69.3601 158.805C67.5855 161.832 66.4033 165.17 65.8768 168.64C65.2923 172.271 64.9968 175.942 64.993 179.62V184.303C64.993 185.448 64.993 186.619 65.175 187.764H3.30737C3.19684 186.626 3.07672 185.507 2.95866 184.408L2.95865 184.408L2.95858 184.407C2.88231 183.697 2.80689 182.994 2.73548 182.3C2.51442 180.156 2.40162 178.003 2.39754 175.847C2.24201 165.361 4.66103 154.998 9.44215 145.666C14.1847 136.672 20.861 128.844 28.9902 122.744C37.9562 116.098 48.0612 111.152 58.8062 108.147C71.1197 104.675 83.8624 102.967 96.6547 103.073C108.863 102.936 121.023 104.619 132.735 108.069C142.825 110.993 152.277 115.785 160.602 122.197C168.158 128.145 174.286 135.71 178.538 144.339C182.848 153.377 185.027 163.284 184.907 173.298C185.036 180.421 183.561 187.482 180.592 193.956C177.735 199.896 174.06 205.405 169.674 210.322C165.387 215.11 160.642 219.468 155.507 223.331C150.308 227.199 145.534 230.755 141.184 233.999C137.201 236.86 133.438 240.018 129.928 243.444C128.502 244.693 127.341 246.217 126.515 247.924C125.689 249.632 125.214 251.488 125.119 253.383V267.042H67.9304V243.314C67.9369 239.317 69.0238 235.397 71.0758 231.969C73.4141 228.086 76.197 224.488 79.3681 221.25C82.7475 217.763 86.4128 214.251 90.234 210.842C94.0552 207.434 97.8244 203.765 101.256 200.071C104.586 196.502 107.475 192.545 109.86 188.284C112.163 184.085 113.345 179.362 113.291 174.573ZM128.472 290.303V346.763C128.472 347.095 128.341 347.412 128.107 347.646C127.873 347.881 127.556 348.012 127.225 348.012H66.7867C66.624 348.012 66.463 347.98 66.313 347.917C66.1631 347.854 66.0273 347.761 65.9135 347.645C65.7997 347.529 65.7102 347.391 65.6504 347.239C65.5905 347.088 65.5615 346.926 65.5649 346.763V290.303C65.5649 289.979 65.6937 289.668 65.9228 289.438C66.1519 289.209 66.4626 289.08 66.7867 289.08H127.225C127.551 289.08 127.865 289.208 128.098 289.437C128.331 289.665 128.466 289.976 128.472 290.303ZM67.9305 345.54H125.873V291.552H67.9305V345.54Z" fill="url(#paint12_linear_499_288)"/>
<defs>
<filter id="filter0_d_499_288" x="100.046" y="107.06" width="431.909" height="308.402" filterUnits="userSpaceOnUse" color-interpolation-filters="sRGB">
<feFlood flood-opacity="0" result="BackgroundImageFix"/>
<feColorMatrix in="SourceAlpha" type="matrix" values="0 0 0 0 0 0 0 0 0 0 0 0 0 0 0 0 0 0 127 0" result="hardAlpha"/>
<feOffset dy="10"/>
<feGaussianBlur stdDeviation="15"/>
<feComposite in2="hardAlpha" operator="out"/>
<feColorMatrix type="matrix" values="0 0 0 0 0.0117647 0 0 0 0 0.0117647 0 0 0 0 0.109804 0 0 0 1 0"/>
<feBlend mode="normal" in2="BackgroundImageFix" result="effect1_dropShadow_499_288"/>
<feBlend mode="normal" in="SourceGraphic" in2="effect1_dropShadow_499_288" result="shape"/>
</filter>
<linearGradient id="paint0_linear_499_288" x1="470.62" y1="135.994" x2="128.156" y2="385.88" gradientUnits="userSpaceOnUse">
<stop stop-color="#00FFFF"/>
<stop offset="1" stop-color="#03031C"/>
</linearGradient>
<linearGradient id="paint1_linear_499_288" x1="458.248" y1="146.661" x2="458.248" y2="384.889" gradientUnits="userSpaceOnUse">
<stop stop-color="#00FFFF"/>
<stop offset="1" stop-color="#03031C"/>
</linearGradient>
<linearGradient id="paint2_linear_499_288" x1="382.797" y1="220.015" x2="382.797" y2="395.368" gradientUnits="userSpaceOnUse">
<stop stop-color="#00FFFF"/>
<stop offset="1" stop-color="#03031C"/>
</linearGradient>
<linearGradient id="paint3_linear_499_288" x1="322.716" y1="273.809" x2="343.67" y2="398.843" gradientUnits="userSpaceOnUse">
<stop stop-color="#00FFFF"/>
<stop offset="1" stop-color="#03031C"/>
</linearGradient>
<linearGradient id="paint4_linear_499_288" x1="276.608" y1="254.247" x2="327.861" y2="381.752" gradientUnits="userSpaceOnUse">
<stop stop-color="#00FFFF"/>
<stop offset="1" stop-color="#03031C"/>
</linearGradient>
<linearGradient id="paint5_linear_499_288" x1="233.294" y1="301.055" x2="233.294" y2="400.957" gradientUnits="userSpaceOnUse">
<stop stop-color="#00FFFF"/>
<stop offset="1" stop-color="#03031C"/>
</linearGradient>
<linearGradient id="paint6_linear_499_288" x1="170.418" y1="256.343" x2="188.567" y2="421.316" gradientUnits="userSpaceOnUse">
<stop stop-color="#00FFFF"/>
<stop offset="1" stop-color="#03031C"/>
</linearGradient>
<linearGradient id="paint7_linear_499_288" x1="416.641" y1="165.028" x2="416.641" y2="435.408" gradientUnits="userSpaceOnUse">
<stop stop-color="#00FFFF"/>
<stop offset="1" stop-color="#00FFFF" stop-opacity="0"/>
</linearGradient>
<linearGradient id="paint8_linear_499_288" x1="350.993" y1="165.932" x2="350.993" y2="435.408" gradientUnits="userSpaceOnUse">
<stop stop-color="#00FFFF"/>
<stop offset="1" stop-color="#00FFFF" stop-opacity="0"/>
</linearGradient>
<linearGradient id="paint9_linear_499_288" x1="295.359" y1="164.116" x2="295.359" y2="435.408" gradientUnits="userSpaceOnUse">
<stop stop-color="#00FFFF"/>
<stop offset="1" stop-color="#00FFFF" stop-opacity="0"/>
</linearGradient>
<linearGradient id="paint10_linear_499_288" x1="257.528" y1="162.339" x2="257.528" y2="435.408" gradientUnits="userSpaceOnUse">
<stop stop-color="#00FFFF"/>
<stop offset="1" stop-color="#00FFFF" stop-opacity="0"/>
</linearGradient>
<linearGradient id="paint11_linear_499_288" x1="209.683" y1="164.876" x2="209.683" y2="435.408" gradientUnits="userSpaceOnUse">
<stop stop-color="#00FFFF"/>
<stop offset="1" stop-color="#00FFFF" stop-opacity="0"/>
</linearGradient>
<linearGradient id="paint12_linear_499_288" x1="263.668" y1="0.352173" x2="263.668" y2="454.455" gradientUnits="userSpaceOnUse">
<stop stop-color="#00FFFF"/>
<stop offset="1" stop-color="#03031C"/>
</linearGradient>
</defs>
</svg>
