<svg width="320" height="485" viewBox="0 0 320 485" fill="none" xmlns="http://www.w3.org/2000/svg">
<path style="mix-blend-mode:screen" d="M-141.841 459C-141.841 470.046 -132.887 479 -121.841 479H-119.357C-108.311 479 -99.3568 470.046 -99.3568 459V389.533C-99.3568 378.487 -108.311 369.533 -119.357 369.533H-121.841C-132.887 369.533 -141.841 378.487 -141.841 389.533V459ZM-297.993 459C-297.993 470.046 -289.038 479 -277.993 479H-275.509C-264.463 479 -255.509 470.046 -255.509 459V443.4C-255.509 432.354 -264.463 423.4 -275.509 423.4H-277.993C-289.038 423.4 -297.993 432.354 -297.993 443.4V459ZM-219.917 459C-219.917 470.046 -210.962 479 -199.917 479H-197.433C-186.387 479 -177.433 470.046 -177.433 459V419.505C-177.433 408.459 -186.387 399.505 -197.433 399.505H-199.917C-210.962 399.505 -219.917 408.459 -219.917 419.505V459ZM-63.7681 459C-63.7681 470.046 -54.8138 479 -43.7681 479H-41.284C-30.2383 479 -21.284 470.046 -21.284 459V349.062C-21.284 338.016 -30.2383 329.062 -41.284 329.062H-43.7681C-54.8138 329.062 -63.7681 338.016 -63.7681 349.062V459ZM14.3109 459C14.3109 470.046 23.2652 479 34.3109 479H36.7736C47.8192 479 56.7735 470.046 56.7735 459V306.385C56.7735 295.339 47.8192 286.385 36.7735 286.385H34.3109C23.2652 286.385 14.3109 295.339 14.3109 306.385V459ZM268.539 51.0002C257.493 51.0002 248.539 59.9545 248.539 71.0002V459C248.539 470.046 257.493 479 268.539 479H271.007C282.053 479 291.007 470.046 291.007 459V71.0002C291.007 59.9545 282.053 51.0002 271.007 51.0002H268.539ZM170.457 459C170.457 470.046 179.411 479 190.457 479H192.925C203.971 479 212.925 470.046 212.925 459V178.626C212.925 167.58 203.971 158.626 192.925 158.626H190.457C179.411 158.626 170.457 167.58 170.457 178.626V459ZM92.3807 459C92.3807 470.046 101.335 479 112.381 479H114.865C125.91 479 134.865 470.046 134.865 459V243.543C134.865 232.497 125.91 223.543 114.865 223.543H112.381C101.335 223.543 92.3807 232.497 92.3807 243.543V459Z" fill="url(#paint0_linear_601_2017)" fill-opacity="0.3"/>
<path style="mix-blend-mode:screen" opacity="0.55" d="M197.346 72.831C197.346 113.054 229.953 145.662 270.177 145.662C310.4 145.662 343.008 113.054 343.008 72.831C343.008 32.6075 310.4 -2.88681e-06 270.177 -6.44786e-06C229.953 -1.00089e-05 197.346 32.6075 197.346 72.831Z" fill="url(#paint1_radial_601_2017)"/>
<path style="mix-blend-mode:color-dodge" d="M259.008 73C259.008 79.0751 263.933 84 270.008 84C276.083 84 281.008 79.0751 281.008 73C281.008 66.9249 276.083 62 270.008 62C263.933 62 259.008 66.9249 259.008 73Z" fill="url(#paint2_radial_601_2017)"/>
<g style="mix-blend-mode:screen" opacity="0.6">
<g style="mix-blend-mode:screen">
<path fill-rule="evenodd" clip-rule="evenodd" d="M145.532 255.462H147.526C149.569 255.462 151.226 257.115 151.226 259.153V306.291C151.226 308.329 149.569 309.982 147.526 309.982H145.532C143.489 309.982 141.832 308.329 141.832 306.291V259.153C141.832 257.115 143.489 255.462 145.532 255.462ZM159.474 260.234H162.195C162.633 260.234 163.067 260.32 163.471 260.488C163.876 260.655 164.243 260.9 164.553 261.209C164.863 261.518 165.108 261.884 165.276 262.288C165.443 262.691 165.53 263.124 165.53 263.561V281.669C165.53 282.551 165.178 283.397 164.553 284.021C163.928 284.645 163.079 284.995 162.195 284.995H161.808V300.757H159.861V284.995H159.474C159.036 284.996 158.602 284.91 158.197 284.743C157.792 284.576 157.424 284.331 157.114 284.022C156.804 283.713 156.558 283.346 156.39 282.943C156.222 282.539 156.136 282.106 156.136 281.669V263.561C156.136 263.124 156.222 262.691 156.39 262.287C156.558 261.883 156.804 261.516 157.114 261.207C157.424 260.898 157.792 260.654 158.197 260.487C158.602 260.32 159.036 260.234 159.474 260.234ZM176.108 281.141H176.495C177.378 281.141 178.226 281.49 178.852 282.112C179.477 282.734 179.83 283.579 179.833 284.46V302.565C179.833 303.448 179.481 304.295 178.855 304.919C178.229 305.544 177.38 305.894 176.495 305.894H176.108V313.624H174.164V305.905H173.777C172.892 305.905 172.043 305.554 171.417 304.93C170.791 304.305 170.439 303.458 170.439 302.575V284.47C170.439 283.587 170.791 282.74 171.417 282.116C172.043 281.491 172.892 281.141 173.777 281.141H174.164V273.421H176.108V281.141ZM205.102 299.468H204.716V281.426H202.771V299.468H202.384C201.946 299.467 201.512 299.553 201.107 299.72C200.702 299.887 200.334 300.132 200.024 300.441C199.714 300.75 199.468 301.117 199.301 301.52C199.133 301.924 199.046 302.357 199.046 302.794V320.902C199.046 321.339 199.133 321.772 199.301 322.176C199.468 322.58 199.714 322.947 200.024 323.256C200.334 323.564 200.702 323.809 201.107 323.976C201.512 324.143 201.946 324.229 202.384 324.229H205.102C205.54 324.229 205.975 324.143 206.379 323.976C206.784 323.809 207.152 323.564 207.462 323.256C207.773 322.947 208.018 322.58 208.186 322.176C208.354 321.772 208.44 321.339 208.44 320.902V302.794C208.44 302.357 208.354 301.924 208.186 301.52C208.018 301.117 207.773 300.75 207.462 300.441C207.152 300.132 206.784 299.887 206.379 299.72C205.975 299.553 205.54 299.467 205.102 299.468ZM133.588 308.147H133.201V300.431H131.253V308.147H130.866C129.981 308.147 129.132 308.497 128.506 309.122C127.88 309.746 127.528 310.593 127.528 311.476V329.585C127.528 330.022 127.615 330.455 127.783 330.858C127.95 331.262 128.196 331.629 128.506 331.938C128.816 332.247 129.184 332.492 129.589 332.659C129.994 332.826 130.428 332.911 130.866 332.911H131.253V340.63H133.201V332.911H133.588C134.026 332.911 134.459 332.825 134.864 332.658C135.268 332.49 135.636 332.245 135.946 331.937C136.255 331.628 136.501 331.261 136.668 330.858C136.836 330.454 136.922 330.021 136.922 329.585V311.476C136.922 310.594 136.571 309.748 135.946 309.123C135.321 308.499 134.472 308.148 133.588 308.147ZM287.223 307.542H286.836V299.822H284.888V307.542H284.505C283.62 307.542 282.771 307.893 282.145 308.517C281.519 309.142 281.167 309.988 281.167 310.872V328.976C281.167 329.859 281.519 330.706 282.145 331.331C282.771 331.955 283.62 332.306 284.505 332.306H284.888V340.026H286.836V332.31H287.223C288.108 332.31 288.957 331.959 289.583 331.334C290.209 330.71 290.561 329.863 290.561 328.98V310.875C290.561 310.438 290.475 310.004 290.308 309.6C290.14 309.195 289.895 308.828 289.585 308.518C289.275 308.209 288.906 307.963 288.501 307.796C288.096 307.628 287.662 307.542 287.223 307.542ZM190.799 301.518H188.081C187.196 301.518 186.348 301.869 185.722 302.492C185.096 303.116 184.744 303.962 184.743 304.845V322.953C184.743 323.836 185.094 324.683 185.72 325.307C186.346 325.932 187.195 326.283 188.081 326.283H188.467V342.041H190.412V326.283H190.799C191.684 326.283 192.533 325.932 193.159 325.307C193.785 324.683 194.137 323.836 194.137 322.953V304.852C194.137 304.414 194.051 303.981 193.884 303.576C193.716 303.172 193.47 302.805 193.16 302.495C192.85 302.185 192.482 301.94 192.077 301.772C191.672 301.605 191.237 301.518 190.799 301.518ZM118.898 318.094H119.285C119.723 318.094 120.157 318.18 120.561 318.348C120.966 318.515 121.334 318.76 121.644 319.069C121.953 319.379 122.199 319.746 122.366 320.15C122.534 320.554 122.62 320.987 122.619 321.424V339.529C122.62 339.966 122.534 340.399 122.366 340.802C122.199 341.206 121.953 341.574 121.644 341.883C121.334 342.192 120.966 342.437 120.561 342.605C120.157 342.772 119.723 342.858 119.285 342.858H118.898V350.578H116.95V342.858H116.563C115.678 342.858 114.829 342.507 114.203 341.883C113.577 341.259 113.225 340.412 113.225 339.529V321.424C113.225 320.541 113.577 319.694 114.203 319.069C114.829 318.445 115.678 318.094 116.563 318.094H116.95V310.375H118.898V318.094ZM104.981 326.109H104.594V318.407H102.646V326.126H102.259C101.374 326.126 100.525 326.477 99.8991 327.102C99.2731 327.726 98.9214 328.573 98.9214 329.456V347.561C98.9214 348.444 99.2731 349.291 99.8991 349.915C100.525 350.54 101.374 350.891 102.259 350.891H102.646V358.61H104.594V350.891H104.981C105.419 350.891 105.853 350.804 106.258 350.637C106.663 350.47 107.03 350.224 107.34 349.915C107.65 349.606 107.895 349.239 108.063 348.835C108.23 348.431 108.316 347.998 108.315 347.561V329.456C108.318 329.017 108.234 328.583 108.068 328.177C107.901 327.771 107.656 327.402 107.346 327.091C107.036 326.779 106.668 326.533 106.262 326.364C105.856 326.196 105.421 326.109 104.981 326.109ZM219.043 259.591H217.05C215.006 259.591 213.35 261.244 213.35 263.283V310.42C213.35 312.458 215.006 314.111 217.05 314.111H219.043C221.087 314.111 222.744 312.458 222.744 310.42V263.283C222.744 261.244 221.087 259.591 219.043 259.591ZM258.518 263.703H260.511C262.555 263.703 264.212 265.356 264.212 267.394V295.46C264.212 297.499 262.555 299.152 260.511 299.152H258.518C256.475 299.152 254.818 297.499 254.818 295.46V267.394C254.818 265.356 256.475 263.703 258.518 263.703ZM233.709 282.051H230.991C229.148 282.051 227.653 283.542 227.653 285.381V295.002C227.653 296.841 229.148 298.331 230.991 298.331H233.709C235.553 298.331 237.047 296.841 237.047 295.002V285.381C237.047 283.542 235.553 282.051 233.709 282.051ZM244.225 289.534H246.943C248.787 289.534 250.281 291.025 250.281 292.864V302.485C250.281 304.324 248.787 305.814 246.943 305.814H244.225C242.382 305.814 240.887 304.324 240.887 302.485V292.864C240.887 291.025 242.382 289.534 244.225 289.534ZM272.853 297.535H270.135C268.291 297.535 266.797 299.026 266.797 300.865V310.486C266.797 312.325 268.291 313.815 270.135 313.815H272.853C274.696 313.815 276.191 312.325 276.191 310.486V300.865C276.191 299.026 274.696 297.535 272.853 297.535ZM-51.473 307.097H-53.466C-55.5097 307.097 -57.1665 308.75 -57.1665 310.788V357.925C-57.1665 359.964 -55.5097 361.616 -53.466 361.616H-51.473C-49.4293 361.616 -47.7725 359.964 -47.7725 357.925V310.788C-47.7725 308.75 -49.4293 307.097 -51.473 307.097ZM-36.8074 311.865H-39.5287C-40.4134 311.866 -41.2616 312.218 -41.8868 312.842C-42.5121 313.466 -42.8633 314.313 -42.8633 315.195V333.3C-42.8633 334.183 -42.5121 335.029 -41.8868 335.653C-41.2616 336.278 -40.4134 336.629 -39.5287 336.63H-39.1419V352.392H-37.1941V336.63H-36.8074C-35.9221 336.63 -35.073 336.279 -34.447 335.654C-33.821 335.03 -33.4693 334.183 -33.4693 333.3V315.195C-33.4693 314.312 -33.821 313.465 -34.447 312.841C-35.073 312.216 -35.9221 311.865 -36.8074 311.865ZM-22.5037 332.775H-22.8904V325.056H-24.8383V332.775H-25.225C-26.1094 332.775 -26.9576 333.126 -27.5829 333.749C-28.2083 334.373 -28.5596 335.219 -28.5596 336.101V354.206C-28.5596 355.088 -28.2083 355.934 -27.5829 356.558C-26.9576 357.182 -26.1094 357.532 -25.225 357.532H-24.8383V365.252H-22.8904V357.532H-22.5037C-22.0655 357.533 -21.6315 357.447 -21.2265 357.28C-20.8215 357.113 -20.4535 356.868 -20.1435 356.559C-19.8335 356.251 -19.5875 355.884 -19.4197 355.48C-19.252 355.076 -19.1656 354.643 -19.1656 354.206V336.098C-19.1661 335.661 -19.2527 335.229 -19.4208 334.825C-19.5888 334.422 -19.8348 334.056 -20.1447 333.747C-20.4547 333.438 -20.8226 333.194 -21.2273 333.027C-21.6321 332.86 -22.0657 332.775 -22.5037 332.775ZM5.71652 351.099H6.10327C6.98859 351.099 7.83765 351.45 8.46362 352.074C9.08966 352.699 9.44135 353.546 9.44135 354.429V372.533C9.44135 373.417 9.08966 374.264 8.46362 374.888C7.83765 375.512 6.98859 375.863 6.10327 375.863H3.38193C2.94373 375.863 2.50986 375.777 2.10504 375.61C1.70026 375.442 1.33249 375.197 1.0228 374.888C0.713104 374.578 0.46756 374.211 0.300171 373.807C0.132812 373.403 0.0469055 372.971 0.0473633 372.533V354.429C0.0469055 353.992 0.132812 353.559 0.300171 353.155C0.46756 352.751 0.713104 352.384 1.0228 352.074C1.33249 351.765 1.70026 351.52 2.10504 351.352C2.50986 351.185 2.94373 351.099 3.38193 351.099H3.76871V333.06H5.71652V351.099ZM-65.8011 359.767H-65.4143C-64.529 359.767 -63.6799 360.118 -63.0539 360.743C-62.4279 361.367 -62.0762 362.214 -62.0762 363.097V381.202C-62.0762 382.085 -62.4279 382.932 -63.0539 383.556C-63.6799 384.181 -64.529 384.532 -65.4143 384.532H-65.8011V392.251H-67.7489V384.532H-68.1357C-69.0204 384.531 -69.8685 384.179 -70.4938 383.555C-71.119 382.931 -71.4702 382.084 -71.4702 381.202V363.097C-71.4702 362.215 -71.119 361.368 -70.4938 360.744C-69.8685 360.119 -69.0204 359.768 -68.1357 359.767H-67.7489V352.048H-65.8011V359.767ZM87.8376 359.176H88.2243C88.6631 359.176 89.0976 359.263 89.5028 359.431C89.9081 359.598 90.2761 359.844 90.5859 360.154C90.8957 360.464 91.1411 360.832 91.3081 361.237C91.475 361.642 91.5603 362.075 91.559 362.513V380.621C91.5594 381.059 91.4735 381.491 91.3061 381.895C91.1387 382.299 90.8931 382.666 90.5835 382.976C90.2738 383.285 89.906 383.53 89.5012 383.698C89.0964 383.865 88.6625 383.951 88.2243 383.951H87.8376V391.667H85.8898V383.951H85.503C85.0648 383.951 84.6309 383.865 84.2261 383.698C83.8213 383.53 83.4536 383.285 83.1439 382.976C82.8342 382.666 82.5887 382.299 82.4213 381.895C82.2539 381.491 82.168 381.059 82.1685 380.621V362.503C82.1685 362.066 82.2547 361.633 82.4223 361.23C82.5899 360.826 82.8355 360.46 83.1451 360.151C83.4548 359.842 83.8224 359.597 84.227 359.43C84.6315 359.263 85.0651 359.176 85.503 359.176H85.8898V351.457H87.8376V359.176ZM-10.9213 353.164H-8.19995C-7.31464 353.164 -6.46555 353.514 -5.83954 354.139C-5.21353 354.763 -4.86185 355.61 -4.86185 356.493V374.602C-4.86185 375.039 -4.94824 375.471 -5.11603 375.875C-5.28381 376.279 -5.52972 376.646 -5.83975 376.955C-6.14978 377.264 -6.51779 377.509 -6.92276 377.676C-7.32773 377.843 -7.76175 377.928 -8.19995 377.928H-8.5867V393.69H-10.5345V377.928H-10.9213C-11.3593 377.928 -11.7931 377.842 -12.1979 377.676C-12.6027 377.509 -12.9705 377.264 -13.2802 376.955C-13.5899 376.646 -13.8355 376.279 -14.0029 375.875C-14.1703 375.471 -14.2563 375.038 -14.2559 374.602V356.493C-14.2563 356.056 -14.1704 355.623 -14.0031 355.219C-13.8357 354.815 -13.5901 354.448 -13.2804 354.139C-12.9707 353.83 -12.603 353.585 -12.1982 353.417C-11.7934 353.25 -11.3594 353.164 -10.9213 353.164ZM-79.7175 369.729H-80.1043V362.009H-82.0486V369.729H-82.4353C-82.8735 369.728 -83.3075 369.814 -83.7125 369.981C-84.1175 370.148 -84.4855 370.393 -84.7955 370.702C-85.1055 371.011 -85.3515 371.377 -85.5193 371.781C-85.687 372.185 -85.7734 372.618 -85.7734 373.055V391.163C-85.7734 391.6 -85.687 392.033 -85.5193 392.437C-85.3515 392.841 -85.1055 393.207 -84.7955 393.516C-84.4855 393.825 -84.1175 394.07 -83.7125 394.237C-83.3075 394.404 -82.8735 394.49 -82.4353 394.489H-82.0486V402.209H-80.1043V394.489H-79.7175C-79.2793 394.49 -78.8453 394.404 -78.4403 394.237C-78.0354 394.07 -77.6673 393.825 -77.3573 393.516C-77.0473 393.207 -76.8014 392.841 -76.6336 392.437C-76.4658 392.033 -76.3794 391.6 -76.3794 391.163V373.055C-76.3794 372.618 -76.4658 372.185 -76.6336 371.781C-76.8014 371.377 -77.0473 371.011 -77.3573 370.702C-77.6673 370.393 -78.0354 370.148 -78.4403 369.981C-78.8453 369.814 -79.2793 369.728 -79.7175 369.729ZM-94.408 377.744H-94.0212C-93.5819 377.743 -93.1467 377.829 -92.7409 377.997C-92.335 378.165 -91.9664 378.411 -91.6562 378.721C-91.3459 379.032 -91.1003 379.4 -90.9333 379.806C-90.7664 380.211 -90.6813 380.645 -90.6832 381.084V399.192C-90.6832 399.629 -90.7695 400.062 -90.9373 400.466C-91.1051 400.869 -91.3511 401.236 -91.6611 401.545C-91.9711 401.854 -92.3391 402.099 -92.7441 402.266C-93.1491 402.433 -93.583 402.519 -94.0212 402.518H-94.408V410.224H-96.3523V402.504H-96.7391C-97.1773 402.505 -97.6113 402.419 -98.0163 402.252C-98.4212 402.085 -98.7892 401.84 -99.0992 401.531C-99.4093 401.222 -99.6552 400.856 -99.823 400.452C-99.9908 400.048 -100.077 399.615 -100.077 399.178V381.07C-100.077 380.633 -99.9908 380.2 -99.823 379.796C-99.6552 379.392 -99.4093 379.025 -99.0992 378.717C-98.7892 378.408 -98.4212 378.163 -98.0163 377.996C-97.6113 377.829 -97.1773 377.743 -96.7391 377.744H-96.3523V370.024H-94.408V377.744ZM18.0481 311.226H20.0412C22.0849 311.226 23.7416 312.879 23.7416 314.917V362.054C23.7416 364.093 22.0849 365.746 20.0412 365.746H18.0481C16.0044 365.746 14.3477 364.093 14.3477 362.054V314.917C14.3477 312.879 16.0044 311.226 18.0481 311.226ZM61.509 315.334H59.5159C57.4722 315.334 55.8154 316.987 55.8154 319.025V347.091C55.8154 349.13 57.4722 350.783 59.5159 350.783H61.509C63.5527 350.783 65.2094 349.13 65.2094 347.091V319.025C65.2094 316.987 63.5527 315.334 61.509 315.334ZM31.989 333.686H34.7068C36.5504 333.686 38.0449 335.177 38.0449 337.016V346.636C38.0449 348.475 36.5504 349.966 34.7068 349.966H31.989C30.1454 349.966 28.6509 348.475 28.6509 346.636V337.016C28.6509 335.177 30.1454 333.686 31.989 333.686ZM47.9407 341.166H45.2228C43.3793 341.166 41.8848 342.656 41.8848 344.495V354.116C41.8848 355.955 43.3793 357.446 45.2228 357.446H47.9407C49.7842 357.446 51.2787 355.955 51.2787 354.116V344.495C51.2787 342.656 49.7842 341.166 47.9407 341.166ZM71.133 349.17H73.8508C75.6944 349.17 77.1889 350.661 77.1889 352.5V362.12C77.1889 363.959 75.6944 365.45 73.8508 365.45H71.133C69.2895 365.45 67.7949 363.959 67.7949 362.12V352.5C67.7949 350.661 69.2895 349.17 71.133 349.17ZM-248.917 340.87H-250.91C-252.954 340.87 -254.611 342.523 -254.611 344.561V391.698C-254.611 393.737 -252.954 395.389 -250.91 395.389H-248.917C-246.874 395.389 -245.217 393.737 -245.217 391.698V344.561C-245.217 342.523 -246.874 340.87 -248.917 340.87ZM-234.252 345.639H-236.97C-237.855 345.639 -238.704 345.989 -239.33 346.614C-239.956 347.238 -240.308 348.085 -240.308 348.968V367.066C-240.308 367.949 -239.956 368.796 -239.33 369.421C-238.704 370.045 -237.855 370.396 -236.97 370.396H-236.593V386.182H-234.649V370.403H-234.262C-233.377 370.403 -232.528 370.052 -231.902 369.428C-231.276 368.803 -230.924 367.956 -230.924 367.073V348.968C-230.924 348.087 -231.274 347.242 -231.898 346.618C-232.522 345.993 -233.368 345.641 -234.252 345.639ZM-219.948 366.545H-220.334V358.829H-222.279V366.545H-222.655C-223.54 366.545 -224.389 366.896 -225.015 367.52C-225.641 368.145 -225.993 368.991 -225.993 369.875V387.983C-225.993 388.42 -225.907 388.853 -225.739 389.256C-225.571 389.66 -225.325 390.027 -225.015 390.336C-224.705 390.645 -224.337 390.89 -223.932 391.057C-223.527 391.224 -223.093 391.31 -222.655 391.309H-222.268V399.042H-220.324V391.323H-219.937C-219.499 391.323 -219.065 391.238 -218.66 391.071C-218.255 390.904 -217.887 390.659 -217.577 390.35C-217.267 390.041 -217.021 389.674 -216.853 389.27C-216.686 388.867 -216.599 388.434 -216.599 387.997V369.888C-216.597 369.449 -216.683 369.014 -216.85 368.608C-217.018 368.201 -217.264 367.832 -217.576 367.521C-217.887 367.21 -218.257 366.964 -218.664 366.797C-219.071 366.629 -219.507 366.543 -219.948 366.545ZM-191.728 384.872H-191.341C-190.903 384.872 -190.469 384.958 -190.064 385.126C-189.659 385.293 -189.291 385.538 -188.981 385.847C-188.671 386.157 -188.425 386.524 -188.257 386.928C-188.089 387.332 -188.003 387.765 -188.003 388.202V406.307C-188.003 407.19 -188.355 408.037 -188.981 408.661C-189.607 409.286 -190.456 409.636 -191.341 409.636H-194.059C-194.944 409.636 -195.793 409.286 -196.419 408.661C-197.045 408.037 -197.397 407.19 -197.397 406.307V388.202C-197.397 387.319 -197.045 386.472 -196.419 385.847C-195.793 385.223 -194.944 384.872 -194.059 384.872H-193.676V366.833H-191.728V384.872ZM-263.245 393.554H-262.859C-261.973 393.554 -261.124 393.905 -260.498 394.53C-259.872 395.154 -259.521 396.001 -259.521 396.884V414.989C-259.521 415.872 -259.872 416.719 -260.498 417.343C-261.124 417.968 -261.973 418.319 -262.859 418.319H-263.245V426.038H-265.19V418.319H-265.576C-266.462 418.319 -267.311 417.968 -267.937 417.343C-268.563 416.719 -268.915 415.872 -268.915 414.989V396.884C-268.915 396.001 -268.563 395.154 -267.937 394.53C-267.311 393.905 -266.462 393.554 -265.576 393.554H-265.19V385.835H-263.245V393.554ZM-109.607 392.95H-109.22C-108.338 392.95 -107.491 393.298 -106.866 393.919C-106.24 394.539 -105.887 395.382 -105.882 396.262V414.384C-105.882 415.267 -106.234 416.114 -106.86 416.739C-107.486 417.363 -108.335 417.714 -109.22 417.714H-109.607V425.43H-111.555V417.714H-111.941C-112.38 417.714 -112.813 417.628 -113.218 417.46C-113.623 417.293 -113.991 417.048 -114.3 416.738C-114.61 416.429 -114.856 416.062 -115.023 415.658C-115.19 415.254 -115.276 414.821 -115.276 414.384V396.276C-115.276 395.394 -114.925 394.548 -114.299 393.924C-113.674 393.3 -112.826 392.95 -111.941 392.95H-111.555V385.23H-109.607V392.95ZM-208.369 386.923H-205.645C-204.761 386.925 -203.913 387.276 -203.289 387.9C-202.664 388.525 -202.314 389.371 -202.314 390.252V408.361C-202.314 408.798 -202.4 409.231 -202.568 409.634C-202.736 410.038 -202.981 410.405 -203.291 410.714C-203.601 411.023 -203.969 411.268 -204.374 411.435C-204.779 411.602 -205.213 411.687 -205.652 411.687H-206.038V427.449H-207.983V411.687H-208.369C-208.808 411.687 -209.242 411.602 -209.647 411.435C-210.052 411.268 -210.42 411.023 -210.73 410.714C-211.04 410.405 -211.286 410.038 -211.453 409.634C-211.621 409.231 -211.708 408.798 -211.708 408.361V390.252C-211.708 389.369 -211.356 388.522 -210.73 387.898C-210.104 387.274 -209.255 386.923 -208.369 386.923ZM-277.162 403.502H-277.549V395.782H-279.493V403.502H-279.88C-280.318 403.501 -280.752 403.587 -281.157 403.754C-281.562 403.921 -281.93 404.166 -282.24 404.475C-282.55 404.784 -282.796 405.15 -282.964 405.554C-283.131 405.958 -283.218 406.391 -283.218 406.828V424.936C-283.218 425.373 -283.131 425.806 -282.964 426.21C-282.796 426.614 -282.55 426.98 -282.24 427.289C-281.93 427.598 -281.562 427.843 -281.157 428.01C-280.752 428.177 -280.318 428.263 -279.88 428.262H-279.493V435.982H-277.549V428.262H-277.162C-276.724 428.263 -276.29 428.177 -275.885 428.01C-275.48 427.843 -275.112 427.598 -274.802 427.289C-274.492 426.98 -274.246 426.614 -274.078 426.21C-273.91 425.806 -273.824 425.373 -273.824 424.936V406.828C-273.824 406.391 -273.91 405.958 -274.078 405.554C-274.246 405.15 -274.492 404.784 -274.802 404.475C-275.112 404.166 -275.48 403.921 -275.885 403.754C-276.29 403.587 -276.724 403.501 -277.162 403.502ZM-291.849 411.517H-291.466C-291.027 411.516 -290.593 411.602 -290.188 411.769C-289.783 411.936 -289.415 412.181 -289.105 412.49C-288.795 412.799 -288.549 413.165 -288.382 413.569C-288.214 413.973 -288.128 414.406 -288.128 414.843V432.951C-288.128 433.388 -288.214 433.821 -288.382 434.225C-288.549 434.629 -288.795 434.995 -289.105 435.304C-289.415 435.613 -289.783 435.858 -290.188 436.025C-290.593 436.192 -291.027 436.278 -291.466 436.277H-291.849V443.997H-293.797V436.277H-294.183C-294.622 436.278 -295.056 436.192 -295.461 436.025C-295.866 435.858 -296.234 435.613 -296.544 435.304C-296.854 434.995 -297.1 434.629 -297.267 434.225C-297.435 433.821 -297.521 433.388 -297.521 432.951V414.843C-297.521 414.406 -297.435 413.973 -297.267 413.569C-297.1 413.165 -296.854 412.799 -296.544 412.49C-296.234 412.181 -295.866 411.936 -295.461 411.769C-295.056 411.602 -294.622 411.516 -294.183 411.517H-293.797V403.797H-291.849V411.517ZM-179.393 344.999H-177.4C-175.356 344.999 -173.699 346.652 -173.699 348.69V395.827C-173.699 397.866 -175.356 399.519 -177.4 399.519H-179.393C-181.437 399.519 -183.093 397.866 -183.093 395.827V348.69C-183.093 346.652 -181.437 344.999 -179.393 344.999ZM-135.935 349.107H-137.928C-139.972 349.107 -141.629 350.76 -141.629 352.798V380.865C-141.629 382.903 -139.972 384.556 -137.928 384.556H-135.935C-133.892 384.556 -132.235 382.903 -132.235 380.865V352.798C-132.235 350.76 -133.892 349.107 -135.935 349.107ZM-165.455 367.459H-162.738C-160.894 367.459 -159.399 368.95 -159.399 370.789V380.409C-159.399 382.248 -160.894 383.739 -162.738 383.739H-165.455C-167.299 383.739 -168.793 382.248 -168.793 380.409V370.789C-168.793 368.95 -167.299 367.459 -165.455 367.459ZM-149.5 374.939H-152.218C-154.062 374.939 -155.556 376.429 -155.556 378.268V387.889C-155.556 389.728 -154.062 391.219 -152.218 391.219H-149.5C-147.657 391.219 -146.162 389.728 -146.162 387.889V378.268C-146.162 376.429 -147.657 374.939 -149.5 374.939ZM-126.311 382.943H-123.594C-121.75 382.943 -120.255 384.434 -120.255 386.273V395.893C-120.255 397.732 -121.75 399.223 -123.594 399.223H-126.311C-128.155 399.223 -129.649 397.732 -129.649 395.893V386.273C-129.649 384.434 -128.155 382.943 -126.311 382.943Z" fill="url(#paint3_linear_601_2017)"/>
</g>
<g style="mix-blend-mode:screen">
<path fill-rule="evenodd" clip-rule="evenodd" d="M144.149 217C144.916 216.959 145.675 217.18 146.299 217.626C146.559 217.833 146.766 218.098 146.904 218.4C147.041 218.702 147.105 219.032 147.09 219.364C147.093 219.846 146.933 220.314 146.637 220.695C146.245 221.167 145.749 221.541 145.188 221.79C145.84 222.066 146.424 222.478 146.902 222.999C147.238 223.413 147.418 223.93 147.411 224.463C147.425 224.834 147.355 225.203 147.206 225.543C147.057 225.883 146.833 226.185 146.55 226.426C145.878 226.946 145.04 227.206 144.191 227.16C143.132 227.16 142.319 226.928 141.752 226.465C141.466 226.226 141.24 225.925 141.092 225.584C140.943 225.243 140.877 224.872 140.898 224.501C140.898 223.372 141.595 222.492 142.989 221.859C142.458 221.59 141.998 221.2 141.648 220.719C141.377 220.314 141.235 219.837 141.24 219.35C141.228 219.022 141.294 218.696 141.432 218.398C141.57 218.101 141.776 217.84 142.034 217.636C142.646 217.19 143.392 216.966 144.149 217ZM142.01 224.529C141.998 224.769 142.043 225.009 142.141 225.228C142.239 225.448 142.387 225.642 142.574 225.794C143.037 226.12 143.598 226.28 144.163 226.246C144.727 226.28 145.284 226.113 145.735 225.773C145.922 225.614 146.071 225.414 146.168 225.188C146.266 224.963 146.311 224.718 146.299 224.473C146.297 224.253 146.249 224.036 146.157 223.835C146.066 223.635 145.934 223.455 145.77 223.309C145.226 222.861 144.6 222.524 143.926 222.318C143.374 222.526 142.875 222.853 142.463 223.274C142.161 223.622 142 224.069 142.01 224.529ZM144.135 217.925C143.658 217.897 143.187 218.041 142.808 218.332C142.65 218.463 142.525 218.629 142.442 218.816C142.358 219.004 142.319 219.208 142.327 219.412C142.318 219.806 142.462 220.188 142.728 220.48C143.152 220.877 143.656 221.181 144.205 221.373C144.72 221.186 145.188 220.888 145.574 220.5C145.841 220.201 145.985 219.813 145.979 219.412C145.987 219.206 145.947 219.001 145.862 218.812C145.776 218.624 145.648 218.458 145.487 218.328C145.099 218.037 144.621 217.889 144.135 217.911V217.925ZM135.752 227.024H129.239V226.058L131.849 223.441C132.408 222.902 132.933 222.328 133.421 221.724C133.654 221.417 133.847 221.08 133.992 220.723C134.119 220.39 134.183 220.036 134.18 219.68C134.192 219.449 134.155 219.218 134.073 219.002C133.99 218.786 133.863 218.59 133.699 218.425C133.518 218.264 133.307 218.141 133.078 218.061C132.849 217.982 132.607 217.949 132.365 217.963C131.967 217.96 131.571 218.028 131.198 218.165C130.752 218.345 130.337 218.594 129.968 218.902L129.368 218.137C130.194 217.414 131.252 217.012 132.351 217.004C133.144 216.956 133.927 217.211 134.539 217.716C134.805 217.958 135.014 218.254 135.151 218.585C135.288 218.916 135.351 219.274 135.333 219.631C135.325 220.287 135.142 220.929 134.804 221.491C134.248 222.348 133.583 223.13 132.825 223.816L130.657 225.933V225.985H135.752V227.024ZM125.055 221.675H127.842V222.61H125.055V225.488H124.11V222.61H121.323V221.675H124.11V218.783H125.055V221.675ZM137.734 225.606C137.583 225.805 137.51 226.052 137.529 226.301C137.517 226.427 137.531 226.554 137.57 226.674C137.609 226.794 137.672 226.905 137.755 227C137.91 227.143 138.116 227.219 138.327 227.212C138.44 227.217 138.553 227.199 138.659 227.159C138.764 227.118 138.86 227.056 138.94 226.976C139.098 226.788 139.178 226.546 139.163 226.301C139.183 226.05 139.104 225.801 138.944 225.606C138.863 225.526 138.767 225.464 138.66 225.424C138.554 225.384 138.44 225.367 138.327 225.373C138.217 225.367 138.107 225.384 138.005 225.424C137.902 225.464 137.81 225.527 137.734 225.606ZM154.313 224.751H155.784L155.801 223.733H154.331V217.087H153.139L148.435 223.771V224.751H153.237V227.024H154.313V224.751ZM153.237 220.445V223.733H149.543L152.641 219.336C152.866 218.991 153.07 218.632 153.251 218.262H153.306C153.26 219.073 153.237 219.801 153.237 220.445Z" fill="#00FFFF" fill-opacity="0.5"/>
</g>
<g style="mix-blend-mode:screen" opacity="0.3">
<path fill-rule="evenodd" clip-rule="evenodd" d="M256.417 229.867C256.417 231.577 256.148 232.852 255.609 233.691C255.347 234.103 254.979 234.438 254.543 234.661C254.108 234.883 253.62 234.985 253.131 234.956C252.645 234.978 252.163 234.869 251.733 234.641C251.304 234.413 250.945 234.074 250.692 233.659C250.135 232.797 249.856 231.532 249.856 229.864C249.856 228.142 250.125 226.868 250.664 226.041C250.944 225.649 251.315 225.331 251.745 225.113C252.175 224.895 252.651 224.784 253.133 224.789C253.615 224.794 254.088 224.915 254.513 225.142C254.938 225.369 255.302 225.695 255.574 226.093C256.136 226.959 256.417 228.217 256.417 229.867ZM251.002 229.867C251.002 231.306 251.172 232.349 251.511 232.995C251.664 233.294 251.897 233.545 252.184 233.72C252.471 233.895 252.8 233.987 253.137 233.987C253.473 233.987 253.802 233.895 254.089 233.72C254.376 233.545 254.609 233.294 254.762 232.995C255.096 232.33 255.264 231.288 255.264 229.867C255.264 228.447 255.096 227.404 254.762 226.739C254.607 226.443 254.374 226.194 254.087 226.021C253.801 225.847 253.472 225.756 253.137 225.756C252.801 225.756 252.473 225.847 252.186 226.021C251.899 226.194 251.666 226.443 251.511 226.739C251.173 227.386 251.002 228.432 251.002 229.867ZM245.65 229.478H248.438V230.409H245.65V233.287H244.706V230.409H241.918V229.478H244.706V226.583H245.65V229.478ZM258.344 233.412C258.193 233.611 258.12 233.859 258.139 234.108C258.128 234.232 258.142 234.358 258.181 234.476C258.22 234.595 258.283 234.705 258.365 234.799C258.531 234.941 258.744 235.016 258.962 235.012C259.18 235.007 259.39 234.923 259.55 234.775C259.695 234.577 259.773 234.339 259.773 234.094C259.773 233.849 259.695 233.61 259.55 233.412C259.47 233.333 259.374 233.271 259.268 233.231C259.162 233.191 259.049 233.173 258.937 233.18C258.827 233.174 258.717 233.191 258.615 233.231C258.513 233.272 258.42 233.333 258.344 233.412ZM264.759 224.8C265.526 224.758 266.285 224.98 266.909 225.429C267.17 225.635 267.378 225.9 267.515 226.202C267.653 226.504 267.716 226.835 267.7 227.167C267.701 227.649 267.542 228.119 267.247 228.501C266.853 228.971 266.357 229.345 265.797 229.596C266.449 229.869 267.034 230.281 267.511 230.802C267.848 231.215 268.028 231.733 268.02 232.265C268.034 232.636 267.964 233.006 267.815 233.346C267.666 233.686 267.442 233.988 267.16 234.229C266.488 234.75 265.65 235.011 264.801 234.963C263.741 234.963 262.928 234.731 262.361 234.267C262.075 234.03 261.849 233.729 261.701 233.389C261.553 233.048 261.487 232.678 261.508 232.307C261.508 231.174 262.199 230.292 263.581 229.662C263.05 229.393 262.59 229.002 262.24 228.522C261.969 228.118 261.826 227.642 261.832 227.156C261.82 226.828 261.886 226.502 262.024 226.205C262.162 225.907 262.368 225.646 262.626 225.443C263.241 224.989 263.995 224.761 264.759 224.8ZM262.619 232.328C262.607 232.568 262.652 232.808 262.75 233.028C262.848 233.248 262.997 233.441 263.184 233.593C263.646 233.921 264.207 234.081 264.773 234.045C265.336 234.08 265.894 233.912 266.344 233.572C266.531 233.414 266.68 233.214 266.777 232.99C266.875 232.765 266.92 232.521 266.909 232.276C266.907 232.055 266.858 231.837 266.767 231.636C266.676 231.435 266.544 231.255 266.379 231.108C265.836 230.66 265.209 230.324 264.536 230.117C263.983 230.326 263.483 230.653 263.072 231.077C262.77 231.423 262.609 231.869 262.619 232.328ZM264.745 225.724C264.268 225.696 263.796 225.841 263.417 226.131C263.26 226.263 263.135 226.429 263.052 226.616C262.968 226.803 262.929 227.007 262.936 227.212C262.927 227.606 263.071 227.988 263.337 228.279C263.76 228.678 264.264 228.983 264.814 229.172C265.33 228.987 265.798 228.689 266.184 228.3C266.451 228.001 266.595 227.612 266.588 227.212C266.596 227.005 266.556 226.8 266.471 226.612C266.386 226.423 266.258 226.258 266.097 226.127C265.708 225.836 265.23 225.688 264.745 225.71V225.724ZM274.92 232.557H276.393L276.39 231.539H274.92V224.894H273.728L269.024 231.577V232.557H273.843V234.831H274.92V232.557ZM273.846 228.255V231.539H270.167L273.264 227.146C273.489 226.799 273.693 226.439 273.874 226.068H273.916C273.871 226.882 273.846 227.608 273.846 228.255Z" fill="#00FFFF"/>
</g>
<g style="mix-blend-mode:screen">
<path fill-rule="evenodd" clip-rule="evenodd" d="M187.112 366.878C187.112 368.584 186.843 369.858 186.304 370.702C186.026 371.095 185.658 371.416 185.229 371.636C184.8 371.857 184.324 371.971 183.842 371.968C183.36 371.965 182.885 371.846 182.459 371.621C182.033 371.395 181.667 371.071 181.394 370.674C180.837 369.807 180.558 368.542 180.558 366.878C180.558 365.155 180.828 363.88 181.367 363.055C181.647 362.664 182.017 362.346 182.447 362.128C182.877 361.91 183.353 361.799 183.835 361.804C184.317 361.809 184.791 361.93 185.216 362.157C185.641 362.384 186.005 362.71 186.276 363.107C186.834 363.974 187.112 365.231 187.112 366.878ZM181.698 366.878C181.698 368.315 181.867 369.358 182.206 370.007C182.359 370.305 182.592 370.556 182.879 370.731C183.166 370.906 183.496 370.998 183.832 370.998C184.168 370.998 184.498 370.906 184.784 370.731C185.071 370.556 185.304 370.305 185.457 370.007C185.792 369.344 185.959 368.301 185.959 366.878C185.959 365.456 185.792 364.413 185.457 363.75C185.302 363.454 185.069 363.205 184.782 363.032C184.496 362.858 184.167 362.767 183.832 362.767C183.497 362.767 183.168 362.858 182.881 363.032C182.595 363.205 182.361 363.454 182.206 363.75C181.886 364.397 181.711 365.44 181.711 366.878H181.698ZM175.986 368.634V367.591H179.314V368.634H175.986ZM189.06 370.42C188.907 370.618 188.834 370.866 188.854 371.115C188.842 371.241 188.856 371.368 188.895 371.488C188.934 371.608 188.997 371.719 189.081 371.814C189.247 371.955 189.459 372.031 189.678 372.026C189.896 372.022 190.105 371.938 190.265 371.79C190.424 371.602 190.503 371.36 190.488 371.115C190.499 370.99 190.485 370.865 190.447 370.745C190.408 370.626 190.347 370.515 190.265 370.42C190.186 370.339 190.09 370.277 189.984 370.236C189.879 370.195 189.765 370.177 189.652 370.184C189.542 370.178 189.432 370.195 189.33 370.236C189.227 370.277 189.135 370.34 189.06 370.42ZM196.356 371.831H195.259V364.79C195.259 364.202 195.259 363.65 195.311 363.125C195.217 363.219 195.112 363.319 194.994 363.424C194.875 363.528 194.339 363.966 193.38 364.741L192.785 363.969L195.408 361.95H196.356V371.831ZM205.879 370.702C206.42 369.858 206.691 368.584 206.691 366.879C206.691 365.231 206.412 363.974 205.855 363.107C205.583 362.71 205.219 362.384 204.793 362.157C204.368 361.93 203.894 361.809 203.412 361.804C202.929 361.799 202.453 361.91 202.023 362.128C201.593 362.346 201.222 362.664 200.942 363.055C200.405 363.88 200.137 365.155 200.137 366.879C200.137 368.542 200.414 369.807 200.97 370.674C201.243 371.071 201.608 371.395 202.034 371.621C202.46 371.846 202.935 371.965 203.417 371.968C203.899 371.971 204.375 371.857 204.804 371.636C205.233 371.416 205.602 371.095 205.879 370.702ZM201.785 370.007C201.443 369.36 201.276 368.314 201.276 366.879C201.276 365.44 201.443 364.397 201.785 363.75C201.939 363.454 202.172 363.205 202.459 363.032C202.745 362.858 203.074 362.766 203.409 362.766C203.744 362.766 204.072 362.858 204.359 363.032C204.645 363.205 204.878 363.454 205.032 363.75C205.367 364.413 205.535 365.456 205.538 366.879C205.54 368.301 205.371 369.344 205.032 370.007C204.88 370.305 204.647 370.556 204.361 370.731C204.074 370.906 203.745 370.999 203.409 370.999C203.073 370.999 202.743 370.906 202.456 370.731C202.17 370.556 201.938 370.305 201.785 370.007Z" fill="#00FFFF" fill-opacity="0.4"/>
</g>
<g style="mix-blend-mode:screen">
<path fill-rule="evenodd" clip-rule="evenodd" d="M95.4722 284.47C96.2396 284.43 96.9979 284.652 97.622 285.099C97.8819 285.306 98.0891 285.572 98.2266 285.874C98.3641 286.176 98.4279 286.506 98.413 286.837C98.4154 287.319 98.2559 287.788 97.96 288.168C97.5679 288.64 97.0718 289.015 96.5105 289.263C97.1621 289.538 97.7468 289.949 98.2248 290.469C98.5601 290.883 98.7401 291.401 98.7336 291.932C98.7482 292.303 98.6782 292.673 98.5292 293.013C98.3801 293.353 98.1557 293.655 97.8729 293.896C97.2014 294.417 96.3634 294.678 95.514 294.63C94.4547 294.63 93.6417 294.398 93.0749 293.934C92.7888 293.696 92.5626 293.395 92.4144 293.054C92.2661 292.713 92.1999 292.342 92.2212 291.971C92.2212 290.842 92.9181 289.962 94.3118 289.329C93.7814 289.059 93.322 288.669 92.9704 288.189C92.7002 287.784 92.5581 287.307 92.5626 286.82C92.5506 286.492 92.6163 286.166 92.7544 285.868C92.8924 285.57 93.0989 285.309 93.3571 285.106C93.9688 284.66 94.7151 284.436 95.4722 284.47ZM93.3328 292.002C93.321 292.242 93.3659 292.482 93.4639 292.702C93.562 292.921 93.7104 293.115 93.8972 293.267C94.3599 293.594 94.9204 293.753 95.4861 293.719C96.0495 293.752 96.6064 293.585 97.0576 293.246C97.2451 293.087 97.3934 292.887 97.4913 292.662C97.5891 292.436 97.6338 292.192 97.622 291.946C97.6196 291.726 97.5713 291.509 97.4801 291.309C97.3889 291.108 97.2569 290.929 97.0924 290.782C96.5492 290.334 95.9229 289.998 95.2492 289.791C94.6973 290 94.1977 290.326 93.7857 290.747C93.4852 291.092 93.3228 291.535 93.3293 291.992L93.3328 292.002ZM95.4582 285.398C94.9811 285.37 94.5098 285.515 94.1306 285.805C93.9728 285.936 93.8474 286.102 93.7641 286.289C93.6807 286.477 93.6416 286.681 93.6498 286.886C93.642 287.279 93.7853 287.661 94.0505 287.953C94.4752 288.35 94.9784 288.654 95.5279 288.846C96.0432 288.659 96.5108 288.362 96.8973 287.974C97.1633 287.674 97.3074 287.286 97.3015 286.886C97.3098 286.679 97.2697 286.474 97.1844 286.286C97.0991 286.097 96.971 285.932 96.8102 285.801C96.4251 285.514 95.9526 285.368 95.4722 285.388L95.4582 285.398ZM87.1266 289.559C87.1266 291.266 86.8571 292.541 86.3182 293.382C86.0558 293.794 85.6877 294.128 85.252 294.35C84.8164 294.572 84.3291 294.673 83.8408 294.643C83.3554 294.666 82.8728 294.558 82.4437 294.33C82.0146 294.103 81.6548 293.764 81.4017 293.351C80.8442 292.489 80.5654 291.223 80.5654 289.555C80.5654 287.836 80.8349 286.561 81.3738 285.732C81.6536 285.34 82.0243 285.021 82.4543 284.803C82.8843 284.585 83.3608 284.474 83.8431 284.48C84.3255 284.485 84.7994 284.607 85.2243 284.835C85.6492 285.062 86.0125 285.389 86.2833 285.787C86.8455 286.64 87.1266 287.897 87.1266 289.559ZM81.7118 289.559C81.7118 290.994 81.8825 292.044 82.2205 292.687C82.3737 292.985 82.6064 293.236 82.8933 293.411C83.1801 293.586 83.5098 293.678 83.846 293.678C84.1822 293.678 84.5119 293.586 84.7987 293.411C85.0855 293.236 85.3184 292.985 85.4715 292.687C85.806 292.024 85.9732 290.981 85.9732 289.559C85.9732 288.141 85.806 287.098 85.4715 286.43C85.3167 286.134 85.0832 285.885 84.7966 285.712C84.51 285.539 84.1812 285.447 83.846 285.447C83.5108 285.447 83.1821 285.539 82.8955 285.712C82.6089 285.885 82.3754 286.134 82.2205 286.43C81.8837 287.068 81.7141 288.11 81.7118 289.559ZM76.3739 289.149H79.1614V290.083H76.3739V292.961H75.4296V290.083H72.6421V289.149H75.4296V286.257H76.3739V289.149ZM89.0573 293.083C88.9056 293.282 88.8324 293.529 88.8517 293.778C88.8416 293.903 88.8568 294.028 88.8963 294.147C88.9358 294.266 88.9988 294.376 89.0816 294.47C89.2385 294.612 89.4446 294.688 89.6566 294.682C89.7691 294.687 89.8815 294.669 89.9865 294.628C90.0915 294.587 90.1868 294.525 90.2663 294.445C90.4103 294.247 90.4878 294.009 90.4878 293.764C90.4878 293.519 90.4103 293.281 90.2663 293.083C90.1863 293.003 90.0903 292.941 89.9846 292.901C89.8789 292.861 89.766 292.844 89.6531 292.85C89.5427 292.843 89.4322 292.86 89.3292 292.901C89.2263 292.941 89.1335 293.003 89.0573 293.083ZM105.503 285.648L101.395 294.497L102.643 294.491L106.695 285.506V284.606H100.103V285.648H105.503Z" fill="#00FFFF" fill-opacity="0.6"/>
</g>
<g style="mix-blend-mode:screen">
<path fill-rule="evenodd" clip-rule="evenodd" d="M61.8575 411.444C61.8575 413.154 61.588 414.428 61.0491 415.267C60.7875 415.68 60.4196 416.015 59.9838 416.237C59.548 416.46 59.0603 416.562 58.5717 416.532C58.0859 416.554 57.603 416.446 57.1738 416.218C56.7446 415.99 56.3849 415.65 56.1326 415.236C55.5751 414.374 55.2975 413.108 55.2998 411.44C55.2998 409.721 55.5681 408.446 56.1047 407.617C56.3847 407.225 56.7554 406.907 57.1852 406.689C57.6149 406.471 58.0911 406.36 58.5731 406.366C59.0552 406.371 59.5289 406.492 59.9539 406.719C60.3789 406.946 60.7427 407.272 61.0143 407.669C61.5764 408.536 61.8575 409.794 61.8575 411.444ZM56.4427 411.444C56.4427 412.883 56.6123 413.925 56.9514 414.572C57.1046 414.87 57.3374 415.121 57.6242 415.296C57.911 415.471 58.2407 415.564 58.5769 415.564C58.9131 415.564 59.2428 415.471 59.5296 415.296C59.8165 415.121 60.0493 414.87 60.2024 414.572C60.5509 413.908 60.7076 412.865 60.7076 411.444C60.7076 410.022 60.5369 408.986 60.2024 408.316C60.0476 408.019 59.8141 407.77 59.5275 407.597C59.2409 407.424 58.9121 407.332 58.5769 407.332C58.2417 407.332 57.9129 407.424 57.6263 407.597C57.3397 407.77 57.1063 408.019 56.9514 408.316C56.6134 408.962 56.4462 410.008 56.4462 411.444H56.4427ZM50.7178 413.202V412.16H54.0454V413.202H50.7178ZM63.7878 414.989C63.6337 415.186 63.5591 415.434 63.5787 415.684C63.567 415.81 63.5811 415.936 63.62 416.056C63.659 416.177 63.722 416.287 63.8052 416.383C63.9615 416.526 64.168 416.602 64.3801 416.595C64.4928 416.601 64.6054 416.583 64.7106 416.542C64.8158 416.501 64.911 416.439 64.9899 416.358C65.1499 416.171 65.2299 415.929 65.2129 415.684C65.2327 415.433 65.1541 415.183 64.9934 414.989C64.913 414.91 64.817 414.848 64.7114 414.808C64.6058 414.768 64.493 414.75 64.3801 414.756C64.2703 414.749 64.1604 414.767 64.058 414.807C63.9557 414.847 63.8635 414.909 63.7878 414.989ZM73.0596 408.844C73.0828 409.408 72.8925 409.96 72.5265 410.39C72.1275 410.817 71.5982 411.099 71.0213 411.193V411.249C71.6811 411.287 72.3064 411.555 72.7878 412.007C73.1843 412.441 73.3923 413.015 73.3663 413.602C73.3892 414.016 73.3118 414.43 73.1408 414.808C72.9698 415.186 72.7101 415.517 72.3837 415.774C71.7286 416.282 70.7994 416.536 69.5961 416.536C69.1139 416.538 68.6325 416.498 68.1571 416.417C67.7163 416.336 67.2885 416.196 66.8853 416V414.933C67.3226 415.147 67.7833 415.309 68.2581 415.416C68.7149 415.524 69.1824 415.58 69.6519 415.583C71.3615 415.583 72.2176 414.914 72.2199 413.574C72.2199 412.376 71.2756 411.777 69.387 411.777H68.4115V410.811H69.401C70.0528 410.847 70.6981 410.667 71.2373 410.3C71.4614 410.139 71.6422 409.925 71.7638 409.678C71.8853 409.431 71.9438 409.157 71.9342 408.882C71.9444 408.668 71.9048 408.454 71.8184 408.257C71.7319 408.061 71.601 407.887 71.4359 407.749C71.0482 407.457 70.5694 407.31 70.0839 407.335C69.6688 407.333 69.2556 407.392 68.8575 407.509C68.3922 407.668 67.9495 407.887 67.5404 408.159L66.9724 407.401C67.391 407.074 67.8623 406.82 68.3661 406.651C68.9052 406.465 69.472 406.373 70.0422 406.376C70.8441 406.327 71.638 406.559 72.2861 407.033C72.5457 407.255 72.7505 407.534 72.8846 407.848C73.0188 408.162 73.0786 408.503 73.0596 408.844ZM80.6141 415.267C81.153 414.428 81.4224 413.154 81.4224 411.444C81.4224 409.794 81.1414 408.536 80.5792 407.669C80.3076 407.272 79.9439 406.946 79.5188 406.719C79.0938 406.492 78.6202 406.371 78.1381 406.366C77.656 406.36 77.1799 406.471 76.7501 406.689C76.3203 406.907 75.9496 407.225 75.6697 407.617C75.1307 408.446 74.8613 409.721 74.8613 411.44C74.8613 413.108 75.14 414.374 75.6976 415.236C75.9499 415.65 76.3096 415.99 76.7388 416.218C77.168 416.446 77.6508 416.554 78.1366 416.532C78.6253 416.562 79.1129 416.46 79.5487 416.237C79.9845 416.015 80.3524 415.68 80.6141 415.267ZM76.5164 414.572C76.1773 413.925 76.0076 412.883 76.0076 411.444C76.0076 410.008 76.1784 408.962 76.5164 408.316C76.6713 408.019 76.9047 407.77 77.1913 407.597C77.4779 407.424 77.8066 407.332 78.1418 407.332C78.477 407.332 78.8059 407.424 79.0925 407.597C79.3791 407.77 79.6125 408.019 79.7673 408.316C80.1018 408.978 80.2691 410.021 80.2691 411.444C80.2691 412.866 80.1018 413.909 79.7673 414.572C79.6142 414.87 79.3814 415.121 79.0946 415.296C78.8078 415.471 78.4781 415.564 78.1418 415.564C77.8056 415.564 77.476 415.471 77.1891 415.296C76.9023 415.121 76.6696 414.87 76.5164 414.572Z" fill="#00FFFF" fill-opacity="0.7"/>
</g>
<g style="mix-blend-mode:screen">
<path fill-rule="evenodd" clip-rule="evenodd" d="M286.442 359.072C286.442 360.779 286.174 362.058 285.634 362.895C285.371 363.308 285.003 363.642 284.568 363.865C284.132 364.087 283.645 364.189 283.156 364.161C282.67 364.182 282.188 364.073 281.759 363.845C281.33 363.617 280.97 363.278 280.717 362.864C280.16 362.002 279.882 360.737 279.884 359.069C279.884 357.347 280.153 356.073 280.689 355.245C280.97 354.855 281.341 354.538 281.771 354.321C282.201 354.103 282.677 353.993 283.159 353.998C283.64 354.004 284.114 354.125 284.538 354.352C284.963 354.579 285.327 354.904 285.599 355.301C286.161 356.172 286.442 357.429 286.442 359.072ZM281.027 359.072C281.027 360.511 281.197 361.554 281.536 362.2C281.689 362.499 281.922 362.749 282.209 362.924C282.495 363.099 282.825 363.192 283.161 363.192C283.498 363.192 283.827 363.099 284.114 362.924C284.401 362.749 284.634 362.499 284.787 362.2C285.135 361.533 285.292 360.494 285.292 359.072C285.292 357.651 285.121 356.615 284.787 355.944C284.632 355.648 284.399 355.399 284.112 355.226C283.825 355.052 283.497 354.961 283.161 354.961C282.826 354.961 282.497 355.052 282.211 355.226C281.924 355.399 281.691 355.648 281.536 355.944C281.191 356.601 281.027 357.647 281.027 359.072ZM275.302 360.841V359.799H278.63V360.841H275.302ZM288.369 362.628C288.215 362.825 288.14 363.073 288.16 363.323C288.148 363.449 288.162 363.575 288.201 363.696C288.24 363.816 288.303 363.927 288.386 364.022C288.543 364.165 288.749 364.241 288.961 364.234C289.074 364.24 289.186 364.222 289.292 364.181C289.397 364.141 289.492 364.078 289.571 363.997C289.731 363.81 289.811 363.568 289.794 363.323C289.814 363.072 289.735 362.822 289.574 362.628C289.495 362.548 289.399 362.486 289.293 362.446C289.187 362.406 289.074 362.388 288.961 362.395C288.851 362.388 288.741 362.405 288.639 362.445C288.536 362.485 288.444 362.548 288.369 362.628ZM294.603 358.002C295.491 357.951 296.368 358.226 297.066 358.777C297.366 359.04 297.602 359.366 297.757 359.733C297.912 360.099 297.982 360.496 297.962 360.893C297.986 361.342 297.911 361.79 297.741 362.207C297.572 362.623 297.313 362.997 296.983 363.302C296.33 363.884 295.43 364.174 294.282 364.174C293.167 364.174 292.317 363.994 291.728 363.639V362.548C292.093 362.77 292.492 362.931 292.909 363.024C293.365 363.138 293.833 363.196 294.303 363.198C294.969 363.24 295.627 363.04 296.157 362.635C296.383 362.432 296.56 362.18 296.675 361.899C296.789 361.618 296.839 361.315 296.819 361.012C296.819 359.635 295.972 358.94 294.279 358.926C293.7 358.942 293.124 359.009 292.557 359.124L291.972 358.752L292.345 354.126H297.272V355.169H293.306L293.056 358.137C293.566 358.041 294.084 357.996 294.603 358.002ZM305.199 362.895C305.735 362.058 306.007 360.779 306.007 359.072C306.007 357.429 305.726 356.172 305.164 355.301C304.892 354.904 304.528 354.579 304.103 354.352C303.679 354.125 303.205 354.004 302.723 353.998C302.242 353.993 301.766 354.103 301.336 354.321C300.906 354.538 300.535 354.855 300.254 355.245C299.715 356.073 299.446 357.347 299.446 359.069C299.446 360.737 299.725 362.002 300.282 362.864C300.535 363.278 300.895 363.617 301.324 363.845C301.753 364.073 302.236 364.182 302.721 364.161C303.21 364.189 303.697 364.087 304.133 363.865C304.568 363.642 304.936 363.308 305.199 362.895ZM301.101 362.2C300.762 361.554 300.592 360.511 300.592 359.072C300.592 357.647 300.763 356.601 301.101 355.944C301.255 355.647 301.488 355.399 301.775 355.225C302.061 355.052 302.39 354.96 302.725 354.96C303.06 354.96 303.388 355.052 303.675 355.225C303.961 355.399 304.194 355.647 304.348 355.944C304.686 356.615 304.854 357.651 304.854 359.072C304.854 360.494 304.697 361.533 304.348 362.2C304.196 362.499 303.963 362.75 303.677 362.925C303.39 363.1 303.061 363.193 302.725 363.193C302.389 363.193 302.059 363.1 301.773 362.925C301.486 362.75 301.253 362.499 301.101 362.2Z" fill="#00FFFF" fill-opacity="0.3"/>
</g>
</g>
<g style="mix-blend-mode:screen" filter="url(#filter0_d_601_2017)">
<path d="M269.967 72.0005C270.145 72.0409 269.728 74.5682 268.772 79.361C268.551 80.5639 268.211 81.8855 267.858 83.35C267.505 84.8146 267.104 86.4139 266.679 88.1482C266.567 88.5797 266.469 89.0248 266.342 89.4698C266.214 89.9149 266.076 90.3707 265.951 90.8184L265.128 93.6854C264.551 95.6597 263.983 97.7797 263.234 99.9724C260.469 108.83 256.511 119.494 251.095 131.507C245.679 143.52 238.712 156.828 230.056 170.945L228.425 173.61C228.159 174.055 227.88 174.505 227.599 174.958L226.738 176.288C225.585 178.066 224.421 179.864 223.245 181.682L222.374 183.047C222.074 183.503 221.76 183.95 221.455 184.395C220.839 185.294 220.219 186.203 219.596 187.122L217.715 189.879C217.086 190.801 216.456 191.732 215.792 192.643C213.154 196.306 210.506 200.079 207.651 203.799L205.526 206.622L204.463 208.044L203.361 209.449L198.886 215.113C198.508 215.59 198.137 216.071 197.751 216.545L196.585 217.959L194.237 220.804C192.662 222.708 191.095 224.645 189.44 226.53L184.486 232.278C182.797 234.184 181.073 236.083 179.347 238.009C178.481 238.966 177.62 239.94 176.738 240.898C175.857 241.855 174.956 242.802 174.058 243.757L171.362 246.637C170.457 247.6 169.559 248.574 168.624 249.518L163.019 255.263C162.087 256.234 161.12 257.175 160.156 258.127L157.253 260.986L154.331 263.864C153.343 264.818 152.339 265.752 151.34 266.706L148.328 269.56L146.814 270.995L146.057 271.712L145.284 272.416L139.063 278.08C138.532 278.552 138.025 279.035 137.494 279.502L135.9 280.904L132.694 283.717C131.631 284.656 130.557 285.598 129.472 286.544L126.184 289.327L122.874 292.122C121.766 293.052 120.672 294.01 119.535 294.91L112.738 300.442C111.607 301.375 110.438 302.268 109.285 303.182L105.768 305.947C86.4748 320.955 66.3795 334.869 45.5743 347.626C34.8753 354.162 24.1621 360.343 13.4348 366.169C2.6879 371.939 -8.01825 377.369 -18.6836 382.459C-40.0286 392.536 -61.076 401.258 -81.4966 408.5L-85.3109 409.849C-86.5805 410.294 -87.8369 410.763 -89.1092 411.176L-96.6633 413.708C-97.917 414.124 -99.1575 414.558 -100.406 414.949L-104.143 416.125L-111.538 418.447L-118.864 420.605C-121.289 421.312 -123.687 422.042 -126.094 422.676C-130.893 423.974 -135.603 425.314 -140.28 426.452C-158.934 431.197 -176.513 434.776 -192.649 437.43C-208.785 440.084 -223.485 441.818 -236.412 442.978L-245.778 443.722C-247.281 443.854 -248.758 443.922 -250.206 444.008L-254.455 444.248C-260.002 444.607 -265.08 444.709 -269.646 444.857C-270.786 444.89 -271.896 444.933 -272.972 444.949L-276.106 444.971L-281.779 444.992C-285.294 445.03 -288.268 444.92 -290.67 444.847C-295.475 444.69 -297.995 444.52 -297.993 444.337C-297.99 444.154 -295.469 443.962 -290.675 443.771C-288.284 443.671 -285.315 443.609 -281.811 443.406L-276.162 443.137L-273.041 442.994C-271.978 442.94 -270.865 442.854 -269.728 442.783C-265.189 442.473 -260.137 442.217 -254.623 441.705L-250.397 441.354C-248.96 441.233 -247.491 441.127 -245.998 440.96L-236.702 440.005C-223.862 438.565 -209.279 436.583 -193.276 433.705C-177.273 430.827 -159.851 427.059 -141.364 422.161C-136.732 420.988 -132.067 419.61 -127.307 418.28C-124.917 417.627 -122.548 416.88 -120.136 416.16L-112.877 413.959L-105.551 411.594L-101.851 410.402C-100.613 410 -99.3832 409.56 -98.1322 409.142L-90.6471 406.574C-89.3881 406.156 -88.1423 405.682 -86.886 405.226L-83.1062 403.853C-62.8742 396.536 -42.018 387.778 -20.859 377.712C-10.2963 372.642 0.318604 367.228 10.9858 361.47C21.6104 355.673 32.2413 349.531 42.8783 343.043C63.521 330.387 83.4781 316.611 102.663 301.777L106.116 299.08C107.269 298.177 108.43 297.297 109.569 296.383L116.332 290.921C117.461 290.026 118.55 289.087 119.652 288.17L122.946 285.411L126.218 282.663L129.408 279.874L132.596 277.099L134.189 275.718C134.721 275.256 135.233 274.782 135.754 274.315L141.951 268.724L142.718 268.028L143.475 267.321L144.981 265.908L147.985 263.095C148.981 262.159 149.983 261.234 150.966 260.295L153.887 257.461L156.785 254.642C157.747 253.706 158.711 252.779 159.643 251.821L165.221 246.157C166.156 245.229 167.054 244.269 167.954 243.322C168.855 242.376 169.755 241.434 170.651 240.488L173.328 237.675C174.21 236.731 175.068 235.773 175.934 234.832C177.66 232.944 179.387 231.056 181.076 229.192L186.032 223.528C187.687 221.675 189.26 219.771 190.835 217.899L193.188 215.102L194.357 213.711C194.745 213.247 195.116 212.772 195.496 212.305L199.985 206.73L201.093 205.349L202.155 203.952L204.28 201.177C207.152 197.522 209.813 193.819 212.469 190.221C213.141 189.326 213.773 188.411 214.408 187.505L216.305 184.808C216.933 183.909 217.558 183.017 218.18 182.133C218.491 181.688 218.807 181.248 219.107 180.8L220.002 179.452L223.532 174.154L224.403 172.849C224.688 172.412 224.961 171.97 225.24 171.533L226.892 168.919C235.657 155.064 242.829 142.018 248.407 130.226C253.241 120.16 257.534 109.834 261.266 99.2955C262.084 97.1378 262.724 95.0637 263.372 93.1272C263.694 92.158 264.006 91.2202 264.307 90.314C264.458 89.8609 264.607 89.4186 264.751 88.9816C264.894 88.5447 265.016 88.1077 265.146 87.6843C265.656 85.9815 266.127 84.4136 266.559 82.9805C266.992 81.5456 267.412 80.251 267.712 79.0751C269.027 74.4117 269.789 71.96 269.967 72.0005Z" fill="url(#paint4_linear_601_2017)" style="mix-blend-mode:screen" shape-rendering="crispEdges"/>
</g>
<defs>
<filter id="filter0_d_601_2017" x="-327.993" y="52" width="628" height="433" filterUnits="userSpaceOnUse" color-interpolation-filters="sRGB">
<feFlood flood-opacity="0" result="BackgroundImageFix"/>
<feColorMatrix in="SourceAlpha" type="matrix" values="0 0 0 0 0 0 0 0 0 0 0 0 0 0 0 0 0 0 127 0" result="hardAlpha"/>
<feOffset dy="10"/>
<feGaussianBlur stdDeviation="15"/>
<feComposite in2="hardAlpha" operator="out"/>
<feColorMatrix type="matrix" values="0 0 0 0 0.0117647 0 0 0 0 0.0117647 0 0 0 0 0.109804 0 0 0 1 0"/>
<feBlend mode="normal" in2="BackgroundImageFix" result="effect1_dropShadow_601_2017"/>
<feBlend mode="normal" in="SourceGraphic" in2="effect1_dropShadow_601_2017" result="shape"/>
</filter>
<linearGradient id="paint0_linear_601_2017" x1="-16.4268" y1="484" x2="-16.4268" y2="31.0002" gradientUnits="userSpaceOnUse">
<stop stop-color="#00FFFF" stop-opacity="0"/>
<stop offset="1" stop-color="#00FFFF"/>
</linearGradient>
<radialGradient id="paint1_radial_601_2017" cx="0" cy="0" r="1" gradientUnits="userSpaceOnUse" gradientTransform="translate(270.115 72.9424) rotate(132.9) scale(72.8377)">
<stop stop-color="#00FFFF"/>
<stop offset="1" stop-color="#03031C" stop-opacity="0"/>
</radialGradient>
<radialGradient id="paint2_radial_601_2017" cx="0" cy="0" r="1" gradientUnits="userSpaceOnUse" gradientTransform="translate(269.977 73.0552) rotate(132.9) scale(11)">
<stop stop-color="#00FFFF"/>
<stop offset="1" stop-color="#231F20"/>
</radialGradient>
<linearGradient id="paint3_linear_601_2017" x1="291.007" y1="292" x2="-143.993" y2="372" gradientUnits="userSpaceOnUse">
<stop stop-color="#00FFFF" stop-opacity="0"/>
<stop offset="1" stop-color="#00FFFF"/>
</linearGradient>
<linearGradient id="paint4_linear_601_2017" x1="292.788" y1="72.0005" x2="-240.12" y2="455.494" gradientUnits="userSpaceOnUse">
<stop stop-color="#00FFFF" stop-opacity="0"/>
<stop offset="1" stop-color="#00FFFF"/>
</linearGradient>
</defs>
</svg>
