<svg width="454" height="550" viewBox="0 0 454 550" fill="none" xmlns="http://www.w3.org/2000/svg">
<path fill-rule="evenodd" clip-rule="evenodd" d="M81.0878 243.28L80.9893 243.034L77.456 207.011V206.752V206.654V206.543C77.4838 206.449 77.5298 206.361 77.5914 206.284L77.7145 206.124L77.8007 206.05H77.9977L78.2439 205.927L132.673 195.955H132.759L177.388 183.003H177.474L210.1 170.064L232.383 159.365H232.457L254.125 146.106L281.21 125.644L302.965 103.89V103.828V103.755L321.937 75.8937L322.478 75.1181L321.678 74.601L291.675 55.4074L291.515 55.2966C291.429 55.2597 291.429 55.1735 291.429 55.1735L291.343 55.0381L291.232 54.8904V54.8165C291.245 54.7267 291.245 54.6355 291.232 54.5457C291.237 54.4637 291.237 54.3814 291.232 54.2994C291.276 54.2484 291.317 54.195 291.355 54.1394L291.441 54.0286L291.552 53.8932L291.7 53.7824L315.99 40.683L316.2 40.5598H316.298L342.608 26.7464L342.792 26.6479L374.691 10.2491L374.901 10.1506L392.346 0.929283C392.469 0.857288 392.609 0.819075 392.752 0.818485C392.927 0.817998 393.099 0.869401 393.245 0.966216C393.379 1.05199 393.488 1.1705 393.564 1.31052C393.639 1.45054 393.678 1.60748 393.675 1.76649L392.777 30.723L392.334 60.0612V60.3567L391.447 95.0257V95.2719L390.733 115.561C390.728 115.721 390.681 115.877 390.597 116.013C390.513 116.15 390.394 116.261 390.253 116.337C390.121 116.409 389.973 116.447 389.822 116.448C389.652 116.448 389.486 116.401 389.342 116.312L357.554 96.7L356.692 96.1707L356.236 97.0817L342.127 125.915C342.085 125.964 342.048 126.018 342.017 126.075L341.93 126.248L323.673 152.951L323.586 153.062L323.488 153.21L304.331 175.555L304.233 175.666L304.11 175.801L303.999 175.924L285.027 193.591L284.83 193.763L284.682 193.911L263.507 212.44L263.31 212.6L263.15 212.735L234.353 233.111L234.193 233.222L234.07 233.32L201.174 253.326H201.112L200.977 253.388L200.841 253.474L166.997 269.479H166.862L166.542 269.614L136.92 281.569H136.797L136.625 281.643L104.615 292.317H104.467H104.344H104.258C104.064 292.316 103.875 292.256 103.716 292.144L103.593 291.96L103.408 291.787L81.568 262.387C81.4715 262.256 81.4115 262.101 81.3942 261.939C81.3769 261.777 81.4029 261.613 81.4695 261.464C81.5355 261.316 81.6401 261.189 81.7722 261.096C81.9044 261.003 82.0593 260.947 82.2205 260.935L106.043 258.793L109.146 258.522L106.437 257.057L81.4202 243.822L81.2479 243.649L81.0878 243.514V243.428V243.28ZM83.6486 242.923L84.9906 243.637L109.761 256.749L111.251 257.561L111.103 255.862L109.712 240.387L108.481 227.423L108.345 225.847L107.04 226.746L84.8798 242.061L83.6486 242.923ZM203.267 225.97L181.02 212.157L179.826 211.357L179.641 212.785L177.671 227.952L175.997 240.867L175.763 242.665L177.363 241.79L203.217 227.571L204.596 226.807L203.267 225.97ZM182.583 209.276L181.02 209.99L182.571 210.889L204.301 224.431L205.667 225.281V223.68L206.381 199.808V198.319L205.027 198.947L182.583 209.276ZM176.342 224.074L177.499 215.161L177.794 212.477L175.874 214.422L163.636 226.82L149.109 241.593L147.594 243.132H149.749H152.925L172.944 243.44H173.768L173.879 242.628L176.342 224.074ZM166.283 221.501L174.396 213.277L176.354 211.295L173.535 211.775L151.374 215.53L150.709 215.641L150.611 216.293L147.2 238.454L146.757 241.273L148.764 239.242L166.283 221.501ZM147.447 224.419L148.542 217.328L148.813 215.986L147.483 216.293L114.07 224L111.633 224.554L113.775 225.712L124.72 231.658L143.519 241.877L144.676 242.505L144.873 241.199L147.447 224.419ZM141.672 242.972L111.608 226.635L110.217 225.81L110.377 227.534L112.962 256.478L113.073 257.783L114.304 257.241L141.611 244.622L143.285 243.846L141.672 242.972ZM103.692 289.325L104.159 287.429L110.746 261.403L111.066 260.171L109.835 260.282L85.6431 262.449L84.0057 262.597L84.9906 263.926L102.461 287.749L103.692 289.325ZM106.991 289.485L133.067 280.793L134.618 280.288L133.387 279.23L113.836 261.846L112.691 260.824L112.322 262.314L105.797 288.389L105.391 290.027L106.991 289.485ZM135.837 278.971L136.206 277.481L142.904 250.495L143.667 247.392L144.122 245.533L142.387 246.333L115.055 258.805L113.824 259.396L114.883 260.344L134.692 277.949L135.837 278.971ZM139.333 278.516L163.673 268.666L165.015 268.186L164.178 267.214L150.709 251.627L147.016 247.269L145.785 245.902L145.366 247.651L138.09 277.444L137.671 279.193L139.333 278.516ZM166.025 266.733L166.542 265.182L172.759 246.457L173.153 245.225H171.922L149.367 244.881H147.323L148.653 246.432L164.966 265.502L166.025 266.733ZM169.878 265.933L195.794 253.622L197.96 252.674L195.695 251.96L175.911 245.804L175.049 245.533L174.766 246.395L168.61 264.801L167.921 266.857L169.878 265.933ZM199.758 251.27L199.979 250.298L202.146 241.544L204.609 230.673L205.064 228.666L203.267 229.664L178.668 243.132L176.76 244.179L178.841 244.819L198.81 250.975L199.758 251.27ZM203.808 249.362L229.071 233.948L231.226 232.668L228.899 232.212L207.97 228.1L207.096 227.928L206.899 228.79L202.429 248.365L201.949 250.495L203.808 249.362ZM232.851 214.89L209.373 199.476L208.105 198.553V200.202L207.391 224.247V225.601L208.622 225.145L232.654 216.527L234.39 215.912L232.851 214.89ZM210.678 196.423L209.065 197.088L210.555 198.023L211.786 198.811L234.476 213.831L235.707 214.607L235.954 213.216L240.607 185.687L240.89 184.037L239.339 184.678L228.062 189.294L210.678 196.423ZM232.814 231.264L232.974 230.329L234.821 219.15L235.079 217.598L233.602 218.128L227.569 220.282L212.796 225.589L209.644 226.709L212.931 227.361L216.341 228.026L231.878 231.079L232.814 231.264ZM236.618 229.06L255.578 215.641L258.902 213.203L254.913 213.88L237.677 216.798L237.037 216.909L236.926 217.549L236.52 220.012L235.178 228.1L234.821 230.292L236.618 229.06ZM258.988 211.443L259.653 211.332L261.106 211.172L260.256 209.941L243.882 186.795L242.589 184.985L242.208 187.177L237.579 213.868L237.357 215.099L238.65 214.878L258.988 211.443ZM263.777 209.633L280.927 194.551L282.442 193.357L280.718 192.939L246.8 184.653L244.399 184.062L245.827 186.081L262.423 209.473L263.014 210.31L263.777 209.633ZM246.086 182.659L280.361 191.043L282.392 191.535L281.395 189.701L268.259 165.644L267.754 164.708L266.905 165.349L245.753 181.021L244.178 182.191L246.086 182.659ZM285.298 190.636L300.552 176.454L301.697 175.383L300.207 174.89L279.179 167.971L272.174 165.669L269.945 164.93L271.066 166.986L271.337 167.466L283.857 190.402L284.424 191.449L285.298 190.636ZM271.657 163.453L299.948 172.896L301.968 173.437L301.204 171.591L291.158 147.103L290.69 145.946L289.718 146.746L271.361 161.865L270.069 162.936L271.657 163.453ZM304.898 172.071L320.09 154.256L321.26 153.05L319.819 152.68L303.162 148.457L294.408 146.241L292.635 145.786L293.325 147.485L303.346 171.812L303.925 173.203L304.898 172.071ZM294.408 144.481L319.696 150.895L321.506 151.227L320.976 149.639L313.294 126.925L312.851 125.558L311.792 126.531L293.99 142.905L292.759 144.062L294.408 144.481ZM324.227 148.938L338.508 127.86L339.579 126.469L337.954 126.358L316.101 124.955L314.734 124.869L315.153 126.161L317.209 132.403L322.589 148.704L323.168 150.489L324.227 148.938ZM317.123 123.256L338.336 124.622L339.69 124.721L339.21 123.391L333.054 106.512L332.722 105.614L332.192 104.161L331.17 105.306L325.716 111.388L316.458 121.729L315.227 123.145L317.123 123.256ZM362.577 50.7784L363.328 42.5297L363.488 40.8184L361.961 41.6556L336.526 55.6414L334.839 56.5647L336.612 57.3034L359.905 66.9187L361.062 67.4111L361.173 66.18L362.577 50.7784ZM365.298 40.9292L365.15 42.6159L363.008 66.18L362.885 67.5342L364.19 67.1526L387.729 60.3074L389.465 59.815L388.037 58.6946L384.688 56.0723L366.64 41.9756L365.298 40.9292ZM358.563 68.3837L355.584 67.1526L333.977 58.1775L333.177 57.8451L332.795 58.6208L326.135 72.2495L325.347 73.8623L327.12 73.5668L355.375 68.9131L358.563 68.3837ZM325.396 77.0756L326.172 79.464L333.042 100.332L333.325 101.194L334.199 100.923L346.313 97.0817L352.186 95.2227L354.119 94.6071L352.395 93.5483L327.538 78.3806L325.396 77.0756ZM342.324 121.372L353.602 98.3128L354.574 96.3923L352.518 97.0448L346.363 98.9777L334.814 102.671L333.891 102.967L334.224 103.878L340.601 121.323L341.376 123.317L342.324 121.372ZM355.682 93.3883L355.953 92.1571L360.422 71.1538L360.705 69.8242L359.363 70.0458L328.794 75.0811L326.332 75.4874L328.449 76.7801L354.574 92.7111L355.682 93.3883ZM357.665 92.8712L357.431 93.9792L358.588 94.0162L375.664 94.1639L385.809 94.2501H388.209L386.449 92.625L376.304 83.2806L363.648 71.5847L362.417 70.489L362.084 72.0772L359.117 86.0383L357.665 92.8712ZM389.022 112.36L389.563 97.0324L389.588 96.0352H388.64L362.872 95.8136H359.56L362.38 97.5619L387.606 113.124L388.96 113.948L389.022 112.36ZM389.724 91.1106L390.45 62.7204L390.487 61.4647L389.256 61.8094L372.34 66.6724L365.224 68.7161L363.636 69.1717L364.867 70.292L388.172 91.7755L389.724 93.1543V91.1106ZM390.573 56.5647L390.93 33.173L390.992 31.9418L389.76 32.3235L375.565 36.7433L368.178 39.0456L366.504 39.5626L367.883 40.646L389.108 57.2788L390.573 58.4238V56.5647ZM390.413 3.98254L377.732 10.68L376.686 11.2832L377.424 12.1573L383.974 19.9382L389.453 26.4633L391.004 28.31L391.078 25.8477L391.816 4.83203V3.24384L390.413 3.98254ZM375.639 12.7483L375.073 14.2133L366.775 36.0292L366.098 37.8021L367.908 37.2358L389.009 30.6737L390.339 30.2552L389.44 29.1964L376.969 14.3611L376.649 13.9794L375.639 12.7483ZM371.503 13.9794L346.584 26.7833L345.033 27.5836L346.572 28.4084L363.18 37.4081L364.103 37.9129L364.485 36.928L366.406 31.8803L372.783 15.1244L373.645 12.8714L371.503 13.9794ZM343.58 28.864L343.223 29.8858L335.245 52.4404L334.433 54.7303L336.55 53.5607L353.946 44.0071L361.198 40.0305L362.688 39.2056L361.198 38.4053L344.528 29.3811L343.58 28.864ZM339.37 30.5137L319.339 41.0523L318.206 41.6309L319.142 42.5174L324.067 47.1588L331.367 54.0532L332.401 55.0258L332.869 53.6962L340.675 31.634L341.463 29.418L339.37 30.5137ZM315.879 42.8621L298.225 52.3788L295.319 53.9547L298.643 54.1148L311.94 54.7549L327.858 55.5182L330.321 55.6291L328.511 53.9178L317.738 43.7485L316.951 42.9975L316.458 42.542L315.879 42.8621ZM295.319 55.7891L298.225 57.6605L322.478 73.1729L323.353 73.7269L323.808 72.8035L330.653 58.7808L331.281 57.5497L329.878 57.4758L304.799 56.2446L298.767 55.9615L295.319 55.7891ZM322.38 78.5899L306.486 101.982L305.452 103.533L307.36 103.397L330.345 101.6L331.515 101.502L331.146 100.393L324.017 78.8238L323.426 77.0387L322.38 78.5899ZM328.289 103.607L306.4 105.318L305.058 105.429L305.686 106.66L313.072 121.015V121.089L313.676 122.32L314.574 121.323L329.053 105.146L330.592 103.434L328.289 103.607ZM302.435 107.017L285.815 123.662L284.079 125.435L286.541 125.226L310.622 123.194L312.001 123.071L311.373 121.84L303.9 107.251L303.322 106.118L302.435 107.017ZM308.173 125.238L284.461 127.245L283.106 127.343L283.759 128.574L284.301 129.609L290.776 141.92L291.33 142.991L292.217 142.179L308.874 126.838L310.869 125.016L308.173 125.238ZM280.484 128.587L259.838 144.148L257.339 146.02L260.466 145.786L288.203 143.754L289.607 143.656L288.954 142.425L286.664 138.067L281.851 128.907L281.346 127.934L280.484 128.587ZM285.372 145.835L258.028 147.842L256.181 147.903L257.412 149.295L260.576 152.988L267.729 161.372L268.32 162.062L269.01 161.483L286.024 147.472L288.265 145.626L285.372 145.835ZM253.473 148.79L237.689 158.442L235.252 159.944L238.108 160.153L263.864 162.086L266.092 162.258L264.627 160.56L255.541 150.009L254.655 148.974L254.138 148.384L253.473 148.79ZM263.223 163.871L235.375 161.778L233.848 161.581L234.476 162.997L242.134 180.049L242.614 181.095L243.525 180.418L263.704 165.533L265.686 164.056L263.223 163.871ZM231.029 162.197L214.79 169.904L212.808 170.815L214.889 171.578L238.477 180.196L240.533 180.947L239.647 178.953L233.898 166.346L232.272 162.652L231.878 161.803L231.029 162.197ZM211.232 172.194L211.097 173.351L208.573 193.936L208.388 195.487L209.841 194.896L225.329 188.543L237.529 183.545L239.721 182.634L237.492 181.821L233.651 180.418L212.328 172.6L211.232 172.194ZM207.933 172.969L182.177 183.2L180.133 184.013L182.153 184.899L205.446 195.13L206.591 195.635L206.738 194.404L209.201 173.93L209.385 172.391L207.933 172.969ZM203.23 196.152L180.121 185.995L178.705 185.342L178.841 186.894L179.887 207.208L179.961 208.574L181.192 207.996L203.242 197.839L205.113 196.977L203.23 196.152ZM177.08 188.445L176.969 186.217L175.443 187.805L162.516 202.258L154.132 211.578L152.359 213.548L154.969 213.117L177.302 209.337L178.114 209.202V208.377L177.08 188.445ZM171.811 186.623L136.108 197.001L134.643 197.469L135.689 198.565L149.232 212.871L149.921 213.597L150.586 212.846L166.591 195.118L172.747 188.186L174.913 185.724L171.811 186.623ZM133.695 199.057L132.993 198.319L132.328 199.094L113.602 220.652L111.743 222.794L114.513 222.154L146.659 214.767L148.234 214.41L147.114 213.179L133.695 199.057ZM127.982 198.787L83.4763 206.937L80.9155 207.343L83.1562 208.574L108.321 222.683L108.986 223.052L109.478 222.486L126.382 202.997L128.844 200.227L130.58 198.306L127.982 198.787ZM106.166 223.508L80.9401 209.473L79.3273 208.476L79.4997 210.249L82.4667 239.796L82.6268 241.347L83.8579 240.461L106.166 225.072L107.397 224.234L106.166 223.508ZM453.495 505.747C453.696 505.888 453.852 506.085 453.94 506.315C454.012 506.538 454.019 506.777 453.96 507.003C453.902 507.23 453.779 507.436 453.608 507.595L429.12 529.091C428.896 529.288 428.607 529.397 428.308 529.397C428.009 529.397 427.72 529.288 427.495 529.091L404.547 508.432L381.007 536.576L380.847 536.749C380.691 536.931 380.486 537.063 380.256 537.13L334.26 549.676C333.931 549.758 333.583 549.709 333.288 549.54L305.193 528.475L304.972 528.303L245.199 540.787C245.042 540.824 244.877 540.824 244.719 540.787L194.538 531.824C194.377 531.781 194.226 531.706 194.095 531.603L165.372 508.826L133.855 526.912H133.695C133.205 527.018 109.582 531.354 99.0215 533.293L98.997 533.298L98.981 533.301C96.024 533.843 94.1012 534.196 94.0149 534.213C93.8688 534.243 93.7178 534.243 93.5717 534.213L55.9356 527.047C55.7593 527.002 55.5953 526.918 55.4554 526.801L34.1197 508.962L21.1681 521.359C20.9649 521.549 20.7034 521.665 20.4262 521.687C20.149 521.71 19.8724 521.638 19.6414 521.483L0.521752 508.359C0.309753 508.209 0.150377 507.996 0.0663645 507.751C-0.0176482 507.506 -0.0220044 507.24 0.0539171 506.992C0.133735 506.747 0.288323 506.533 0.495923 506.381C0.703523 506.229 0.953682 506.145 1.21119 506.142H80.9278V347.189C80.9278 346.863 81.0575 346.55 81.2884 346.319C81.5193 346.088 81.8324 345.958 82.159 345.958H132.02C132.347 345.958 132.66 346.088 132.891 346.319C133.122 346.55 133.251 346.863 133.251 347.189V506.142H146.215V317.359L146.289 317.113V316.965C146.361 316.891 146.423 316.808 146.474 316.719V316.595C146.499 316.544 146.528 316.495 146.56 316.448L146.634 316.349C146.731 316.325 146.826 316.292 146.917 316.251C147 316.222 147.075 316.176 147.139 316.115H197.209L197.456 316.189L197.727 316.263C197.877 316.349 198.014 316.457 198.133 316.583L198.256 316.719L198.342 316.829V316.903C198.342 316.927 198.339 316.949 198.337 316.971C198.331 317.016 198.326 317.063 198.342 317.137C198.367 317.248 198.441 317.322 198.441 317.322V506.142H211.281V283.724C211.29 283.536 211.336 283.352 211.417 283.182C211.472 283.134 211.521 283.081 211.565 283.022L211.688 282.924C211.803 282.803 211.941 282.706 212.094 282.64H212.192H212.316H262.374C262.7 282.64 263.014 282.77 263.245 283.001C263.475 283.232 263.605 283.545 263.605 283.872V505.65L276.483 505.515V255.05C276.483 254.724 276.613 254.411 276.843 254.18C277.074 253.949 277.387 253.819 277.714 253.819H327.575C327.902 253.819 328.215 253.949 328.446 254.18C328.677 254.411 328.807 254.724 328.807 255.05V505.527H341.66V224.432C341.66 224.105 341.789 223.792 342.02 223.561C342.251 223.33 342.564 223.201 342.891 223.201H392.752C393.079 223.201 393.392 223.33 393.623 223.561C393.854 223.792 393.983 224.105 393.983 224.432V505.527H452.807C453.053 505.53 453.293 505.607 453.495 505.747ZM5.13855 508.605L20.2078 518.909L30.9926 508.605H5.13855ZM391.558 247.43V225.651H370.271L391.558 247.43ZM366.233 417.734L373.916 442.8L390.536 425.269L366.233 417.734ZM390.721 477.001L374.039 448.685L369.274 478.663L390.721 477.001ZM369.508 397.58L365.815 415.038L389.317 422.338L369.508 397.58ZM390.438 384.185L369.508 367.109L370.05 392.976L390.438 384.185ZM361.912 315.61L375.664 335.309L378.434 298.732L361.912 315.61ZM390.573 356.977L377.104 341.255L370.148 362.726L390.573 356.977ZM366.455 276.62L361.998 312.077L378.446 295.358L366.455 276.62ZM391.275 314.478L380.859 299.089L378.188 334.176L391.275 314.478ZM367.169 273.345L379.48 292.563L390.487 253.881L367.169 273.345ZM345.636 244.586L365.766 271.339L389.884 251.209L345.636 244.586ZM344.59 304.272L359.364 313.468L363.746 277.679L344.59 304.272ZM374.014 337.217L360.201 317.445L345.378 333.29L374.014 337.217ZM367.748 361.988L374.974 339.827L345.796 335.789L367.748 361.988ZM345.427 393.862L367.588 393.616L367.046 367.799L345.427 393.862ZM363.623 413.487L367.317 396.078L345.833 396.324L363.623 413.487ZM371.429 443.182L363.722 418.017L345.242 433.677L371.429 443.182ZM366.997 477.506L371.835 447.048L345.156 456.577L366.997 477.506ZM346.067 482.258L371.453 503.545L366.849 481.261L346.067 482.258ZM390.339 479.464L369.299 481.101L373.965 503.656L390.339 479.464ZM391.558 505.502V482.037L375.664 505.502H391.558ZM391.558 453.486L376.193 447.565L391.558 473.579V453.486ZM391.509 427.768L375.504 444.696L391.509 450.864V427.768ZM391.558 386.401L370.825 395.339L391.558 421.193V386.401ZM391.521 359.279L370.825 365.078L391.521 381.969V359.279ZM391.558 318.504L378.163 338.707L391.558 354.342V318.504ZM381.315 295.026L381.229 295.297L391.533 310.501V259.138L381.315 295.026ZM345.919 242.173L389.342 248.673L367.243 226.045L345.919 242.173ZM363.783 225.651H344.085V240.498L363.783 225.651ZM362.885 271.56L344.085 246.58V269.332L362.885 271.56ZM363.365 274.072L344.085 271.782V300.837L363.365 274.072ZM358.44 315.758L344.085 306.808V331.098L358.44 315.758ZM365.864 363.588L344.085 337.586V366.051L365.864 363.588ZM365.396 366.1L344.085 368.476V391.781L365.396 366.1ZM362.552 415.85L344.085 398.023V431.498L362.552 415.85ZM369.73 445.164L344.085 435.869V454.348L369.73 445.164ZM364.916 478.885L344.085 458.928V479.882L364.916 478.885ZM369.939 505.478L344.085 483.785V505.478H369.939ZM326.369 276.977V256.22H310.364L326.369 276.977ZM279.868 336.38L304.491 344.038L298.57 314.219L279.868 336.38ZM305.07 280.597L280.102 275.561L298.742 308.187L305.07 280.597ZM310.155 482.997L309.022 449.756L294.31 470.168L310.155 482.997ZM293.448 431.252L293.817 466.672L308.517 446.321L293.448 431.252ZM295.049 429.43L310.081 444.45L324.694 428.814L295.049 429.43ZM305.476 402.726L294.076 427.017L325.039 426.34L305.476 402.726ZM325.249 367.848L302.903 368.107L305.993 397.001L325.249 367.848ZM306.757 348.223L303.063 365.644L324.547 365.46L306.757 348.223ZM325.421 327.799L300.884 313.85L306.88 343.631L325.421 327.799ZM300.884 364.105L304.578 346.648L281.087 339.347L300.884 364.105ZM280.004 377.549L303.667 397.605L300.576 368.673L280.004 377.549ZM279.758 405.053L292.069 425.687L303.149 401.988L279.758 405.053ZM279.167 447.294L291.355 466.179L290.986 431.831L279.167 447.294ZM309.342 485.472L293.116 472.335L280.275 503.68L309.342 485.472ZM325.088 505.428L311.14 487.207L281.961 505.428H325.088ZM325.926 457.488L311.386 448.414L312.506 481.224L325.926 457.488ZM326.344 486.407L313.848 486.752L326.344 503.065V486.407ZM326.344 461.674L313.553 484.29L326.344 483.982V461.674ZM326.344 430.562L311.989 445.903L326.344 454.853V430.562ZM326.393 395.967L307.36 401.175L326.393 424.16V395.967ZM326.369 370.717L308.012 398.467L326.369 393.505V370.717ZM326.393 330.249L307.926 345.897L326.393 363.736V330.249ZM326.393 307.116L302.657 312.04L326.393 325.472V307.116ZM325.052 279.255L308.936 258.387L307.815 278.516L325.052 279.255ZM326.393 302.253V281.779L309.157 281.052L326.393 302.253ZM300.847 309.947L325.396 304.9L307.175 282.419L300.847 309.947ZM280.952 273.284L305.39 278.208L306.535 257.279L280.952 273.284ZM303.667 256.22H278.933L278.982 271.634L303.667 256.22ZM296.169 308.531L278.933 278.381V299.913L296.169 308.531ZM297.277 311.819L278.933 302.647V333.622L297.277 311.819ZM299.653 366.284L278.933 340.43V375.21L299.653 366.284ZM302.325 399.575L278.933 379.753V402.628L302.325 399.575ZM290.727 428.113L278.933 408.414V443.551L290.727 428.113ZM291.244 470.439L278.933 451.307L278.908 500.442L291.121 470.735L291.244 470.439ZM261.18 312.643V285.09H239.241L261.18 312.643ZM239.191 375.062L241.42 400.387L259.789 401.372L239.191 375.062ZM241.124 427.965L259.998 403.834L241.506 402.825L241.124 427.965ZM236.458 457.623L259.924 450.864L240.669 433.911L236.458 457.623ZM214.692 345.146L234.316 338.35L227.336 314.687L214.692 345.146ZM259.592 316.915L229.17 312.496L236.446 336.934L259.592 316.915ZM236.335 370.126L234.821 343.04L215.098 375.198L235.843 370.273L236.335 370.126ZM238.822 398.614L236.52 372.588L215.098 377.685L238.822 398.614ZM259.838 369.055L237.234 342.659L238.761 369.818L259.838 369.055ZM238.674 429.061L239.056 403.206L215.11 410.593L238.674 429.061ZM215.024 443.896L234.058 457.241L238.28 433.603L215.024 443.896ZM230.352 485.989L245.704 479.402L235.461 462.597L230.352 485.989ZM214.593 477.063L227.853 486.026L232.999 462.437L214.593 477.063ZM243.464 505.478L228.69 489.854L215.147 505.478H243.464ZM246.172 481.852L230.734 488.476L245.187 503.779L246.172 481.852ZM259.998 453.413L236.791 460.085L247.391 477.494L259.998 453.413ZM260.466 487.429L248.61 481.852L247.649 503.065L260.466 487.429ZM261.18 505.478V490.396L248.868 505.478H261.18ZM261.18 456.404L249.139 479.414L261.18 485.065V456.404ZM261.18 425.933L242.257 432.089L261.18 448.734V425.933ZM261.18 406.297L243.267 429.196L261.18 423.385V406.297ZM261.18 371.468L240.041 372.231L261.18 399.23V371.468ZM261.18 348.113L239.462 341.526L261.18 366.912V348.113ZM261.18 318.824L238.293 338.621L261.18 345.564V318.824ZM229.084 310.083L259.53 314.503L237.185 286.371L229.084 310.083ZM227.188 308.064L235.018 285.115H214.581L227.188 308.064ZM225.366 309.689L213.793 288.624V308.925L225.366 309.689ZM225.735 312.151L213.793 311.363V341.046L225.735 312.151ZM233.048 341.391L213.793 348.051V372.736L233.048 341.391ZM237.923 401.027L213.793 379.753V408.55L237.923 401.027ZM237.554 431.277L213.793 412.711V441.79L237.554 431.277ZM232.888 459.359L213.793 445.952V474.588L232.888 459.359ZM226.88 488.205L213.793 479.353V503.397L226.88 488.205ZM172.82 421.957L161.74 398.27L149.429 418.891L172.82 421.957ZM148.875 376.651L160.694 392.114L161.063 357.765L148.875 376.651ZM175.763 426.5L172.673 455.481L195.092 450.322L175.763 426.5ZM176.366 475.364L194.144 453.019L172.673 458.005L176.366 475.364ZM163.981 397.297L175.258 421.403L194.686 403.133L163.981 397.297ZM179.629 379.618L164.375 394.896L194.526 400.609L179.629 379.618ZM163.932 353.838L178.693 374.139L179.776 341.009L163.932 353.838ZM163.07 392.742L178.201 377.611L163.451 357.322L163.07 392.742ZM170.198 455.259L173.276 426.34L149.626 446.395L170.198 455.259ZM174.15 476.903L170.457 459.359L150.512 475.795L174.15 476.903ZM194.575 484.302L176.612 479.685L170.888 503.508L194.575 484.302ZM196.015 505.502V486.284L172.279 505.502H196.015ZM196.015 454.656L177.844 477.481L196.015 482.16V454.656ZM196.015 430.698L178.164 425.773L196.015 447.835V430.698ZM196.015 405.361L177.253 422.991L196.015 428.125V405.361ZM196.003 369.042L181.488 378.103L196.003 398.59V369.042ZM182.165 342.696L181.045 375.506L195.584 366.444L182.165 342.696ZM196.003 332.231L182.78 338.842L196.003 362.222V332.231ZM195.978 320.867L185.243 334.878L195.978 329.486V320.867ZM180.774 336.712L194.723 318.491H151.571L180.774 336.712ZM162.774 351.634L178.964 338.461L149.909 320.363L162.774 351.634ZM160.854 353.48L148.542 323.49V372.625L160.854 353.48ZM160.337 395.795L148.542 380.356V415.493L160.337 395.795ZM171.934 424.358L148.542 421.304V444.167L171.934 424.358ZM168.905 457.426L148.542 448.648V474.231L168.905 457.426ZM130.814 367.626V348.408H107.09L130.814 367.626ZM130.223 403.576L107.631 398.38L114.907 432.643L130.223 403.576ZM102.707 456.466L129.386 450.741L114.673 437.999L102.707 456.466ZM113.602 376.318L107.594 395.857L129.386 400.867L113.602 376.318ZM85.1383 377.931L105.415 394.625L111.497 374.89L85.1383 377.931ZM84.3135 410.359L112.507 433.049L105.243 398.602L84.3135 410.359ZM84.8429 444.24L99.789 456.441L111.756 438.011L84.8429 444.24ZM113.824 474.244L101.02 460.947L98.0654 486.555L113.824 474.244ZM83.9934 477.087L95.6031 486.937L98.447 461.821L83.9934 477.087ZM112.716 505.453L96.6865 491.098L84.7444 505.453H112.716ZM114.452 476.903L98.447 489.411L114.71 503.988L114.452 476.903ZM129.275 453.277L102.534 459.027L115.461 472.52L129.275 453.277ZM130.851 505.453V490.372L118.539 505.453H130.851ZM116.877 476.903L117.123 503.299L130.321 487.171L116.877 476.903ZM130.826 455.185L117.284 474.133L130.826 484.462V455.185ZM130.814 426.512L116.409 436.275L130.814 448.673V426.512ZM130.814 407.651L117.764 432.409L130.814 423.656V407.651ZM130.814 371.701L115.228 374.41L130.814 398.651V371.701ZM114.07 372.095L129.189 369.485L106.302 350.895L114.07 372.095ZM84.8182 375.518L111.608 372.44L103.298 349.787L84.8182 375.518ZM101.279 348.408H83.3778V373.265L101.279 348.408ZM103.901 396.571L83.3778 379.63V408.119L103.901 396.571ZM111.694 435.561L83.3778 412.76V442.123L111.694 435.561ZM98.287 458.399L83.3778 446.235V474.059L98.287 458.399ZM94.7905 489.497L83.3778 479.759V503.299L94.7905 489.497ZM70.1553 508.605H37.4192L56.0464 524.166L70.1553 508.605ZM72.8515 509.257L58.521 525.114L90.7523 531.246L72.8515 509.257ZM75.4615 508.605L93.8302 531.172L113.245 508.605H75.4615ZM115.942 509.208L96.9696 531.258L130.814 525.102L115.942 509.208ZM118.687 508.605L133.461 524.363L160.891 508.605H118.687ZM148.542 480.584V505.453H166.455L148.542 480.584ZM174.138 479.304L149.773 478.146L168.241 503.803L174.138 479.304ZM213.473 508.605H168.967L194.624 529.017L213.473 508.605ZM216.255 509.146L197.16 529.867L241.703 537.771L216.255 509.146ZM218.939 508.568L244.966 537.832L273.109 508.038L218.939 508.568ZM276.163 508.383L248.487 537.66L302.238 526.481L276.163 508.383ZM305.218 525.595L327.969 508.002H279.881L305.218 525.595ZM330.456 509.159L307.274 527.072L332.562 546.093L330.456 509.159ZM332.894 509.023L335.061 547.016L376.87 535.616L332.894 509.023ZM335.91 507.989L379.665 534.459L401.813 507.989H335.91ZM407.6 507.989L428.32 526.653L449.57 507.989H407.6ZM74.9814 301.575C75.0836 301.588 75.187 301.588 75.2892 301.575L97.4498 295.185C97.6262 295.136 97.7874 295.043 97.9185 294.915C98.0497 294.787 98.1466 294.628 98.2005 294.453C98.2544 294.277 98.2635 294.092 98.227 293.912C98.1905 293.732 98.1095 293.565 97.9915 293.425L83.5871 276.361C83.4612 276.211 83.2973 276.097 83.1124 276.031C82.9276 275.966 82.7286 275.951 82.5361 275.989C82.3437 276.027 82.165 276.116 82.0185 276.246C81.872 276.376 81.7632 276.544 81.7034 276.73L73.9472 300.122C73.8814 300.309 73.8695 300.511 73.9131 300.705C73.9566 300.899 74.0538 301.077 74.1934 301.218C74.2941 301.327 74.4158 301.415 74.5511 301.476C74.6865 301.538 74.8328 301.571 74.9814 301.575ZM83.1808 279.279L95.1475 293.511L76.6804 298.842L83.1808 279.279ZM72.8156 223.109C72.8985 223.303 72.9242 223.517 72.8898 223.725C72.8733 223.952 72.7877 224.167 72.6446 224.344C72.5015 224.52 72.3077 224.648 72.0895 224.71L52.3912 230.09C52.2935 230.108 52.1934 230.108 52.0957 230.09C51.8547 230.086 51.6216 230.004 51.4309 229.856C51.2972 229.753 51.1889 229.621 51.1142 229.469C51.0395 229.318 51.0005 229.151 51 228.982V210.096C50.9999 209.896 51.0547 209.699 51.1586 209.528C51.2625 209.357 51.4114 209.217 51.5891 209.124C51.7669 209.031 51.9666 208.989 52.1666 209.002C52.3667 209.015 52.5593 209.083 52.7236 209.198L72.4219 222.63C72.5962 222.749 72.7328 222.915 72.8156 223.109ZM53.1914 212.189V227.419L69.1963 223.11L53.1914 212.189ZM10.6029 212.243L44.0531 231.658C44.2214 231.756 44.4126 231.807 44.6071 231.806C44.8155 231.799 45.0188 231.74 45.198 231.634C45.3688 231.524 45.5062 231.37 45.5952 231.187C45.6842 231.005 45.7214 230.801 45.7028 230.599L43.6099 206.998C43.5763 206.705 43.4308 206.436 43.2036 206.247C43.0894 206.15 42.9553 206.079 42.8108 206.038C42.6662 205.998 42.5146 205.989 42.3664 206.013L11.0091 210.224C10.7795 210.251 10.5644 210.351 10.3947 210.508C10.2249 210.665 10.1092 210.871 10.0642 211.098C10.0191 211.325 10.0469 211.56 10.1437 211.77C10.2404 211.98 10.4012 212.155 10.6029 212.268V212.243ZM41.5169 208.34L43.3144 228.691L14.4933 211.948L41.5169 208.34ZM75.5465 245.21C75.529 245.43 75.4466 245.639 75.3098 245.811L68.3908 254.737C68.2911 254.862 68.1662 254.966 68.0241 255.04C67.882 255.114 67.7259 255.158 67.5659 255.168C67.413 255.169 67.2615 255.138 67.1214 255.076C66.9814 255.015 66.8559 254.924 66.7534 254.811L59.2926 246.747C59.15 246.594 59.0544 246.404 59.0173 246.199C58.9802 245.994 59.0031 245.782 59.0833 245.589C59.1565 245.395 59.2856 245.227 59.4544 245.107C59.6232 244.986 59.824 244.918 60.0313 244.912L74.3742 244.001C74.5834 243.991 74.7912 244.04 74.974 244.143C75.1568 244.245 75.3073 244.396 75.4083 244.58C75.516 244.772 75.5641 244.991 75.5465 245.21ZM62.4813 247.005L67.4798 252.41L72.0842 246.402L62.4813 247.005ZM45.9454 250.551C45.9358 250.361 45.8761 250.176 45.7723 250.016C45.6685 249.856 45.5244 249.727 45.3544 249.64L36.601 245.122C36.4208 245.029 36.2185 244.988 36.0163 245.003C35.8142 245.018 35.6202 245.089 35.456 245.208C35.2915 245.329 35.1632 245.493 35.0851 245.682C35.007 245.871 34.982 246.077 35.0128 246.279L36.4902 255.673C36.5168 255.857 36.591 256.031 36.7054 256.178C36.8199 256.325 36.9706 256.439 37.1427 256.51C37.2777 256.573 37.4246 256.607 37.5736 256.609C37.7947 256.611 38.0107 256.542 38.1892 256.412L45.4652 251.487C45.619 251.385 45.7439 251.246 45.8281 251.082C45.9122 250.918 45.9526 250.735 45.9454 250.551ZM38.4354 253.666L37.5613 248.114L42.7321 250.761L38.4354 253.666ZM60.3192 275.404H60.0975C59.9212 275.402 59.7477 275.359 59.5917 275.276C59.4356 275.194 59.3014 275.076 59.2003 274.931C59.0992 274.787 59.034 274.62 59.0101 274.446C58.9863 274.271 59.0046 274.093 59.0634 273.927L63.0646 262.723C63.1214 262.564 63.2143 262.42 63.336 262.302C63.4578 262.185 63.6051 262.097 63.7664 262.046C63.928 261.998 64.0986 261.987 64.265 262.015C64.4314 262.043 64.5893 262.108 64.7267 262.206L75.4746 269.852C75.6453 269.976 75.7775 270.146 75.856 270.342C75.9344 270.538 75.9558 270.752 75.9178 270.96C75.8761 271.165 75.7762 271.355 75.63 271.505C75.4837 271.656 75.2973 271.761 75.0929 271.809L60.3192 275.404ZM72.2366 270.209L64.6405 264.829L61.7842 272.745L72.2366 270.209ZM44.8996 268.822L51.1292 273.218C51.3081 273.358 51.5299 273.432 51.7571 273.427C51.9085 273.422 52.0581 273.393 52.2003 273.341C52.3729 273.264 52.5233 273.144 52.6374 272.994C52.7515 272.843 52.8256 272.666 52.8528 272.479L53.9485 264.415C53.9765 264.217 53.9497 264.015 53.8712 263.831C53.7927 263.648 53.6654 263.489 53.5031 263.372C53.3408 263.255 53.1496 263.185 52.9504 263.17C52.7512 263.154 52.5514 263.193 52.3727 263.282L44.9858 266.976C44.816 267.06 44.6712 267.188 44.5654 267.345C44.4597 267.503 44.3967 267.685 44.3825 267.874C44.3807 268.063 44.4273 268.25 44.5178 268.416C44.6083 268.582 44.7397 268.722 44.8996 268.822ZM51.4863 266.175L50.9199 270.361L47.6697 268.059L51.4863 266.175ZM22.0725 241.904L3.90081 238.309C3.69523 238.264 3.50603 238.163 3.354 238.018C3.20196 237.872 3.09298 237.687 3.03901 237.484C2.9855 237.288 2.98707 237.081 3.04353 236.885C3.09999 236.69 3.20918 236.514 3.35911 236.376L13.3191 227.29C13.4364 227.182 13.5758 227.101 13.7278 227.052C13.8797 227.003 14.0404 226.989 14.1987 227.009C14.357 227.029 14.509 227.083 14.6442 227.168C14.7793 227.252 14.8943 227.366 14.9811 227.499L23.1929 240.18C23.3195 240.361 23.3874 240.576 23.3874 240.796C23.3874 241.016 23.3195 241.231 23.1929 241.411C23.0934 241.562 22.9581 241.686 22.7992 241.772C22.6402 241.858 22.4625 241.903 22.2818 241.904H22.0725ZM20.0042 239.232L13.91 229.826L6.52315 236.573L20.0042 239.232Z" fill="url(#paint0_linear_499_272)"/>
<defs>
<linearGradient id="paint0_linear_499_272" x1="391.99" y1="-36.6578" x2="63.8638" y2="517.193" gradientUnits="userSpaceOnUse">
<stop stop-color="#00FFFF"/>
<stop offset="1" stop-color="#00FFFF" stop-opacity="0"/>
</linearGradient>
</defs>
</svg>
