<svg width="641" height="434" viewBox="0 0 641 434" fill="none" xmlns="http://www.w3.org/2000/svg">
<path style="mix-blend-mode:screen" d="M193.152 408C193.152 419.046 202.106 428 213.152 428H215.636C226.682 428 235.636 419.046 235.636 408V338.533C235.636 327.487 226.682 318.533 215.636 318.533H213.152C202.106 318.533 193.152 327.487 193.152 338.533V408ZM37 408C37 419.046 45.9543 428 57 428H59.484C70.5297 428 79.484 419.046 79.484 408V392.4C79.484 381.354 70.5297 372.4 59.484 372.4H57C45.9543 372.4 37 381.354 37 392.4V408ZM115.076 408C115.076 419.046 124.03 428 135.076 428H137.56C148.606 428 157.56 419.046 157.56 408V368.505C157.56 357.459 148.606 348.505 137.56 348.505H135.076C124.03 348.505 115.076 357.459 115.076 368.505V408ZM271.225 408C271.225 419.046 280.179 428 291.225 428H293.709C304.754 428 313.709 419.046 313.709 408V298.062C313.709 287.016 304.754 278.062 293.709 278.062H291.225C280.179 278.062 271.225 287.016 271.225 298.062V408ZM349.304 408C349.304 419.046 358.258 428 369.304 428H371.766C382.812 428 391.766 419.046 391.766 408V255.385C391.766 244.339 382.812 235.385 371.766 235.385H369.304C358.258 235.385 349.304 244.339 349.304 255.385V408ZM603.531 0.000244141C592.486 0.000244141 583.531 8.95455 583.531 20.0002V408C583.531 419.046 592.486 428 603.531 428H606C617.046 428 626 419.046 626 408V20.0002C626 8.95455 617.046 0.000244141 606 0.000244141H603.531ZM505.449 408C505.449 419.046 514.404 428 525.449 428H527.918C538.964 428 547.918 419.046 547.918 408V127.626C547.918 116.58 538.964 107.626 527.918 107.626H525.449C514.404 107.626 505.449 116.58 505.449 127.626V408ZM427.373 408C427.373 419.046 436.328 428 447.373 428H449.857C460.903 428 469.857 419.046 469.857 408V192.543C469.857 181.497 460.903 172.543 449.857 172.543H447.373C436.328 172.543 427.373 181.497 427.373 192.543V408Z" fill="url(#paint0_linear_221_1998)" fill-opacity="0.3"/>
<path style="mix-blend-mode:color-dodge" d="M594 22C594 28.0751 598.925 33 605 33C611.075 33 616 28.0751 616 22C616 15.9249 611.075 11 605 11C598.925 11 594 15.9249 594 22Z" fill="url(#paint1_radial_221_1998)"/>
<g style="mix-blend-mode:screen" opacity="0.6">
<g style="mix-blend-mode:screen">
<path fill-rule="evenodd" clip-rule="evenodd" d="M480.525 204.462H482.518C484.562 204.462 486.219 206.115 486.219 208.153V255.29C486.219 257.329 484.562 258.982 482.518 258.982H480.525C478.481 258.982 476.825 257.329 476.825 255.29V208.153C476.825 206.115 478.481 204.462 480.525 204.462ZM494.466 209.234H497.188C497.626 209.234 498.059 209.32 498.464 209.487C498.868 209.655 499.236 209.9 499.546 210.209C499.855 210.517 500.101 210.884 500.269 211.288C500.436 211.691 500.522 212.124 500.522 212.561V230.669C500.522 231.551 500.171 232.397 499.546 233.021C498.92 233.645 498.072 233.995 497.188 233.995H496.801V249.757H494.853V233.995H494.466C494.028 233.996 493.594 233.91 493.189 233.743C492.784 233.576 492.416 233.331 492.106 233.022C491.796 232.713 491.55 232.346 491.383 231.942C491.215 231.539 491.128 231.106 491.128 230.669V212.561C491.128 212.123 491.215 211.691 491.383 211.287C491.55 210.883 491.796 210.516 492.106 210.207C492.416 209.898 492.784 209.653 493.189 209.487C493.594 209.32 494.028 209.234 494.466 209.234ZM511.101 230.14H511.488C512.371 230.14 513.219 230.49 513.844 231.112C514.47 231.734 514.823 232.578 514.826 233.46V251.565C514.826 252.448 514.474 253.295 513.848 253.919C513.222 254.543 512.373 254.894 511.488 254.894H511.101V262.624H509.157V254.905H508.77C507.884 254.905 507.035 254.554 506.409 253.929C505.783 253.305 505.432 252.458 505.432 251.575V233.47C505.432 232.587 505.783 231.74 506.409 231.116C507.035 230.491 507.884 230.14 508.77 230.14H509.157V222.421H511.101V230.14ZM540.095 248.468H539.708V230.426H537.764V248.468H537.377C536.939 248.467 536.505 248.553 536.1 248.72C535.695 248.887 535.327 249.132 535.017 249.441C534.707 249.75 534.461 250.117 534.293 250.52C534.125 250.924 534.039 251.357 534.039 251.794V269.902C534.039 270.339 534.125 270.772 534.293 271.176C534.461 271.58 534.707 271.947 535.017 272.255C535.327 272.564 535.695 272.809 536.1 272.976C536.505 273.143 536.939 273.229 537.377 273.228H540.095C540.533 273.229 540.967 273.143 541.372 272.976C541.777 272.809 542.145 272.564 542.455 272.255C542.765 271.947 543.011 271.58 543.179 271.176C543.347 270.772 543.433 270.339 543.433 269.902V251.794C543.433 251.357 543.347 250.924 543.179 250.52C543.011 250.117 542.765 249.75 542.455 249.441C542.145 249.132 541.777 248.887 541.372 248.72C540.967 248.553 540.533 248.467 540.095 248.468ZM468.58 257.147H468.194V249.431H466.246V257.147H465.859C464.974 257.147 464.125 257.497 463.499 258.122C462.873 258.746 462.521 259.593 462.521 260.476V278.584C462.521 279.022 462.607 279.454 462.775 279.858C462.943 280.262 463.189 280.629 463.499 280.938C463.809 281.247 464.177 281.492 464.582 281.659C464.987 281.826 465.421 281.911 465.859 281.911H466.246V289.63H468.194V281.911H468.58C469.018 281.911 469.452 281.825 469.856 281.658C470.261 281.49 470.629 281.245 470.938 280.937C471.248 280.628 471.494 280.261 471.661 279.857C471.829 279.454 471.915 279.021 471.915 278.584V260.476C471.915 259.594 471.564 258.747 470.939 258.123C470.313 257.499 469.465 257.147 468.58 257.147ZM622.216 256.542H621.829V248.822H619.881V256.542H619.498C618.612 256.542 617.763 256.893 617.137 257.517C616.511 258.141 616.16 258.988 616.16 259.871V277.976C616.16 278.859 616.511 279.706 617.137 280.331C617.763 280.955 618.612 281.306 619.498 281.306H619.881V289.025H621.829V281.309H622.216C623.101 281.309 623.95 280.959 624.576 280.334C625.202 279.71 625.554 278.863 625.554 277.98V259.875C625.554 259.437 625.468 259.004 625.301 258.6C625.133 258.195 624.887 257.828 624.577 257.518C624.267 257.209 623.899 256.963 623.494 256.796C623.089 256.628 622.654 256.542 622.216 256.542ZM525.791 250.518H523.073C522.189 250.518 521.34 250.869 520.714 251.492C520.088 252.116 519.736 252.962 519.735 253.845V271.953C519.735 272.836 520.087 273.683 520.713 274.307C521.339 274.932 522.188 275.283 523.073 275.283H523.46V291.041H525.405V275.283H525.791C526.677 275.283 527.526 274.932 528.152 274.307C528.778 273.683 529.129 272.836 529.129 271.953V253.852C529.13 253.414 529.044 252.981 528.876 252.576C528.709 252.172 528.463 251.804 528.153 251.495C527.843 251.185 527.475 250.94 527.07 250.772C526.664 250.605 526.23 250.518 525.791 250.518ZM453.89 267.094H454.277C454.715 267.094 455.149 267.18 455.554 267.347C455.959 267.515 456.327 267.76 456.636 268.069C456.946 268.379 457.192 268.746 457.359 269.15C457.526 269.554 457.612 269.986 457.612 270.424V288.528C457.612 288.966 457.526 289.398 457.359 289.802C457.192 290.206 456.946 290.573 456.636 290.883C456.327 291.192 455.959 291.437 455.554 291.605C455.149 291.772 454.715 291.858 454.277 291.858H453.89V299.578H451.943V291.858H451.556C450.671 291.858 449.821 291.507 449.195 290.883C448.569 290.258 448.218 289.412 448.218 288.528V270.424C448.218 269.54 448.569 268.694 449.195 268.069C449.821 267.445 450.671 267.094 451.556 267.094H451.943V259.374H453.89V267.094ZM439.974 275.109H439.587V267.407H437.639V275.126H437.252C436.367 275.126 435.518 275.477 434.892 276.101C434.266 276.726 433.914 277.573 433.914 278.456V296.561C433.914 297.444 434.266 298.291 434.892 298.915C435.518 299.54 436.367 299.89 437.252 299.89H437.639V307.61H439.587V299.89H439.974C440.412 299.89 440.846 299.804 441.25 299.637C441.655 299.469 442.023 299.224 442.333 298.915C442.642 298.606 442.888 298.239 443.055 297.835C443.223 297.431 443.309 296.998 443.308 296.561V278.456C443.311 278.017 443.227 277.583 443.06 277.177C442.894 276.771 442.649 276.401 442.339 276.09C442.029 275.779 441.66 275.533 441.254 275.364C440.849 275.196 440.413 275.109 439.974 275.109ZM554.036 208.591H552.043C549.999 208.591 548.342 210.244 548.342 212.282V259.42C548.342 261.458 549.999 263.111 552.043 263.111H554.036C556.08 263.111 557.736 261.458 557.736 259.42V212.282C557.736 210.244 556.08 208.591 554.036 208.591ZM593.511 212.703H595.504C597.548 212.703 599.205 214.356 599.205 216.394V244.46C599.205 246.499 597.548 248.151 595.504 248.151H593.511C591.467 248.151 589.811 246.499 589.811 244.46V216.394C589.811 214.356 591.467 212.703 593.511 212.703ZM568.702 231.051H565.984C564.141 231.051 562.646 232.542 562.646 234.381V244.002C562.646 245.84 564.141 247.331 565.984 247.331H568.702C570.545 247.331 572.04 245.84 572.04 244.002V234.381C572.04 232.542 570.545 231.051 568.702 231.051ZM579.218 238.534H581.936C583.779 238.534 585.274 240.025 585.274 241.864V251.485C585.274 253.323 583.779 254.814 581.936 254.814H579.218C577.374 254.814 575.88 253.323 575.88 251.485V241.864C575.88 240.025 577.374 238.534 579.218 238.534ZM607.845 246.535H605.128C603.284 246.535 601.79 248.026 601.79 249.865V259.486C601.79 261.325 603.284 262.815 605.128 262.815H607.845C609.689 262.815 611.184 261.325 611.184 259.486V249.865C611.184 248.026 609.689 246.535 607.845 246.535ZM283.52 256.097H281.527C279.483 256.097 277.826 257.749 277.826 259.788V306.925C277.826 308.964 279.483 310.616 281.527 310.616H283.52C285.563 310.616 287.22 308.964 287.22 306.925V259.788C287.22 257.749 285.563 256.097 283.52 256.097ZM298.185 260.865H295.464C294.579 260.866 293.731 261.218 293.106 261.842C292.481 262.466 292.129 263.313 292.129 264.195V282.3C292.129 283.182 292.481 284.029 293.106 284.653C293.731 285.277 294.579 285.629 295.464 285.63H295.851V301.392H297.799V285.63H298.185C299.071 285.63 299.92 285.279 300.546 284.654C301.172 284.03 301.523 283.183 301.523 282.3V264.195C301.523 263.312 301.172 262.465 300.546 261.841C299.92 261.216 299.071 260.865 298.185 260.865ZM312.489 281.775H312.102V274.056H310.154V281.775H309.768C308.883 281.775 308.035 282.126 307.41 282.749C306.784 283.373 306.433 284.219 306.433 285.101V303.206C306.433 304.088 306.784 304.934 307.41 305.558C308.035 306.182 308.883 306.532 309.768 306.532H310.154V314.252H312.102V306.532H312.489C312.927 306.533 313.361 306.447 313.766 306.28C314.171 306.113 314.539 305.868 314.849 305.559C315.159 305.25 315.405 304.884 315.573 304.48C315.741 304.076 315.827 303.643 315.827 303.206V285.098C315.827 284.661 315.74 284.229 315.572 283.825C315.404 283.422 315.158 283.055 314.848 282.747C314.538 282.438 314.17 282.194 313.765 282.027C313.361 281.86 312.927 281.775 312.489 281.775ZM340.709 300.099H341.096C341.981 300.099 342.83 300.45 343.456 301.074C344.082 301.699 344.434 302.545 344.434 303.429V321.533C344.434 322.416 344.082 323.263 343.456 323.888C342.83 324.512 341.981 324.863 341.096 324.863H338.375C337.936 324.863 337.503 324.777 337.098 324.61C336.693 324.442 336.325 324.197 336.015 323.888C335.706 323.578 335.46 323.211 335.293 322.807C335.125 322.403 335.04 321.97 335.04 321.533V303.429C335.04 302.991 335.125 302.559 335.293 302.155C335.46 301.751 335.706 301.384 336.015 301.074C336.325 300.765 336.693 300.52 337.098 300.352C337.503 300.185 337.936 300.099 338.375 300.099H338.761V282.06H340.709V300.099ZM269.192 308.767H269.578C270.464 308.767 271.313 309.118 271.939 309.742C272.565 310.367 272.916 311.214 272.916 312.097V330.202C272.916 331.085 272.565 331.932 271.939 332.556C271.313 333.181 270.464 333.531 269.578 333.531H269.192V341.251H267.244V333.531H266.857C265.972 333.53 265.124 333.179 264.499 332.555C263.874 331.931 263.522 331.084 263.522 330.202V312.097C263.522 311.214 263.874 310.368 264.499 309.744C265.124 309.119 265.972 308.768 266.857 308.767H267.244V301.048H269.192V308.767ZM422.83 308.176H423.217C423.656 308.176 424.09 308.263 424.495 308.431C424.901 308.598 425.269 308.844 425.579 309.154C425.888 309.464 426.134 309.832 426.301 310.237C426.468 310.642 426.553 311.075 426.552 311.513V329.621C426.552 330.058 426.466 330.491 426.299 330.895C426.131 331.299 425.886 331.666 425.576 331.976C425.266 332.285 424.899 332.53 424.494 332.697C424.089 332.865 423.655 332.951 423.217 332.951H422.83V340.667H420.882V332.951H420.496C420.057 332.951 419.624 332.865 419.219 332.697C418.814 332.53 418.446 332.285 418.137 331.976C417.827 331.666 417.581 331.299 417.414 330.895C417.247 330.491 417.161 330.058 417.161 329.621V311.503C417.161 311.066 417.247 310.633 417.415 310.23C417.583 309.826 417.828 309.459 418.138 309.151C418.447 308.842 418.815 308.597 419.22 308.43C419.624 308.262 420.058 308.176 420.496 308.176H420.882V300.457H422.83V308.176ZM324.071 302.163H326.793C327.678 302.163 328.527 302.514 329.153 303.139C329.779 303.763 330.131 304.61 330.131 305.493V323.601C330.131 324.039 330.044 324.471 329.877 324.875C329.709 325.279 329.463 325.646 329.153 325.955C328.843 326.264 328.475 326.509 328.07 326.675C327.665 326.842 327.231 326.928 326.793 326.928H326.406V342.69H324.458V326.928H324.071C323.633 326.928 323.2 326.842 322.795 326.675C322.39 326.508 322.022 326.263 321.712 325.954C321.403 325.645 321.157 325.279 320.99 324.875C320.822 324.471 320.736 324.038 320.737 323.601V305.493C320.736 305.056 320.822 304.623 320.99 304.219C321.157 303.815 321.403 303.448 321.712 303.139C322.022 302.83 322.39 302.584 322.794 302.417C323.199 302.25 323.633 302.163 324.071 302.163ZM255.275 318.729H254.888V311.009H252.944V318.729H252.557C252.119 318.728 251.685 318.814 251.28 318.981C250.875 319.148 250.507 319.393 250.197 319.702C249.887 320.01 249.641 320.377 249.473 320.781C249.306 321.185 249.219 321.618 249.219 322.055V340.163C249.219 340.6 249.306 341.033 249.473 341.437C249.641 341.841 249.887 342.207 250.197 342.516C250.507 342.825 250.875 343.07 251.28 343.237C251.685 343.404 252.119 343.49 252.557 343.489H252.944V351.209H254.888V343.489H255.275C255.713 343.49 256.147 343.404 256.552 343.237C256.957 343.07 257.325 342.825 257.635 342.516C257.945 342.207 258.191 341.841 258.359 341.437C258.527 341.033 258.613 340.6 258.613 340.163V322.055C258.613 321.618 258.527 321.185 258.359 320.781C258.191 320.377 257.945 320.01 257.635 319.702C257.325 319.393 256.957 319.148 256.552 318.981C256.147 318.814 255.713 318.728 255.275 318.729ZM240.585 326.743H240.971C241.411 326.743 241.846 326.829 242.252 326.997C242.658 327.165 243.026 327.411 243.337 327.721C243.647 328.032 243.892 328.4 244.059 328.806C244.226 329.211 244.311 329.645 244.309 330.084V348.192C244.309 348.629 244.223 349.062 244.055 349.465C243.888 349.869 243.642 350.236 243.332 350.545C243.022 350.854 242.654 351.099 242.249 351.266C241.844 351.433 241.41 351.518 240.971 351.518H240.585V359.224H238.64V351.504H238.254C237.815 351.505 237.381 351.419 236.976 351.252C236.571 351.085 236.203 350.84 235.893 350.531C235.583 350.222 235.337 349.855 235.17 349.452C235.002 349.048 234.916 348.615 234.916 348.178V330.07C234.916 329.633 235.002 329.2 235.17 328.796C235.337 328.392 235.583 328.025 235.893 327.716C236.203 327.408 236.571 327.163 236.976 326.996C237.381 326.829 237.815 326.743 238.254 326.743H238.64V319.024H240.585V326.743ZM353.041 260.226H355.034C357.078 260.226 358.734 261.879 358.734 263.917V311.054C358.734 313.093 357.078 314.745 355.034 314.745H353.041C350.997 314.745 349.34 313.093 349.34 311.054V263.917C349.34 261.879 350.997 260.226 353.041 260.226ZM396.502 264.334H394.509C392.465 264.334 390.808 265.987 390.808 268.025V296.091C390.808 298.13 392.465 299.783 394.509 299.783H396.502C398.545 299.783 400.202 298.13 400.202 296.091V268.025C400.202 265.987 398.545 264.334 396.502 264.334ZM366.982 282.686H369.699C371.543 282.686 373.038 284.177 373.038 286.015V295.636C373.038 297.475 371.543 298.966 369.699 298.966H366.982C365.138 298.966 363.644 297.475 363.644 295.636V286.015C363.644 284.177 365.138 282.686 366.982 282.686ZM382.933 290.165H380.216C378.372 290.165 376.877 291.656 376.877 293.495V303.116C376.877 304.955 378.372 306.445 380.216 306.445H382.933C384.777 306.445 386.271 304.955 386.271 303.116V293.495C386.271 291.656 384.777 290.165 382.933 290.165ZM406.126 298.17H408.844C410.687 298.17 412.182 299.661 412.182 301.5V311.12C412.182 312.959 410.687 314.45 408.844 314.45H406.126C404.282 314.45 402.788 312.959 402.788 311.12V301.5C402.788 299.661 404.282 298.17 406.126 298.17ZM86.0754 289.87H84.0823C82.0386 289.87 80.3818 291.522 80.3818 293.561V340.698C80.3818 342.737 82.0386 344.389 84.0823 344.389H86.0754C88.1191 344.389 89.7758 342.737 89.7758 340.698V293.561C89.7758 291.522 88.1191 289.87 86.0754 289.87ZM100.741 294.639H98.0232C97.1378 294.639 96.2888 294.989 95.6628 295.614C95.0367 296.238 94.6851 297.085 94.6851 297.968V316.066C94.6851 316.949 95.0367 317.796 95.6628 318.421C96.2888 319.045 97.1378 319.396 98.0232 319.396H98.3995V335.182H100.344V319.403H100.731C101.616 319.403 102.465 319.052 103.091 318.428C103.717 317.803 104.069 316.956 104.069 316.073V297.968C104.069 297.087 103.718 296.242 103.095 295.617C102.471 294.993 101.624 294.641 100.741 294.639ZM115.045 315.545H114.658V307.829H112.714V315.545H112.338C111.452 315.545 110.603 315.896 109.977 316.52C109.351 317.144 109 317.991 109 318.874V336.983C109 337.42 109.086 337.853 109.254 338.256C109.421 338.66 109.667 339.027 109.977 339.336C110.287 339.645 110.655 339.89 111.06 340.057C111.465 340.224 111.899 340.309 112.338 340.309H112.724V348.042H114.669V340.323H115.055C115.494 340.323 115.928 340.238 116.333 340.071C116.738 339.904 117.106 339.659 117.416 339.35C117.726 339.041 117.971 338.674 118.139 338.27C118.307 337.867 118.393 337.434 118.393 336.997V318.888C118.395 318.449 118.31 318.014 118.142 317.607C117.975 317.201 117.728 316.832 117.417 316.521C117.106 316.21 116.736 315.964 116.329 315.796C115.922 315.629 115.485 315.543 115.045 315.545ZM143.265 333.872H143.652C144.09 333.872 144.524 333.958 144.929 334.125C145.334 334.293 145.702 334.538 146.012 334.847C146.322 335.156 146.568 335.523 146.736 335.927C146.903 336.331 146.99 336.764 146.99 337.202V355.306C146.99 356.19 146.638 357.036 146.012 357.661C145.386 358.285 144.537 358.636 143.652 358.636H140.934C140.048 358.636 139.199 358.285 138.573 357.661C137.947 357.036 137.596 356.19 137.596 355.306V337.202C137.596 336.319 137.947 335.472 138.573 334.847C139.199 334.223 140.048 333.872 140.934 333.872H141.317V315.833H143.265V333.872ZM71.7473 342.554H72.134C73.0194 342.554 73.8684 342.905 74.4944 343.529C75.1204 344.154 75.4721 345.001 75.4721 345.884V363.989C75.4721 364.872 75.1204 365.719 74.4944 366.343C73.8684 366.968 73.0194 367.318 72.134 367.318H71.7473V375.038H69.803V367.318H69.4162C68.5309 367.318 67.6818 366.968 67.0558 366.343C66.4298 365.719 66.0781 364.872 66.0781 363.989V345.884C66.0781 345.001 66.4298 344.154 67.0558 343.529C67.6818 342.905 68.5309 342.554 69.4162 342.554H69.803V334.835H71.7473V342.554ZM225.386 341.949H225.773C226.655 341.949 227.501 342.298 228.127 342.919C228.752 343.539 229.106 344.382 229.111 345.262V363.384C229.111 364.267 228.759 365.114 228.133 365.738C227.507 366.363 226.658 366.714 225.773 366.714H225.386V374.43H223.438V366.714H223.051C222.613 366.714 222.179 366.627 221.774 366.46C221.37 366.293 221.002 366.047 220.692 365.738C220.383 365.429 220.137 365.062 219.97 364.658C219.802 364.254 219.716 363.821 219.717 363.384V345.276C219.717 344.394 220.068 343.547 220.693 342.924C221.319 342.3 222.167 341.949 223.051 341.949H223.438V334.23H225.386V341.949ZM126.623 335.923H129.348C130.232 335.924 131.079 336.276 131.704 336.9C132.328 337.525 132.679 338.37 132.679 339.252V357.361C132.679 357.798 132.593 358.231 132.425 358.634C132.257 359.038 132.011 359.405 131.701 359.714C131.391 360.023 131.023 360.268 130.618 360.435C130.213 360.602 129.779 360.687 129.341 360.687H128.954V376.449H127.01V360.687H126.623C126.185 360.687 125.751 360.602 125.346 360.435C124.941 360.268 124.573 360.023 124.263 359.714C123.953 359.405 123.707 359.038 123.539 358.634C123.372 358.231 123.285 357.798 123.285 357.361V339.252C123.285 338.369 123.637 337.522 124.263 336.898C124.889 336.273 125.738 335.923 126.623 335.923ZM57.8308 352.502H57.4441V344.782H55.4998V352.502H55.113C54.6748 352.501 54.2408 352.587 53.8358 352.754C53.4308 352.921 53.0629 353.166 52.7529 353.475C52.4428 353.783 52.1969 354.15 52.0291 354.554C51.8613 354.958 51.7749 355.391 51.7749 355.828V373.936C51.7749 374.373 51.8613 374.806 52.0291 375.21C52.1969 375.614 52.4428 375.98 52.7529 376.289C53.0629 376.598 53.4308 376.843 53.8358 377.01C54.2408 377.177 54.6748 377.263 55.113 377.262H55.4998V384.982H57.4441V377.262H57.8308C58.269 377.263 58.703 377.177 59.108 377.01C59.513 376.843 59.881 376.598 60.191 376.289C60.501 375.98 60.7469 375.614 60.9147 375.21C61.0825 374.806 61.1689 374.373 61.1689 373.936V355.828C61.1689 355.391 61.0825 354.958 60.9147 354.554C60.7469 354.15 60.501 353.783 60.191 353.475C59.881 353.166 59.513 352.921 59.108 352.754C58.703 352.587 58.269 352.501 57.8308 352.502ZM43.1438 360.516H43.5271C43.9653 360.516 44.3993 360.602 44.8042 360.769C45.2092 360.936 45.5772 361.181 45.8873 361.49C46.1973 361.798 46.4432 362.165 46.611 362.569C46.7788 362.973 46.8652 363.406 46.8652 363.843V381.951C46.8652 382.388 46.7788 382.821 46.611 383.225C46.4432 383.628 46.1973 383.995 45.8873 384.304C45.5772 384.613 45.2092 384.858 44.8042 385.025C44.3993 385.192 43.9653 385.278 43.5271 385.277H43.1438V392.997H41.196V385.277H40.8092C40.371 385.278 39.9371 385.192 39.5321 385.025C39.1271 384.858 38.7591 384.613 38.4491 384.304C38.1391 383.995 37.8932 383.628 37.7254 383.225C37.5576 382.821 37.4712 382.388 37.4712 381.951V363.843C37.4712 363.406 37.5576 362.973 37.7254 362.569C37.8932 362.165 38.1391 361.798 38.4491 361.49C38.7591 361.181 39.1271 360.936 39.5321 360.769C39.9371 360.602 40.371 360.516 40.8092 360.516H41.196V352.797H43.1438V360.516ZM155.6 293.999H157.593C159.637 293.999 161.293 295.652 161.293 297.69V344.827C161.293 346.866 159.637 348.519 157.593 348.519H155.6C153.556 348.519 151.899 346.866 151.899 344.827V297.69C151.899 295.652 153.556 293.999 155.6 293.999ZM199.057 298.107H197.064C195.021 298.107 193.364 299.76 193.364 301.798V329.864C193.364 331.903 195.021 333.556 197.064 333.556H199.057C201.101 333.556 202.758 331.903 202.758 329.864V301.798C202.758 299.76 201.101 298.107 199.057 298.107ZM169.537 316.459H172.255C174.099 316.459 175.593 317.95 175.593 319.789V329.409C175.593 331.248 174.099 332.739 172.255 332.739H169.537C167.694 332.739 166.199 331.248 166.199 329.409V319.789C166.199 317.95 167.694 316.459 169.537 316.459ZM185.492 323.938H182.775C180.931 323.938 179.437 325.429 179.437 327.268V336.889C179.437 338.728 180.931 340.219 182.775 340.219H185.492C187.336 340.219 188.831 338.728 188.831 336.889V327.268C188.831 325.429 187.336 323.938 185.492 323.938ZM208.681 331.943H211.399C213.243 331.943 214.737 333.434 214.737 335.273V344.893C214.737 346.732 213.243 348.223 211.399 348.223H208.681C206.838 348.223 205.343 346.732 205.343 344.893V335.273C205.343 333.434 206.838 331.943 208.681 331.943Z" fill="url(#paint2_linear_221_1998)"/>
</g>
<g style="mix-blend-mode:screen">
<path fill-rule="evenodd" clip-rule="evenodd" d="M479.142 166C479.909 165.959 480.667 166.18 481.292 166.626C481.552 166.833 481.759 167.098 481.896 167.4C482.034 167.702 482.098 168.032 482.083 168.364C482.085 168.845 481.926 169.314 481.63 169.695C481.238 170.166 480.742 170.541 480.18 170.79C480.832 171.065 481.417 171.478 481.895 171.999C482.231 172.412 482.411 172.93 482.403 173.463C482.418 173.833 482.348 174.203 482.199 174.543C482.05 174.883 481.825 175.185 481.543 175.426C480.871 175.946 480.033 176.206 479.184 176.16C478.125 176.16 477.312 175.928 476.745 175.465C476.459 175.226 476.232 174.925 476.084 174.584C475.936 174.243 475.87 173.872 475.891 173.501C475.891 172.372 476.588 171.492 477.982 170.859C477.451 170.59 476.991 170.199 476.64 169.719C476.37 169.314 476.228 168.837 476.233 168.35C476.221 168.022 476.286 167.696 476.424 167.398C476.562 167.101 476.769 166.839 477.027 166.636C477.639 166.19 478.385 165.966 479.142 166ZM477.003 173.529C476.991 173.769 477.035 174.009 477.133 174.228C477.232 174.448 477.38 174.642 477.567 174.794C478.03 175.12 478.59 175.28 479.156 175.246C479.72 175.28 480.277 175.112 480.727 174.773C480.915 174.614 481.063 174.414 481.161 174.188C481.259 173.963 481.304 173.718 481.292 173.473C481.29 173.253 481.241 173.036 481.15 172.835C481.059 172.635 480.927 172.455 480.762 172.309C480.219 171.861 479.593 171.524 478.919 171.318C478.367 171.526 477.868 171.853 477.456 172.274C477.154 172.622 476.993 173.069 477.003 173.529ZM479.128 166.925C478.651 166.897 478.18 167.041 477.801 167.331C477.643 167.463 477.518 167.629 477.434 167.816C477.351 168.004 477.312 168.208 477.32 168.412C477.311 168.806 477.455 169.188 477.72 169.479C478.145 169.876 478.648 170.181 479.198 170.373C479.713 170.186 480.181 169.888 480.567 169.5C480.834 169.201 480.978 168.813 480.971 168.412C480.98 168.206 480.94 168 480.854 167.812C480.769 167.624 480.641 167.458 480.48 167.328C480.092 167.036 479.614 166.889 479.128 166.911V166.925ZM470.744 176.024H464.232V175.058L466.842 172.441C467.401 171.901 467.926 171.328 468.413 170.724C468.647 170.417 468.839 170.08 468.985 169.723C469.112 169.39 469.175 169.036 469.173 168.68C469.185 168.449 469.148 168.218 469.065 168.002C468.982 167.786 468.855 167.59 468.692 167.425C468.511 167.264 468.3 167.141 468.071 167.061C467.842 166.982 467.599 166.949 467.357 166.963C466.959 166.96 466.564 167.028 466.19 167.165C465.745 167.345 465.33 167.594 464.96 167.901L464.361 167.137C465.186 166.414 466.245 166.011 467.344 166.004C468.137 165.956 468.919 166.211 469.532 166.716C469.797 166.957 470.006 167.254 470.144 167.585C470.281 167.916 470.343 168.273 470.326 168.631C470.318 169.287 470.135 169.929 469.797 170.491C469.241 171.348 468.575 172.13 467.817 172.816L465.65 174.933V174.985H470.744V176.024ZM460.047 170.675H462.835V171.61H460.047V174.488H459.103V171.61H456.315V170.675H459.103V167.783H460.047V170.675ZM472.727 174.606C472.576 174.805 472.503 175.052 472.522 175.301C472.51 175.427 472.524 175.554 472.563 175.674C472.602 175.794 472.665 175.905 472.748 176C472.903 176.143 473.108 176.219 473.319 176.212C473.433 176.217 473.546 176.199 473.651 176.158C473.757 176.118 473.853 176.055 473.933 175.976C474.091 175.788 474.171 175.546 474.156 175.301C474.176 175.05 474.097 174.801 473.936 174.606C473.856 174.526 473.759 174.464 473.653 174.424C473.547 174.384 473.433 174.366 473.319 174.373C473.21 174.367 473.1 174.384 472.997 174.424C472.895 174.464 472.803 174.526 472.727 174.606ZM489.306 173.751H490.776L490.794 172.733H489.323V166.087H488.132L483.428 172.771V173.751H488.229V176.024H489.306V173.751ZM488.229 169.445V172.733H484.536L487.633 168.336C487.859 167.991 488.063 167.632 488.243 167.262H488.299C488.252 168.073 488.229 168.8 488.229 169.445Z" fill="#00FFFF" fill-opacity="0.5"/>
</g>
<g style="mix-blend-mode:screen" opacity="0.3">
<path fill-rule="evenodd" clip-rule="evenodd" d="M591.41 178.867C591.41 180.577 591.14 181.852 590.601 182.69C590.34 183.103 589.972 183.438 589.536 183.661C589.1 183.883 588.613 183.985 588.124 183.956C587.638 183.978 587.155 183.869 586.726 183.641C586.297 183.413 585.937 183.074 585.685 182.659C585.127 181.797 584.849 180.532 584.849 178.864C584.849 177.142 585.118 175.868 585.657 175.04C585.937 174.649 586.308 174.331 586.737 174.113C587.167 173.895 587.643 173.784 588.125 173.789C588.607 173.794 589.081 173.915 589.506 174.142C589.931 174.369 590.295 174.695 590.567 175.093C591.129 175.959 591.41 177.217 591.41 178.867ZM585.995 178.867C585.995 180.306 586.165 181.349 586.504 181.995C586.657 182.294 586.89 182.544 587.176 182.719C587.463 182.894 587.793 182.987 588.129 182.987C588.465 182.987 588.795 182.894 589.082 182.719C589.369 182.544 589.602 182.294 589.755 181.995C590.089 181.33 590.256 180.288 590.256 178.867C590.256 177.447 590.089 176.404 589.755 175.739C589.6 175.443 589.366 175.194 589.08 175.021C588.793 174.847 588.464 174.755 588.129 174.755C587.794 174.755 587.465 174.847 587.179 175.021C586.892 175.194 586.659 175.443 586.504 175.739C586.166 176.386 585.995 177.432 585.995 178.867ZM580.643 178.478H583.43V179.409H580.643V182.287H579.699V179.409H576.911V178.478H579.699V175.583H580.643V178.478ZM593.337 182.412C593.186 182.611 593.112 182.858 593.131 183.107C593.121 183.232 593.135 183.357 593.174 183.476C593.213 183.595 593.275 183.705 593.358 183.799C593.524 183.94 593.736 184.016 593.955 184.012C594.173 184.007 594.382 183.923 594.542 183.775C594.687 183.577 594.766 183.338 594.766 183.094C594.766 182.849 594.687 182.61 594.542 182.412C594.462 182.333 594.366 182.271 594.261 182.231C594.155 182.191 594.042 182.173 593.929 182.179C593.819 182.173 593.71 182.191 593.608 182.231C593.505 182.272 593.413 182.333 593.337 182.412ZM599.751 173.8C600.519 173.758 601.278 173.98 601.901 174.429C602.162 174.635 602.37 174.9 602.508 175.202C602.645 175.504 602.709 175.835 602.692 176.167C602.694 176.649 602.535 177.119 602.239 177.501C601.845 177.971 601.35 178.345 600.79 178.596C601.442 178.869 602.027 179.281 602.504 179.802C602.84 180.215 603.02 180.733 603.013 181.265C603.027 181.636 602.957 182.006 602.808 182.346C602.659 182.686 602.435 182.988 602.152 183.229C601.481 183.75 600.643 184.011 599.793 183.962C598.734 183.962 597.921 183.731 597.354 183.267C597.068 183.03 596.842 182.729 596.694 182.388C596.545 182.048 596.479 181.678 596.5 181.307C596.5 180.174 597.192 179.292 598.574 178.662C598.043 178.393 597.583 178.002 597.232 177.522C596.961 177.118 596.819 176.642 596.824 176.156C596.812 175.828 596.878 175.502 597.016 175.205C597.154 174.907 597.361 174.646 597.619 174.443C598.234 173.988 598.987 173.761 599.751 173.8ZM597.612 181.328C597.6 181.568 597.645 181.808 597.743 182.028C597.841 182.247 597.989 182.441 598.176 182.593C598.638 182.921 599.199 183.081 599.765 183.045C600.329 183.079 600.886 182.912 601.337 182.572C601.524 182.414 601.672 182.214 601.77 181.989C601.868 181.765 601.913 181.521 601.901 181.276C601.899 181.055 601.851 180.837 601.76 180.636C601.669 180.435 601.536 180.255 601.372 180.108C600.828 179.66 600.202 179.324 599.528 179.117C598.976 179.325 598.476 179.653 598.065 180.077C597.763 180.423 597.601 180.869 597.612 181.328ZM599.738 174.724C599.26 174.696 598.789 174.841 598.41 175.131C598.253 175.263 598.128 175.429 598.044 175.616C597.961 175.803 597.922 176.007 597.929 176.212C597.92 176.606 598.063 176.988 598.33 177.279C598.753 177.678 599.256 177.983 599.807 178.172C600.323 177.987 600.791 177.689 601.177 177.3C601.444 177.001 601.588 176.612 601.581 176.212C601.589 176.005 601.549 175.8 601.464 175.611C601.378 175.423 601.25 175.257 601.089 175.127C600.701 174.836 600.223 174.688 599.738 174.71V174.724ZM609.912 181.557H611.386L611.383 180.539H609.912V173.893H608.721L604.017 180.577V181.557H608.835V183.83H609.912V181.557ZM608.839 177.254V180.539H605.16L608.257 176.146C608.482 175.799 608.685 175.439 608.867 175.068H608.909C608.863 175.882 608.839 176.608 608.839 177.254Z" fill="#00FFFF"/>
</g>
<g style="mix-blend-mode:screen">
<path fill-rule="evenodd" clip-rule="evenodd" d="M522.104 315.878C522.104 317.584 521.835 318.858 521.296 319.702C521.019 320.095 520.65 320.416 520.221 320.636C519.792 320.857 519.316 320.97 518.834 320.968C518.352 320.965 517.877 320.846 517.451 320.621C517.025 320.395 516.66 320.07 516.387 319.674C515.829 318.807 515.55 317.542 515.55 315.878C515.55 314.154 515.82 312.88 516.359 312.055C516.639 311.664 517.009 311.345 517.439 311.128C517.869 310.91 518.345 310.799 518.827 310.804C519.309 310.809 519.783 310.93 520.208 311.157C520.633 311.384 520.997 311.71 521.268 312.107C521.826 312.974 522.104 314.231 522.104 315.878ZM516.69 315.878C516.69 317.315 516.859 318.358 517.198 319.006C517.352 319.305 517.584 319.556 517.871 319.731C518.158 319.906 518.488 319.998 518.824 319.998C519.16 319.998 519.49 319.906 519.777 319.731C520.063 319.556 520.296 319.305 520.449 319.006C520.784 318.344 520.951 317.301 520.951 315.878C520.951 314.456 520.784 313.413 520.449 312.75C520.295 312.454 520.061 312.205 519.775 312.032C519.488 311.858 519.159 311.767 518.824 311.767C518.489 311.767 518.16 311.858 517.873 312.032C517.587 312.205 517.353 312.454 517.198 312.75C516.878 313.397 516.704 314.439 516.704 315.878H516.69ZM510.979 317.634V316.591H514.306V317.634H510.979ZM524.052 319.42C523.899 319.618 523.826 319.866 523.846 320.115C523.835 320.241 523.849 320.368 523.888 320.488C523.927 320.608 523.989 320.719 524.073 320.814C524.239 320.955 524.451 321.031 524.67 321.026C524.888 321.022 525.097 320.938 525.257 320.79C525.416 320.602 525.496 320.36 525.48 320.115C525.491 319.99 525.477 319.865 525.439 319.745C525.401 319.626 525.339 319.515 525.257 319.42C525.178 319.339 525.082 319.276 524.976 319.236C524.871 319.195 524.757 319.177 524.644 319.184C524.534 319.177 524.424 319.195 524.322 319.236C524.219 319.277 524.127 319.34 524.052 319.42ZM531.348 320.831H530.251V313.789C530.251 313.202 530.251 312.649 530.303 312.125C530.209 312.218 530.104 312.319 529.986 312.424C529.868 312.528 529.331 312.966 528.373 313.741L527.777 312.969L530.401 310.95H531.348V320.831ZM540.871 319.702C541.413 318.858 541.683 317.584 541.683 315.878C541.683 314.231 541.404 312.974 540.847 312.107C540.575 311.71 540.211 311.384 539.785 311.157C539.36 310.93 538.886 310.809 538.404 310.804C537.922 310.799 537.445 310.91 537.015 311.128C536.585 311.346 536.214 311.664 535.934 312.055C535.397 312.88 535.129 314.154 535.129 315.878C535.129 317.542 535.407 318.807 535.962 319.674C536.235 320.07 536.6 320.395 537.026 320.621C537.452 320.846 537.927 320.965 538.409 320.968C538.892 320.971 539.367 320.857 539.796 320.636C540.225 320.416 540.594 320.095 540.871 319.702ZM536.777 319.007C536.436 318.36 536.268 317.314 536.268 315.878C536.268 314.439 536.436 313.397 536.777 312.75C536.931 312.454 537.164 312.205 537.451 312.031C537.737 311.858 538.066 311.766 538.401 311.766C538.736 311.766 539.065 311.858 539.351 312.031C539.637 312.205 539.87 312.454 540.025 312.75C540.359 313.413 540.527 314.456 540.53 315.878C540.532 317.301 540.364 318.344 540.025 319.007C539.872 319.305 539.64 319.556 539.353 319.731C539.066 319.906 538.737 319.999 538.401 319.999C538.065 319.999 537.735 319.906 537.449 319.731C537.162 319.556 536.93 319.305 536.777 319.007Z" fill="#00FFFF" fill-opacity="0.4"/>
</g>
<g style="mix-blend-mode:screen">
<path fill-rule="evenodd" clip-rule="evenodd" d="M34.2307 343.986C34.7697 343.143 35.0391 341.868 35.0391 340.163C35.0391 338.513 34.758 337.256 34.1959 336.392C33.9251 335.994 33.5617 335.667 33.1368 335.439C32.7119 335.211 32.238 335.09 31.7557 335.084C31.2733 335.079 30.7968 335.19 30.3668 335.408C29.9368 335.626 29.5661 335.944 29.2864 336.336C28.7498 337.166 28.4815 338.44 28.4815 340.16C28.4791 341.828 28.7567 343.093 29.3142 343.955C29.5673 344.369 29.9272 344.707 30.3563 344.935C30.7854 345.162 31.2679 345.27 31.7533 345.248C32.2416 345.278 32.7289 345.176 33.1646 344.954C33.6002 344.732 33.9684 344.398 34.2307 343.986ZM30.1331 343.291C29.7939 342.645 29.6243 341.602 29.6243 340.163C29.6267 338.726 29.7962 337.684 30.1331 337.035C30.2879 336.738 30.5214 336.49 30.808 336.316C31.0946 336.143 31.4233 336.051 31.7585 336.051C32.0937 336.051 32.4225 336.143 32.7091 336.316C32.9957 336.49 33.2291 336.738 33.384 337.035C33.7185 337.702 33.8893 338.742 33.8893 340.163C33.8893 341.585 33.7325 342.627 33.384 343.291C33.2309 343.59 32.9981 343.84 32.7113 344.015C32.4245 344.19 32.0948 344.283 31.7585 344.283C31.4223 344.283 31.0926 344.19 30.8058 344.015C30.519 343.84 30.2862 343.59 30.1331 343.291ZM15.4706 340.163C15.4706 341.868 15.2012 343.143 14.6622 343.986C14.3839 344.379 14.0146 344.699 13.5858 344.918C13.157 345.138 12.6813 345.251 12.1993 345.248C11.7172 345.245 11.243 345.126 10.8171 344.901C10.3911 344.676 10.026 344.351 9.7527 343.955C9.19752 343.093 8.91992 341.828 8.91992 340.16C8.91992 338.44 9.18822 337.166 9.72482 336.336C10.0046 335.944 10.3753 335.626 10.8053 335.408C11.2353 335.19 11.7118 335.079 12.1942 335.084C12.6765 335.09 13.1504 335.211 13.5753 335.439C14.0002 335.667 14.3636 335.994 14.6344 336.392C15.1988 337.268 15.4706 338.512 15.4706 340.163ZM10.0593 340.163C10.0593 341.602 10.2277 342.645 10.5646 343.291C10.7177 343.59 10.9505 343.84 11.2373 344.015C11.5241 344.19 11.8538 344.283 12.19 344.283C12.5263 344.283 12.856 344.19 13.1428 344.015C13.4296 343.84 13.6624 343.59 13.8155 343.291C14.164 342.627 14.3208 341.585 14.3208 340.163C14.3208 338.742 14.15 337.702 13.8155 337.035C13.6607 336.738 13.4272 336.49 13.1406 336.316C12.854 336.143 12.5253 336.051 12.19 336.051C11.8548 336.051 11.526 336.143 11.2394 336.316C10.9529 336.49 10.7194 336.738 10.5646 337.035C10.2301 337.684 10.0628 338.726 10.0628 340.163H10.0593ZM4.721 339.77H7.50854V340.705H4.721V343.583H3.78021V340.705H0.992676V339.77H3.78021V336.878H4.721V339.77ZM17.4219 343.705C17.2675 343.902 17.1929 344.15 17.2128 344.4C17.2005 344.526 17.2146 344.654 17.2542 344.775C17.2937 344.896 17.358 345.007 17.4428 345.102C17.6084 345.243 17.8203 345.319 18.038 345.314C18.2558 345.31 18.4643 345.225 18.624 345.078C18.7839 344.889 18.8639 344.646 18.847 344.4C18.8672 344.149 18.7885 343.899 18.6275 343.705C18.5477 343.625 18.4517 343.563 18.346 343.522C18.2402 343.482 18.1272 343.465 18.0142 343.472C17.9044 343.464 17.7942 343.481 17.6918 343.522C17.5893 343.562 17.4971 343.625 17.4219 343.705ZM27.049 345.119H20.5366V344.15L23.1465 341.536C23.7045 340.996 24.2292 340.422 24.7179 339.819C24.9504 339.511 25.1425 339.175 25.2894 338.818C25.4162 338.485 25.4799 338.131 25.4775 337.775C25.4894 337.544 25.4527 337.313 25.3699 337.097C25.2871 336.881 25.16 336.685 24.9967 336.521C24.8158 336.36 24.6047 336.236 24.3757 336.157C24.1466 336.077 23.9042 336.044 23.6622 336.058C23.263 336.056 22.8666 336.124 22.4914 336.26C22.0465 336.442 21.6318 336.691 21.2614 336.997L20.6655 336.232C21.4902 335.507 22.5492 335.104 23.6482 335.096C24.4422 335.049 25.2244 335.305 25.8364 335.812C26.102 336.053 26.311 336.349 26.4483 336.68C26.5856 337.012 26.648 337.369 26.6309 337.727C26.6217 338.382 26.439 339.024 26.1012 339.586C25.5441 340.443 24.879 341.224 24.1221 341.911L21.9548 344.025V344.08H27.049V345.119Z" fill="#00FFFF"/>
</g>
<g style="mix-blend-mode:screen">
<path fill-rule="evenodd" clip-rule="evenodd" d="M430.465 233.47C431.232 233.43 431.991 233.652 432.615 234.099C432.875 234.306 433.082 234.571 433.219 234.873C433.357 235.175 433.421 235.506 433.406 235.837C433.408 236.319 433.249 236.787 432.953 237.168C432.561 237.64 432.065 238.014 431.503 238.263C432.155 238.538 432.739 238.949 433.217 239.469C433.553 239.883 433.733 240.4 433.726 240.932C433.741 241.303 433.671 241.673 433.522 242.013C433.373 242.353 433.148 242.655 432.866 242.896C432.194 243.417 431.356 243.678 430.507 243.63C429.447 243.63 428.634 243.398 428.068 242.934C427.782 242.696 427.555 242.395 427.407 242.054C427.259 241.713 427.193 241.342 427.214 240.971C427.214 239.842 427.911 238.962 429.304 238.329C428.774 238.059 428.315 237.668 427.963 237.189C427.693 236.784 427.551 236.307 427.555 235.82C427.543 235.492 427.609 235.166 427.747 234.868C427.885 234.57 428.092 234.309 428.35 234.106C428.961 233.66 429.708 233.435 430.465 233.47ZM428.325 241.002C428.314 241.242 428.359 241.482 428.457 241.702C428.555 241.921 428.703 242.115 428.89 242.267C429.353 242.593 429.913 242.753 430.479 242.719C431.042 242.752 431.599 242.584 432.05 242.246C432.238 242.087 432.386 241.887 432.484 241.662C432.582 241.436 432.627 241.192 432.615 240.946C432.612 240.726 432.564 240.509 432.473 240.308C432.382 240.108 432.25 239.929 432.085 239.782C431.542 239.334 430.916 238.997 430.242 238.791C429.69 239 429.19 239.326 428.778 239.747C428.478 240.092 428.315 240.535 428.322 240.991L428.325 241.002ZM430.451 234.398C429.974 234.37 429.502 234.515 429.123 234.805C428.965 234.936 428.84 235.102 428.757 235.289C428.673 235.477 428.634 235.681 428.642 235.886C428.635 236.279 428.778 236.661 429.043 236.953C429.468 237.35 429.971 237.654 430.521 237.846C431.036 237.659 431.504 237.361 431.89 236.974C432.156 236.674 432.3 236.286 432.294 235.886C432.302 235.679 432.262 235.474 432.177 235.285C432.092 235.097 431.964 234.931 431.803 234.801C431.418 234.514 430.945 234.368 430.465 234.388L430.451 234.398ZM422.119 238.558C422.119 240.266 421.85 241.541 421.311 242.382C421.049 242.794 420.68 243.128 420.245 243.35C419.809 243.572 419.322 243.673 418.834 243.643C418.348 243.666 417.866 243.557 417.436 243.33C417.007 243.103 416.647 242.764 416.394 242.35C415.837 241.488 415.558 240.223 415.558 238.555C415.558 236.836 415.828 235.561 416.367 234.732C416.646 234.34 417.017 234.021 417.447 233.803C417.877 233.585 418.353 233.474 418.836 233.479C419.318 233.485 419.792 233.607 420.217 233.834C420.642 234.062 421.005 234.389 421.276 234.787C421.838 235.64 422.119 236.897 422.119 238.558ZM416.704 238.558C416.704 239.994 416.875 241.044 417.213 241.687C417.366 241.985 417.599 242.236 417.886 242.411C418.173 242.586 418.502 242.678 418.839 242.678C419.175 242.678 419.505 242.586 419.791 242.411C420.078 242.236 420.311 241.985 420.464 241.687C420.799 241.024 420.966 239.981 420.966 238.558C420.966 237.14 420.799 236.098 420.464 235.43C420.309 235.134 420.076 234.885 419.789 234.712C419.503 234.538 419.174 234.447 418.839 234.447C418.503 234.447 418.175 234.538 417.888 234.712C417.602 234.885 417.368 235.134 417.213 235.43C416.876 236.068 416.707 237.11 416.704 238.558ZM411.367 238.148H414.154V239.083H411.367V241.961H410.422V239.083H407.635V238.148H410.422V235.257H411.367V238.148ZM424.05 242.083C423.898 242.281 423.825 242.529 423.844 242.778C423.834 242.903 423.849 243.028 423.889 243.147C423.928 243.266 423.991 243.375 424.074 243.47C424.231 243.612 424.437 243.688 424.649 243.682C424.762 243.687 424.874 243.668 424.979 243.628C425.084 243.587 425.18 243.525 425.259 243.445C425.403 243.247 425.48 243.009 425.48 242.764C425.48 242.519 425.403 242.281 425.259 242.083C425.179 242.003 425.083 241.941 424.977 241.901C424.872 241.861 424.759 241.844 424.646 241.85C424.535 241.843 424.425 241.86 424.322 241.9C424.219 241.941 424.126 242.003 424.05 242.083ZM440.496 234.648L436.388 243.497L437.635 243.49L441.688 234.506V233.606H435.095V234.648H440.496Z" fill="#00FFFF" fill-opacity="0.6"/>
</g>
<g style="mix-blend-mode:screen">
<path fill-rule="evenodd" clip-rule="evenodd" d="M85.0395 261.547C85.8073 261.504 86.5663 261.726 87.1894 262.176C87.4504 262.382 87.6583 262.647 87.7959 262.949C87.9335 263.251 87.9967 263.582 87.9804 263.914C87.9823 264.395 87.8229 264.864 87.5274 265.245C87.1334 265.714 86.6378 266.089 86.0779 266.34C86.7303 266.613 87.3152 267.024 87.7922 267.546C88.128 267.959 88.308 268.477 88.3009 269.009C88.3152 269.38 88.2452 269.749 88.0962 270.089C87.9471 270.429 87.7229 270.731 87.4403 270.973C86.7691 271.494 85.9308 271.755 85.0814 271.706C84.036 271.706 83.2102 271.477 82.6423 271.011C82.3562 270.773 82.1299 270.471 81.9817 270.13C81.8335 269.789 81.7673 269.418 81.7886 269.047C81.7886 267.914 82.4854 267.032 83.8792 266.402C83.3497 266.132 82.8904 265.743 82.5377 265.266C82.2675 264.86 82.1255 264.383 82.1301 263.896C82.1185 263.568 82.1846 263.242 82.3233 262.944C82.462 262.646 82.6691 262.386 82.928 262.183C83.5373 261.734 84.2832 261.51 85.0395 261.547ZM82.9001 269.078C82.8883 269.318 82.9333 269.557 83.0314 269.777C83.1294 269.996 83.2778 270.189 83.4646 270.34C83.9263 270.669 84.4872 270.83 85.0534 270.795C85.6175 270.83 86.1752 270.661 86.6249 270.319C86.8123 270.161 86.9607 269.962 87.0586 269.737C87.1565 269.512 87.2012 269.268 87.1894 269.023C87.1872 268.803 87.139 268.585 87.0478 268.385C86.9566 268.184 86.8245 268.005 86.6598 267.859C86.1166 267.411 85.4902 267.074 84.8165 266.868C84.2639 267.075 83.7641 267.401 83.3531 267.824C83.0508 268.171 82.8894 268.619 82.9001 269.078ZM85.0256 262.475C84.5491 262.447 84.0784 262.59 83.698 262.878C83.5408 263.01 83.4158 263.176 83.3325 263.363C83.2491 263.55 83.2098 263.754 83.2172 263.959C83.2085 264.354 83.3519 264.737 83.6179 265.029C84.0429 265.425 84.5461 265.728 85.0953 265.919C85.6119 265.735 86.0808 265.438 86.4681 265.05C86.7322 264.748 86.8749 264.359 86.8689 263.959C86.878 263.752 86.8383 263.547 86.753 263.358C86.6676 263.17 86.539 263.004 86.3775 262.874C85.9895 262.582 85.5109 262.436 85.0256 262.461V262.475ZM76.6982 266.618C76.6982 268.323 76.4287 269.597 75.8898 270.441C75.6122 270.834 75.2433 271.155 74.8146 271.376C74.3859 271.596 73.9101 271.71 73.4277 271.707C72.9454 271.704 72.4709 271.585 72.0447 271.36C71.6185 271.135 71.2533 270.81 70.9803 270.413C70.4227 269.546 70.1452 268.281 70.1475 266.618C70.1475 264.894 70.4158 263.619 70.9524 262.794C71.2321 262.402 71.6029 262.084 72.0329 261.866C72.4628 261.648 72.9393 261.537 73.4217 261.542C73.904 261.548 74.3779 261.669 74.8028 261.897C75.2277 262.125 75.5911 262.452 75.8619 262.85C76.4194 263.712 76.6982 264.968 76.6982 266.618ZM71.2834 266.618C71.2834 268.054 71.453 269.097 71.7921 269.746C71.9452 270.044 72.1781 270.295 72.4649 270.47C72.7517 270.645 73.0814 270.738 73.4176 270.738C73.7538 270.738 74.0835 270.645 74.3703 270.47C74.6571 270.295 74.8899 270.044 75.0431 269.746C75.3915 269.082 75.5483 268.039 75.5483 266.618C75.5483 265.196 75.3776 264.157 75.0431 263.489C74.8882 263.193 74.6548 262.944 74.3682 262.771C74.0816 262.598 73.7528 262.506 73.4176 262.506C73.0824 262.506 72.7536 262.598 72.467 262.771C72.1804 262.944 71.947 263.193 71.7921 263.489C71.4541 264.136 71.2834 265.179 71.2834 266.618ZM65.9451 266.225H68.7326V267.156H65.9451V270.038H65.0043V267.156H62.2168V266.225H65.0043V263.33H65.9451V266.225ZM78.6285 270.159C78.4732 270.356 78.3985 270.605 78.4195 270.854C78.4095 270.979 78.4248 271.104 78.4643 271.222C78.5038 271.34 78.5667 271.449 78.6494 271.543C78.8054 271.687 79.0118 271.764 79.2244 271.758C79.337 271.764 79.4495 271.746 79.5546 271.705C79.6596 271.664 79.7549 271.602 79.8341 271.522C79.9781 271.324 80.0556 271.085 80.0556 270.841C80.0556 270.596 79.9781 270.357 79.8341 270.159C79.7543 270.079 79.6584 270.017 79.5526 269.977C79.4469 269.937 79.3338 269.92 79.2209 269.927C79.111 269.919 79.0009 269.936 78.8984 269.976C78.796 270.017 78.7038 270.079 78.6285 270.159ZM95.2071 269.301H96.6776V268.286H95.2071V261.641H94.012L89.3115 268.328V269.308H94.127V271.577H95.2071V269.301ZM94.127 264.995V268.279H90.4335L93.5311 263.886C93.7565 263.541 93.9602 263.182 94.1409 262.812H94.1966C94.1502 263.621 94.127 264.348 94.127 264.995Z" fill="#00FFFF"/>
</g>
<g style="mix-blend-mode:screen">
<path fill-rule="evenodd" clip-rule="evenodd" d="M298.639 223.829C298.015 223.382 297.256 223.162 296.489 223.203C295.726 223.164 294.973 223.389 294.357 223.839C294.099 224.042 293.892 224.303 293.754 224.601C293.616 224.899 293.55 225.225 293.562 225.552C293.556 226.04 293.699 226.517 293.97 226.922C294.321 227.402 294.78 227.793 295.311 228.062C293.929 228.694 293.238 229.575 293.238 230.703C293.217 231.074 293.283 231.445 293.431 231.786C293.58 232.127 293.806 232.429 294.092 232.667C294.659 233.131 295.472 233.362 296.531 233.362C297.38 233.409 298.218 233.149 298.89 232.629C299.173 232.387 299.397 232.085 299.546 231.745C299.695 231.405 299.765 231.036 299.751 230.665C299.758 230.133 299.578 229.615 299.242 229.202C298.764 228.681 298.179 228.268 297.528 227.992C298.089 227.744 298.585 227.369 298.977 226.897C299.273 226.517 299.432 226.048 299.43 225.566C299.445 225.235 299.381 224.905 299.243 224.603C299.106 224.301 298.899 224.036 298.639 223.829ZM294.481 231.431C294.383 231.211 294.338 230.971 294.35 230.731C294.34 230.271 294.501 229.824 294.803 229.476C295.215 229.055 295.714 228.729 296.266 228.521C296.94 228.727 297.566 229.063 298.109 229.511C298.274 229.658 298.406 229.838 298.498 230.04C298.589 230.241 298.637 230.458 298.639 230.679C298.651 230.924 298.606 231.168 298.508 231.393C298.41 231.617 298.262 231.817 298.075 231.975C297.624 232.315 297.067 232.483 296.503 232.448C295.937 232.484 295.376 232.324 294.914 231.996C294.727 231.844 294.579 231.651 294.481 231.431ZM295.148 224.534C295.527 224.244 295.998 224.099 296.475 224.127V224.113C296.961 224.092 297.439 224.239 297.827 224.531C297.988 224.661 298.116 224.827 298.201 225.015C298.287 225.203 298.327 225.409 298.319 225.615C298.325 226.015 298.181 226.403 297.914 226.703C297.529 227.092 297.061 227.39 296.545 227.575C295.995 227.385 295.491 227.08 295.068 226.682C294.802 226.391 294.658 226.009 294.667 225.615C294.659 225.41 294.698 225.206 294.781 225.019C294.865 224.831 294.99 224.666 295.148 224.534ZM280.157 233.227H273.645V232.26L276.255 229.643C276.812 229.102 277.337 228.529 277.826 227.926C278.061 227.62 278.252 227.283 278.394 226.925C278.524 226.593 278.589 226.239 278.586 225.883C278.598 225.652 278.561 225.421 278.478 225.205C278.396 224.989 278.268 224.792 278.105 224.628C277.924 224.467 277.713 224.343 277.484 224.264C277.255 224.185 277.013 224.151 276.771 224.166C276.371 224.163 275.975 224.231 275.6 224.367C275.155 224.549 274.74 224.797 274.37 225.104L273.774 224.339C274.6 223.617 275.658 223.215 276.757 223.206C277.548 223.154 278.33 223.402 278.945 223.902C279.21 224.143 279.418 224.44 279.555 224.771C279.692 225.102 279.753 225.459 279.736 225.817C279.729 226.472 279.547 227.114 279.21 227.676C278.653 228.533 277.987 229.314 277.23 230.001L275.063 232.118V232.17H280.157V233.227ZM269.457 227.878H272.244V228.827H269.457V231.704H268.516V228.827H265.729V227.892H268.516V225.003H269.457V227.878ZM282.14 231.816C281.987 232.014 281.914 232.262 281.935 232.511C281.922 232.637 281.936 232.763 281.975 232.884C282.014 233.004 282.077 233.115 282.161 233.209C282.327 233.351 282.539 233.426 282.756 233.421C282.974 233.417 283.183 233.333 283.342 233.185C283.502 232.998 283.582 232.756 283.565 232.511C283.585 232.26 283.507 232.01 283.346 231.816C283.266 231.736 283.17 231.674 283.064 231.633C282.959 231.593 282.846 231.576 282.733 231.583C282.623 231.576 282.513 231.593 282.41 231.633C282.308 231.673 282.216 231.736 282.14 231.816ZM291.785 227.561C291.785 231.426 290.286 233.36 287.287 233.362C286.867 233.375 286.447 233.329 286.039 233.227V232.261C286.439 232.381 286.855 232.44 287.273 232.434C288.358 232.434 289.171 232.1 289.712 231.43C290.266 230.763 290.566 229.737 290.618 228.354H290.534C290.289 228.723 289.946 229.019 289.545 229.209C289.108 229.41 288.632 229.51 288.151 229.501C287.767 229.521 287.383 229.462 287.024 229.328C286.664 229.193 286.336 228.986 286.06 228.719C285.791 228.423 285.584 228.077 285.452 227.7C285.319 227.324 285.263 226.924 285.287 226.526C285.263 226.083 285.327 225.641 285.475 225.223C285.624 224.806 285.853 224.421 286.151 224.093C286.687 223.593 287.375 223.286 288.106 223.218C288.837 223.15 289.569 223.325 290.189 223.717C290.718 224.094 291.123 224.619 291.353 225.226C291.647 225.969 291.793 226.762 291.785 227.561ZM288.454 224.162C288.173 224.145 287.892 224.192 287.633 224.3C287.373 224.408 287.141 224.574 286.956 224.784C286.575 225.281 286.387 225.898 286.426 226.522C286.395 227.074 286.569 227.619 286.914 228.052C287.105 228.248 287.337 228.4 287.593 228.497C287.85 228.593 288.125 228.632 288.398 228.611C288.791 228.614 289.179 228.528 289.534 228.361C289.863 228.205 290.144 227.965 290.35 227.666C290.54 227.402 290.645 227.087 290.649 226.762C290.653 226.309 290.558 225.861 290.37 225.448C290.203 225.068 289.934 224.741 289.593 224.503C289.259 224.274 288.86 224.155 288.454 224.162Z" fill="#00FFFF" fill-opacity="0.8"/>
</g>
<g style="mix-blend-mode:screen">
<path fill-rule="evenodd" clip-rule="evenodd" d="M129.638 295.143C129.638 296.853 129.368 298.127 128.829 298.966C128.567 299.378 128.199 299.713 127.764 299.935C127.328 300.158 126.841 300.26 126.352 300.231C125.866 300.253 125.384 300.144 124.955 299.916C124.526 299.688 124.166 299.349 123.913 298.934C123.355 298.073 123.077 296.807 123.077 295.139C123.077 293.417 123.346 292.143 123.885 291.316C124.165 290.924 124.536 290.606 124.965 290.388C125.395 290.17 125.871 290.059 126.353 290.064C126.836 290.069 127.309 290.191 127.734 290.418C128.159 290.645 128.523 290.971 128.795 291.368C129.357 292.235 129.638 293.493 129.638 295.143ZM124.223 295.143C124.223 296.581 124.393 297.624 124.732 298.271C124.884 298.569 125.117 298.82 125.403 298.995C125.69 299.17 126.019 299.263 126.356 299.263C126.692 299.263 127.021 299.17 127.308 298.995C127.594 298.82 127.827 298.569 127.979 298.271C128.328 297.603 128.484 296.564 128.484 295.143C128.484 293.721 128.317 292.685 127.979 292.014C127.825 291.718 127.592 291.469 127.306 291.295C127.019 291.122 126.691 291.03 126.356 291.03C126.02 291.03 125.692 291.122 125.406 291.295C125.119 291.469 124.886 291.718 124.732 292.014C124.394 292.661 124.223 293.707 124.223 295.143ZM118.498 296.901V295.859H121.826V296.901H118.498ZM131.565 298.688C131.413 298.887 131.34 299.134 131.359 299.383C131.347 299.509 131.361 299.635 131.4 299.755C131.439 299.875 131.502 299.986 131.585 300.081C131.74 300.224 131.946 300.301 132.157 300.294C132.27 300.3 132.382 300.283 132.488 300.242C132.593 300.201 132.688 300.138 132.767 300.057C132.928 299.871 133.009 299.629 132.993 299.383C133.014 299.131 132.933 298.881 132.77 298.688C132.69 298.608 132.594 298.546 132.488 298.506C132.383 298.466 132.27 298.449 132.157 298.455C132.047 298.449 131.937 298.467 131.835 298.507C131.733 298.547 131.641 298.609 131.565 298.688ZM140.84 292.543C140.863 293.107 140.672 293.658 140.307 294.089C139.906 294.515 139.376 294.797 138.798 294.892V294.948C139.459 294.985 140.086 295.253 140.568 295.705C140.963 296.141 141.17 296.714 141.143 297.301C141.166 297.715 141.089 298.129 140.918 298.507C140.747 298.885 140.487 299.216 140.161 299.473C139.505 299.981 138.576 300.234 137.373 300.234C136.891 300.237 136.409 300.197 135.934 300.116C135.493 300.035 135.065 299.894 134.662 299.699V298.632C135.099 298.846 135.56 299.008 136.035 299.115C136.492 299.223 136.959 299.277 137.429 299.279C139.138 299.279 139.994 298.61 139.997 297.273C139.997 296.075 139.052 295.476 137.164 295.476H136.188V294.517H137.178C137.829 294.553 138.474 294.374 139.014 294.009C139.234 293.846 139.41 293.631 139.528 293.384C139.646 293.137 139.702 292.865 139.69 292.591C139.701 292.376 139.662 292.162 139.575 291.965C139.489 291.767 139.357 291.593 139.192 291.455C138.804 291.162 138.325 291.017 137.84 291.045C137.425 291.043 137.012 291.101 136.613 291.218C136.148 291.376 135.707 291.594 135.3 291.868L134.732 291.111C135.151 290.783 135.622 290.528 136.126 290.356C136.667 290.174 137.234 290.083 137.805 290.085C138.606 290.036 139.399 290.268 140.046 290.742C140.307 290.961 140.515 291.238 140.653 291.55C140.791 291.862 140.855 292.202 140.84 292.543ZM148.391 298.966C148.932 298.127 149.203 296.853 149.203 295.142C149.203 293.493 148.924 292.236 148.366 291.371C148.095 290.974 147.731 290.648 147.306 290.421C146.881 290.194 146.407 290.073 145.925 290.068C145.443 290.063 144.967 290.174 144.537 290.392C144.107 290.61 143.737 290.928 143.457 291.319C142.92 292.146 142.652 293.421 142.652 295.142C142.652 296.811 142.928 298.075 143.481 298.934C143.754 299.331 144.119 299.656 144.545 299.882C144.971 300.108 145.445 300.227 145.928 300.23C146.41 300.233 146.886 300.12 147.315 299.9C147.744 299.679 148.113 299.359 148.391 298.966ZM144.296 298.271C143.955 297.628 143.788 296.581 143.788 295.142C143.788 293.707 143.955 292.661 144.296 292.014C144.451 291.718 144.684 291.469 144.97 291.295C145.257 291.122 145.585 291.03 145.92 291.03C146.255 291.03 146.584 291.122 146.87 291.295C147.157 291.469 147.39 291.718 147.544 292.014C147.882 292.685 148.049 293.721 148.049 295.142C148.049 296.564 147.892 297.603 147.544 298.271C147.391 298.569 147.159 298.82 146.872 298.995C146.586 299.17 146.256 299.263 145.92 299.263C145.584 299.263 145.255 299.17 144.968 298.995C144.682 298.82 144.449 298.569 144.296 298.271Z" fill="#00FFFF"/>
</g>
<g style="mix-blend-mode:screen">
<path fill-rule="evenodd" clip-rule="evenodd" d="M186.904 369.32C187.671 369.279 188.43 369.501 189.054 369.95C189.313 370.156 189.521 370.422 189.658 370.724C189.796 371.026 189.859 371.356 189.844 371.687C189.847 372.169 189.687 372.638 189.392 373.019C189 373.487 188.507 373.86 187.949 374.11C188.601 374.385 189.185 374.796 189.663 375.316C189.999 375.73 190.179 376.247 190.172 376.779C190.186 377.15 190.116 377.519 189.967 377.86C189.818 378.2 189.594 378.502 189.311 378.743C188.64 379.264 187.802 379.525 186.952 379.476C185.893 379.476 185.08 379.245 184.513 378.781C184.227 378.543 184.001 378.241 183.853 377.9C183.705 377.559 183.638 377.189 183.66 376.818C183.66 375.684 184.351 374.804 185.733 374.176C185.203 373.905 184.744 373.515 184.391 373.036C184.121 372.63 183.979 372.153 183.984 371.667C183.972 371.339 184.037 371.013 184.175 370.715C184.313 370.417 184.52 370.156 184.778 369.953C185.392 369.504 186.143 369.281 186.904 369.32ZM184.764 376.852C184.752 377.092 184.797 377.331 184.895 377.55C184.993 377.77 185.142 377.963 185.329 378.114C185.79 378.443 186.351 378.604 186.918 378.569C187.481 378.602 188.038 378.435 188.489 378.097C188.676 377.937 188.824 377.737 188.922 377.512C189.02 377.286 189.065 377.042 189.054 376.797C189.051 376.576 189.003 376.359 188.912 376.159C188.821 375.958 188.689 375.779 188.524 375.632C187.981 375.184 187.354 374.848 186.681 374.642C186.129 374.85 185.629 375.176 185.217 375.598C184.914 375.944 184.751 376.392 184.761 376.852H184.764ZM186.89 370.248C186.413 370.221 185.943 370.364 185.562 370.652C185.404 370.784 185.279 370.95 185.196 371.138C185.112 371.326 185.073 371.531 185.081 371.736C185.074 372.13 185.217 372.511 185.482 372.803C185.907 373.2 186.41 373.504 186.959 373.696C187.475 373.51 187.942 373.212 188.329 372.824C188.595 372.524 188.739 372.136 188.733 371.736C188.741 371.529 188.7 371.323 188.615 371.135C188.53 370.946 188.402 370.779 188.242 370.648C187.857 370.359 187.384 370.213 186.904 370.235L186.89 370.248ZM178.503 379.344H171.991V378.378L174.601 375.764C175.16 375.225 175.684 374.652 176.172 374.047C176.406 373.74 176.598 373.404 176.743 373.046C176.87 372.713 176.934 372.36 176.932 372.004C176.943 371.773 176.907 371.543 176.824 371.327C176.741 371.112 176.614 370.916 176.451 370.752C176.27 370.591 176.059 370.467 175.83 370.387C175.601 370.307 175.359 370.273 175.116 370.287C174.718 370.285 174.323 370.354 173.949 370.492C173.503 370.671 173.087 370.92 172.719 371.229L172.12 370.464C172.945 369.74 174.003 369.336 175.102 369.327C175.896 369.282 176.677 369.536 177.291 370.04C177.555 370.282 177.764 370.58 177.901 370.911C178.038 371.243 178.101 371.6 178.085 371.958C178.076 372.614 177.893 373.256 177.555 373.818C176.999 374.675 176.334 375.457 175.576 376.143L173.409 378.256V378.312H178.503V379.344ZM167.419 376.147V375.104H170.747V376.147H167.419ZM180.489 377.933C180.337 378.132 180.264 378.379 180.284 378.628C180.271 378.754 180.285 378.881 180.324 379.001C180.363 379.121 180.426 379.232 180.51 379.327C180.676 379.469 180.888 379.546 181.106 379.542C181.325 379.538 181.535 379.454 181.695 379.306C181.853 379.117 181.933 378.874 181.918 378.628C181.928 378.504 181.914 378.378 181.876 378.259C181.838 378.139 181.776 378.029 181.695 377.933C181.615 377.853 181.519 377.791 181.413 377.751C181.308 377.711 181.195 377.693 181.082 377.7C180.972 377.694 180.862 377.711 180.76 377.751C180.657 377.791 180.565 377.854 180.489 377.933ZM193.556 379.48C196.554 379.48 198.054 377.547 198.054 373.682C198.068 372.884 197.926 372.091 197.636 371.347C197.409 370.739 197.005 370.214 196.476 369.838C195.954 369.488 195.337 369.307 194.709 369.32C194.289 369.303 193.87 369.374 193.478 369.528C193.087 369.681 192.732 369.915 192.437 370.214C192.138 370.542 191.908 370.926 191.76 371.344C191.612 371.761 191.548 372.204 191.573 372.647C191.549 373.045 191.604 373.444 191.737 373.82C191.87 374.196 192.077 374.542 192.346 374.836C192.622 375.104 192.95 375.312 193.309 375.447C193.669 375.582 194.053 375.642 194.437 375.622C194.918 375.631 195.395 375.53 195.831 375.326C196.234 375.139 196.577 374.843 196.82 374.471H196.904C196.852 375.855 196.552 376.88 195.998 377.551C195.445 378.22 194.626 378.555 193.542 378.555C193.124 378.562 192.707 378.502 192.308 378.378V379.344C192.716 379.447 193.135 379.492 193.556 379.48ZM193.899 370.42C194.158 370.312 194.439 370.264 194.719 370.28L194.733 370.287C195.135 370.278 195.53 370.395 195.862 370.62C196.202 370.86 196.47 371.186 196.639 371.566C196.826 371.977 196.92 372.424 196.915 372.876C196.912 373.202 196.809 373.519 196.618 373.783C196.413 374.084 196.13 374.324 195.8 374.478C195.446 374.647 195.059 374.733 194.667 374.729C194.394 374.751 194.119 374.712 193.863 374.616C193.606 374.52 193.374 374.368 193.183 374.172C192.836 373.739 192.662 373.193 192.695 372.64C192.655 372.016 192.842 371.399 193.221 370.902C193.408 370.692 193.64 370.528 193.899 370.42Z" fill="#00FFFF"/>
</g>
<g style="mix-blend-mode:screen">
<path fill-rule="evenodd" clip-rule="evenodd" d="M290.861 369.592H284.349V368.625L286.959 366.008C287.517 365.468 288.042 364.894 288.53 364.291C288.765 363.984 288.957 363.648 289.102 363.29C289.229 362.957 289.292 362.604 289.29 362.247C289.302 362.016 289.265 361.785 289.182 361.569C289.1 361.353 288.972 361.157 288.809 360.993C288.628 360.832 288.417 360.708 288.188 360.629C287.959 360.549 287.717 360.516 287.475 360.53C287.075 360.528 286.679 360.596 286.304 360.732C285.859 360.914 285.444 361.163 285.074 361.469L284.478 360.704C285.303 359.981 286.362 359.578 287.461 359.571C288.254 359.523 289.036 359.778 289.649 360.284C289.915 360.525 290.123 360.822 290.261 361.153C290.398 361.484 290.46 361.841 290.443 362.199C290.435 362.854 290.252 363.496 289.914 364.058C289.357 364.915 288.691 365.696 287.935 366.383L285.767 368.5V368.552H290.861V369.592ZM276.889 369.591H275.791V362.546C275.791 361.962 275.809 361.406 275.847 360.885C275.75 360.979 275.645 361.076 275.526 361.18C275.408 361.285 274.871 361.726 273.913 362.501L273.317 361.729L275.941 359.707H276.889V369.591ZM268.146 366.408V365.365H271.474V366.408H268.146ZM281.217 368.201C281.063 368.399 280.988 368.647 281.008 368.896C280.996 369.022 281.01 369.149 281.049 369.27C281.089 369.39 281.153 369.501 281.238 369.595C281.403 369.736 281.615 369.812 281.833 369.807C282.051 369.803 282.259 369.718 282.419 369.571C282.579 369.384 282.659 369.142 282.642 368.896C282.662 368.645 282.583 368.396 282.422 368.201C282.342 368.121 282.246 368.059 282.141 368.019C282.035 367.979 281.922 367.962 281.809 367.968C281.699 367.961 281.589 367.978 281.487 368.018C281.384 368.058 281.292 368.121 281.217 368.201ZM297.844 364.343C297.146 363.792 296.269 363.516 295.381 363.568C294.864 363.567 294.348 363.617 293.841 363.718L294.091 360.749H298.057V359.707H293.133L292.76 364.333L293.342 364.705C293.909 364.589 294.485 364.523 295.064 364.507C296.757 364.52 297.604 365.216 297.604 366.592C297.623 366.895 297.574 367.198 297.46 367.479C297.346 367.76 297.17 368.011 296.945 368.215C296.415 368.618 295.757 368.818 295.092 368.778C294.622 368.776 294.154 368.718 293.698 368.604C293.282 368.512 292.884 368.351 292.52 368.128V369.209C293.105 369.564 293.928 369.744 295.074 369.744C296.22 369.744 297.123 369.452 297.775 368.872C298.104 368.566 298.363 368.192 298.532 367.776C298.702 367.36 298.777 366.912 298.754 366.463C298.772 366.064 298.7 365.666 298.543 365.299C298.385 364.932 298.146 364.605 297.844 364.343Z" fill="#00FFFF" fill-opacity="0.8"/>
</g>
<g style="mix-blend-mode:screen">
<path fill-rule="evenodd" clip-rule="evenodd" d="M396.851 360.443C396.851 362.154 396.581 363.428 396.042 364.267C395.781 364.679 395.413 365.015 394.977 365.237C394.541 365.46 394.054 365.561 393.565 365.532C393.079 365.554 392.596 365.446 392.167 365.218C391.738 364.989 391.378 364.65 391.126 364.236C390.568 363.374 390.291 362.108 390.293 360.44C390.293 358.721 390.561 357.446 391.098 356.617C391.378 356.225 391.749 355.907 392.178 355.689C392.608 355.471 393.084 355.36 393.566 355.365C394.048 355.371 394.522 355.492 394.947 355.719C395.372 355.946 395.736 356.272 396.007 356.669C396.57 357.536 396.851 358.794 396.851 360.443ZM391.436 360.443C391.436 361.882 391.605 362.925 391.945 363.572C392.098 363.87 392.331 364.121 392.617 364.296C392.904 364.471 393.234 364.563 393.57 364.563C393.906 364.563 394.236 364.471 394.523 364.296C394.81 364.121 395.042 363.87 395.196 363.572C395.544 362.908 395.701 361.865 395.701 360.443C395.701 359.022 395.53 357.986 395.196 357.315C395.041 357.019 394.807 356.77 394.521 356.597C394.234 356.423 393.905 356.332 393.57 356.332C393.235 356.332 392.906 356.423 392.619 356.597C392.333 356.77 392.099 357.019 391.945 357.315C391.607 357.962 391.439 359.008 391.439 360.443H391.436ZM385.711 362.202V361.16H389.039V362.202H385.711ZM398.781 363.989C398.627 364.186 398.552 364.434 398.572 364.684C398.56 364.809 398.574 364.936 398.613 365.056C398.652 365.176 398.715 365.287 398.798 365.382C398.955 365.526 399.161 365.602 399.373 365.594C399.486 365.601 399.599 365.583 399.704 365.542C399.809 365.501 399.904 365.439 399.983 365.358C400.143 365.171 400.223 364.929 400.206 364.684C400.226 364.432 400.147 364.183 399.987 363.989C399.906 363.909 399.81 363.848 399.705 363.808C399.599 363.768 399.486 363.75 399.373 363.756C399.263 363.749 399.154 363.766 399.051 363.807C398.949 363.847 398.857 363.909 398.781 363.989ZM408.053 357.844C408.076 358.408 407.886 358.96 407.52 359.39C407.121 359.817 406.591 360.099 406.014 360.193V360.249C406.674 360.287 407.3 360.555 407.781 361.007C408.178 361.441 408.386 362.015 408.359 362.602C408.382 363.016 408.305 363.43 408.134 363.808C407.963 364.186 407.703 364.517 407.377 364.774C406.722 365.282 405.793 365.535 404.589 365.535C404.107 365.538 403.626 365.498 403.15 365.417C402.709 365.336 402.282 365.195 401.878 365V363.933C402.316 364.147 402.776 364.309 403.251 364.416C403.708 364.524 404.176 364.58 404.645 364.583C406.355 364.583 407.211 363.913 407.213 362.574C407.213 361.376 406.269 360.777 404.38 360.777H403.405V359.811H404.394C405.046 359.847 405.691 359.667 406.23 359.3C406.455 359.139 406.635 358.925 406.757 358.678C406.878 358.431 406.937 358.157 406.927 357.882C406.938 357.668 406.898 357.454 406.812 357.257C406.725 357.06 406.594 356.887 406.429 356.749C406.041 356.456 405.563 356.31 405.077 356.335C404.662 356.333 404.249 356.392 403.851 356.509C403.385 356.668 402.943 356.887 402.534 357.159L401.966 356.401C402.384 356.074 402.855 355.82 403.359 355.65C403.898 355.465 404.465 355.372 405.035 355.376C405.837 355.327 406.631 355.559 407.279 356.033C407.539 356.255 407.744 356.534 407.878 356.848C408.012 357.162 408.072 357.503 408.053 357.844ZM415.607 364.267C416.146 363.428 416.416 362.154 416.416 360.443C416.416 358.794 416.135 357.536 415.572 356.669C415.301 356.272 414.937 355.946 414.512 355.719C414.087 355.492 413.613 355.371 413.131 355.365C412.649 355.36 412.173 355.471 411.743 355.689C411.314 355.907 410.943 356.225 410.663 356.617C410.124 357.446 409.854 358.721 409.854 360.44C409.854 362.108 410.133 363.374 410.691 364.236C410.943 364.65 411.303 364.989 411.732 365.218C412.161 365.446 412.644 365.554 413.13 365.532C413.618 365.561 414.106 365.46 414.542 365.237C414.978 365.015 415.346 364.679 415.607 364.267ZM411.51 363.572C411.17 362.925 411.001 361.882 411.001 360.443C411.001 359.008 411.172 357.962 411.51 357.315C411.664 357.019 411.898 356.77 412.184 356.597C412.471 356.423 412.8 356.332 413.135 356.332C413.47 356.332 413.799 356.423 414.086 356.597C414.372 356.77 414.606 357.019 414.76 357.315C415.095 357.978 415.262 359.021 415.262 360.443C415.262 361.866 415.095 362.909 414.76 363.572C414.607 363.87 414.375 364.121 414.088 364.296C413.801 364.471 413.471 364.563 413.135 364.563C412.799 364.563 412.469 364.471 412.182 364.296C411.895 364.121 411.663 363.87 411.51 363.572Z" fill="#00FFFF" fill-opacity="0.7"/>
</g>
<g style="mix-blend-mode:screen">
<path fill-rule="evenodd" clip-rule="evenodd" d="M621.435 308.072C621.435 309.779 621.166 311.058 620.626 311.895C620.364 312.308 619.996 312.642 619.56 312.865C619.125 313.087 618.637 313.189 618.149 313.16C617.663 313.182 617.181 313.073 616.751 312.845C616.322 312.617 615.963 312.278 615.71 311.864C615.152 311.002 614.875 309.737 614.877 308.069C614.877 306.347 615.145 305.073 615.682 304.245C615.963 303.855 616.334 303.538 616.764 303.32C617.193 303.103 617.669 302.993 618.151 302.998C618.633 303.004 619.106 303.125 619.531 303.352C619.956 303.579 620.32 303.904 620.591 304.301C621.154 305.172 621.435 306.429 621.435 308.072ZM616.02 308.072C616.02 309.511 616.189 310.554 616.529 311.2C616.682 311.499 616.914 311.749 617.201 311.924C617.488 312.099 617.818 312.192 618.154 312.192C618.49 312.192 618.82 312.099 619.107 311.924C619.394 311.749 619.626 311.499 619.78 311.2C620.128 310.533 620.285 309.494 620.285 308.072C620.285 306.651 620.114 305.615 619.78 304.944C619.625 304.647 619.391 304.399 619.105 304.226C618.818 304.052 618.489 303.96 618.154 303.96C617.819 303.96 617.49 304.052 617.203 304.226C616.917 304.399 616.683 304.647 616.529 304.944C616.184 305.601 616.02 306.647 616.02 308.072ZM610.295 309.841V308.798H613.622V309.841H610.295ZM623.362 311.628C623.207 311.825 623.133 312.073 623.152 312.323C623.141 312.449 623.155 312.575 623.194 312.695C623.233 312.815 623.296 312.926 623.379 313.021C623.535 313.165 623.742 313.241 623.954 313.234C624.067 313.24 624.179 313.222 624.284 313.181C624.39 313.14 624.485 313.078 624.564 312.997C624.724 312.81 624.804 312.568 624.787 312.323C624.806 312.072 624.728 311.822 624.567 311.628C624.487 311.548 624.391 311.486 624.286 311.446C624.18 311.405 624.067 311.388 623.954 311.395C623.844 311.387 623.734 311.404 623.631 311.445C623.529 311.485 623.437 311.548 623.362 311.628ZM629.595 307.002C630.484 306.951 631.36 307.226 632.059 307.777C632.358 308.039 632.594 308.366 632.749 308.733C632.904 309.099 632.974 309.496 632.954 309.893C632.978 310.342 632.903 310.79 632.734 311.207C632.565 311.623 632.306 311.997 631.975 312.302C631.322 312.884 630.422 313.174 629.275 313.174C628.16 313.174 627.31 312.994 626.721 312.639V311.548C627.086 311.77 627.485 311.931 627.902 312.024C628.358 312.138 628.826 312.196 629.296 312.198C629.961 312.24 630.62 312.04 631.149 311.635C631.375 311.432 631.553 311.18 631.667 310.899C631.782 310.618 631.831 310.314 631.811 310.012C631.811 308.635 630.965 307.94 629.271 307.926C628.693 307.942 628.117 308.009 627.55 308.124L626.965 307.752L627.337 303.126H632.264V304.169H628.299L628.048 307.137C628.558 307.041 629.076 306.996 629.595 307.002ZM640.191 311.895C640.728 311.058 641 309.779 641 308.072C641 306.429 640.719 305.172 640.156 304.301C639.885 303.904 639.521 303.579 639.096 303.352C638.671 303.125 638.198 303.004 637.716 302.998C637.234 302.993 636.758 303.103 636.329 303.32C635.899 303.538 635.528 303.855 635.247 304.245C634.708 305.073 634.438 306.347 634.438 308.069C634.438 309.737 634.717 311.002 635.275 311.864C635.528 312.278 635.887 312.617 636.317 312.845C636.746 313.073 637.228 313.182 637.714 313.16C638.202 313.189 638.69 313.087 639.125 312.865C639.561 312.642 639.929 312.308 640.191 311.895ZM636.094 311.2C635.754 310.554 635.585 309.511 635.585 308.072C635.585 306.647 635.756 305.601 636.094 304.944C636.248 304.647 636.481 304.399 636.767 304.225C637.054 304.052 637.382 303.96 637.717 303.96C638.052 303.96 638.381 304.052 638.667 304.225C638.954 304.399 639.187 304.647 639.341 304.944C639.679 305.615 639.846 306.651 639.846 308.072C639.846 309.494 639.69 310.533 639.341 311.2C639.188 311.499 638.956 311.75 638.67 311.925C638.383 312.1 638.053 312.193 637.717 312.193C637.381 312.193 637.052 312.1 636.765 311.925C636.479 311.75 636.246 311.499 636.094 311.2Z" fill="#00FFFF" fill-opacity="0.3"/>
</g>
</g>
<g style="mix-blend-mode:screen" filter="url(#filter0_d_221_1998)">
<path d="M604.96 21.0005C605.138 21.0409 604.721 23.5682 603.765 28.361C603.544 29.5639 603.204 30.8855 602.851 32.35C602.498 33.8146 602.097 35.4139 601.672 37.1482C601.56 37.5797 601.462 38.0248 601.334 38.4698C601.207 38.9149 601.069 39.3707 600.944 39.8184L600.12 42.6854C599.544 44.6597 598.976 46.7797 598.227 48.9724C595.461 57.8298 591.504 68.4943 586.088 80.5073C580.672 92.5203 573.705 105.828 565.048 119.945L563.417 122.61C563.152 123.055 562.873 123.505 562.591 123.958L561.731 125.288C560.578 127.066 559.414 128.864 558.238 130.682L557.367 132.047C557.067 132.503 556.753 132.95 556.448 133.395C555.831 134.294 555.212 135.203 554.588 136.122L552.708 138.879C552.078 139.801 551.449 140.732 550.785 141.643C548.147 145.306 545.499 149.079 542.644 152.799L540.519 155.622L539.456 157.044L538.354 158.449L533.878 164.113C533.501 164.59 533.129 165.071 532.744 165.545L531.578 166.959L529.23 169.804C527.655 171.708 526.088 173.645 524.433 175.53L519.479 181.278C517.79 183.184 516.066 185.083 514.339 187.009C513.474 187.966 512.613 188.94 511.731 189.898C510.849 190.855 509.949 191.802 509.051 192.757L506.355 195.637C505.449 196.6 504.551 197.574 503.617 198.518L498.012 204.263C497.08 205.234 496.113 206.175 495.149 207.127L492.245 209.986L489.324 212.864C488.336 213.818 487.332 214.752 486.333 215.706L483.321 218.56L481.807 219.995L481.05 220.712L480.277 221.416L474.056 227.08C473.525 227.552 473.017 228.035 472.486 228.502L470.893 229.904L467.687 232.717C466.624 233.656 465.55 234.598 464.465 235.544L461.176 238.327L457.867 241.122C456.759 242.052 455.665 243.01 454.528 243.91L447.731 249.442C446.599 250.375 445.431 251.268 444.278 252.182L440.761 254.947C421.467 269.955 401.372 283.869 380.567 296.626C369.868 303.162 359.155 309.343 348.427 315.169C337.681 320.939 326.974 326.369 316.309 331.459C294.964 341.536 273.917 350.258 253.496 357.5L249.682 358.849C248.412 359.294 247.156 359.763 245.883 360.176L238.329 362.708C237.076 363.124 235.835 363.558 234.587 363.949L230.85 365.125L223.455 367.447L216.129 369.605C213.704 370.312 211.306 371.042 208.899 371.676C204.099 372.974 199.39 374.314 194.712 375.452C176.058 380.197 158.48 383.776 142.344 386.43C126.207 389.084 111.508 390.818 98.5805 391.978L89.2149 392.722C87.7115 392.854 86.2347 392.922 84.7871 393.008L80.5372 393.248C74.9911 393.607 69.9125 393.709 65.3466 393.857C64.2071 393.89 63.0968 393.933 62.0211 393.949L58.8868 393.971L53.2132 393.992C49.6991 394.03 46.7242 393.92 44.323 393.847C39.518 393.69 36.9973 393.52 37 393.337C37.0027 393.154 39.5234 392.962 44.3177 392.771C46.7083 392.671 49.6779 392.609 53.1814 392.406L58.831 392.137L61.952 391.994C63.0145 391.94 64.1274 391.854 65.2643 391.783C69.8036 391.473 74.8557 391.217 80.3699 390.705L84.5958 390.354C86.0328 390.233 87.5017 390.127 88.9944 389.96L98.291 389.005C111.131 387.565 125.713 385.583 141.717 382.705C157.72 379.827 175.142 376.059 193.629 371.161C198.261 369.988 202.925 368.61 207.685 367.28C210.076 366.627 212.445 365.88 214.857 365.16L222.116 362.959L229.442 360.594L233.142 359.402C234.38 359 235.609 358.56 236.861 358.142L244.346 355.574C245.605 355.156 246.85 354.682 248.107 354.226L251.886 352.853C272.118 345.536 292.975 336.778 314.134 326.712C324.696 321.642 335.311 316.228 345.978 310.47C356.603 304.673 367.234 298.531 377.871 292.043C398.514 279.387 418.471 265.611 437.656 250.777L441.109 248.08C442.262 247.177 443.423 246.297 444.562 245.383L451.325 239.921C452.453 239.026 453.543 238.087 454.645 237.17L457.938 234.411L461.211 231.663L464.401 228.874L467.588 226.099L469.182 224.718C469.713 224.256 470.226 223.782 470.746 223.315L476.943 217.724L477.711 217.028L478.468 216.321L479.974 214.908L482.978 212.095C483.974 211.159 484.976 210.234 485.958 209.295L488.88 206.461L491.778 203.642C492.74 202.706 493.704 201.779 494.636 200.821L500.214 195.157C501.149 194.229 502.047 193.269 502.947 192.322C503.848 191.376 504.748 190.434 505.643 189.488L508.321 186.675C509.202 185.731 510.06 184.773 510.926 183.832C512.653 181.944 514.379 180.056 516.069 178.192L521.025 172.528C522.68 170.675 524.252 168.771 525.827 166.899L528.181 164.102L529.349 162.711C529.737 162.247 530.109 161.772 530.489 161.305L534.978 155.73L536.085 154.349L537.148 152.952L539.273 150.177C542.144 146.522 544.806 142.819 547.462 139.221C548.134 138.326 548.766 137.411 549.401 136.505L551.297 133.808C551.926 132.909 552.551 132.017 553.173 131.133C553.483 130.688 553.799 130.248 554.1 129.8L554.995 128.452L558.525 123.154L559.396 121.849C559.68 121.412 559.954 120.97 560.233 120.533L561.885 117.919C570.65 104.064 577.822 91.018 583.4 79.2262C588.234 69.1598 592.527 58.8344 596.258 48.2955C597.076 46.1378 597.717 44.0637 598.365 42.1272C598.687 41.158 598.999 40.2202 599.3 39.314C599.451 38.8609 599.6 38.4186 599.743 37.9816C599.887 37.5447 600.009 37.1077 600.139 36.6843C600.649 34.9815 601.12 33.4136 601.552 31.9805C601.985 30.5456 602.405 29.251 602.705 28.0751C604.02 23.4117 604.782 20.96 604.96 21.0005Z" fill="url(#paint3_linear_221_1998)" style="mix-blend-mode:screen" shape-rendering="crispEdges"/>
</g>
<defs>
<filter id="filter0_d_221_1998" x="7" y="1" width="628" height="433" filterUnits="userSpaceOnUse" color-interpolation-filters="sRGB">
<feFlood flood-opacity="0" result="BackgroundImageFix"/>
<feColorMatrix in="SourceAlpha" type="matrix" values="0 0 0 0 0 0 0 0 0 0 0 0 0 0 0 0 0 0 127 0" result="hardAlpha"/>
<feOffset dy="10"/>
<feGaussianBlur stdDeviation="15"/>
<feComposite in2="hardAlpha" operator="out"/>
<feColorMatrix type="matrix" values="0 0 0 0 0.0117647 0 0 0 0 0.0117647 0 0 0 0 0.109804 0 0 0 1 0"/>
<feBlend mode="normal" in2="BackgroundImageFix" result="effect1_dropShadow_221_1998"/>
<feBlend mode="normal" in="SourceGraphic" in2="effect1_dropShadow_221_1998" result="shape"/>
</filter>
<linearGradient id="paint0_linear_221_1998" x1="318.566" y1="433" x2="318.566" y2="-19.9998" gradientUnits="userSpaceOnUse">
<stop stop-color="#00FFFF" stop-opacity="0"/>
<stop offset="1" stop-color="#00FFFF"/>
</linearGradient>
<radialGradient id="paint1_radial_221_1998" cx="0" cy="0" r="1" gradientUnits="userSpaceOnUse" gradientTransform="translate(604.97 22.0552) rotate(132.9) scale(11)">
<stop stop-color="#00FFFF"/>
<stop offset="1" stop-color="#231F20"/>
</radialGradient>
<linearGradient id="paint2_linear_221_1998" x1="626" y1="241" x2="191" y2="321" gradientUnits="userSpaceOnUse">
<stop stop-color="#00FFFF" stop-opacity="0"/>
<stop offset="1" stop-color="#00FFFF"/>
</linearGradient>
<linearGradient id="paint3_linear_221_1998" x1="627.781" y1="21.0005" x2="94.873" y2="404.494" gradientUnits="userSpaceOnUse">
<stop stop-color="#00FFFF" stop-opacity="0"/>
<stop offset="1" stop-color="#00FFFF"/>
</linearGradient>
</defs>
</svg>
