<svg width="15" height="14" viewBox="0 0 15 14" fill="none" xmlns="http://www.w3.org/2000/svg">
<path d="M0.462535 14H3.37504V5.1994H0.462535V14ZM10.7036 4.99962C10.2175 5.01637 9.74238 5.14918 9.31802 5.38696C8.89366 5.62475 8.53235 5.96061 8.26426 6.3665V5.1994H5.33073V14H8.26426V8.81637C8.24706 8.61331 8.2722 8.4089 8.3381 8.21606C8.40399 8.02322 8.50921 7.84617 8.64709 7.69611C8.78498 7.54605 8.95251 7.42626 9.1391 7.34431C9.32568 7.26236 9.52724 7.22005 9.73103 7.22005C9.93481 7.22005 10.1364 7.26236 10.323 7.34431C10.5095 7.42626 10.6771 7.54605 10.815 7.69611C10.9528 7.84617 11.0581 8.02322 11.124 8.21606C11.1899 8.4089 11.215 8.61331 11.1978 8.81637V14H14.1313V8.42734C14.1313 7.51825 13.7702 6.6464 13.1274 6.00358C12.4846 5.36076 11.6127 4.99962 10.7036 4.99962ZM1.91353 0.00525737C1.66939 -0.0135642 1.424 0.0182746 1.19275 0.0987756C0.961501 0.179277 0.749385 0.306703 0.569711 0.473058C0.390037 0.639414 0.246683 0.841108 0.148645 1.06549C0.0506065 1.28986 0 1.53208 0 1.77694C0 2.0218 0.0506065 2.26402 0.148645 2.4884C0.246683 2.71278 0.390037 2.91447 0.569711 3.08083C0.749385 3.24718 0.961501 3.37461 1.19275 3.45511C1.424 3.53561 1.66939 3.56745 1.91353 3.54863C2.35984 3.51422 2.77671 3.31264 3.08083 2.98418C3.38494 2.65571 3.55389 2.22457 3.55389 1.77694C3.55389 1.32931 3.38494 0.898173 3.08083 0.569711C2.77671 0.241249 2.35984 0.039665 1.91353 0.00525737Z" fill="white"/>
</svg>
