<svg width="1440" height="353" viewBox="0 0 1440 353" fill="none" xmlns="http://www.w3.org/2000/svg">
<g filter="url(#filter0_d_499_284)">
<path d="M-1 102.649L14.6 124.158C29 145.668 59 188.686 89 203.026C119 217.365 149 203.026 179 210.196C209 217.365 239 246.044 269 274.724C299 303.403 329 332.082 359 289.063C389 246.044 419 131.328 449 95.4794C479 59.6306 509 102.649 539 95.4794C569 88.3097 599 30.9515 629 23.7818C659 16.612 689 59.6306 719 116.989C749 174.347 779 246.044 809 260.384C839 274.724 869 231.705 899 195.856C929 160.007 959 131.328 989 131.328C1019 131.328 1049 160.007 1079 203.026C1109 246.044 1139 303.403 1169 274.724C1199 246.044 1229 131.328 1259 109.819C1289 88.3097 1319 160.007 1349 181.517C1379 203.026 1409 174.347 1424.6 160.007L1439 145.668" stroke="url(#paint0_linear_499_284)" stroke-width="4" stroke-linecap="round" shape-rendering="crispEdges"/>
</g>
<defs>
<filter id="filter0_d_499_284" x="-33.0001" y="0.996582" width="1504" height="352.003" filterUnits="userSpaceOnUse" color-interpolation-filters="sRGB">
<feFlood flood-opacity="0" result="BackgroundImageFix"/>
<feColorMatrix in="SourceAlpha" type="matrix" values="0 0 0 0 0 0 0 0 0 0 0 0 0 0 0 0 0 0 127 0" result="hardAlpha"/>
<feOffset dy="10"/>
<feGaussianBlur stdDeviation="15"/>
<feComposite in2="hardAlpha" operator="out"/>
<feColorMatrix type="matrix" values="0 0 0 0 0.0117647 0 0 0 0 0.0117647 0 0 0 0 0.109804 0 0 0 1 0"/>
<feBlend mode="normal" in2="BackgroundImageFix" result="effect1_dropShadow_499_284"/>
<feBlend mode="normal" in="SourceGraphic" in2="effect1_dropShadow_499_284" result="shape"/>
</filter>
<linearGradient id="paint0_linear_499_284" x1="1439" y1="-73.2887" x2="28.291" y2="307.563" gradientUnits="userSpaceOnUse">
<stop stop-color="#00FFFF" stop-opacity="0"/>
<stop offset="0.309173" stop-color="#00FFFF"/>
<stop offset="1" stop-color="#00FFFF" stop-opacity="0"/>
</linearGradient>
</defs>
</svg>
