<svg width="1440" height="828" viewBox="0 0 1440 828" fill="none" xmlns="http://www.w3.org/2000/svg">
<path fill-rule="evenodd" clip-rule="evenodd" d="M0 101.936L15.6 123.253C30 144.569 60 187.202 90 201.414C120 215.625 150 201.414 180 208.519C210 215.625 240 244.047 270 272.469C300 300.891 330 329.314 360 286.68C390 244.047 420 130.358 450 94.8303C480 59.3025 510 101.936 540 94.8303C570 87.7248 600 30.8803 630 23.7748C660 16.6692 690 59.3025 720 116.147C750 172.991 780 244.047 810 258.258C840 272.469 870 229.836 900 194.308C930 158.78 960 130.358 990 130.358C1020 130.358 1050 158.78 1080 201.414C1110 244.047 1140 300.891 1170 272.469C1200 244.047 1230 130.358 1260 109.041C1290 87.7247 1320 158.78 1350 180.097C1380 201.414 1410 172.991 1425.6 158.78L1440 144.569V828C960 828 480 828 0 828V101.936Z" fill="url(#paint0_linear_638_27)"/>
<g filter="url(#filter0_d_638_27)">
<path d="M0 102.649L15.6 124.158C30 145.668 60 188.686 90 203.026C120 217.365 150 203.026 180 210.196C210 217.365 240 246.044 270 274.724C300 303.403 330 332.082 360 289.063C390 246.044 420 131.328 450 95.4794C480 59.6306 510 102.649 540 95.4794C570 88.3097 600 30.9515 630 23.7818C660 16.612 690 59.6306 720 116.989C750 174.347 780 246.044 810 260.384C840 274.724 870 231.705 900 195.856C930 160.007 960 131.328 990 131.328C1020 131.328 1050 160.007 1080 203.026C1110 246.044 1140 303.403 1170 274.724C1200 246.044 1230 131.328 1260 109.819C1290 88.3097 1320 160.007 1350 181.517C1380 203.026 1410 174.347 1425.6 160.007L1440 145.668" stroke="url(#paint1_linear_638_27)" stroke-width="4" stroke-linecap="round" shape-rendering="crispEdges"/>
</g>
<defs>
<filter id="filter0_d_638_27" x="-32.0001" y="0.996582" width="1504" height="352.003" filterUnits="userSpaceOnUse" color-interpolation-filters="sRGB">
<feFlood flood-opacity="0" result="BackgroundImageFix"/>
<feColorMatrix in="SourceAlpha" type="matrix" values="0 0 0 0 0 0 0 0 0 0 0 0 0 0 0 0 0 0 127 0" result="hardAlpha"/>
<feOffset dy="10"/>
<feGaussianBlur stdDeviation="15"/>
<feComposite in2="hardAlpha" operator="out"/>
<feColorMatrix type="matrix" values="0 0 0 0 0.0117647 0 0 0 0 0.0117647 0 0 0 0 0.109804 0 0 0 1 0"/>
<feBlend mode="normal" in2="BackgroundImageFix" result="effect1_dropShadow_638_27"/>
<feBlend mode="normal" in="SourceGraphic" in2="effect1_dropShadow_638_27" result="shape"/>
</filter>
<linearGradient id="paint0_linear_638_27" x1="598.812" y1="-547.297" x2="1329.5" y2="671.713" gradientUnits="userSpaceOnUse">
<stop stop-color="#051033" stop-opacity="0.75"/>
<stop offset="0.798095" stop-color="#00FFFF" stop-opacity="0"/>
</linearGradient>
<linearGradient id="paint1_linear_638_27" x1="1440" y1="-73.2887" x2="29.291" y2="307.563" gradientUnits="userSpaceOnUse">
<stop stop-color="#00FFFF" stop-opacity="0"/>
<stop offset="0.309173" stop-color="#00FFFF"/>
<stop offset="1" stop-color="#00FFFF" stop-opacity="0"/>
</linearGradient>
</defs>
</svg>
