<svg width="123" height="18" viewBox="0 0 123 18" fill="none" xmlns="http://www.w3.org/2000/svg">
<path fill-rule="evenodd" clip-rule="evenodd" d="M120.666 3.34027C119.109 1.78006 117.25 0.999956 115.088 0.999956V0.998779C114.037 0.99876 112.996 1.20595 112.025 1.60843C111.054 2.01091 110.173 2.60073 109.431 3.34396C108.69 4.0872 108.104 4.96917 107.706 5.93914C107.308 6.90911 107.106 7.94793 107.112 8.99584C107.114 11.1715 107.873 13.0496 109.39 14.6302C110.907 16.2108 112.813 17.0011 115.108 17.0011C117.298 17.0003 119.161 16.2304 120.697 14.6914C122.232 13.1524 123 11.2707 123 9.04641C123.001 6.80253 122.223 4.90048 120.666 3.34027ZM111.488 5.30778C112.451 4.32775 113.64 3.83774 115.056 3.83774C115.723 3.82704 116.386 3.95566 117 4.21532C117.614 4.47498 118.167 4.85993 118.623 5.34542C119.601 6.34427 120.09 7.57166 120.09 9.02759C120.09 10.4835 119.605 11.709 118.634 12.7039C118.183 13.1833 117.636 13.5636 117.029 13.8203C116.422 14.0771 115.768 14.2048 115.108 14.1951C113.924 14.2079 112.773 13.8002 111.863 13.0449C110.649 12.0649 110.042 10.7321 110.042 9.04641C110.043 7.53402 110.525 6.28782 111.488 5.30778ZM103.565 3.86837L101.515 5.88763C100.218 4.52107 98.7069 3.83779 96.9817 3.83779C95.4761 3.83779 94.2174 4.33487 93.2057 5.32901C92.714 5.79526 92.3248 6.35813 92.0625 6.98202C91.8003 7.60591 91.6709 8.27724 91.6824 8.95356C91.67 9.65214 91.8042 10.3456 92.0765 10.9894C92.3488 11.6332 92.7532 12.2132 93.2635 12.6922C94.3169 13.7114 95.6149 14.221 97.1576 14.221C98.1629 14.221 99.0109 14.0105 99.7016 13.5895C100.392 13.1685 100.949 12.5091 101.371 11.6114H96.9452V8.89123H104.634L104.655 9.53335C104.655 10.8668 104.296 12.1758 103.616 13.3237C102.982 14.4594 102.052 15.4039 100.925 16.058C99.824 16.6852 98.5319 16.9988 97.049 16.9988C95.4631 16.9988 94.0471 16.6554 92.801 15.9686C91.5604 15.2837 90.5382 14.2649 89.851 13.0285C89.132 11.7777 88.7575 10.3598 88.7654 8.91828C88.7383 6.97397 89.4556 5.09243 90.7714 3.65668C92.3605 1.88557 94.4255 1.00001 96.9664 1.00001C98.2468 0.990582 99.5159 1.24065 100.696 1.73504C101.673 2.15057 102.63 2.86168 103.565 3.86837ZM12.3928 1.3833H15.3015V13.8493H19.5413V16.6142H12.3928V1.3833ZM0 16.6166V1.38335H2.40366C3.79685 1.38335 4.81637 1.47312 5.46222 1.65266C6.31656 1.8559 7.08247 2.32808 7.6464 2.99922C8.18635 3.65077 8.47434 4.47348 8.45824 5.31837C8.46532 5.86689 8.33857 6.40891 8.0889 6.89779C7.7935 7.42556 7.383 7.8805 6.88766 8.22906C7.81671 8.6642 8.49561 9.20792 8.92434 9.86023C9.36519 10.5507 9.5895 11.3565 9.56862 12.1747C9.5767 13.0023 9.34567 13.8147 8.9031 14.515C8.48986 15.1904 7.89565 15.7374 7.18738 16.0944C6.48646 16.4425 5.51886 16.6166 4.28458 16.6166H0ZM2.90988 4.15056V7.36115H3.5459C4.2539 7.36115 4.78057 7.21257 5.12592 6.91543C5.29775 6.76512 5.43343 6.57819 5.5229 6.36849C5.61237 6.1588 5.65334 5.93173 5.64276 5.70411C5.65198 5.49048 5.61261 5.27755 5.5276 5.08123C5.4426 4.8849 5.31415 4.71028 5.15188 4.57041C4.82856 4.28502 4.33139 4.14429 3.66036 4.14821L2.90988 4.15056ZM2.90988 9.94961V13.8541H3.63912C4.84744 13.8541 5.66164 13.7023 6.08172 13.3989C6.5018 13.0955 6.71223 12.6537 6.71302 12.0735C6.72451 11.7743 6.66323 11.4768 6.5344 11.2063C6.40557 10.9358 6.21302 10.7003 5.97316 10.52C5.47992 10.1397 4.66021 9.94961 3.51404 9.94961H2.90988ZM82.9508 1.3833H80.0457V16.6142H87.1988V13.8493H82.9508V1.3833ZM55.1225 8.18198L60.4596 1.3833H56.9668L52.8168 6.63431V1.3833H49.8762V9.84842H52.8168L57.5297 16.6165H60.9788L55.1225 8.18198ZM45.253 14.2127C46.0496 14.2231 46.8392 14.0626 47.5682 13.7422C48.2667 13.4286 49.0353 12.8571 49.8739 12.0276L51.8468 14.0786C50.7164 15.1762 49.6493 15.9375 48.6455 16.3625C47.6417 16.7874 46.4955 16.9999 45.207 16.9999C42.8305 16.9999 40.8854 16.2492 39.3719 14.7478C37.8583 13.2463 37.1016 11.322 37.1016 8.97458C37.1016 7.45514 37.4461 6.10505 38.1352 4.92431C38.8449 3.72494 39.8688 2.7407 41.097 2.07712C42.363 1.36376 43.794 0.992412 45.2483 0.999866V3.80589H45.2011C43.7402 3.80668 42.5099 4.30453 41.51 5.29946C40.5102 6.29439 40.0103 7.521 40.0103 8.97929C39.9922 9.92313 40.2211 10.8554 40.6746 11.6842C41.1123 12.4672 41.7636 13.1107 42.5532 13.54C43.3799 13.9924 44.3099 14.2241 45.253 14.2127ZM30.765 1.3833H27.8138L21.9197 16.6165L32.0523 12.5474H26.5299L27.2698 10.6517H27.2568L29.3077 5.42182L31.3467 10.6517H31.3219L32.4122 13.4789H32.424L33.6206 16.6165H36.6437L30.765 1.3833ZM69.2357 1.3833H72.1857L78.0644 16.6165H75.0413L73.8447 13.4789H73.8329L72.7426 10.6517H72.7674L70.7283 5.42182L68.6787 10.6517H68.6905L67.9506 12.5474H73.473L63.3416 16.6165L69.2357 1.3833Z" fill="white"/>
</svg>
