<svg width="80" height="42" viewBox="0 0 80 42" fill="none" xmlns="http://www.w3.org/2000/svg">
<path d="M8.34916 23.456C6.76516 23.456 5.42116 23.208 4.31716 22.712C3.22916 22.216 2.40516 21.528 1.84516 20.648C1.30116 19.768 1.02916 18.76 1.02916 17.624H4.84516C4.84516 18.296 5.11716 18.888 5.66116 19.4C6.22116 19.896 7.11716 20.144 8.34916 20.144C9.43716 20.144 10.2692 19.936 10.8452 19.52C11.4212 19.088 11.7092 18.536 11.7092 17.864C11.7092 17.304 11.4692 16.864 10.9892 16.544C10.5092 16.208 9.73316 15.992 8.66116 15.896L7.34116 15.776C5.59716 15.632 4.20516 15.096 3.16516 14.168C2.12516 13.224 1.60516 11.968 1.60516 10.4C1.60516 9.28 1.86916 8.312 2.39716 7.496C2.94116 6.68 3.69316 6.056 4.65316 5.624C5.61316 5.176 6.74916 4.952 8.06116 4.952C9.43716 4.952 10.6132 5.192 11.5892 5.672C12.5812 6.152 13.3412 6.824 13.8692 7.688C14.3972 8.536 14.6612 9.528 14.6612 10.664H10.8212C10.8212 10.024 10.5892 9.464 10.1252 8.984C9.66116 8.504 8.97316 8.264 8.06116 8.264C7.18116 8.264 6.52516 8.48 6.09316 8.912C5.66116 9.328 5.44516 9.824 5.44516 10.4C5.44516 10.896 5.61316 11.328 5.94916 11.696C6.30116 12.064 6.88516 12.28 7.70116 12.344L9.04516 12.464C10.3252 12.576 11.4532 12.856 12.4292 13.304C13.4052 13.736 14.1652 14.336 14.7092 15.104C15.2692 15.856 15.5492 16.776 15.5492 17.864C15.5492 18.984 15.2532 19.968 14.6612 20.816C14.0852 21.648 13.2612 22.296 12.1892 22.76C11.1172 23.224 9.83716 23.456 8.34916 23.456ZM21.2253 23V8.912H16.3053V5.48H30.1053V8.912H25.1613V23H21.2253ZM29.355 23L35.139 5.48H41.499L47.499 23H43.419L42.003 18.656H34.683L33.291 23H29.355ZM35.715 15.392H40.923L38.739 8.696H37.851L35.715 15.392ZM49.7844 23V5.336H56.6724C58.8644 5.336 60.6004 5.832 61.8804 6.824C63.1604 7.8 63.8004 9.264 63.8004 11.216V11.6C63.8004 12.88 63.5044 13.952 62.9124 14.816C62.3364 15.664 61.5284 16.304 60.4884 16.736L64.9764 23H60.4164L56.5764 17.384H53.7204V23H49.7844ZM56.9844 8.672H53.7204V14.288H56.9844C57.8324 14.288 58.5124 14.032 59.0244 13.52C59.5524 13.008 59.8164 12.328 59.8164 11.48C59.8164 10.648 59.5524 9.976 59.0244 9.464C58.5124 8.936 57.8324 8.672 56.9844 8.672ZM70.3269 23V8.912H65.4069V5.48H79.2069V8.912H74.2629V23H70.3269Z" fill="#00FFFF"/>
<path d="M1 41L40 33L79 41" stroke="#00FFFF" stroke-width="2"/>
</svg>
