<svg width="18" height="21" viewBox="0 0 18 21" fill="none" xmlns="http://www.w3.org/2000/svg">
<path d="M7.58604 1.21628L2.94418 2.95581C1.87442 3.35581 1 4.62092 1 5.76511V12.6767C1 13.7744 1.72559 15.2163 2.60931 15.8767L6.60931 18.8628C7.92094 19.8489 10.0791 19.8489 11.3907 18.8628L15.3907 15.8767C16.2744 15.2163 17 13.7744 17 12.6767V5.76511C17 4.62092 16.1256 3.35581 15.0558 2.95581L10.414 1.21628C9.62326 0.927907 8.35813 0.927907 7.58604 1.21628Z" stroke="white" stroke-width="1.5" stroke-linecap="round" stroke-linejoin="round"/>
<path d="M8.99088 9.29983C8.95367 9.29983 8.90716 9.29983 8.86995 9.29983C7.99553 9.27192 7.29785 8.54633 7.29785 7.66261C7.29785 6.76028 8.03275 6.02539 8.93507 6.02539C9.8374 6.02539 10.5723 6.76028 10.5723 7.66261C10.563 8.55563 9.8653 9.27192 8.99088 9.29983Z" stroke="white" stroke-width="1.5" stroke-linecap="round" stroke-linejoin="round"/>
<path d="M7.13949 11.9044C6.24647 12.4998 6.24647 13.4765 7.13949 14.0719C8.15345 14.7509 9.81857 14.7509 10.8325 14.0719C11.7255 13.4765 11.7255 12.4998 10.8325 11.9044C9.82787 11.2254 8.16275 11.2254 7.13949 11.9044Z" stroke="white" stroke-width="1.5" stroke-linecap="round" stroke-linejoin="round"/>
</svg>
