<svg width="759" height="310" viewBox="0 0 759 310" fill="none" xmlns="http://www.w3.org/2000/svg">
<g opacity="0.1">
<path d="M746.819 42.8757H745.476V79.3859H746.819V42.8757Z" fill="white"/>
<path d="M725.69 32.3384H724.348V65.7004H725.69V32.3384Z" fill="white"/>
<path d="M704.567 32.3096H703.224V78.8883H704.567V32.3096Z" fill="white"/>
<path d="M683.439 52.5369H682.096V119.889H683.439V52.5369Z" fill="white"/>
<path d="M662.311 41.9949H660.968V108.405H662.311V41.9949Z" fill="white"/>
<path d="M641.184 40.2537H639.841V130.267H641.184V40.2537Z" fill="white"/>
<path d="M620.06 91.3342H618.717V161.202H620.06V91.3342Z" fill="white"/>
<path d="M598.932 114.212H597.589V173.343H598.932V114.212Z" fill="white"/>
<path d="M577.805 130.23H576.462V175.239H577.805V130.23Z" fill="white"/>
<path d="M556.676 131.629H555.333V192.057H556.676V131.629Z" fill="white"/>
<path d="M535.552 80.1365H534.209V211.692H535.552V80.1365Z" fill="white"/>
<path d="M514.425 107.165H513.083V177.033H514.425V107.165Z" fill="white"/>
<path d="M493.297 138.77H491.954V188.24H493.297V138.77Z" fill="white"/>
<path d="M472.169 148.45H470.827V206.48H472.169V148.45Z" fill="white"/>
<path d="M451.046 125.198H449.703V261.554H451.046V125.198Z" fill="white"/>
<path d="M429.918 148.185H428.575V213.649H429.918V148.185Z" fill="white"/>
<path d="M408.79 156.774H407.447V244.662H408.79V156.774Z" fill="white"/>
<path d="M387.662 162.047H386.319V265.081H387.662V162.047Z" fill="white"/>
<path d="M366.538 144.883H365.195V251.025H366.538V144.883Z" fill="white"/>
<path d="M345.41 88.5776H344.067V211.517H345.41V88.5776Z" fill="white"/>
<path d="M324.283 121.85H322.94V237.983H324.283V121.85Z" fill="white"/>
<path d="M303.155 163.278H301.812V268.082H303.155V163.278Z" fill="white"/>
<path d="M282.031 221.255H280.688V279.558H282.031V221.255Z" fill="white"/>
<path d="M260.903 95.0166H259.561V292.134H260.903V95.0166Z" fill="white"/>
<path d="M239.775 10.9819H238.432V228.775H239.775V10.9819Z" fill="white"/>
<path d="M218.648 67.5679H217.305V114.775H218.648V67.5679Z" fill="white"/>
<path d="M197.524 58.927H196.181V157.753H197.524V58.927Z" fill="white"/>
<path d="M176.396 42.9331H175.053V153.72H176.396V42.9331Z" fill="white"/>
<path d="M155.269 43.5037H153.926V91.3425H155.269V43.5037Z" fill="white"/>
<path d="M134.14 56.3821H132.797V135.695H134.14V56.3821Z" fill="white"/>
<path d="M113.016 96.75H111.673V143.961H113.016V96.75Z" fill="white"/>
<path d="M91.8893 60.9778H90.5464V144.067H91.8893V60.9778Z" fill="white"/>
<path d="M70.7608 85.2827H69.418V156.097H70.7608V85.2827Z" fill="white"/>
<path d="M49.6329 89.3118H48.29V186.877H49.6329V89.3118Z" fill="white"/>
<path d="M28.5094 153.136H27.1665V180.516H28.5094V153.136Z" fill="white"/>
<path d="M7.38144 130.609H6.03857V211.337H7.38144V130.609Z" fill="white"/>
<path d="M752.857 55.5989H739.437V66.6624H752.857V55.5989Z" fill="white"/>
<path d="M731.73 43.9604H718.309V54.0698H731.73V43.9604Z" fill="white"/>
<path d="M710.606 48.5403H697.186V62.6542H710.606V48.5403Z" fill="white"/>
<path d="M689.478 76.0098H676.058V96.4201H689.478V76.0098Z" fill="white"/>
<path d="M668.349 65.1335H654.929V85.2584H668.349V65.1335Z" fill="white"/>
<path d="M647.226 71.6216H633.806V98.8992H647.226V71.6216Z" fill="white"/>
<path d="M626.099 115.684H612.678V136.857H626.099V115.684Z" fill="white"/>
<path d="M604.97 134.818H591.55V152.737H604.97V134.818Z" fill="white"/>
<path d="M583.843 145.914H570.423V159.551H583.843V145.914Z" fill="white"/>
<path d="M562.719 152.688H549.299V170.998H562.719V152.688Z" fill="white"/>
<path d="M541.591 125.985H528.171V165.852H541.591V125.985Z" fill="white"/>
<path d="M520.464 131.515H507.043V152.688H520.464V131.515Z" fill="white"/>
<path d="M499.336 156.007H485.915V170.998H499.336V156.007Z" fill="white"/>
<path d="M478.212 168.674H464.791V186.258H478.212V168.674Z" fill="white"/>
<path d="M457.084 172.715H443.663V214.037H457.084V172.715Z" fill="white"/>
<path d="M435.956 170.998H422.536V190.833H435.956V170.998Z" fill="white"/>
<path d="M414.828 187.403H401.408V214.037H414.828V187.403Z" fill="white"/>
<path d="M393.705 197.953H380.284V229.174H393.705V197.953Z" fill="white"/>
<path d="M372.577 181.87H359.156V214.033H372.577V181.87Z" fill="white"/>
<path d="M351.449 131.417H338.029V168.674H351.449V131.417Z" fill="white"/>
<path d="M330.321 162.32H316.901V197.513H330.321V162.32Z" fill="white"/>
<path d="M309.193 199.801H295.772V231.56H309.193V199.801Z" fill="white"/>
<path d="M288.07 241.575H274.649V259.245H288.07V241.575Z" fill="white"/>
<path d="M266.942 158.743H253.521V228.411H266.942V158.743Z" fill="white"/>
<path d="M245.814 86.8813H232.393V152.879H245.814V86.8813Z" fill="white"/>
<path d="M224.687 84.0183H211.266V98.3239H224.687V84.0183Z" fill="white"/>
<path d="M203.563 93.3652H190.143V123.31H203.563V93.3652Z" fill="white"/>
<path d="M182.434 81.5391H169.014V115.109H182.434V81.5391Z" fill="white"/>
<path d="M161.308 60.1746H147.887V74.6718H161.308V60.1746Z" fill="white"/>
<path d="M140.184 84.0183H126.763V108.054H140.184V84.0183Z" fill="white"/>
<path d="M119.055 113.205H105.635V127.51H119.055V113.205Z" fill="white"/>
<path d="M97.9274 89.9316H84.5068V115.109H97.9274V89.9316Z" fill="white"/>
<path d="M76.7999 109.963H63.3794V131.421H76.7999V109.963Z" fill="white"/>
<path d="M55.6764 123.314H42.2559V152.88H55.6764V123.314Z" fill="white"/>
<path d="M34.5485 162.678H21.1279V170.977H34.5485V162.678Z" fill="white"/>
<path d="M13.4206 158.743H0V183.207H13.4206V158.743Z" fill="white"/>
</g>
</svg>
